G04*
G04 #@! TF.GenerationSoftware,Altium Limited,Altium Designer,25.5.2 (35)*
G04*
G04 Layer_Color=8388736*
%FSLAX25Y25*%
%MOIN*%
G70*
G04*
G04 #@! TF.SameCoordinates,EC32A686-E373-4CB4-AF31-63D9CFDA87CC*
G04*
G04*
G04 #@! TF.FilePolarity,Negative*
G04*
G01*
G75*
%ADD20C,0.07099*%
G04:AMPARAMS|DCode=21|XSize=70.99mil|YSize=70.99mil|CornerRadius=19.75mil|HoleSize=0mil|Usage=FLASHONLY|Rotation=270.000|XOffset=0mil|YOffset=0mil|HoleType=Round|Shape=RoundedRectangle|*
%AMROUNDEDRECTD21*
21,1,0.07099,0.03150,0,0,270.0*
21,1,0.03150,0.07099,0,0,270.0*
1,1,0.03950,-0.01575,-0.01575*
1,1,0.03950,-0.01575,0.01575*
1,1,0.03950,0.01575,0.01575*
1,1,0.03950,0.01575,-0.01575*
%
%ADD21ROUNDEDRECTD21*%
%ADD22C,0.06706*%
%ADD23C,0.06000*%
%ADD24C,0.05800*%
%ADD25C,0.24800*%
D20*
X154500Y222500D02*
D03*
X164500Y232500D02*
D03*
X154500Y252500D02*
D03*
X164500Y242500D02*
D03*
Y202500D02*
D03*
Y212500D02*
D03*
Y222500D02*
D03*
X154500Y202500D02*
D03*
X164500Y252500D02*
D03*
X154500Y212500D02*
D03*
Y232500D02*
D03*
Y242500D02*
D03*
X164500Y272500D02*
D03*
X154500Y262500D02*
D03*
X164500D02*
D03*
X154500Y182500D02*
D03*
X164500D02*
D03*
Y192500D02*
D03*
X154500D02*
D03*
X788000Y507500D02*
D03*
X778000D02*
D03*
X788000Y497500D02*
D03*
X778000D02*
D03*
Y427500D02*
D03*
X788000D02*
D03*
X778000Y417500D02*
D03*
Y437500D02*
D03*
Y447500D02*
D03*
Y467500D02*
D03*
Y457500D02*
D03*
Y487500D02*
D03*
X788000D02*
D03*
Y437500D02*
D03*
Y447500D02*
D03*
Y457500D02*
D03*
Y467500D02*
D03*
Y477500D02*
D03*
X778000D02*
D03*
D21*
X154500Y272500D02*
D03*
X788000Y417500D02*
D03*
D22*
X376500Y429500D02*
D03*
Y419500D02*
D03*
X353500Y429500D02*
D03*
Y419500D02*
D03*
X329500Y429500D02*
D03*
Y419500D02*
D03*
X400500Y429500D02*
D03*
Y419500D02*
D03*
X185500Y734000D02*
D03*
X637000Y360000D02*
D03*
X165500Y326167D02*
D03*
X138167Y724000D02*
D03*
X564833Y569000D02*
D03*
X708500Y370000D02*
D03*
X684500D02*
D03*
X588500Y569000D02*
D03*
X161833Y724000D02*
D03*
X114500Y667500D02*
D03*
X161833D02*
D03*
X155500Y326167D02*
D03*
X352167Y385500D02*
D03*
X138167Y667500D02*
D03*
X328500Y375500D02*
D03*
X138667Y613000D02*
D03*
X186000Y623000D02*
D03*
Y613000D02*
D03*
X138667Y623000D02*
D03*
X162333D02*
D03*
Y613000D02*
D03*
X115000Y623000D02*
D03*
X511667Y180000D02*
D03*
Y190000D02*
D03*
X535333Y180000D02*
D03*
Y190000D02*
D03*
X559000Y180000D02*
D03*
Y190000D02*
D03*
X488000Y180000D02*
D03*
Y190000D02*
D03*
X185500Y667500D02*
D03*
X114500Y724000D02*
D03*
X376833Y211000D02*
D03*
Y201000D02*
D03*
X329500Y211000D02*
D03*
Y201000D02*
D03*
X353167Y211000D02*
D03*
Y201000D02*
D03*
X400500Y211000D02*
D03*
Y201000D02*
D03*
X328500Y385500D02*
D03*
X375833D02*
D03*
Y375500D02*
D03*
X399500Y385500D02*
D03*
Y375500D02*
D03*
X352167D02*
D03*
X660667Y360000D02*
D03*
Y370000D02*
D03*
X684500Y360000D02*
D03*
X637000Y370000D02*
D03*
X708500Y360000D02*
D03*
X517500Y569000D02*
D03*
X541167D02*
D03*
X115000Y613000D02*
D03*
X496167Y403500D02*
D03*
X472500D02*
D03*
X588500Y559000D02*
D03*
X541167D02*
D03*
X517500D02*
D03*
X564833D02*
D03*
X496167Y393500D02*
D03*
X519833D02*
D03*
Y403500D02*
D03*
X472500Y393500D02*
D03*
X606833Y360000D02*
D03*
Y370000D02*
D03*
X161833Y734000D02*
D03*
X138167D02*
D03*
X185500Y724000D02*
D03*
X114500Y734000D02*
D03*
X544000Y393500D02*
D03*
Y403500D02*
D03*
X114500Y677500D02*
D03*
X138167D02*
D03*
X161833D02*
D03*
X185500D02*
D03*
D23*
X639500Y762500D02*
D03*
Y673833D02*
D03*
Y718167D02*
D03*
X616500Y673500D02*
D03*
Y762500D02*
D03*
X596500Y732500D02*
D03*
X616500Y718000D02*
D03*
X596500Y688000D02*
D03*
X639500Y629500D02*
D03*
X616500Y629000D02*
D03*
X596500Y599000D02*
D03*
Y643500D02*
D03*
X522000Y718333D02*
D03*
Y763000D02*
D03*
X502000Y733000D02*
D03*
X522000Y673667D02*
D03*
X502000Y688333D02*
D03*
X522000Y629000D02*
D03*
X502000Y643667D02*
D03*
Y599000D02*
D03*
X678500Y504000D02*
D03*
X719500Y466000D02*
D03*
X675500D02*
D03*
X648500Y524000D02*
D03*
X631500Y466000D02*
D03*
X704500Y297000D02*
D03*
X662000D02*
D03*
X543500Y499000D02*
D03*
X539500Y286000D02*
D03*
X499500Y499000D02*
D03*
X583000Y286000D02*
D03*
Y236000D02*
D03*
X493000Y286000D02*
D03*
X364000Y718000D02*
D03*
Y762000D02*
D03*
X381500Y689000D02*
D03*
X364000Y674000D02*
D03*
Y630000D02*
D03*
X294000Y762000D02*
D03*
Y718000D02*
D03*
Y674000D02*
D03*
Y630000D02*
D03*
X410000Y527000D02*
D03*
X381000Y602500D02*
D03*
X367000Y527000D02*
D03*
X287500Y529000D02*
D03*
Y486000D02*
D03*
Y443000D02*
D03*
X237500Y529000D02*
D03*
Y443000D02*
D03*
Y486000D02*
D03*
X377500Y241000D02*
D03*
X287500Y399500D02*
D03*
X307500Y312000D02*
D03*
Y269000D02*
D03*
X287500Y282000D02*
D03*
X237500Y399500D02*
D03*
X331000Y241000D02*
D03*
X307500Y225500D02*
D03*
X287500Y239000D02*
D03*
Y195500D02*
D03*
X307500Y182500D02*
D03*
X287500Y152500D02*
D03*
X482000Y718333D02*
D03*
Y688333D02*
D03*
X452000Y718333D02*
D03*
X502000D02*
D03*
X452000Y688333D02*
D03*
X522000D02*
D03*
X546500Y599000D02*
D03*
X482000D02*
D03*
X452000Y629000D02*
D03*
X411000Y632500D02*
D03*
X639500Y599500D02*
D03*
X482000Y629000D02*
D03*
X307500Y369500D02*
D03*
Y413000D02*
D03*
Y456000D02*
D03*
Y499000D02*
D03*
X648500Y504000D02*
D03*
X344000Y630000D02*
D03*
Y718000D02*
D03*
Y762000D02*
D03*
Y674000D02*
D03*
X616500Y732500D02*
D03*
X709500Y732500D02*
D03*
X522000Y733000D02*
D03*
X616500Y688000D02*
D03*
X709500Y688167D02*
D03*
X616500Y643500D02*
D03*
X709500Y643833D02*
D03*
X522000Y643667D02*
D03*
X616500Y599000D02*
D03*
X709500Y599500D02*
D03*
X522000Y599000D02*
D03*
X307500Y152500D02*
D03*
X287500Y182500D02*
D03*
Y269000D02*
D03*
X307500Y239000D02*
D03*
Y195500D02*
D03*
X287500Y225500D02*
D03*
Y312000D02*
D03*
X307500Y282000D02*
D03*
X719500Y436000D02*
D03*
Y416000D02*
D03*
Y396000D02*
D03*
X689500D02*
D03*
Y416000D02*
D03*
Y436000D02*
D03*
Y466000D02*
D03*
X645500D02*
D03*
X601500D02*
D03*
X576500Y688000D02*
D03*
X674500Y267000D02*
D03*
X704500D02*
D03*
X576500Y732500D02*
D03*
Y762500D02*
D03*
X546500Y732500D02*
D03*
X596500Y762500D02*
D03*
X546500D02*
D03*
X482000Y733000D02*
D03*
X674500Y297000D02*
D03*
X648500Y574000D02*
D03*
X632000Y297000D02*
D03*
X411500Y689000D02*
D03*
X411000Y602500D02*
D03*
X689500Y732500D02*
D03*
X583000Y256000D02*
D03*
Y216000D02*
D03*
X553000D02*
D03*
Y236000D02*
D03*
Y256000D02*
D03*
Y286000D02*
D03*
X502000Y763000D02*
D03*
X452000Y733000D02*
D03*
X307500Y529000D02*
D03*
X463000Y216000D02*
D03*
X287500Y499000D02*
D03*
X237500Y312000D02*
D03*
X502000Y673667D02*
D03*
X452000Y643667D02*
D03*
X307500Y443000D02*
D03*
X509500Y236000D02*
D03*
X287500Y413000D02*
D03*
X237500Y225500D02*
D03*
X367000Y457000D02*
D03*
X267500Y499000D02*
D03*
Y529000D02*
D03*
X237500Y499000D02*
D03*
X267500Y486000D02*
D03*
Y456000D02*
D03*
X307500Y486000D02*
D03*
X237500Y456000D02*
D03*
X287500D02*
D03*
Y369500D02*
D03*
X539500Y236000D02*
D03*
X237500Y269000D02*
D03*
X337000Y457000D02*
D03*
Y477000D02*
D03*
X411500Y739000D02*
D03*
X294000Y688000D02*
D03*
X237500Y239000D02*
D03*
X307500Y399500D02*
D03*
X324000Y718000D02*
D03*
X364000Y688000D02*
D03*
X344000D02*
D03*
X324000D02*
D03*
X381000Y652500D02*
D03*
X294000Y644000D02*
D03*
X237500Y413000D02*
D03*
Y195500D02*
D03*
X411000Y652500D02*
D03*
X294000Y600000D02*
D03*
X237500Y369500D02*
D03*
Y152500D02*
D03*
X539500Y256000D02*
D03*
Y216000D02*
D03*
X509500D02*
D03*
Y256000D02*
D03*
Y286000D02*
D03*
X493000Y256000D02*
D03*
Y236000D02*
D03*
Y216000D02*
D03*
X463000Y236000D02*
D03*
Y256000D02*
D03*
Y286000D02*
D03*
X674500Y227000D02*
D03*
X601500Y396000D02*
D03*
X502000Y629000D02*
D03*
X452000Y599000D02*
D03*
X237500Y182500D02*
D03*
X662000Y227000D02*
D03*
X337000Y527000D02*
D03*
X407500Y241000D02*
D03*
X380000Y527000D02*
D03*
X361000Y241000D02*
D03*
X632000Y227000D02*
D03*
X704500D02*
D03*
X410000Y497000D02*
D03*
Y477000D02*
D03*
Y457000D02*
D03*
X380000D02*
D03*
Y477000D02*
D03*
Y497000D02*
D03*
X367000D02*
D03*
Y477000D02*
D03*
X337000Y497000D02*
D03*
X267500Y269000D02*
D03*
Y239000D02*
D03*
Y312000D02*
D03*
Y282000D02*
D03*
X237500D02*
D03*
X331000Y271000D02*
D03*
Y291000D02*
D03*
Y311000D02*
D03*
X361000D02*
D03*
Y291000D02*
D03*
Y271000D02*
D03*
X377500D02*
D03*
Y291000D02*
D03*
Y311000D02*
D03*
X407500D02*
D03*
Y291000D02*
D03*
Y271000D02*
D03*
X267500Y399500D02*
D03*
Y369500D02*
D03*
Y413000D02*
D03*
Y443000D02*
D03*
Y225500D02*
D03*
Y195500D02*
D03*
Y182500D02*
D03*
Y152500D02*
D03*
X324000Y630000D02*
D03*
X364000Y600000D02*
D03*
X344000D02*
D03*
X324000D02*
D03*
X648500Y544000D02*
D03*
X678500Y524000D02*
D03*
Y544000D02*
D03*
Y574000D02*
D03*
X469500Y499000D02*
D03*
Y469000D02*
D03*
Y449000D02*
D03*
Y429000D02*
D03*
X499500D02*
D03*
Y449000D02*
D03*
Y469000D02*
D03*
X513500Y499000D02*
D03*
Y469000D02*
D03*
Y449000D02*
D03*
Y429000D02*
D03*
X543500D02*
D03*
Y449000D02*
D03*
Y469000D02*
D03*
X645500Y436000D02*
D03*
Y416000D02*
D03*
Y396000D02*
D03*
X675500D02*
D03*
Y416000D02*
D03*
Y436000D02*
D03*
X632000Y267000D02*
D03*
Y247000D02*
D03*
X662000D02*
D03*
Y267000D02*
D03*
X674500Y247000D02*
D03*
X704500D02*
D03*
X411500Y719000D02*
D03*
Y759000D02*
D03*
X381500D02*
D03*
Y739000D02*
D03*
Y719000D02*
D03*
X411000Y672500D02*
D03*
X381000D02*
D03*
Y632500D02*
D03*
X324000Y644000D02*
D03*
X344000D02*
D03*
X364000D02*
D03*
X324000Y674000D02*
D03*
X294000Y732000D02*
D03*
X324000D02*
D03*
X344000D02*
D03*
X364000D02*
D03*
X324000Y762000D02*
D03*
X576500Y599000D02*
D03*
Y643500D02*
D03*
X452000Y673667D02*
D03*
Y763000D02*
D03*
X601500Y436000D02*
D03*
Y416000D02*
D03*
X631500Y396000D02*
D03*
Y416000D02*
D03*
Y436000D02*
D03*
X669500Y599500D02*
D03*
X689500D02*
D03*
X709500Y629500D02*
D03*
X689500D02*
D03*
X669500D02*
D03*
X596500Y629000D02*
D03*
X576500D02*
D03*
X546500D02*
D03*
X482000Y643667D02*
D03*
Y673667D02*
D03*
X639500Y643833D02*
D03*
X669500D02*
D03*
X689500D02*
D03*
X709500Y673833D02*
D03*
X689500D02*
D03*
X669500D02*
D03*
X546500Y643500D02*
D03*
X596500Y673500D02*
D03*
X576500D02*
D03*
X546500D02*
D03*
X639500Y688167D02*
D03*
X669500D02*
D03*
X689500D02*
D03*
X709500Y718167D02*
D03*
X689500D02*
D03*
X669500D02*
D03*
X546500Y688000D02*
D03*
X596500Y718000D02*
D03*
X576500D02*
D03*
X546500D02*
D03*
X482000Y763000D02*
D03*
X639500Y732500D02*
D03*
X669500D02*
D03*
X709500Y762500D02*
D03*
X689500D02*
D03*
X669500D02*
D03*
D24*
X273500Y218500D02*
D03*
X233000Y720500D02*
D03*
X331000Y718000D02*
D03*
X452000Y577500D02*
D03*
X137750Y475500D02*
D03*
X145227Y457000D02*
D03*
X152705Y441500D02*
D03*
X160182Y423000D02*
D03*
X529500Y567500D02*
D03*
X163500Y339000D02*
D03*
X126500Y614500D02*
D03*
X150000D02*
D03*
X174000Y613500D02*
D03*
X197000D02*
D03*
X173500Y668500D02*
D03*
X197500Y668000D02*
D03*
X150000Y668500D02*
D03*
X126000Y669500D02*
D03*
X196500Y724500D02*
D03*
X126000Y725000D02*
D03*
X150000Y725500D02*
D03*
X173500Y724500D02*
D03*
X620000Y368500D02*
D03*
X649000D02*
D03*
X673000Y369500D02*
D03*
X697000D02*
D03*
X723500Y368500D02*
D03*
X571000Y180500D02*
D03*
X547500Y181000D02*
D03*
X523500Y180500D02*
D03*
X499500D02*
D03*
X259000Y267500D02*
D03*
Y238500D02*
D03*
X257000Y311500D02*
D03*
X258500Y281500D02*
D03*
Y153500D02*
D03*
X259000Y195500D02*
D03*
X259500Y225500D02*
D03*
X568000Y763500D02*
D03*
X568500Y733000D02*
D03*
X567500Y688500D02*
D03*
Y628000D02*
D03*
Y599500D02*
D03*
X566500Y717500D02*
D03*
Y674000D02*
D03*
X474000Y762500D02*
D03*
X474500Y733000D02*
D03*
X473500Y718000D02*
D03*
X475000Y673000D02*
D03*
X474000Y687500D02*
D03*
X567000Y642500D02*
D03*
X474500Y644500D02*
D03*
X473500Y628500D02*
D03*
X473000Y600000D02*
D03*
X670500Y544000D02*
D03*
X657000Y543500D02*
D03*
X577000Y568500D02*
D03*
X553500D02*
D03*
X605000D02*
D03*
X532500Y401500D02*
D03*
X508000D02*
D03*
X484000Y402000D02*
D03*
X342000Y421000D02*
D03*
X460500Y402000D02*
D03*
X416500Y407000D02*
D03*
X397000Y406000D02*
D03*
X423000Y365000D02*
D03*
X398500Y363500D02*
D03*
X377000Y407900D02*
D03*
X375000Y364500D02*
D03*
X351000D02*
D03*
X420500Y190000D02*
D03*
X399500Y190500D02*
D03*
X374500Y190000D02*
D03*
X352000Y190500D02*
D03*
X258500Y182000D02*
D03*
X314500Y210000D02*
D03*
X268000D02*
D03*
X281500Y760500D02*
D03*
X275000Y765500D02*
D03*
X268000Y771000D02*
D03*
X261000Y776000D02*
D03*
X254000Y780500D02*
D03*
X247500Y785500D02*
D03*
X240000Y780500D02*
D03*
X233500Y775000D02*
D03*
X489500Y343500D02*
D03*
X469500Y514500D02*
D03*
X199500Y578000D02*
D03*
X761500Y405500D02*
D03*
X606833Y406000D02*
D03*
X623000Y416000D02*
D03*
X723500Y495500D02*
D03*
X671500Y485500D02*
D03*
X593500Y307500D02*
D03*
X605500Y318000D02*
D03*
X651500Y476000D02*
D03*
X560000Y479500D02*
D03*
X567000Y486000D02*
D03*
X695500Y490500D02*
D03*
X574000Y491000D02*
D03*
X598000Y496000D02*
D03*
X619500Y584500D02*
D03*
X212500Y755000D02*
D03*
X186500Y585000D02*
D03*
X150000Y755000D02*
D03*
X111000Y242500D02*
D03*
X627500Y591000D02*
D03*
X575500Y266000D02*
D03*
X612500Y323500D02*
D03*
X117500Y353000D02*
D03*
X689500Y755000D02*
D03*
X669500Y754500D02*
D03*
X637822D02*
D03*
X628000Y766000D02*
D03*
X647000Y591000D02*
D03*
X219500Y762500D02*
D03*
X220000Y682500D02*
D03*
X173500Y762500D02*
D03*
X411000Y591000D02*
D03*
X202500D02*
D03*
X117500Y232500D02*
D03*
X460000Y635500D02*
D03*
X461000Y680500D02*
D03*
Y724500D02*
D03*
X689000Y621000D02*
D03*
X669000D02*
D03*
X638500Y620500D02*
D03*
X690000Y663000D02*
D03*
X668500D02*
D03*
X637500D02*
D03*
X689000Y709500D02*
D03*
X667500Y710000D02*
D03*
X639000Y709500D02*
D03*
X458500Y770500D02*
D03*
X699000Y205500D02*
D03*
X612500Y205000D02*
D03*
X535500Y323500D02*
D03*
X525500Y318500D02*
D03*
X600500Y312000D02*
D03*
X502000Y312500D02*
D03*
X679500Y213500D02*
D03*
X606000Y214000D02*
D03*
X600000Y267500D02*
D03*
X594000Y261500D02*
D03*
X478000Y308000D02*
D03*
X389000Y766500D02*
D03*
X443000Y673500D02*
D03*
Y637500D02*
D03*
X379500Y545500D02*
D03*
X137500D02*
D03*
X337000D02*
D03*
X326500Y508000D02*
D03*
Y534500D02*
D03*
X361500Y110000D02*
D03*
X392000D02*
D03*
X472000Y110500D02*
D03*
X170500Y110000D02*
D03*
X463000Y120000D02*
D03*
X441500Y127250D02*
D03*
X171500Y132500D02*
D03*
X172500Y120000D02*
D03*
X558000Y206000D02*
D03*
X463000Y205500D02*
D03*
X307500Y515000D02*
D03*
X287429Y514929D02*
D03*
X233407Y708000D02*
D03*
X263500Y515000D02*
D03*
X127500Y701000D02*
D03*
X167659Y514500D02*
D03*
X236000D02*
D03*
X130500Y312000D02*
D03*
Y212500D02*
D03*
X432000Y135500D02*
D03*
X307500Y428000D02*
D03*
X287500Y427500D02*
D03*
X267500D02*
D03*
X432000Y241500D02*
D03*
X247500Y697000D02*
D03*
X247148Y631000D02*
D03*
X182000Y427500D02*
D03*
X236500D02*
D03*
X173500Y697000D02*
D03*
X181500Y252000D02*
D03*
X182000Y227500D02*
D03*
Y135500D02*
D03*
X441000Y248500D02*
D03*
X425500Y236000D02*
D03*
X426000Y144000D02*
D03*
X188500Y142000D02*
D03*
X549000Y481500D02*
D03*
X507500Y505000D02*
D03*
X451000Y450000D02*
D03*
Y491500D02*
D03*
X458500Y457000D02*
D03*
Y497000D02*
D03*
X359500Y507500D02*
D03*
X352000Y492000D02*
D03*
X392000Y462500D02*
D03*
X352000Y457500D02*
D03*
X404500Y470000D02*
D03*
X363000Y376500D02*
D03*
X379000Y447500D02*
D03*
X386000Y401500D02*
D03*
X368500Y358500D02*
D03*
X344500Y401500D02*
D03*
X319000Y359000D02*
D03*
X315500Y441500D02*
D03*
X313000Y420500D02*
D03*
X345000Y485500D02*
D03*
Y448000D02*
D03*
X287500Y470500D02*
D03*
X262500Y471000D02*
D03*
X316000Y703500D02*
D03*
X293500Y703350D02*
D03*
X307500Y470500D02*
D03*
X240278Y702500D02*
D03*
X175136Y471000D02*
D03*
X237000Y470500D02*
D03*
X151000Y699500D02*
D03*
X137500Y270000D02*
D03*
Y203000D02*
D03*
X373000Y697500D02*
D03*
X372000Y710500D02*
D03*
X404000D02*
D03*
X268000Y688000D02*
D03*
X267759Y648000D02*
D03*
X150000D02*
D03*
X205000Y456000D02*
D03*
Y222500D02*
D03*
Y239000D02*
D03*
X465500Y349500D02*
D03*
X419500Y350000D02*
D03*
X420000Y271500D02*
D03*
X389000Y343500D02*
D03*
X388500Y271000D02*
D03*
X512000Y338000D02*
D03*
X354000D02*
D03*
X543500Y331500D02*
D03*
X345500Y330000D02*
D03*
X339000Y284500D02*
D03*
X315000Y298000D02*
D03*
X414500Y156500D02*
D03*
X400000Y227000D02*
D03*
X369500Y232500D02*
D03*
X354500Y259000D02*
D03*
X268000D02*
D03*
X339500Y310500D02*
D03*
X321500Y658000D02*
D03*
X336000Y662500D02*
D03*
X330500Y667500D02*
D03*
X293500Y658500D02*
D03*
X281500D02*
D03*
X336000Y674000D02*
D03*
X331000Y746500D02*
D03*
X321000Y618000D02*
D03*
X293000Y615650D02*
D03*
X254500Y615500D02*
D03*
X261000Y732000D02*
D03*
X281500Y600000D02*
D03*
X212500Y413000D02*
D03*
X235000Y384500D02*
D03*
X258500D02*
D03*
X307500D02*
D03*
X197500Y232500D02*
D03*
X190000Y384500D02*
D03*
X287500Y384000D02*
D03*
X197500Y499000D02*
D03*
X220000Y369500D02*
D03*
X126500Y653000D02*
D03*
X260889D02*
D03*
X173500Y641500D02*
D03*
X274629Y642000D02*
D03*
X281500Y636500D02*
D03*
X197000Y636000D02*
D03*
X226500Y769000D02*
D03*
X206000Y749000D02*
D03*
X254000Y691000D02*
D03*
X196500D02*
D03*
X197500Y769500D02*
D03*
X126500Y749000D02*
D03*
X212000Y195000D02*
D03*
Y212000D02*
D03*
X220000Y202500D02*
D03*
Y152000D02*
D03*
X197500Y281000D02*
D03*
X188500Y183000D02*
D03*
X104000Y252500D02*
D03*
X123500Y222500D02*
D03*
X189000Y242500D02*
D03*
D25*
X120000Y120000D02*
D03*
X788500Y788500D02*
D03*
Y120000D02*
D03*
X120000Y788500D02*
D03*
M02*
