G04*
G04 #@! TF.GenerationSoftware,Altium Limited,Altium Designer,25.5.2 (35)*
G04*
G04 Layer_Physical_Order=2*
G04 Layer_Color=32768*
%FSLAX25Y25*%
%MOIN*%
G70*
G04*
G04 #@! TF.SameCoordinates,EC32A686-E373-4CB4-AF31-63D9CFDA87CC*
G04*
G04*
G04 #@! TF.FilePolarity,Negative*
G04*
G01*
G75*
%ADD33C,0.04000*%
%ADD34C,0.08331*%
%ADD35C,0.07937*%
%ADD36C,0.08000*%
%ADD37C,0.06800*%
%ADD38C,0.05500*%
%ADD39C,0.16600*%
D33*
X808500Y798500D02*
G03*
X798500Y808500I-10000J0D01*
G01*
X110000Y808500D02*
G03*
X100000Y798500I-0J-10000D01*
G01*
X100000Y110000D02*
G03*
X110000Y100000I10000J0D01*
G01*
X798500D02*
G03*
X808500Y110000I0J10000D01*
G01*
X808500D02*
Y798500D01*
X757500Y808500D02*
X798500D01*
X110000Y808500D02*
X757500Y808500D01*
X100000Y110000D02*
Y798500D01*
X110000Y100000D02*
X798500D01*
D34*
X154500Y222500D02*
D03*
X164500Y232500D02*
D03*
X154500Y252500D02*
D03*
X164500Y242500D02*
D03*
Y202500D02*
D03*
Y212500D02*
D03*
Y222500D02*
D03*
X154500Y202500D02*
D03*
X164500Y252500D02*
D03*
X154500Y212500D02*
D03*
Y232500D02*
D03*
Y242500D02*
D03*
Y182500D02*
D03*
X164500D02*
D03*
Y192500D02*
D03*
X154500D02*
D03*
X788000Y507500D02*
D03*
X778000D02*
D03*
X788000Y497500D02*
D03*
X778000D02*
D03*
Y437500D02*
D03*
Y447500D02*
D03*
Y467500D02*
D03*
Y457500D02*
D03*
Y487500D02*
D03*
X788000D02*
D03*
Y437500D02*
D03*
Y447500D02*
D03*
Y457500D02*
D03*
Y467500D02*
D03*
Y477500D02*
D03*
X778000D02*
D03*
D35*
X376500Y429500D02*
D03*
Y419500D02*
D03*
X353500Y429500D02*
D03*
Y419500D02*
D03*
X329500Y429500D02*
D03*
Y419500D02*
D03*
X400500Y429500D02*
D03*
Y419500D02*
D03*
X185500Y734000D02*
D03*
X637000Y360000D02*
D03*
X138167Y724000D02*
D03*
X564833Y569000D02*
D03*
X708500Y370000D02*
D03*
X684500D02*
D03*
X588500Y569000D02*
D03*
X161833Y724000D02*
D03*
X114500Y667500D02*
D03*
X161833D02*
D03*
X155500Y326167D02*
D03*
X352167Y385500D02*
D03*
X138167Y667500D02*
D03*
X328500Y375500D02*
D03*
X138667Y613000D02*
D03*
X186000Y623000D02*
D03*
Y613000D02*
D03*
X138667Y623000D02*
D03*
X162333D02*
D03*
Y613000D02*
D03*
X115000Y623000D02*
D03*
X511667Y180000D02*
D03*
Y190000D02*
D03*
X535333Y180000D02*
D03*
Y190000D02*
D03*
X559000Y180000D02*
D03*
Y190000D02*
D03*
X488000Y180000D02*
D03*
Y190000D02*
D03*
X185500Y667500D02*
D03*
X114500Y724000D02*
D03*
X376833Y211000D02*
D03*
Y201000D02*
D03*
X329500Y211000D02*
D03*
Y201000D02*
D03*
X353167Y211000D02*
D03*
Y201000D02*
D03*
X400500Y211000D02*
D03*
Y201000D02*
D03*
X328500Y385500D02*
D03*
X375833D02*
D03*
Y375500D02*
D03*
X399500Y385500D02*
D03*
Y375500D02*
D03*
X352167D02*
D03*
X660667Y360000D02*
D03*
Y370000D02*
D03*
X684500Y360000D02*
D03*
X637000Y370000D02*
D03*
X708500Y360000D02*
D03*
X517500Y569000D02*
D03*
X541167D02*
D03*
X115000Y613000D02*
D03*
X496167Y403500D02*
D03*
X472500D02*
D03*
X588500Y559000D02*
D03*
X541167D02*
D03*
X517500D02*
D03*
X564833D02*
D03*
X496167Y393500D02*
D03*
X519833D02*
D03*
Y403500D02*
D03*
X472500Y393500D02*
D03*
X606833Y360000D02*
D03*
Y370000D02*
D03*
X161833Y734000D02*
D03*
X138167D02*
D03*
X185500Y724000D02*
D03*
X114500Y734000D02*
D03*
X544000Y393500D02*
D03*
Y403500D02*
D03*
X114500Y677500D02*
D03*
X138167D02*
D03*
X161833D02*
D03*
X185500D02*
D03*
D36*
X639500Y762500D02*
D03*
Y673833D02*
D03*
Y718167D02*
D03*
X616500Y673500D02*
D03*
Y762500D02*
D03*
X596500Y732500D02*
D03*
X616500Y718000D02*
D03*
X596500Y688000D02*
D03*
X639500Y629500D02*
D03*
X616500Y629000D02*
D03*
X596500Y599000D02*
D03*
Y643500D02*
D03*
X522000Y718333D02*
D03*
Y763000D02*
D03*
X502000Y733000D02*
D03*
X522000Y673667D02*
D03*
X502000Y688333D02*
D03*
X522000Y629000D02*
D03*
X502000Y643667D02*
D03*
Y599000D02*
D03*
X678500Y504000D02*
D03*
X719500Y466000D02*
D03*
X675500D02*
D03*
X648500Y524000D02*
D03*
X631500Y466000D02*
D03*
X704500Y297000D02*
D03*
X662000D02*
D03*
X543500Y499000D02*
D03*
X539500Y286000D02*
D03*
X499500Y499000D02*
D03*
X583000Y286000D02*
D03*
Y236000D02*
D03*
X493000Y286000D02*
D03*
X364000Y718000D02*
D03*
Y762000D02*
D03*
X381500Y689000D02*
D03*
X364000Y674000D02*
D03*
Y630000D02*
D03*
X294000Y762000D02*
D03*
Y718000D02*
D03*
Y674000D02*
D03*
Y630000D02*
D03*
X410000Y527000D02*
D03*
X381000Y602500D02*
D03*
X367000Y527000D02*
D03*
X287500Y529000D02*
D03*
Y486000D02*
D03*
Y443000D02*
D03*
X237500Y529000D02*
D03*
Y443000D02*
D03*
Y486000D02*
D03*
X377500Y241000D02*
D03*
X287500Y399500D02*
D03*
X307500Y312000D02*
D03*
Y269000D02*
D03*
X287500Y282000D02*
D03*
X237500Y399500D02*
D03*
X331000Y241000D02*
D03*
X307500Y225500D02*
D03*
X287500Y239000D02*
D03*
Y195500D02*
D03*
X307500Y182500D02*
D03*
X287500Y152500D02*
D03*
X482000Y718333D02*
D03*
Y688333D02*
D03*
X452000Y718333D02*
D03*
X502000D02*
D03*
X452000Y688333D02*
D03*
X546500Y599000D02*
D03*
X482000D02*
D03*
X452000Y629000D02*
D03*
X411000Y632500D02*
D03*
X639500Y599500D02*
D03*
X482000Y629000D02*
D03*
X719500Y436000D02*
D03*
Y416000D02*
D03*
Y396000D02*
D03*
X689500D02*
D03*
Y416000D02*
D03*
Y436000D02*
D03*
Y466000D02*
D03*
X645500D02*
D03*
X601500D02*
D03*
X576500Y688000D02*
D03*
X674500Y267000D02*
D03*
X704500D02*
D03*
X576500Y732500D02*
D03*
Y762500D02*
D03*
X546500Y732500D02*
D03*
X596500Y762500D02*
D03*
X546500D02*
D03*
X482000Y733000D02*
D03*
X674500Y297000D02*
D03*
X648500Y574000D02*
D03*
X632000Y297000D02*
D03*
X411500Y689000D02*
D03*
X411000Y602500D02*
D03*
X689500Y732500D02*
D03*
X583000Y256000D02*
D03*
Y216000D02*
D03*
X553000D02*
D03*
Y236000D02*
D03*
Y256000D02*
D03*
Y286000D02*
D03*
X502000Y763000D02*
D03*
X452000Y733000D02*
D03*
X307500Y529000D02*
D03*
X463000Y216000D02*
D03*
X287500Y499000D02*
D03*
X237500Y312000D02*
D03*
X502000Y673667D02*
D03*
X452000Y643667D02*
D03*
X307500Y443000D02*
D03*
X509500Y236000D02*
D03*
X287500Y413000D02*
D03*
X237500Y225500D02*
D03*
X367000Y457000D02*
D03*
X267500Y499000D02*
D03*
Y529000D02*
D03*
X237500Y499000D02*
D03*
X267500Y486000D02*
D03*
Y456000D02*
D03*
X307500Y486000D02*
D03*
X237500Y456000D02*
D03*
X287500D02*
D03*
Y369500D02*
D03*
X539500Y236000D02*
D03*
X237500Y269000D02*
D03*
X337000Y457000D02*
D03*
Y477000D02*
D03*
X411500Y739000D02*
D03*
X294000Y688000D02*
D03*
X237500Y239000D02*
D03*
X307500Y399500D02*
D03*
X324000Y718000D02*
D03*
X364000Y688000D02*
D03*
X344000D02*
D03*
X324000D02*
D03*
X381000Y652500D02*
D03*
X294000Y644000D02*
D03*
X237500Y413000D02*
D03*
Y195500D02*
D03*
X411000Y652500D02*
D03*
X294000Y600000D02*
D03*
X237500Y369500D02*
D03*
Y152500D02*
D03*
X539500Y256000D02*
D03*
Y216000D02*
D03*
X509500D02*
D03*
Y256000D02*
D03*
Y286000D02*
D03*
X493000Y256000D02*
D03*
Y236000D02*
D03*
Y216000D02*
D03*
X463000Y236000D02*
D03*
Y256000D02*
D03*
Y286000D02*
D03*
X674500Y227000D02*
D03*
X601500Y396000D02*
D03*
X502000Y629000D02*
D03*
X452000Y599000D02*
D03*
X237500Y182500D02*
D03*
X662000Y227000D02*
D03*
X337000Y527000D02*
D03*
X407500Y241000D02*
D03*
X380000Y527000D02*
D03*
X361000Y241000D02*
D03*
X632000Y227000D02*
D03*
X704500D02*
D03*
X410000Y497000D02*
D03*
Y477000D02*
D03*
Y457000D02*
D03*
X380000D02*
D03*
Y477000D02*
D03*
Y497000D02*
D03*
X367000D02*
D03*
Y477000D02*
D03*
X337000Y497000D02*
D03*
X267500Y269000D02*
D03*
Y239000D02*
D03*
Y312000D02*
D03*
Y282000D02*
D03*
X237500D02*
D03*
X331000Y271000D02*
D03*
Y291000D02*
D03*
Y311000D02*
D03*
X361000D02*
D03*
Y291000D02*
D03*
Y271000D02*
D03*
X377500D02*
D03*
Y291000D02*
D03*
Y311000D02*
D03*
X407500D02*
D03*
Y291000D02*
D03*
Y271000D02*
D03*
X267500Y399500D02*
D03*
Y369500D02*
D03*
Y413000D02*
D03*
Y443000D02*
D03*
Y225500D02*
D03*
Y195500D02*
D03*
Y182500D02*
D03*
Y152500D02*
D03*
X324000Y630000D02*
D03*
X364000Y600000D02*
D03*
X344000D02*
D03*
X324000D02*
D03*
X648500Y544000D02*
D03*
X678500Y524000D02*
D03*
Y544000D02*
D03*
Y574000D02*
D03*
X469500Y499000D02*
D03*
Y469000D02*
D03*
Y449000D02*
D03*
Y429000D02*
D03*
X499500D02*
D03*
Y449000D02*
D03*
Y469000D02*
D03*
X513500Y499000D02*
D03*
Y469000D02*
D03*
Y449000D02*
D03*
Y429000D02*
D03*
X543500D02*
D03*
Y449000D02*
D03*
Y469000D02*
D03*
X645500Y436000D02*
D03*
Y416000D02*
D03*
Y396000D02*
D03*
X675500D02*
D03*
Y416000D02*
D03*
Y436000D02*
D03*
X632000Y267000D02*
D03*
Y247000D02*
D03*
X662000D02*
D03*
Y267000D02*
D03*
X674500Y247000D02*
D03*
X704500D02*
D03*
X411500Y719000D02*
D03*
Y759000D02*
D03*
X381500D02*
D03*
Y739000D02*
D03*
Y719000D02*
D03*
X411000Y672500D02*
D03*
X381000D02*
D03*
Y632500D02*
D03*
X324000Y644000D02*
D03*
X344000D02*
D03*
X364000D02*
D03*
X324000Y674000D02*
D03*
X294000Y732000D02*
D03*
X324000D02*
D03*
X344000D02*
D03*
X364000D02*
D03*
X324000Y762000D02*
D03*
X576500Y599000D02*
D03*
Y643500D02*
D03*
X452000Y673667D02*
D03*
Y763000D02*
D03*
X601500Y436000D02*
D03*
Y416000D02*
D03*
X631500Y396000D02*
D03*
Y416000D02*
D03*
Y436000D02*
D03*
X669500Y599500D02*
D03*
X689500D02*
D03*
X709500Y629500D02*
D03*
X689500D02*
D03*
X669500D02*
D03*
X596500Y629000D02*
D03*
X576500D02*
D03*
X546500D02*
D03*
X482000Y643667D02*
D03*
Y673667D02*
D03*
X639500Y643833D02*
D03*
X669500D02*
D03*
X689500D02*
D03*
X709500Y673833D02*
D03*
X689500D02*
D03*
X669500D02*
D03*
X546500Y643500D02*
D03*
X596500Y673500D02*
D03*
X576500D02*
D03*
X546500D02*
D03*
X639500Y688167D02*
D03*
X669500D02*
D03*
X689500D02*
D03*
X709500Y718167D02*
D03*
X689500D02*
D03*
X669500D02*
D03*
X546500Y688000D02*
D03*
X596500Y718000D02*
D03*
X576500D02*
D03*
X546500D02*
D03*
X482000Y763000D02*
D03*
X639500Y732500D02*
D03*
X669500D02*
D03*
X709500Y762500D02*
D03*
X689500D02*
D03*
X669500D02*
D03*
D37*
X273500Y218500D02*
D03*
X233000Y720500D02*
D03*
X331000Y718000D02*
D03*
X452000Y577500D02*
D03*
X137750Y475500D02*
D03*
X145227Y457000D02*
D03*
X152705Y441500D02*
D03*
X160182Y423000D02*
D03*
X529500Y567500D02*
D03*
X163500Y339000D02*
D03*
X126500Y614500D02*
D03*
X150000D02*
D03*
X174000Y613500D02*
D03*
X197000D02*
D03*
X173500Y668500D02*
D03*
X197500Y668000D02*
D03*
X150000Y668500D02*
D03*
X126000Y669500D02*
D03*
X196500Y724500D02*
D03*
X126000Y725000D02*
D03*
X150000Y725500D02*
D03*
X173500Y724500D02*
D03*
X620000Y368500D02*
D03*
X649000D02*
D03*
X673000Y369500D02*
D03*
X697000D02*
D03*
X723500Y368500D02*
D03*
X571000Y180500D02*
D03*
X547500Y181000D02*
D03*
X523500Y180500D02*
D03*
X499500D02*
D03*
X259000Y267500D02*
D03*
Y238500D02*
D03*
X257000Y311500D02*
D03*
X258500Y281500D02*
D03*
Y153500D02*
D03*
X259000Y195500D02*
D03*
X259500Y225500D02*
D03*
X568000Y763500D02*
D03*
X568500Y733000D02*
D03*
X567500Y688500D02*
D03*
Y628000D02*
D03*
Y599500D02*
D03*
X566500Y717500D02*
D03*
Y674000D02*
D03*
X474000Y762500D02*
D03*
X474500Y733000D02*
D03*
X473500Y718000D02*
D03*
X475000Y673000D02*
D03*
X474000Y687500D02*
D03*
X567000Y642500D02*
D03*
X474500Y644500D02*
D03*
X473500Y628500D02*
D03*
X473000Y600000D02*
D03*
X670500Y544000D02*
D03*
X657000Y543500D02*
D03*
X577000Y568500D02*
D03*
X553500D02*
D03*
X605000D02*
D03*
X532500Y401500D02*
D03*
X508000D02*
D03*
X484000Y402000D02*
D03*
X342000Y421000D02*
D03*
X460500Y402000D02*
D03*
X416500Y407000D02*
D03*
X397000Y406000D02*
D03*
X423000Y365000D02*
D03*
X398500Y363500D02*
D03*
X377000Y407900D02*
D03*
X375000Y364500D02*
D03*
X351000D02*
D03*
X420500Y190000D02*
D03*
X399500Y190500D02*
D03*
X374500Y190000D02*
D03*
X352000Y190500D02*
D03*
X258500Y182000D02*
D03*
X314500Y210000D02*
D03*
X268000D02*
D03*
X281500Y760500D02*
D03*
X275000Y765500D02*
D03*
X268000Y771000D02*
D03*
X261000Y776000D02*
D03*
X254000Y780500D02*
D03*
X247500Y785500D02*
D03*
X240000Y780500D02*
D03*
X233500Y775000D02*
D03*
X489500Y343500D02*
D03*
X469500Y514500D02*
D03*
X199500Y578000D02*
D03*
X761500Y405500D02*
D03*
X606833Y406000D02*
D03*
X623000Y416000D02*
D03*
X723500Y495500D02*
D03*
X671500Y485500D02*
D03*
X593500Y307500D02*
D03*
X605500Y318000D02*
D03*
X651500Y476000D02*
D03*
X560000Y479500D02*
D03*
X567000Y486000D02*
D03*
X695500Y490500D02*
D03*
X574000Y491000D02*
D03*
X598000Y496000D02*
D03*
X619500Y584500D02*
D03*
X212500Y755000D02*
D03*
X186500Y585000D02*
D03*
X150000Y755000D02*
D03*
X111000Y242500D02*
D03*
X627500Y591000D02*
D03*
X575500Y266000D02*
D03*
X612500Y323500D02*
D03*
X117500Y353000D02*
D03*
X689500Y755000D02*
D03*
X669500Y754500D02*
D03*
X637822D02*
D03*
X628000Y766000D02*
D03*
X647000Y591000D02*
D03*
X219500Y762500D02*
D03*
X220000Y682500D02*
D03*
X173500Y762500D02*
D03*
X411000Y591000D02*
D03*
X202500D02*
D03*
X117500Y232500D02*
D03*
X460000Y635500D02*
D03*
X461000Y680500D02*
D03*
Y724500D02*
D03*
X689000Y621000D02*
D03*
X669000D02*
D03*
X638500Y620500D02*
D03*
X690000Y663000D02*
D03*
X668500D02*
D03*
X637500D02*
D03*
X689000Y709500D02*
D03*
X667500Y710000D02*
D03*
X639000Y709500D02*
D03*
X458500Y770500D02*
D03*
X699000Y205500D02*
D03*
X612500Y205000D02*
D03*
X535500Y323500D02*
D03*
X525500Y318500D02*
D03*
X600500Y312000D02*
D03*
X502000Y312500D02*
D03*
X679500Y213500D02*
D03*
X606000Y214000D02*
D03*
X600000Y267500D02*
D03*
X594000Y261500D02*
D03*
X478000Y308000D02*
D03*
X389000Y766500D02*
D03*
X443000Y673500D02*
D03*
Y637500D02*
D03*
X379500Y545500D02*
D03*
X137500D02*
D03*
X337000D02*
D03*
X326500Y508000D02*
D03*
Y534500D02*
D03*
X361500Y110000D02*
D03*
X392000D02*
D03*
X472000Y110500D02*
D03*
X170500Y110000D02*
D03*
X463000Y120000D02*
D03*
X441500Y127250D02*
D03*
X171500Y132500D02*
D03*
X172500Y120000D02*
D03*
X558000Y206000D02*
D03*
X463000Y205500D02*
D03*
X307500Y515000D02*
D03*
X287429Y514929D02*
D03*
X233407Y708000D02*
D03*
X263500Y515000D02*
D03*
X127500Y701000D02*
D03*
X167659Y514500D02*
D03*
X236000D02*
D03*
X130500Y312000D02*
D03*
Y212500D02*
D03*
X432000Y135500D02*
D03*
X307500Y428000D02*
D03*
X287500Y427500D02*
D03*
X267500D02*
D03*
X432000Y241500D02*
D03*
X247500Y697000D02*
D03*
X247148Y631000D02*
D03*
X182000Y427500D02*
D03*
X236500D02*
D03*
X173500Y697000D02*
D03*
X181500Y252000D02*
D03*
X182000Y227500D02*
D03*
Y135500D02*
D03*
X441000Y248500D02*
D03*
X425500Y236000D02*
D03*
X426000Y144000D02*
D03*
X188500Y142000D02*
D03*
X549000Y481500D02*
D03*
X507500Y505000D02*
D03*
X451000Y450000D02*
D03*
Y491500D02*
D03*
X458500Y457000D02*
D03*
Y497000D02*
D03*
X359500Y507500D02*
D03*
X352000Y492000D02*
D03*
X392000Y462500D02*
D03*
X352000Y457500D02*
D03*
X404500Y470000D02*
D03*
X363000Y376500D02*
D03*
X379000Y447500D02*
D03*
X386000Y401500D02*
D03*
X368500Y358500D02*
D03*
X344500Y401500D02*
D03*
X319000Y359000D02*
D03*
X315500Y441500D02*
D03*
X313000Y420500D02*
D03*
X345000Y485500D02*
D03*
Y448000D02*
D03*
X287500Y470500D02*
D03*
X262500Y471000D02*
D03*
X316000Y703500D02*
D03*
X293500Y703350D02*
D03*
X307500Y470500D02*
D03*
X240278Y702500D02*
D03*
X175136Y471000D02*
D03*
X237000Y470500D02*
D03*
X151000Y699500D02*
D03*
X137500Y270000D02*
D03*
Y203000D02*
D03*
X373000Y697500D02*
D03*
X372000Y710500D02*
D03*
X404000D02*
D03*
X268000Y688000D02*
D03*
X267759Y648000D02*
D03*
X150000D02*
D03*
X205000Y456000D02*
D03*
Y222500D02*
D03*
Y239000D02*
D03*
X465500Y349500D02*
D03*
X419500Y350000D02*
D03*
X420000Y271500D02*
D03*
X389000Y343500D02*
D03*
X388500Y271000D02*
D03*
X512000Y338000D02*
D03*
X354000D02*
D03*
X543500Y331500D02*
D03*
X345500Y330000D02*
D03*
X339000Y284500D02*
D03*
X315000Y298000D02*
D03*
X414500Y156500D02*
D03*
X400000Y227000D02*
D03*
X369500Y232500D02*
D03*
X354500Y259000D02*
D03*
X268000D02*
D03*
X339500Y310500D02*
D03*
X321500Y658000D02*
D03*
X336000Y662500D02*
D03*
X330500Y667500D02*
D03*
X293500Y658500D02*
D03*
X281500D02*
D03*
X336000Y674000D02*
D03*
X331000Y746500D02*
D03*
X321000Y618000D02*
D03*
X293000Y615650D02*
D03*
X254500Y615500D02*
D03*
X261000Y732000D02*
D03*
X281500Y600000D02*
D03*
X212500Y413000D02*
D03*
X235000Y384500D02*
D03*
X258500D02*
D03*
X307500D02*
D03*
X197500Y232500D02*
D03*
X190000Y384500D02*
D03*
X287500Y384000D02*
D03*
X197500Y499000D02*
D03*
X220000Y369500D02*
D03*
X126500Y653000D02*
D03*
X260889D02*
D03*
X173500Y641500D02*
D03*
X274629Y642000D02*
D03*
X281500Y636500D02*
D03*
X197000Y636000D02*
D03*
X226500Y769000D02*
D03*
X206000Y749000D02*
D03*
X254000Y691000D02*
D03*
X196500D02*
D03*
X197500Y769500D02*
D03*
X126500Y749000D02*
D03*
X212000Y195000D02*
D03*
Y212000D02*
D03*
X220000Y202500D02*
D03*
Y152000D02*
D03*
X197500Y281000D02*
D03*
X188500Y183000D02*
D03*
X104000Y252500D02*
D03*
X123500Y222500D02*
D03*
X189000Y242500D02*
D03*
D38*
X800000Y750000D02*
D03*
Y730000D02*
D03*
Y710000D02*
D03*
Y690000D02*
D03*
Y670000D02*
D03*
Y650000D02*
D03*
Y630000D02*
D03*
Y610000D02*
D03*
Y590000D02*
D03*
Y570000D02*
D03*
Y550000D02*
D03*
Y530000D02*
D03*
Y510000D02*
D03*
Y490000D02*
D03*
Y470000D02*
D03*
Y450000D02*
D03*
Y430000D02*
D03*
Y410000D02*
D03*
Y390000D02*
D03*
Y370000D02*
D03*
Y350000D02*
D03*
Y330000D02*
D03*
Y310000D02*
D03*
Y290000D02*
D03*
Y270000D02*
D03*
Y250000D02*
D03*
Y230000D02*
D03*
Y210000D02*
D03*
Y190000D02*
D03*
Y170000D02*
D03*
Y150000D02*
D03*
X795000Y760000D02*
D03*
X790000Y750000D02*
D03*
X795000Y740000D02*
D03*
X790000Y730000D02*
D03*
X795000Y720000D02*
D03*
X790000Y710000D02*
D03*
X795000Y700000D02*
D03*
X790000Y690000D02*
D03*
X795000Y680000D02*
D03*
X790000Y670000D02*
D03*
X795000Y660000D02*
D03*
X790000Y650000D02*
D03*
X795000Y640000D02*
D03*
X790000Y630000D02*
D03*
X795000Y620000D02*
D03*
X790000Y610000D02*
D03*
X795000Y600000D02*
D03*
X790000Y590000D02*
D03*
X795000Y580000D02*
D03*
X790000Y570000D02*
D03*
X795000Y560000D02*
D03*
X790000Y550000D02*
D03*
X795000Y540000D02*
D03*
X790000Y530000D02*
D03*
X795000Y520000D02*
D03*
Y500000D02*
D03*
Y480000D02*
D03*
Y460000D02*
D03*
Y440000D02*
D03*
Y420000D02*
D03*
X790000Y410000D02*
D03*
X795000Y400000D02*
D03*
X790000Y390000D02*
D03*
X795000Y380000D02*
D03*
X790000Y370000D02*
D03*
X795000Y360000D02*
D03*
X790000Y350000D02*
D03*
X795000Y340000D02*
D03*
X790000Y330000D02*
D03*
X795000Y320000D02*
D03*
X790000Y310000D02*
D03*
X795000Y300000D02*
D03*
X790000Y290000D02*
D03*
X795000Y280000D02*
D03*
X790000Y270000D02*
D03*
X795000Y260000D02*
D03*
X790000Y250000D02*
D03*
X795000Y240000D02*
D03*
X790000Y230000D02*
D03*
X795000Y220000D02*
D03*
X790000Y210000D02*
D03*
X795000Y200000D02*
D03*
X790000Y190000D02*
D03*
X795000Y180000D02*
D03*
X790000Y170000D02*
D03*
X795000Y160000D02*
D03*
X790000Y150000D02*
D03*
X785000Y760000D02*
D03*
X780000Y750000D02*
D03*
X785000Y740000D02*
D03*
X780000Y730000D02*
D03*
X785000Y720000D02*
D03*
X780000Y710000D02*
D03*
X785000Y700000D02*
D03*
X780000Y690000D02*
D03*
X785000Y680000D02*
D03*
X780000Y670000D02*
D03*
X785000Y660000D02*
D03*
X780000Y650000D02*
D03*
X785000Y640000D02*
D03*
X780000Y630000D02*
D03*
X785000Y620000D02*
D03*
X780000Y610000D02*
D03*
X785000Y600000D02*
D03*
X780000Y590000D02*
D03*
X785000Y580000D02*
D03*
X780000Y570000D02*
D03*
X785000Y560000D02*
D03*
X780000Y550000D02*
D03*
X785000Y540000D02*
D03*
X780000Y530000D02*
D03*
X785000Y520000D02*
D03*
X780000Y410000D02*
D03*
X785000Y400000D02*
D03*
X780000Y390000D02*
D03*
X785000Y380000D02*
D03*
X780000Y370000D02*
D03*
X785000Y360000D02*
D03*
X780000Y350000D02*
D03*
X785000Y340000D02*
D03*
X780000Y330000D02*
D03*
X785000Y320000D02*
D03*
X780000Y310000D02*
D03*
X785000Y300000D02*
D03*
X780000Y290000D02*
D03*
X785000Y280000D02*
D03*
X780000Y270000D02*
D03*
X785000Y260000D02*
D03*
X780000Y250000D02*
D03*
X785000Y240000D02*
D03*
X780000Y230000D02*
D03*
X785000Y220000D02*
D03*
X780000Y210000D02*
D03*
X785000Y200000D02*
D03*
X780000Y190000D02*
D03*
X785000Y180000D02*
D03*
X780000Y170000D02*
D03*
X785000Y160000D02*
D03*
X780000Y150000D02*
D03*
X770000Y770000D02*
D03*
X775000Y760000D02*
D03*
X770000Y750000D02*
D03*
X775000Y740000D02*
D03*
X770000Y730000D02*
D03*
X775000Y720000D02*
D03*
X770000Y710000D02*
D03*
X775000Y700000D02*
D03*
X770000Y690000D02*
D03*
X775000Y680000D02*
D03*
X770000Y670000D02*
D03*
X775000Y660000D02*
D03*
X770000Y650000D02*
D03*
X775000Y640000D02*
D03*
X770000Y630000D02*
D03*
X775000Y620000D02*
D03*
X770000Y610000D02*
D03*
X775000Y600000D02*
D03*
X770000Y590000D02*
D03*
X775000Y580000D02*
D03*
X770000Y570000D02*
D03*
X775000Y560000D02*
D03*
X770000Y550000D02*
D03*
X775000Y540000D02*
D03*
X770000Y530000D02*
D03*
X775000Y520000D02*
D03*
X770000Y510000D02*
D03*
Y430000D02*
D03*
Y410000D02*
D03*
X775000Y400000D02*
D03*
X770000Y390000D02*
D03*
X775000Y380000D02*
D03*
X770000Y370000D02*
D03*
X775000Y360000D02*
D03*
X770000Y350000D02*
D03*
X775000Y340000D02*
D03*
X770000Y330000D02*
D03*
X775000Y320000D02*
D03*
X770000Y310000D02*
D03*
X775000Y300000D02*
D03*
X770000Y290000D02*
D03*
X775000Y280000D02*
D03*
X770000Y270000D02*
D03*
X775000Y260000D02*
D03*
X770000Y250000D02*
D03*
X775000Y240000D02*
D03*
X770000Y230000D02*
D03*
X775000Y220000D02*
D03*
X770000Y210000D02*
D03*
X775000Y200000D02*
D03*
X770000Y190000D02*
D03*
X775000Y180000D02*
D03*
X770000Y170000D02*
D03*
X775000Y160000D02*
D03*
X770000Y150000D02*
D03*
X765000Y800000D02*
D03*
X760000Y790000D02*
D03*
X765000Y780000D02*
D03*
X760000Y770000D02*
D03*
X765000Y760000D02*
D03*
X760000Y750000D02*
D03*
X765000Y740000D02*
D03*
X760000Y730000D02*
D03*
X765000Y720000D02*
D03*
X760000Y710000D02*
D03*
X765000Y700000D02*
D03*
X760000Y690000D02*
D03*
X765000Y680000D02*
D03*
X760000Y670000D02*
D03*
X765000Y660000D02*
D03*
X760000Y650000D02*
D03*
X765000Y640000D02*
D03*
X760000Y630000D02*
D03*
X765000Y620000D02*
D03*
X760000Y610000D02*
D03*
X765000Y600000D02*
D03*
X760000Y590000D02*
D03*
X765000Y580000D02*
D03*
X760000Y570000D02*
D03*
X765000Y560000D02*
D03*
X760000Y550000D02*
D03*
X765000Y540000D02*
D03*
X760000Y530000D02*
D03*
X765000Y520000D02*
D03*
X760000Y490000D02*
D03*
X765000Y480000D02*
D03*
X760000Y470000D02*
D03*
X765000Y400000D02*
D03*
X760000Y390000D02*
D03*
X765000Y380000D02*
D03*
X760000Y370000D02*
D03*
X765000Y360000D02*
D03*
X760000Y350000D02*
D03*
X765000Y340000D02*
D03*
X760000Y330000D02*
D03*
X765000Y320000D02*
D03*
X760000Y310000D02*
D03*
X765000Y300000D02*
D03*
X760000Y290000D02*
D03*
X765000Y280000D02*
D03*
X760000Y270000D02*
D03*
X765000Y260000D02*
D03*
X760000Y250000D02*
D03*
X765000Y240000D02*
D03*
X760000Y230000D02*
D03*
X765000Y220000D02*
D03*
X760000Y210000D02*
D03*
X765000Y200000D02*
D03*
X760000Y190000D02*
D03*
X765000Y180000D02*
D03*
X760000Y170000D02*
D03*
X765000Y160000D02*
D03*
X760000Y150000D02*
D03*
X765000Y140000D02*
D03*
X760000Y130000D02*
D03*
X765000Y120000D02*
D03*
X760000Y110000D02*
D03*
X755000Y800000D02*
D03*
X750000Y790000D02*
D03*
X755000Y780000D02*
D03*
X750000Y770000D02*
D03*
X755000Y760000D02*
D03*
X750000Y750000D02*
D03*
X755000Y740000D02*
D03*
X750000Y730000D02*
D03*
X755000Y720000D02*
D03*
X750000Y710000D02*
D03*
X755000Y700000D02*
D03*
X750000Y690000D02*
D03*
X755000Y680000D02*
D03*
X750000Y670000D02*
D03*
X755000Y660000D02*
D03*
X750000Y650000D02*
D03*
X755000Y640000D02*
D03*
X750000Y630000D02*
D03*
X755000Y620000D02*
D03*
X750000Y610000D02*
D03*
X755000Y600000D02*
D03*
X750000Y590000D02*
D03*
X755000Y580000D02*
D03*
X750000Y570000D02*
D03*
X755000Y560000D02*
D03*
X750000Y550000D02*
D03*
X755000Y540000D02*
D03*
X750000Y530000D02*
D03*
X755000Y520000D02*
D03*
Y500000D02*
D03*
X750000Y490000D02*
D03*
X755000Y480000D02*
D03*
X750000Y470000D02*
D03*
X755000Y460000D02*
D03*
X750000Y430000D02*
D03*
X755000Y420000D02*
D03*
Y400000D02*
D03*
X750000Y390000D02*
D03*
X755000Y380000D02*
D03*
X750000Y370000D02*
D03*
X755000Y360000D02*
D03*
X750000Y350000D02*
D03*
X755000Y340000D02*
D03*
X750000Y330000D02*
D03*
X755000Y320000D02*
D03*
X750000Y310000D02*
D03*
X755000Y300000D02*
D03*
X750000Y290000D02*
D03*
X755000Y280000D02*
D03*
X750000Y270000D02*
D03*
X755000Y260000D02*
D03*
X750000Y250000D02*
D03*
X755000Y240000D02*
D03*
X750000Y230000D02*
D03*
X755000Y220000D02*
D03*
X750000Y210000D02*
D03*
X755000Y200000D02*
D03*
X750000Y190000D02*
D03*
X755000Y180000D02*
D03*
X750000Y170000D02*
D03*
X755000Y160000D02*
D03*
X750000Y150000D02*
D03*
X755000Y140000D02*
D03*
X750000Y130000D02*
D03*
X755000Y120000D02*
D03*
X750000Y110000D02*
D03*
X745000Y800000D02*
D03*
X740000Y790000D02*
D03*
X745000Y780000D02*
D03*
X740000Y770000D02*
D03*
X745000Y760000D02*
D03*
X740000Y750000D02*
D03*
X745000Y740000D02*
D03*
X740000Y730000D02*
D03*
X745000Y720000D02*
D03*
X740000Y710000D02*
D03*
X745000Y700000D02*
D03*
X740000Y690000D02*
D03*
X745000Y680000D02*
D03*
X740000Y670000D02*
D03*
X745000Y660000D02*
D03*
X740000Y650000D02*
D03*
X745000Y640000D02*
D03*
X740000Y630000D02*
D03*
X745000Y620000D02*
D03*
X740000Y610000D02*
D03*
X745000Y600000D02*
D03*
X740000Y590000D02*
D03*
X745000Y580000D02*
D03*
X740000Y570000D02*
D03*
X745000Y560000D02*
D03*
X740000Y550000D02*
D03*
X745000Y540000D02*
D03*
X740000Y510000D02*
D03*
X745000Y500000D02*
D03*
X740000Y490000D02*
D03*
X745000Y480000D02*
D03*
X740000Y470000D02*
D03*
X745000Y460000D02*
D03*
X740000Y430000D02*
D03*
X745000Y420000D02*
D03*
Y400000D02*
D03*
X740000Y390000D02*
D03*
X745000Y380000D02*
D03*
X740000Y370000D02*
D03*
X745000Y360000D02*
D03*
X740000Y350000D02*
D03*
X745000Y340000D02*
D03*
X740000Y330000D02*
D03*
X745000Y320000D02*
D03*
X740000Y310000D02*
D03*
X745000Y300000D02*
D03*
X740000Y290000D02*
D03*
X745000Y280000D02*
D03*
X740000Y270000D02*
D03*
X745000Y260000D02*
D03*
X740000Y250000D02*
D03*
X745000Y240000D02*
D03*
X740000Y230000D02*
D03*
X745000Y220000D02*
D03*
X740000Y210000D02*
D03*
X745000Y200000D02*
D03*
X740000Y190000D02*
D03*
X745000Y180000D02*
D03*
X740000Y170000D02*
D03*
X745000Y160000D02*
D03*
X740000Y150000D02*
D03*
X745000Y140000D02*
D03*
X740000Y130000D02*
D03*
X745000Y120000D02*
D03*
X740000Y110000D02*
D03*
X735000Y800000D02*
D03*
X730000Y790000D02*
D03*
X735000Y780000D02*
D03*
X730000Y770000D02*
D03*
X735000Y760000D02*
D03*
X730000Y750000D02*
D03*
X735000Y740000D02*
D03*
X730000Y730000D02*
D03*
X735000Y720000D02*
D03*
X730000Y710000D02*
D03*
X735000Y700000D02*
D03*
X730000Y690000D02*
D03*
X735000Y680000D02*
D03*
X730000Y670000D02*
D03*
X735000Y660000D02*
D03*
X730000Y650000D02*
D03*
X735000Y640000D02*
D03*
X730000Y630000D02*
D03*
X735000Y620000D02*
D03*
X730000Y610000D02*
D03*
X735000Y600000D02*
D03*
X730000Y590000D02*
D03*
X735000Y580000D02*
D03*
X730000Y570000D02*
D03*
X735000Y560000D02*
D03*
X730000Y550000D02*
D03*
X735000Y540000D02*
D03*
Y520000D02*
D03*
X730000Y510000D02*
D03*
X735000Y500000D02*
D03*
Y480000D02*
D03*
Y460000D02*
D03*
Y420000D02*
D03*
Y400000D02*
D03*
X730000Y390000D02*
D03*
X735000Y380000D02*
D03*
X730000Y370000D02*
D03*
X735000Y360000D02*
D03*
Y340000D02*
D03*
X730000Y330000D02*
D03*
X735000Y320000D02*
D03*
X730000Y310000D02*
D03*
X735000Y300000D02*
D03*
X730000Y290000D02*
D03*
X735000Y280000D02*
D03*
X730000Y270000D02*
D03*
X735000Y260000D02*
D03*
X730000Y250000D02*
D03*
X735000Y240000D02*
D03*
X730000Y230000D02*
D03*
X735000Y220000D02*
D03*
X730000Y210000D02*
D03*
X735000Y200000D02*
D03*
X730000Y190000D02*
D03*
X735000Y180000D02*
D03*
X730000Y170000D02*
D03*
X735000Y160000D02*
D03*
X730000Y150000D02*
D03*
X735000Y140000D02*
D03*
X730000Y130000D02*
D03*
X735000Y120000D02*
D03*
X730000Y110000D02*
D03*
X725000Y800000D02*
D03*
X720000Y790000D02*
D03*
X725000Y780000D02*
D03*
X720000Y770000D02*
D03*
X725000Y760000D02*
D03*
X720000Y750000D02*
D03*
X725000Y740000D02*
D03*
X720000Y730000D02*
D03*
X725000Y720000D02*
D03*
X720000Y710000D02*
D03*
X725000Y700000D02*
D03*
X720000Y690000D02*
D03*
X725000Y680000D02*
D03*
X720000Y670000D02*
D03*
X725000Y660000D02*
D03*
X720000Y650000D02*
D03*
X725000Y640000D02*
D03*
X720000Y630000D02*
D03*
X725000Y620000D02*
D03*
X720000Y610000D02*
D03*
X725000Y600000D02*
D03*
X720000Y590000D02*
D03*
X725000Y580000D02*
D03*
X720000Y570000D02*
D03*
X725000Y560000D02*
D03*
X720000Y530000D02*
D03*
X725000Y520000D02*
D03*
X720000Y510000D02*
D03*
Y490000D02*
D03*
X725000Y400000D02*
D03*
Y360000D02*
D03*
Y340000D02*
D03*
Y320000D02*
D03*
Y300000D02*
D03*
X720000Y290000D02*
D03*
X725000Y280000D02*
D03*
X720000Y270000D02*
D03*
X725000Y260000D02*
D03*
X720000Y250000D02*
D03*
X725000Y240000D02*
D03*
X720000Y230000D02*
D03*
X725000Y220000D02*
D03*
X720000Y210000D02*
D03*
X725000Y200000D02*
D03*
X720000Y190000D02*
D03*
X725000Y180000D02*
D03*
X720000Y170000D02*
D03*
X725000Y160000D02*
D03*
X720000Y150000D02*
D03*
X725000Y140000D02*
D03*
X720000Y130000D02*
D03*
X725000Y120000D02*
D03*
X720000Y110000D02*
D03*
X715000Y800000D02*
D03*
X710000Y790000D02*
D03*
X715000Y780000D02*
D03*
X710000Y770000D02*
D03*
Y750000D02*
D03*
X715000Y740000D02*
D03*
X710000Y710000D02*
D03*
X715000Y700000D02*
D03*
Y680000D02*
D03*
Y660000D02*
D03*
Y640000D02*
D03*
Y620000D02*
D03*
X710000Y610000D02*
D03*
Y590000D02*
D03*
X715000Y580000D02*
D03*
X710000Y570000D02*
D03*
X715000Y560000D02*
D03*
Y540000D02*
D03*
X710000Y530000D02*
D03*
X715000Y520000D02*
D03*
X710000Y510000D02*
D03*
Y490000D02*
D03*
X715000Y480000D02*
D03*
X710000Y470000D02*
D03*
Y330000D02*
D03*
Y310000D02*
D03*
X715000Y280000D02*
D03*
Y260000D02*
D03*
Y240000D02*
D03*
Y220000D02*
D03*
X710000Y210000D02*
D03*
X715000Y200000D02*
D03*
X710000Y190000D02*
D03*
X715000Y180000D02*
D03*
X710000Y170000D02*
D03*
X715000Y160000D02*
D03*
X710000Y150000D02*
D03*
X715000Y140000D02*
D03*
X710000Y130000D02*
D03*
X715000Y120000D02*
D03*
X710000Y110000D02*
D03*
X705000Y800000D02*
D03*
X700000Y790000D02*
D03*
X705000Y780000D02*
D03*
X700000Y770000D02*
D03*
Y750000D02*
D03*
X705000Y740000D02*
D03*
X700000Y730000D02*
D03*
Y710000D02*
D03*
X705000Y700000D02*
D03*
X700000Y690000D02*
D03*
X705000Y680000D02*
D03*
X700000Y670000D02*
D03*
X705000Y660000D02*
D03*
X700000Y650000D02*
D03*
Y630000D02*
D03*
X705000Y620000D02*
D03*
X700000Y610000D02*
D03*
Y590000D02*
D03*
X705000Y580000D02*
D03*
X700000Y550000D02*
D03*
X705000Y540000D02*
D03*
X700000Y530000D02*
D03*
X705000Y520000D02*
D03*
X700000Y510000D02*
D03*
X705000Y480000D02*
D03*
X700000Y390000D02*
D03*
X705000Y340000D02*
D03*
X700000Y330000D02*
D03*
X705000Y320000D02*
D03*
X700000Y310000D02*
D03*
X705000Y260000D02*
D03*
Y240000D02*
D03*
Y220000D02*
D03*
Y200000D02*
D03*
X700000Y190000D02*
D03*
X705000Y180000D02*
D03*
X700000Y170000D02*
D03*
X705000Y160000D02*
D03*
X700000Y150000D02*
D03*
X705000Y140000D02*
D03*
X700000Y130000D02*
D03*
X705000Y120000D02*
D03*
X700000Y110000D02*
D03*
X695000Y800000D02*
D03*
X690000Y790000D02*
D03*
X695000Y780000D02*
D03*
X690000Y770000D02*
D03*
X695000Y740000D02*
D03*
Y700000D02*
D03*
Y680000D02*
D03*
Y640000D02*
D03*
Y620000D02*
D03*
X690000Y590000D02*
D03*
X695000Y580000D02*
D03*
Y560000D02*
D03*
X690000Y550000D02*
D03*
X695000Y540000D02*
D03*
X690000Y530000D02*
D03*
X695000Y520000D02*
D03*
X690000Y510000D02*
D03*
X695000Y400000D02*
D03*
Y280000D02*
D03*
X690000Y270000D02*
D03*
X695000Y260000D02*
D03*
X690000Y250000D02*
D03*
Y230000D02*
D03*
X695000Y200000D02*
D03*
X690000Y190000D02*
D03*
X695000Y180000D02*
D03*
X690000Y170000D02*
D03*
X695000Y160000D02*
D03*
X690000Y150000D02*
D03*
X695000Y140000D02*
D03*
X690000Y130000D02*
D03*
X695000Y120000D02*
D03*
X690000Y110000D02*
D03*
X685000Y800000D02*
D03*
X680000Y790000D02*
D03*
X685000Y780000D02*
D03*
X680000Y770000D02*
D03*
Y750000D02*
D03*
Y730000D02*
D03*
Y690000D02*
D03*
X685000Y680000D02*
D03*
X680000Y670000D02*
D03*
Y650000D02*
D03*
Y630000D02*
D03*
Y610000D02*
D03*
X685000Y580000D02*
D03*
Y560000D02*
D03*
Y540000D02*
D03*
Y520000D02*
D03*
Y480000D02*
D03*
Y340000D02*
D03*
X680000Y330000D02*
D03*
X685000Y320000D02*
D03*
X680000Y310000D02*
D03*
X685000Y300000D02*
D03*
Y260000D02*
D03*
Y220000D02*
D03*
Y200000D02*
D03*
X680000Y190000D02*
D03*
X685000Y180000D02*
D03*
X680000Y170000D02*
D03*
X685000Y160000D02*
D03*
X680000Y150000D02*
D03*
X685000Y140000D02*
D03*
X680000Y130000D02*
D03*
X685000Y120000D02*
D03*
X680000Y110000D02*
D03*
X675000Y800000D02*
D03*
X670000Y790000D02*
D03*
X675000Y780000D02*
D03*
X670000Y770000D02*
D03*
X675000Y740000D02*
D03*
Y700000D02*
D03*
Y680000D02*
D03*
Y640000D02*
D03*
X670000Y610000D02*
D03*
Y590000D02*
D03*
Y530000D02*
D03*
Y510000D02*
D03*
Y450000D02*
D03*
X675000Y360000D02*
D03*
Y340000D02*
D03*
Y320000D02*
D03*
Y280000D02*
D03*
Y260000D02*
D03*
Y200000D02*
D03*
X670000Y190000D02*
D03*
X675000Y180000D02*
D03*
X670000Y170000D02*
D03*
X675000Y160000D02*
D03*
X670000Y150000D02*
D03*
X675000Y140000D02*
D03*
X670000Y130000D02*
D03*
X675000Y120000D02*
D03*
X670000Y110000D02*
D03*
X665000Y800000D02*
D03*
X660000Y790000D02*
D03*
X665000Y780000D02*
D03*
X660000Y770000D02*
D03*
X665000Y740000D02*
D03*
X660000Y730000D02*
D03*
X665000Y700000D02*
D03*
X660000Y690000D02*
D03*
Y670000D02*
D03*
Y650000D02*
D03*
Y630000D02*
D03*
Y610000D02*
D03*
Y590000D02*
D03*
X665000Y580000D02*
D03*
Y540000D02*
D03*
X660000Y530000D02*
D03*
X665000Y520000D02*
D03*
X660000Y510000D02*
D03*
X665000Y480000D02*
D03*
X660000Y450000D02*
D03*
Y430000D02*
D03*
Y350000D02*
D03*
Y330000D02*
D03*
Y310000D02*
D03*
X665000Y260000D02*
D03*
Y220000D02*
D03*
Y200000D02*
D03*
X660000Y190000D02*
D03*
X665000Y180000D02*
D03*
X660000Y170000D02*
D03*
X665000Y160000D02*
D03*
X660000Y150000D02*
D03*
X665000Y140000D02*
D03*
X660000Y130000D02*
D03*
X665000Y120000D02*
D03*
X660000Y110000D02*
D03*
X655000Y800000D02*
D03*
X650000Y790000D02*
D03*
X655000Y780000D02*
D03*
X650000Y770000D02*
D03*
X655000Y760000D02*
D03*
Y740000D02*
D03*
X650000Y730000D02*
D03*
X655000Y700000D02*
D03*
X650000Y630000D02*
D03*
X655000Y600000D02*
D03*
Y580000D02*
D03*
Y520000D02*
D03*
Y400000D02*
D03*
X650000Y390000D02*
D03*
X655000Y340000D02*
D03*
X650000Y330000D02*
D03*
X655000Y320000D02*
D03*
X650000Y310000D02*
D03*
X655000Y280000D02*
D03*
X650000Y270000D02*
D03*
X655000Y260000D02*
D03*
X650000Y250000D02*
D03*
X655000Y220000D02*
D03*
Y200000D02*
D03*
X650000Y190000D02*
D03*
X655000Y180000D02*
D03*
X650000Y170000D02*
D03*
X655000Y160000D02*
D03*
X650000Y150000D02*
D03*
X655000Y140000D02*
D03*
X650000Y130000D02*
D03*
X655000Y120000D02*
D03*
X650000Y110000D02*
D03*
X645000Y800000D02*
D03*
X640000Y790000D02*
D03*
X645000Y780000D02*
D03*
X640000Y770000D02*
D03*
Y610000D02*
D03*
Y570000D02*
D03*
X645000Y560000D02*
D03*
X640000Y550000D02*
D03*
Y510000D02*
D03*
Y450000D02*
D03*
X645000Y260000D02*
D03*
X640000Y250000D02*
D03*
X645000Y220000D02*
D03*
Y200000D02*
D03*
X640000Y190000D02*
D03*
X645000Y180000D02*
D03*
X640000Y170000D02*
D03*
X645000Y160000D02*
D03*
X640000Y150000D02*
D03*
X645000Y140000D02*
D03*
X640000Y130000D02*
D03*
X645000Y120000D02*
D03*
X640000Y110000D02*
D03*
X635000Y800000D02*
D03*
X630000Y790000D02*
D03*
X635000Y780000D02*
D03*
Y700000D02*
D03*
Y580000D02*
D03*
X630000Y570000D02*
D03*
X635000Y560000D02*
D03*
X630000Y550000D02*
D03*
X635000Y540000D02*
D03*
Y520000D02*
D03*
Y460000D02*
D03*
X630000Y370000D02*
D03*
Y350000D02*
D03*
X635000Y340000D02*
D03*
X630000Y330000D02*
D03*
X635000Y320000D02*
D03*
X630000Y290000D02*
D03*
X635000Y280000D02*
D03*
Y260000D02*
D03*
Y220000D02*
D03*
Y200000D02*
D03*
X630000Y190000D02*
D03*
X635000Y180000D02*
D03*
X630000Y170000D02*
D03*
X635000Y160000D02*
D03*
X630000Y150000D02*
D03*
X635000Y140000D02*
D03*
X630000Y130000D02*
D03*
X635000Y120000D02*
D03*
X630000Y110000D02*
D03*
X625000Y800000D02*
D03*
X620000Y790000D02*
D03*
X625000Y780000D02*
D03*
X620000Y650000D02*
D03*
X625000Y580000D02*
D03*
Y560000D02*
D03*
Y540000D02*
D03*
X620000Y450000D02*
D03*
Y430000D02*
D03*
X625000Y400000D02*
D03*
X620000Y390000D02*
D03*
X625000Y360000D02*
D03*
Y340000D02*
D03*
X620000Y310000D02*
D03*
X625000Y300000D02*
D03*
X620000Y290000D02*
D03*
X625000Y280000D02*
D03*
Y220000D02*
D03*
Y200000D02*
D03*
X620000Y190000D02*
D03*
X625000Y180000D02*
D03*
X620000Y170000D02*
D03*
X625000Y160000D02*
D03*
X620000Y150000D02*
D03*
X625000Y140000D02*
D03*
X620000Y130000D02*
D03*
X625000Y120000D02*
D03*
X620000Y110000D02*
D03*
X615000Y800000D02*
D03*
X610000Y790000D02*
D03*
X615000Y780000D02*
D03*
Y740000D02*
D03*
X610000Y730000D02*
D03*
Y530000D02*
D03*
Y510000D02*
D03*
Y450000D02*
D03*
X615000Y440000D02*
D03*
Y400000D02*
D03*
Y360000D02*
D03*
Y340000D02*
D03*
X610000Y330000D02*
D03*
Y190000D02*
D03*
X615000Y180000D02*
D03*
X610000Y170000D02*
D03*
X615000Y160000D02*
D03*
X610000Y150000D02*
D03*
X615000Y140000D02*
D03*
X610000Y130000D02*
D03*
X615000Y120000D02*
D03*
X610000Y110000D02*
D03*
X605000Y800000D02*
D03*
X600000Y790000D02*
D03*
X605000Y780000D02*
D03*
Y760000D02*
D03*
Y740000D02*
D03*
X600000Y650000D02*
D03*
X605000Y560000D02*
D03*
Y540000D02*
D03*
Y520000D02*
D03*
X600000Y450000D02*
D03*
Y370000D02*
D03*
Y330000D02*
D03*
Y210000D02*
D03*
X605000Y200000D02*
D03*
X600000Y190000D02*
D03*
X605000Y180000D02*
D03*
X600000Y170000D02*
D03*
X605000Y160000D02*
D03*
X600000Y150000D02*
D03*
X605000Y140000D02*
D03*
X600000Y130000D02*
D03*
X605000Y120000D02*
D03*
X600000Y110000D02*
D03*
X595000Y800000D02*
D03*
X590000Y790000D02*
D03*
X595000Y780000D02*
D03*
Y740000D02*
D03*
X590000Y730000D02*
D03*
Y690000D02*
D03*
Y550000D02*
D03*
Y530000D02*
D03*
Y510000D02*
D03*
Y470000D02*
D03*
X595000Y460000D02*
D03*
X590000Y450000D02*
D03*
X595000Y440000D02*
D03*
X590000Y430000D02*
D03*
X595000Y420000D02*
D03*
X590000Y410000D02*
D03*
X595000Y400000D02*
D03*
Y380000D02*
D03*
X590000Y370000D02*
D03*
X595000Y360000D02*
D03*
X590000Y350000D02*
D03*
X595000Y340000D02*
D03*
X590000Y330000D02*
D03*
X595000Y240000D02*
D03*
Y220000D02*
D03*
X590000Y210000D02*
D03*
X595000Y200000D02*
D03*
X590000Y190000D02*
D03*
X595000Y180000D02*
D03*
X590000Y170000D02*
D03*
X595000Y160000D02*
D03*
X590000Y150000D02*
D03*
X595000Y140000D02*
D03*
X590000Y130000D02*
D03*
X595000Y120000D02*
D03*
X590000Y110000D02*
D03*
X585000Y800000D02*
D03*
X580000Y790000D02*
D03*
X585000Y780000D02*
D03*
Y740000D02*
D03*
X580000Y710000D02*
D03*
Y650000D02*
D03*
X585000Y540000D02*
D03*
X580000Y530000D02*
D03*
X585000Y520000D02*
D03*
X580000Y510000D02*
D03*
X585000Y500000D02*
D03*
X580000Y470000D02*
D03*
X585000Y460000D02*
D03*
X580000Y450000D02*
D03*
X585000Y440000D02*
D03*
X580000Y430000D02*
D03*
X585000Y420000D02*
D03*
X580000Y410000D02*
D03*
X585000Y400000D02*
D03*
X580000Y390000D02*
D03*
X585000Y340000D02*
D03*
Y300000D02*
D03*
X580000Y210000D02*
D03*
X585000Y200000D02*
D03*
X580000Y190000D02*
D03*
X585000Y180000D02*
D03*
Y160000D02*
D03*
X580000Y150000D02*
D03*
X585000Y140000D02*
D03*
X580000Y130000D02*
D03*
X585000Y120000D02*
D03*
X580000Y110000D02*
D03*
X575000Y800000D02*
D03*
X570000Y790000D02*
D03*
X575000Y780000D02*
D03*
X570000Y470000D02*
D03*
X575000Y460000D02*
D03*
X570000Y450000D02*
D03*
X575000Y440000D02*
D03*
X570000Y430000D02*
D03*
X575000Y420000D02*
D03*
X570000Y410000D02*
D03*
X575000Y400000D02*
D03*
X570000Y390000D02*
D03*
X575000Y380000D02*
D03*
X570000Y370000D02*
D03*
Y350000D02*
D03*
Y330000D02*
D03*
Y290000D02*
D03*
X575000Y260000D02*
D03*
Y240000D02*
D03*
Y160000D02*
D03*
X570000Y150000D02*
D03*
X575000Y140000D02*
D03*
X570000Y130000D02*
D03*
X575000Y120000D02*
D03*
X570000Y110000D02*
D03*
X565000Y800000D02*
D03*
X560000Y790000D02*
D03*
X565000Y780000D02*
D03*
X560000Y730000D02*
D03*
Y690000D02*
D03*
Y470000D02*
D03*
X565000Y460000D02*
D03*
X560000Y450000D02*
D03*
X565000Y440000D02*
D03*
X560000Y430000D02*
D03*
X565000Y420000D02*
D03*
X560000Y410000D02*
D03*
X565000Y400000D02*
D03*
X560000Y390000D02*
D03*
X565000Y380000D02*
D03*
X560000Y370000D02*
D03*
Y350000D02*
D03*
X565000Y340000D02*
D03*
X560000Y330000D02*
D03*
X565000Y300000D02*
D03*
X560000Y290000D02*
D03*
X565000Y260000D02*
D03*
X560000Y230000D02*
D03*
Y170000D02*
D03*
X565000Y160000D02*
D03*
X560000Y150000D02*
D03*
X565000Y140000D02*
D03*
X560000Y130000D02*
D03*
X565000Y120000D02*
D03*
X560000Y110000D02*
D03*
X555000Y800000D02*
D03*
X550000Y790000D02*
D03*
X555000Y780000D02*
D03*
Y640000D02*
D03*
Y600000D02*
D03*
Y540000D02*
D03*
X550000Y530000D02*
D03*
X555000Y520000D02*
D03*
X550000Y510000D02*
D03*
X555000Y500000D02*
D03*
X550000Y490000D02*
D03*
X555000Y440000D02*
D03*
X550000Y430000D02*
D03*
Y330000D02*
D03*
X555000Y300000D02*
D03*
Y160000D02*
D03*
X550000Y150000D02*
D03*
X555000Y140000D02*
D03*
X550000Y130000D02*
D03*
X555000Y120000D02*
D03*
X550000Y110000D02*
D03*
X545000Y800000D02*
D03*
X540000Y790000D02*
D03*
X545000Y780000D02*
D03*
X540000Y770000D02*
D03*
Y730000D02*
D03*
Y710000D02*
D03*
X545000Y680000D02*
D03*
X540000Y670000D02*
D03*
Y630000D02*
D03*
X545000Y620000D02*
D03*
X540000Y530000D02*
D03*
X545000Y520000D02*
D03*
X540000Y510000D02*
D03*
X545000Y460000D02*
D03*
Y440000D02*
D03*
Y380000D02*
D03*
Y340000D02*
D03*
Y300000D02*
D03*
Y280000D02*
D03*
Y260000D02*
D03*
Y160000D02*
D03*
X540000Y150000D02*
D03*
X545000Y140000D02*
D03*
X540000Y130000D02*
D03*
X545000Y120000D02*
D03*
X540000Y110000D02*
D03*
X535000Y800000D02*
D03*
X530000Y790000D02*
D03*
X535000Y780000D02*
D03*
X530000Y770000D02*
D03*
X535000Y760000D02*
D03*
X530000Y730000D02*
D03*
X535000Y720000D02*
D03*
X530000Y710000D02*
D03*
X535000Y680000D02*
D03*
X530000Y670000D02*
D03*
X535000Y640000D02*
D03*
X530000Y630000D02*
D03*
X535000Y620000D02*
D03*
Y540000D02*
D03*
X530000Y530000D02*
D03*
X535000Y520000D02*
D03*
X530000Y510000D02*
D03*
X535000Y500000D02*
D03*
X530000Y470000D02*
D03*
Y450000D02*
D03*
Y430000D02*
D03*
X535000Y300000D02*
D03*
Y200000D02*
D03*
Y160000D02*
D03*
X530000Y150000D02*
D03*
X535000Y140000D02*
D03*
X530000Y130000D02*
D03*
X535000Y120000D02*
D03*
X530000Y110000D02*
D03*
X525000Y800000D02*
D03*
X520000Y790000D02*
D03*
X525000Y780000D02*
D03*
X520000Y770000D02*
D03*
Y710000D02*
D03*
X525000Y680000D02*
D03*
Y620000D02*
D03*
Y540000D02*
D03*
X520000Y530000D02*
D03*
X525000Y520000D02*
D03*
X520000Y510000D02*
D03*
X525000Y500000D02*
D03*
X520000Y470000D02*
D03*
X525000Y460000D02*
D03*
Y440000D02*
D03*
Y420000D02*
D03*
X520000Y370000D02*
D03*
Y350000D02*
D03*
X525000Y300000D02*
D03*
X520000Y230000D02*
D03*
X525000Y160000D02*
D03*
X520000Y150000D02*
D03*
X525000Y140000D02*
D03*
X520000Y130000D02*
D03*
X525000Y120000D02*
D03*
X520000Y110000D02*
D03*
X515000Y800000D02*
D03*
X510000Y790000D02*
D03*
X515000Y780000D02*
D03*
X510000Y770000D02*
D03*
X515000Y760000D02*
D03*
X510000Y730000D02*
D03*
X515000Y720000D02*
D03*
X510000Y710000D02*
D03*
X515000Y680000D02*
D03*
X510000Y670000D02*
D03*
X515000Y640000D02*
D03*
X510000Y630000D02*
D03*
X515000Y620000D02*
D03*
X510000Y570000D02*
D03*
Y550000D02*
D03*
X515000Y540000D02*
D03*
X510000Y530000D02*
D03*
X515000Y520000D02*
D03*
Y460000D02*
D03*
Y440000D02*
D03*
Y320000D02*
D03*
Y300000D02*
D03*
Y160000D02*
D03*
X510000Y150000D02*
D03*
X515000Y140000D02*
D03*
X510000Y130000D02*
D03*
X515000Y120000D02*
D03*
X510000Y110000D02*
D03*
X505000Y800000D02*
D03*
X500000Y790000D02*
D03*
X505000Y780000D02*
D03*
Y680000D02*
D03*
Y620000D02*
D03*
X500000Y570000D02*
D03*
X505000Y560000D02*
D03*
X500000Y550000D02*
D03*
X505000Y540000D02*
D03*
X500000Y530000D02*
D03*
X505000Y520000D02*
D03*
X500000Y490000D02*
D03*
X505000Y300000D02*
D03*
Y280000D02*
D03*
Y160000D02*
D03*
X500000Y150000D02*
D03*
X505000Y140000D02*
D03*
X500000Y130000D02*
D03*
X505000Y120000D02*
D03*
X500000Y110000D02*
D03*
X495000Y800000D02*
D03*
X490000Y790000D02*
D03*
X495000Y780000D02*
D03*
Y760000D02*
D03*
X490000Y730000D02*
D03*
X495000Y700000D02*
D03*
X490000Y630000D02*
D03*
Y610000D02*
D03*
Y570000D02*
D03*
X495000Y560000D02*
D03*
X490000Y550000D02*
D03*
X495000Y540000D02*
D03*
X490000Y530000D02*
D03*
X495000Y520000D02*
D03*
X490000Y470000D02*
D03*
Y450000D02*
D03*
X495000Y440000D02*
D03*
X490000Y430000D02*
D03*
X495000Y380000D02*
D03*
Y320000D02*
D03*
Y300000D02*
D03*
Y160000D02*
D03*
X490000Y150000D02*
D03*
X495000Y140000D02*
D03*
X490000Y130000D02*
D03*
X495000Y120000D02*
D03*
X490000Y110000D02*
D03*
X485000Y800000D02*
D03*
X480000Y790000D02*
D03*
X485000Y780000D02*
D03*
Y700000D02*
D03*
Y660000D02*
D03*
X480000Y570000D02*
D03*
X485000Y560000D02*
D03*
X480000Y550000D02*
D03*
X485000Y540000D02*
D03*
X480000Y530000D02*
D03*
X485000Y520000D02*
D03*
Y500000D02*
D03*
X480000Y470000D02*
D03*
X485000Y440000D02*
D03*
Y320000D02*
D03*
Y300000D02*
D03*
Y260000D02*
D03*
Y220000D02*
D03*
Y200000D02*
D03*
X480000Y190000D02*
D03*
Y170000D02*
D03*
X485000Y160000D02*
D03*
X480000Y150000D02*
D03*
X485000Y140000D02*
D03*
X480000Y130000D02*
D03*
X485000Y120000D02*
D03*
X480000Y110000D02*
D03*
X475000Y800000D02*
D03*
X470000Y790000D02*
D03*
X475000Y780000D02*
D03*
X470000Y570000D02*
D03*
X475000Y560000D02*
D03*
Y540000D02*
D03*
Y520000D02*
D03*
X470000Y310000D02*
D03*
X475000Y300000D02*
D03*
X465000Y800000D02*
D03*
X460000Y790000D02*
D03*
X465000Y780000D02*
D03*
Y600000D02*
D03*
X460000Y550000D02*
D03*
Y530000D02*
D03*
Y510000D02*
D03*
X465000Y480000D02*
D03*
Y440000D02*
D03*
X460000Y430000D02*
D03*
Y370000D02*
D03*
X465000Y320000D02*
D03*
X460000Y310000D02*
D03*
X465000Y300000D02*
D03*
X460000Y270000D02*
D03*
Y230000D02*
D03*
X455000Y800000D02*
D03*
X450000Y790000D02*
D03*
X455000Y780000D02*
D03*
X450000Y770000D02*
D03*
Y750000D02*
D03*
Y710000D02*
D03*
X455000Y680000D02*
D03*
X450000Y650000D02*
D03*
Y610000D02*
D03*
Y570000D02*
D03*
X455000Y560000D02*
D03*
X450000Y550000D02*
D03*
X455000Y540000D02*
D03*
X450000Y530000D02*
D03*
X455000Y520000D02*
D03*
X450000Y510000D02*
D03*
X455000Y440000D02*
D03*
X450000Y430000D02*
D03*
X455000Y420000D02*
D03*
X450000Y410000D02*
D03*
Y390000D02*
D03*
X455000Y380000D02*
D03*
X450000Y370000D02*
D03*
X455000Y320000D02*
D03*
X450000Y310000D02*
D03*
X455000Y300000D02*
D03*
X450000Y290000D02*
D03*
X455000Y280000D02*
D03*
X450000Y270000D02*
D03*
X455000Y260000D02*
D03*
X450000Y230000D02*
D03*
X455000Y220000D02*
D03*
X450000Y210000D02*
D03*
X455000Y200000D02*
D03*
X450000Y190000D02*
D03*
X455000Y180000D02*
D03*
X450000Y170000D02*
D03*
X455000Y160000D02*
D03*
X450000Y150000D02*
D03*
X455000Y140000D02*
D03*
X450000Y130000D02*
D03*
X445000Y800000D02*
D03*
X440000Y790000D02*
D03*
X445000Y780000D02*
D03*
X440000Y770000D02*
D03*
Y750000D02*
D03*
X445000Y740000D02*
D03*
X440000Y710000D02*
D03*
Y690000D02*
D03*
X445000Y680000D02*
D03*
Y620000D02*
D03*
X440000Y570000D02*
D03*
X445000Y560000D02*
D03*
X440000Y550000D02*
D03*
X445000Y540000D02*
D03*
X440000Y530000D02*
D03*
X445000Y520000D02*
D03*
X440000Y510000D02*
D03*
X445000Y480000D02*
D03*
X440000Y470000D02*
D03*
X445000Y460000D02*
D03*
X440000Y450000D02*
D03*
X445000Y440000D02*
D03*
X440000Y430000D02*
D03*
X445000Y420000D02*
D03*
X440000Y410000D02*
D03*
X445000Y400000D02*
D03*
X440000Y390000D02*
D03*
X445000Y380000D02*
D03*
X440000Y370000D02*
D03*
X445000Y320000D02*
D03*
X440000Y310000D02*
D03*
X445000Y300000D02*
D03*
X440000Y290000D02*
D03*
X445000Y280000D02*
D03*
X440000Y270000D02*
D03*
X445000Y260000D02*
D03*
X435000Y800000D02*
D03*
X430000Y790000D02*
D03*
X435000Y780000D02*
D03*
X430000Y770000D02*
D03*
Y750000D02*
D03*
X435000Y740000D02*
D03*
X430000Y710000D02*
D03*
Y690000D02*
D03*
X435000Y680000D02*
D03*
X430000Y670000D02*
D03*
X435000Y660000D02*
D03*
X430000Y650000D02*
D03*
Y610000D02*
D03*
X435000Y600000D02*
D03*
X430000Y570000D02*
D03*
X435000Y560000D02*
D03*
X430000Y550000D02*
D03*
X435000Y540000D02*
D03*
X430000Y530000D02*
D03*
X435000Y520000D02*
D03*
X430000Y510000D02*
D03*
X435000Y480000D02*
D03*
X430000Y470000D02*
D03*
X435000Y460000D02*
D03*
X430000Y450000D02*
D03*
X435000Y440000D02*
D03*
X430000Y430000D02*
D03*
X435000Y420000D02*
D03*
X430000Y410000D02*
D03*
X435000Y400000D02*
D03*
X430000Y390000D02*
D03*
X435000Y380000D02*
D03*
X430000Y370000D02*
D03*
X435000Y320000D02*
D03*
X430000Y310000D02*
D03*
X435000Y300000D02*
D03*
X430000Y290000D02*
D03*
X435000Y280000D02*
D03*
X430000Y270000D02*
D03*
X435000Y260000D02*
D03*
X430000Y250000D02*
D03*
X425000Y800000D02*
D03*
X420000Y790000D02*
D03*
X425000Y780000D02*
D03*
X420000Y750000D02*
D03*
X425000Y740000D02*
D03*
X420000Y710000D02*
D03*
Y690000D02*
D03*
X425000Y680000D02*
D03*
X420000Y670000D02*
D03*
X425000Y660000D02*
D03*
X420000Y650000D02*
D03*
Y610000D02*
D03*
X425000Y600000D02*
D03*
X420000Y570000D02*
D03*
X425000Y560000D02*
D03*
X420000Y550000D02*
D03*
X425000Y540000D02*
D03*
X420000Y530000D02*
D03*
X425000Y520000D02*
D03*
X420000Y510000D02*
D03*
X425000Y480000D02*
D03*
X420000Y470000D02*
D03*
X425000Y460000D02*
D03*
X420000Y450000D02*
D03*
X425000Y440000D02*
D03*
Y420000D02*
D03*
Y400000D02*
D03*
Y380000D02*
D03*
Y320000D02*
D03*
Y300000D02*
D03*
Y280000D02*
D03*
Y260000D02*
D03*
X420000Y250000D02*
D03*
Y230000D02*
D03*
Y210000D02*
D03*
Y170000D02*
D03*
Y150000D02*
D03*
X415000Y800000D02*
D03*
X410000Y790000D02*
D03*
X415000Y780000D02*
D03*
X410000Y750000D02*
D03*
Y710000D02*
D03*
X415000Y680000D02*
D03*
Y660000D02*
D03*
X410000Y570000D02*
D03*
X415000Y560000D02*
D03*
X410000Y550000D02*
D03*
X415000Y540000D02*
D03*
Y520000D02*
D03*
X410000Y510000D02*
D03*
Y450000D02*
D03*
X415000Y420000D02*
D03*
Y400000D02*
D03*
Y380000D02*
D03*
X410000Y150000D02*
D03*
X405000Y800000D02*
D03*
X400000Y790000D02*
D03*
X405000Y780000D02*
D03*
X400000Y750000D02*
D03*
X405000Y740000D02*
D03*
X400000Y690000D02*
D03*
Y670000D02*
D03*
Y650000D02*
D03*
Y570000D02*
D03*
X405000Y560000D02*
D03*
X400000Y550000D02*
D03*
X405000Y540000D02*
D03*
X400000Y530000D02*
D03*
Y510000D02*
D03*
X405000Y360000D02*
D03*
Y320000D02*
D03*
Y300000D02*
D03*
Y280000D02*
D03*
Y260000D02*
D03*
Y180000D02*
D03*
X400000Y170000D02*
D03*
Y150000D02*
D03*
X395000Y800000D02*
D03*
X390000Y790000D02*
D03*
X395000Y780000D02*
D03*
Y740000D02*
D03*
Y720000D02*
D03*
X390000Y690000D02*
D03*
Y670000D02*
D03*
Y650000D02*
D03*
X395000Y600000D02*
D03*
X390000Y570000D02*
D03*
X395000Y560000D02*
D03*
X390000Y550000D02*
D03*
X395000Y540000D02*
D03*
X390000Y530000D02*
D03*
Y510000D02*
D03*
X395000Y480000D02*
D03*
Y400000D02*
D03*
Y320000D02*
D03*
Y300000D02*
D03*
Y280000D02*
D03*
Y260000D02*
D03*
Y240000D02*
D03*
X385000Y800000D02*
D03*
X380000Y790000D02*
D03*
X385000Y780000D02*
D03*
X380000Y770000D02*
D03*
Y570000D02*
D03*
X385000Y560000D02*
D03*
Y540000D02*
D03*
X380000Y510000D02*
D03*
X385000Y380000D02*
D03*
Y360000D02*
D03*
Y180000D02*
D03*
X380000Y170000D02*
D03*
Y150000D02*
D03*
X375000Y800000D02*
D03*
X370000Y790000D02*
D03*
X375000Y780000D02*
D03*
X370000Y770000D02*
D03*
X375000Y720000D02*
D03*
X370000Y610000D02*
D03*
Y570000D02*
D03*
X375000Y560000D02*
D03*
Y520000D02*
D03*
X370000Y510000D02*
D03*
X375000Y320000D02*
D03*
X370000Y210000D02*
D03*
X375000Y180000D02*
D03*
X370000Y170000D02*
D03*
Y150000D02*
D03*
X365000Y800000D02*
D03*
X360000Y790000D02*
D03*
X365000Y780000D02*
D03*
X360000Y770000D02*
D03*
Y710000D02*
D03*
Y610000D02*
D03*
Y570000D02*
D03*
X365000Y560000D02*
D03*
Y540000D02*
D03*
X360000Y530000D02*
D03*
Y470000D02*
D03*
X365000Y320000D02*
D03*
X355000Y800000D02*
D03*
X350000Y790000D02*
D03*
X355000Y780000D02*
D03*
X350000Y770000D02*
D03*
X355000Y720000D02*
D03*
X350000Y710000D02*
D03*
Y610000D02*
D03*
X355000Y600000D02*
D03*
X350000Y570000D02*
D03*
X355000Y560000D02*
D03*
Y540000D02*
D03*
X350000Y530000D02*
D03*
Y270000D02*
D03*
X355000Y180000D02*
D03*
X350000Y170000D02*
D03*
Y150000D02*
D03*
X345000Y800000D02*
D03*
X340000Y790000D02*
D03*
X345000Y780000D02*
D03*
X340000Y770000D02*
D03*
Y710000D02*
D03*
Y610000D02*
D03*
Y570000D02*
D03*
X345000Y560000D02*
D03*
Y540000D02*
D03*
X340000Y470000D02*
D03*
X345000Y340000D02*
D03*
X340000Y210000D02*
D03*
X345000Y180000D02*
D03*
X340000Y170000D02*
D03*
Y150000D02*
D03*
X335000Y800000D02*
D03*
X330000Y790000D02*
D03*
X335000Y780000D02*
D03*
X330000Y770000D02*
D03*
Y710000D02*
D03*
Y610000D02*
D03*
X335000Y600000D02*
D03*
X330000Y570000D02*
D03*
X335000Y560000D02*
D03*
Y520000D02*
D03*
Y340000D02*
D03*
X330000Y330000D02*
D03*
X335000Y320000D02*
D03*
X330000Y250000D02*
D03*
Y190000D02*
D03*
X335000Y180000D02*
D03*
X330000Y170000D02*
D03*
Y150000D02*
D03*
X325000Y800000D02*
D03*
X320000Y790000D02*
D03*
X325000Y780000D02*
D03*
X320000Y770000D02*
D03*
Y750000D02*
D03*
Y710000D02*
D03*
Y610000D02*
D03*
Y570000D02*
D03*
X325000Y560000D02*
D03*
X320000Y510000D02*
D03*
X325000Y500000D02*
D03*
X320000Y470000D02*
D03*
Y430000D02*
D03*
X325000Y340000D02*
D03*
X320000Y330000D02*
D03*
Y310000D02*
D03*
Y190000D02*
D03*
X325000Y180000D02*
D03*
X320000Y170000D02*
D03*
Y150000D02*
D03*
X315000Y800000D02*
D03*
X310000Y790000D02*
D03*
X315000Y780000D02*
D03*
X310000Y770000D02*
D03*
X315000Y760000D02*
D03*
X310000Y750000D02*
D03*
X315000Y740000D02*
D03*
Y720000D02*
D03*
X310000Y710000D02*
D03*
Y670000D02*
D03*
Y630000D02*
D03*
Y610000D02*
D03*
X315000Y600000D02*
D03*
X310000Y570000D02*
D03*
X315000Y560000D02*
D03*
Y540000D02*
D03*
Y520000D02*
D03*
Y500000D02*
D03*
Y340000D02*
D03*
X310000Y330000D02*
D03*
X315000Y200000D02*
D03*
Y180000D02*
D03*
X310000Y170000D02*
D03*
X305000Y800000D02*
D03*
X300000Y790000D02*
D03*
X305000Y780000D02*
D03*
X300000Y770000D02*
D03*
X305000Y720000D02*
D03*
Y600000D02*
D03*
X300000Y570000D02*
D03*
X305000Y560000D02*
D03*
Y540000D02*
D03*
X300000Y510000D02*
D03*
Y410000D02*
D03*
Y370000D02*
D03*
X305000Y340000D02*
D03*
X300000Y330000D02*
D03*
Y310000D02*
D03*
X305000Y300000D02*
D03*
X300000Y270000D02*
D03*
Y250000D02*
D03*
Y190000D02*
D03*
Y170000D02*
D03*
Y150000D02*
D03*
X295000Y800000D02*
D03*
X290000Y790000D02*
D03*
X295000Y780000D02*
D03*
X290000Y770000D02*
D03*
Y750000D02*
D03*
X295000Y740000D02*
D03*
X290000Y710000D02*
D03*
Y650000D02*
D03*
Y610000D02*
D03*
Y570000D02*
D03*
X295000Y560000D02*
D03*
Y540000D02*
D03*
Y520000D02*
D03*
Y500000D02*
D03*
Y440000D02*
D03*
Y400000D02*
D03*
Y340000D02*
D03*
X290000Y330000D02*
D03*
X295000Y300000D02*
D03*
Y280000D02*
D03*
X290000Y250000D02*
D03*
X295000Y240000D02*
D03*
Y200000D02*
D03*
Y180000D02*
D03*
X290000Y170000D02*
D03*
X285000Y800000D02*
D03*
X280000Y790000D02*
D03*
X285000Y780000D02*
D03*
X280000Y770000D02*
D03*
Y570000D02*
D03*
X285000Y560000D02*
D03*
Y540000D02*
D03*
X280000Y510000D02*
D03*
Y410000D02*
D03*
Y370000D02*
D03*
X285000Y340000D02*
D03*
X280000Y330000D02*
D03*
Y310000D02*
D03*
X285000Y300000D02*
D03*
X280000Y270000D02*
D03*
Y250000D02*
D03*
Y190000D02*
D03*
Y170000D02*
D03*
X275000Y800000D02*
D03*
X270000Y790000D02*
D03*
X275000Y780000D02*
D03*
Y560000D02*
D03*
Y540000D02*
D03*
Y520000D02*
D03*
X270000Y510000D02*
D03*
X275000Y500000D02*
D03*
Y440000D02*
D03*
Y400000D02*
D03*
X270000Y390000D02*
D03*
X275000Y340000D02*
D03*
X270000Y330000D02*
D03*
X275000Y300000D02*
D03*
X270000Y290000D02*
D03*
X275000Y240000D02*
D03*
Y180000D02*
D03*
X270000Y170000D02*
D03*
X275000Y160000D02*
D03*
X265000Y800000D02*
D03*
X260000Y790000D02*
D03*
X265000Y560000D02*
D03*
Y540000D02*
D03*
X260000Y530000D02*
D03*
Y490000D02*
D03*
Y450000D02*
D03*
X265000Y420000D02*
D03*
X260000Y410000D02*
D03*
Y370000D02*
D03*
X265000Y360000D02*
D03*
Y340000D02*
D03*
X260000Y330000D02*
D03*
X265000Y320000D02*
D03*
X260000Y210000D02*
D03*
X255000Y800000D02*
D03*
Y540000D02*
D03*
X250000Y530000D02*
D03*
X255000Y520000D02*
D03*
Y500000D02*
D03*
X250000Y490000D02*
D03*
X255000Y480000D02*
D03*
Y460000D02*
D03*
X250000Y450000D02*
D03*
X255000Y440000D02*
D03*
Y420000D02*
D03*
X250000Y410000D02*
D03*
X255000Y400000D02*
D03*
Y360000D02*
D03*
Y340000D02*
D03*
X250000Y330000D02*
D03*
X255000Y320000D02*
D03*
X250000Y310000D02*
D03*
Y270000D02*
D03*
Y230000D02*
D03*
Y210000D02*
D03*
Y190000D02*
D03*
Y150000D02*
D03*
X245000Y800000D02*
D03*
X240000Y790000D02*
D03*
X245000Y540000D02*
D03*
Y400000D02*
D03*
Y360000D02*
D03*
Y340000D02*
D03*
X240000Y330000D02*
D03*
X245000Y320000D02*
D03*
Y280000D02*
D03*
X240000Y210000D02*
D03*
X235000Y800000D02*
D03*
X230000Y790000D02*
D03*
Y490000D02*
D03*
Y450000D02*
D03*
X235000Y420000D02*
D03*
X230000Y390000D02*
D03*
X235000Y360000D02*
D03*
Y340000D02*
D03*
X230000Y330000D02*
D03*
X235000Y320000D02*
D03*
Y300000D02*
D03*
X230000Y290000D02*
D03*
X235000Y260000D02*
D03*
X230000Y250000D02*
D03*
Y210000D02*
D03*
Y190000D02*
D03*
Y170000D02*
D03*
X235000Y160000D02*
D03*
X225000Y800000D02*
D03*
X220000Y790000D02*
D03*
X225000Y780000D02*
D03*
Y520000D02*
D03*
Y480000D02*
D03*
Y440000D02*
D03*
Y420000D02*
D03*
Y400000D02*
D03*
Y360000D02*
D03*
Y340000D02*
D03*
Y320000D02*
D03*
Y300000D02*
D03*
Y260000D02*
D03*
Y220000D02*
D03*
Y160000D02*
D03*
X215000Y800000D02*
D03*
X210000Y790000D02*
D03*
X215000Y780000D02*
D03*
X210000Y170000D02*
D03*
X215000Y160000D02*
D03*
X210000Y150000D02*
D03*
X205000Y800000D02*
D03*
X200000Y790000D02*
D03*
X205000Y780000D02*
D03*
X200000Y730000D02*
D03*
Y190000D02*
D03*
Y170000D02*
D03*
X205000Y160000D02*
D03*
X200000Y150000D02*
D03*
X195000Y800000D02*
D03*
X190000Y790000D02*
D03*
X195000Y780000D02*
D03*
X190000Y770000D02*
D03*
X195000Y160000D02*
D03*
X185000Y800000D02*
D03*
X180000Y790000D02*
D03*
X185000Y780000D02*
D03*
X180000Y770000D02*
D03*
Y730000D02*
D03*
X185000Y660000D02*
D03*
X175000Y800000D02*
D03*
X170000Y790000D02*
D03*
X175000Y780000D02*
D03*
X170000Y770000D02*
D03*
X175000Y600000D02*
D03*
X170000Y590000D02*
D03*
Y370000D02*
D03*
X175000Y360000D02*
D03*
Y320000D02*
D03*
Y300000D02*
D03*
X170000Y290000D02*
D03*
X175000Y280000D02*
D03*
Y260000D02*
D03*
Y180000D02*
D03*
X170000Y170000D02*
D03*
X175000Y160000D02*
D03*
X170000Y150000D02*
D03*
X175000Y140000D02*
D03*
X165000Y800000D02*
D03*
X160000Y790000D02*
D03*
X165000Y780000D02*
D03*
X160000Y770000D02*
D03*
Y690000D02*
D03*
X165000Y640000D02*
D03*
Y600000D02*
D03*
X160000Y590000D02*
D03*
X165000Y360000D02*
D03*
Y300000D02*
D03*
X160000Y290000D02*
D03*
Y170000D02*
D03*
X165000Y160000D02*
D03*
X160000Y110000D02*
D03*
X155000Y800000D02*
D03*
X150000Y790000D02*
D03*
X155000Y780000D02*
D03*
X150000Y770000D02*
D03*
X155000Y640000D02*
D03*
Y620000D02*
D03*
Y600000D02*
D03*
X150000Y590000D02*
D03*
X155000Y580000D02*
D03*
X150000Y570000D02*
D03*
X155000Y340000D02*
D03*
Y300000D02*
D03*
X150000Y290000D02*
D03*
Y170000D02*
D03*
X155000Y160000D02*
D03*
X150000Y110000D02*
D03*
X145000Y800000D02*
D03*
Y780000D02*
D03*
X140000Y770000D02*
D03*
X145000Y760000D02*
D03*
Y700000D02*
D03*
X140000Y690000D02*
D03*
X145000Y640000D02*
D03*
Y600000D02*
D03*
X140000Y590000D02*
D03*
X145000Y580000D02*
D03*
X140000Y570000D02*
D03*
X145000Y320000D02*
D03*
Y300000D02*
D03*
Y260000D02*
D03*
Y180000D02*
D03*
Y120000D02*
D03*
X135000Y760000D02*
D03*
X130000Y730000D02*
D03*
X135000Y700000D02*
D03*
Y640000D02*
D03*
Y600000D02*
D03*
X130000Y590000D02*
D03*
X135000Y580000D02*
D03*
X130000Y570000D02*
D03*
X135000Y560000D02*
D03*
X130000Y550000D02*
D03*
Y530000D02*
D03*
Y510000D02*
D03*
Y490000D02*
D03*
Y470000D02*
D03*
Y450000D02*
D03*
Y430000D02*
D03*
Y410000D02*
D03*
X125000Y760000D02*
D03*
X120000Y750000D02*
D03*
Y710000D02*
D03*
Y650000D02*
D03*
X125000Y600000D02*
D03*
X120000Y590000D02*
D03*
X125000Y580000D02*
D03*
X120000Y570000D02*
D03*
X125000Y560000D02*
D03*
X120000Y550000D02*
D03*
X125000Y540000D02*
D03*
X120000Y530000D02*
D03*
X125000Y520000D02*
D03*
X120000Y510000D02*
D03*
X125000Y500000D02*
D03*
X120000Y490000D02*
D03*
X125000Y480000D02*
D03*
X120000Y470000D02*
D03*
X125000Y460000D02*
D03*
X120000Y450000D02*
D03*
X125000Y440000D02*
D03*
X120000Y430000D02*
D03*
X125000Y420000D02*
D03*
X120000Y410000D02*
D03*
X125000Y400000D02*
D03*
X120000Y390000D02*
D03*
Y150000D02*
D03*
X115000Y760000D02*
D03*
X110000Y750000D02*
D03*
Y710000D02*
D03*
X115000Y700000D02*
D03*
X110000Y690000D02*
D03*
X115000Y660000D02*
D03*
X110000Y650000D02*
D03*
X115000Y640000D02*
D03*
X110000Y630000D02*
D03*
X115000Y600000D02*
D03*
X110000Y590000D02*
D03*
X115000Y580000D02*
D03*
X110000Y570000D02*
D03*
X115000Y560000D02*
D03*
X110000Y550000D02*
D03*
X115000Y540000D02*
D03*
X110000Y530000D02*
D03*
X115000Y520000D02*
D03*
X110000Y510000D02*
D03*
X115000Y500000D02*
D03*
X110000Y490000D02*
D03*
X115000Y480000D02*
D03*
X110000Y470000D02*
D03*
X115000Y460000D02*
D03*
X110000Y450000D02*
D03*
X115000Y440000D02*
D03*
X110000Y430000D02*
D03*
X115000Y420000D02*
D03*
X110000Y410000D02*
D03*
X115000Y400000D02*
D03*
X110000Y390000D02*
D03*
Y230000D02*
D03*
Y210000D02*
D03*
X115000Y200000D02*
D03*
X110000Y190000D02*
D03*
X115000Y180000D02*
D03*
X110000Y170000D02*
D03*
X115000Y160000D02*
D03*
X110000Y150000D02*
D03*
D39*
X120000Y120000D02*
D03*
X788500Y788500D02*
D03*
Y120000D02*
D03*
X120000Y788500D02*
D03*
M02*
