G04*
G04 #@! TF.GenerationSoftware,Altium Limited,Altium Designer,25.5.2 (35)*
G04*
G04 Layer_Color=16711935*
%FSLAX25Y25*%
%MOIN*%
G70*
G04*
G04 #@! TF.SameCoordinates,EC32A686-E373-4CB4-AF31-63D9CFDA87CC*
G04*
G04*
G04 #@! TF.FilePolarity,Positive*
G04*
G01*
G75*
%ADD50C,0.00000*%
%ADD51C,0.00100*%
D50*
X447118Y702133D02*
G03*
X447118Y704533I0J1200D01*
G01*
X452300Y691333D02*
G03*
X452300Y691333I-300J0D01*
G01*
X703300Y470882D02*
G03*
X705700Y470882I1200J0D01*
G01*
X692800Y466000D02*
G03*
X692800Y466000I-300J0D01*
G01*
X541618Y746300D02*
G03*
X541618Y748700I0J1200D01*
G01*
X546800Y735500D02*
G03*
X546800Y735500I-300J0D01*
G01*
X566800Y290882D02*
G03*
X569200Y290882I1200J0D01*
G01*
X556300Y286000D02*
G03*
X556300Y286000I-300J0D01*
G01*
X232618Y512800D02*
G03*
X232618Y515200I0J1200D01*
G01*
X237800Y502000D02*
G03*
X237800Y502000I-300J0D01*
G01*
X232618Y469800D02*
G03*
X232618Y472200I0J1200D01*
G01*
X237800Y459000D02*
G03*
X237800Y459000I-300J0D01*
G01*
X289118Y701800D02*
G03*
X289118Y704200I0J1200D01*
G01*
X294300Y691000D02*
G03*
X294300Y691000I-300J0D01*
G01*
X523300Y290882D02*
G03*
X525700Y290882I1200J0D01*
G01*
X512800Y286000D02*
G03*
X512800Y286000I-300J0D01*
G01*
X476800Y290882D02*
G03*
X479200Y290882I1200J0D01*
G01*
X466300Y286000D02*
G03*
X466300Y286000I-300J0D01*
G01*
X393800Y531882D02*
G03*
X396200Y531882I1200J0D01*
G01*
X383300Y527000D02*
G03*
X383300Y527000I-300J0D01*
G01*
X350800Y531882D02*
G03*
X353200Y531882I1200J0D01*
G01*
X340300Y527000D02*
G03*
X340300Y527000I-300J0D01*
G01*
X232618Y252800D02*
G03*
X232618Y255200I0J1200D01*
G01*
X237800Y242000D02*
G03*
X237800Y242000I-300J0D01*
G01*
X232618Y295800D02*
G03*
X232618Y298200I0J1200D01*
G01*
X237800Y285000D02*
G03*
X237800Y285000I-300J0D01*
G01*
X347200Y236118D02*
G03*
X344800Y236118I-1200J0D01*
G01*
X358300Y241000D02*
G03*
X358300Y241000I-300J0D01*
G01*
X393700Y236118D02*
G03*
X391300Y236118I-1200J0D01*
G01*
X404800Y241000D02*
G03*
X404800Y241000I-300J0D01*
G01*
X232618Y383300D02*
G03*
X232618Y385700I0J1200D01*
G01*
X237800Y372500D02*
G03*
X237800Y372500I-300J0D01*
G01*
X232618Y426800D02*
G03*
X232618Y429200I0J1200D01*
G01*
X237800Y416000D02*
G03*
X237800Y416000I-300J0D01*
G01*
X232618Y209300D02*
G03*
X232618Y211700I0J1200D01*
G01*
X237800Y198500D02*
G03*
X237800Y198500I-300J0D01*
G01*
X232618Y166300D02*
G03*
X232618Y168700I0J1200D01*
G01*
X237800Y155500D02*
G03*
X237800Y155500I-300J0D01*
G01*
X289118Y613800D02*
G03*
X289118Y616200I0J1200D01*
G01*
X294300Y603000D02*
G03*
X294300Y603000I-300J0D01*
G01*
X651800Y574000D02*
G03*
X651800Y574000I-300J0D01*
G01*
X662300Y578882D02*
G03*
X664700Y578882I1200J0D01*
G01*
X472800Y499000D02*
G03*
X472800Y499000I-300J0D01*
G01*
X483300Y503882D02*
G03*
X485700Y503882I1200J0D01*
G01*
X516800Y499000D02*
G03*
X516800Y499000I-300J0D01*
G01*
X527300Y503882D02*
G03*
X529700Y503882I1200J0D01*
G01*
X648800Y466000D02*
G03*
X648800Y466000I-300J0D01*
G01*
X659300Y470882D02*
G03*
X661700Y470882I1200J0D01*
G01*
X635300Y297000D02*
G03*
X635300Y297000I-300J0D01*
G01*
X645800Y301882D02*
G03*
X648200Y301882I1200J0D01*
G01*
X677800Y297000D02*
G03*
X677800Y297000I-300J0D01*
G01*
X688300Y301882D02*
G03*
X690700Y301882I1200J0D01*
G01*
X408800Y689000D02*
G03*
X408800Y689000I-300J0D01*
G01*
X397700Y684118D02*
G03*
X395300Y684118I-1200J0D01*
G01*
X408300Y602500D02*
G03*
X408300Y602500I-300J0D01*
G01*
X397200Y597618D02*
G03*
X394800Y597618I-1200J0D01*
G01*
X294300Y647000D02*
G03*
X294300Y647000I-300J0D01*
G01*
X289118Y657800D02*
G03*
X289118Y660200I0J1200D01*
G01*
X294300Y735000D02*
G03*
X294300Y735000I-300J0D01*
G01*
X289118Y745800D02*
G03*
X289118Y748200I0J1200D01*
G01*
X604800Y466000D02*
G03*
X604800Y466000I-300J0D01*
G01*
X615300Y470882D02*
G03*
X617700Y470882I1200J0D01*
G01*
X452300Y602000D02*
G03*
X452300Y602000I-300J0D01*
G01*
X447118Y612800D02*
G03*
X447118Y615200I0J1200D01*
G01*
X639800Y602500D02*
G03*
X639800Y602500I-300J0D01*
G01*
X634618Y613300D02*
G03*
X634618Y615700I0J1200D01*
G01*
X546800Y602000D02*
G03*
X546800Y602000I-300J0D01*
G01*
X541618Y612800D02*
G03*
X541618Y615200I0J1200D01*
G01*
X452300Y646667D02*
G03*
X452300Y646667I-300J0D01*
G01*
X447118Y657467D02*
G03*
X447118Y659867I0J1200D01*
G01*
X639800Y646833D02*
G03*
X639800Y646833I-300J0D01*
G01*
X634618Y657633D02*
G03*
X634618Y660033I0J1200D01*
G01*
X546800Y646500D02*
G03*
X546800Y646500I-300J0D01*
G01*
X541618Y657300D02*
G03*
X541618Y659700I0J1200D01*
G01*
X639800Y691167D02*
G03*
X639800Y691167I-300J0D01*
G01*
X634618Y701967D02*
G03*
X634618Y704367I0J1200D01*
G01*
X546800Y691000D02*
G03*
X546800Y691000I-300J0D01*
G01*
X541618Y701800D02*
G03*
X541618Y704200I0J1200D01*
G01*
X452300Y736000D02*
G03*
X452300Y736000I-300J0D01*
G01*
X447118Y746800D02*
G03*
X447118Y749200I0J1200D01*
G01*
X639800Y735500D02*
G03*
X639800Y735500I-300J0D01*
G01*
X634618Y746300D02*
G03*
X634618Y748700I0J1200D01*
G01*
D51*
X190200Y741800D02*
X203800D01*
X190200Y716200D02*
Y741800D01*
Y716200D02*
X203800D01*
Y741800D01*
X190200Y716200D02*
Y720000D01*
Y716200D02*
X203800D01*
Y720000D01*
X190200D02*
X203800D01*
Y738000D02*
Y741800D01*
X190200D02*
X203800D01*
X190200Y738000D02*
Y741800D01*
Y738000D02*
X203800D01*
X641700Y352200D02*
X655300D01*
Y377800D01*
X641700D02*
X655300D01*
X641700Y352200D02*
Y377800D01*
X655300Y374000D02*
Y377800D01*
X641700D02*
X655300D01*
X641700Y374000D02*
Y377800D01*
Y374000D02*
X655300D01*
X641700Y352200D02*
Y356000D01*
Y352200D02*
X655300D01*
Y356000D01*
X641700D02*
X655300D01*
X447118Y683833D02*
X527118D01*
X447118D02*
Y722833D01*
X527118D01*
Y683833D02*
Y722833D01*
X551600Y691500D02*
Y702500D01*
Y691500D02*
X572400D01*
Y702500D01*
X551600D02*
X572400D01*
X548600Y694500D02*
Y699500D01*
X545600Y697000D02*
X548600Y697500D01*
X545600Y697000D02*
X548600Y698000D01*
X545600Y697000D02*
X548600Y698500D01*
X545600Y697000D02*
X548600Y699000D01*
X545600Y697000D02*
X548600Y699500D01*
X545600Y697000D02*
X548600Y696500D01*
X545600Y697000D02*
X548600Y696000D01*
X545600Y697000D02*
X548600Y695500D01*
X545600Y697000D02*
X548600Y695000D01*
X545600Y697000D02*
X548600Y694500D01*
X545600D02*
Y699500D01*
X544600Y697000D02*
X549600D01*
X551600Y704000D02*
Y715000D01*
Y704000D02*
X572400D01*
Y715000D01*
X551600D02*
X572400D01*
X548600Y707000D02*
Y712000D01*
X545600Y709500D02*
X548600Y710000D01*
X545600Y709500D02*
X548600Y710500D01*
X545600Y709500D02*
X548600Y711000D01*
X545600Y709500D02*
X548600Y711500D01*
X545600Y709500D02*
X548600Y712000D01*
X545600Y709500D02*
X548600Y709000D01*
X545600Y709500D02*
X548600Y708500D01*
X545600Y709500D02*
X548600Y708000D01*
X545600Y709500D02*
X548600Y707500D01*
X545600Y709500D02*
X548600Y707000D01*
X545600D02*
Y712000D01*
X544600Y709500D02*
X549600D01*
X381200Y437300D02*
X394800D01*
X381200Y411700D02*
Y437300D01*
Y411700D02*
X394800D01*
Y437300D01*
X381200Y411700D02*
Y415500D01*
Y411700D02*
X394800D01*
Y415500D01*
X381200D02*
X394800D01*
Y433500D02*
Y437300D01*
X381200D02*
X394800D01*
X381200Y433500D02*
Y437300D01*
Y433500D02*
X394800D01*
X405700Y436800D02*
X419300D01*
X405700Y411200D02*
Y436800D01*
Y411200D02*
X419300D01*
Y436800D01*
X405700Y411200D02*
Y415000D01*
Y411200D02*
X419300D01*
Y415000D01*
X405700D02*
X419300D01*
Y433000D02*
Y436800D01*
X405700D02*
X419300D01*
X405700Y433000D02*
Y436800D01*
Y433000D02*
X419300D01*
X694100Y452500D02*
Y463500D01*
Y452500D02*
X714900D01*
Y463500D01*
X694100D02*
X714900D01*
X691100Y455500D02*
Y460500D01*
X688100Y458000D02*
X691100Y458500D01*
X688100Y458000D02*
X691100Y459000D01*
X688100Y458000D02*
X691100Y459500D01*
X688100Y458000D02*
X691100Y460000D01*
X688100Y458000D02*
X691100Y460500D01*
X688100Y458000D02*
X691100Y457500D01*
X688100Y458000D02*
X691100Y457000D01*
X688100Y458000D02*
X691100Y456500D01*
X688100Y458000D02*
X691100Y456000D01*
X688100Y458000D02*
X691100Y455500D01*
X688100D02*
Y460500D01*
X687100Y458000D02*
X692100D01*
X685000Y390882D02*
Y470882D01*
X724000D01*
Y390882D02*
Y470882D01*
X685000Y390882D02*
X724000D01*
X541618Y728000D02*
X621618D01*
X541618D02*
Y767000D01*
X621618D01*
Y728000D02*
Y767000D01*
X548500Y210882D02*
Y290882D01*
X587500D01*
Y210882D02*
Y290882D01*
X548500Y210882D02*
X587500D01*
X146700Y331200D02*
Y344800D01*
Y331200D02*
X172300D01*
Y344800D01*
X146700D02*
X172300D01*
X168500Y331200D02*
X172300D01*
Y344800D01*
X168500D02*
X172300D01*
X168500Y331200D02*
Y344800D01*
X146700D02*
X150500D01*
X146700Y331200D02*
Y344800D01*
Y331200D02*
X150500D01*
Y344800D01*
X357033Y389500D02*
X370633D01*
X357033D02*
Y393300D01*
X370633D01*
Y389500D02*
Y393300D01*
X357033Y371500D02*
X370633D01*
Y367700D02*
Y371500D01*
X357033Y367700D02*
X370633D01*
X357033D02*
Y371500D01*
X370633Y367700D02*
Y393300D01*
X357033Y367700D02*
X370633D01*
X357033D02*
Y393300D01*
X370633D01*
X232618Y494500D02*
X312618D01*
X232618D02*
Y533500D01*
X312618D01*
Y494500D02*
Y533500D01*
X232618Y451500D02*
X312618D01*
X232618D02*
Y490500D01*
X312618D01*
Y451500D02*
Y490500D01*
X289118Y683500D02*
X369118D01*
X289118D02*
Y722500D01*
X369118D01*
Y683500D02*
Y722500D01*
X167200Y631300D02*
X180800D01*
X167200Y605700D02*
Y631300D01*
Y605700D02*
X180800D01*
Y631300D01*
X167200Y605700D02*
Y609500D01*
Y605700D02*
X180800D01*
Y609500D01*
X167200D02*
X180800D01*
Y627500D02*
Y631300D01*
X167200D02*
X180800D01*
X167200Y627500D02*
Y631300D01*
Y627500D02*
X180800D01*
X120200Y631800D02*
X133800D01*
X120200Y606200D02*
Y631800D01*
Y606200D02*
X133800D01*
Y631800D01*
X120200Y606200D02*
Y610000D01*
Y606200D02*
X133800D01*
Y610000D01*
X120200D02*
X133800D01*
Y628000D02*
Y631800D01*
X120200D02*
X133800D01*
X120200Y628000D02*
Y631800D01*
Y628000D02*
X133800D01*
X143700Y631800D02*
X157300D01*
X143700Y606200D02*
Y631800D01*
Y606200D02*
X157300D01*
Y631800D01*
X143700Y606200D02*
Y610000D01*
Y606200D02*
X157300D01*
Y610000D01*
X143700D02*
X157300D01*
Y628000D02*
Y631800D01*
X143700D02*
X157300D01*
X143700Y628000D02*
Y631800D01*
Y628000D02*
X157300D01*
X505000Y210882D02*
Y290882D01*
X544000D01*
Y210882D02*
Y290882D01*
X505000Y210882D02*
X544000D01*
X458500D02*
Y290882D01*
X497500D01*
Y210882D02*
Y290882D01*
X458500Y210882D02*
X497500D01*
X514100Y271500D02*
Y282500D01*
Y271500D02*
X534900D01*
Y282500D01*
X514100D02*
X534900D01*
X511100Y274500D02*
Y279500D01*
X508100Y277000D02*
X511100Y277500D01*
X508100Y277000D02*
X511100Y278000D01*
X508100Y277000D02*
X511100Y278500D01*
X508100Y277000D02*
X511100Y279000D01*
X508100Y277000D02*
X511100Y279500D01*
X508100Y277000D02*
X511100Y276500D01*
X508100Y277000D02*
X511100Y276000D01*
X508100Y277000D02*
X511100Y275500D01*
X508100Y277000D02*
X511100Y275000D01*
X508100Y277000D02*
X511100Y274500D01*
X508100D02*
Y279500D01*
X507100Y277000D02*
X512100D01*
X516700Y197800D02*
X530300D01*
X516700Y172200D02*
Y197800D01*
Y172200D02*
X530300D01*
Y197800D01*
X516700Y172200D02*
Y176000D01*
Y172200D02*
X530300D01*
Y176000D01*
X516700D02*
X530300D01*
Y194000D02*
Y197800D01*
X516700D02*
X530300D01*
X516700Y194000D02*
Y197800D01*
Y194000D02*
X530300D01*
X540200Y197800D02*
X553800D01*
X540200Y172200D02*
Y197800D01*
Y172200D02*
X553800D01*
Y197800D01*
X540200Y172200D02*
Y176000D01*
Y172200D02*
X553800D01*
Y176000D01*
X540200D02*
X553800D01*
Y194000D02*
Y197800D01*
X540200D02*
X553800D01*
X540200Y194000D02*
Y197800D01*
Y194000D02*
X553800D01*
X564200Y197800D02*
X577800D01*
X564200Y172200D02*
Y197800D01*
Y172200D02*
X577800D01*
Y197800D01*
X564200Y172200D02*
Y176000D01*
Y172200D02*
X577800D01*
Y176000D01*
X564200D02*
X577800D01*
Y194000D02*
Y197800D01*
X564200D02*
X577800D01*
X564200Y194000D02*
Y197800D01*
Y194000D02*
X577800D01*
X493200Y197800D02*
X506800D01*
X493200Y172200D02*
Y197800D01*
Y172200D02*
X506800D01*
Y197800D01*
X493200Y172200D02*
Y176000D01*
Y172200D02*
X506800D01*
Y176000D01*
X493200D02*
X506800D01*
Y194000D02*
Y197800D01*
X493200D02*
X506800D01*
X493200Y194000D02*
Y197800D01*
Y194000D02*
X506800D01*
X467600Y272500D02*
Y283500D01*
Y272500D02*
X488400D01*
Y283500D01*
X467600D02*
X488400D01*
X464600Y275500D02*
Y280500D01*
X461600Y278000D02*
X464600Y278500D01*
X461600Y278000D02*
X464600Y279000D01*
X461600Y278000D02*
X464600Y279500D01*
X461600Y278000D02*
X464600Y280000D01*
X461600Y278000D02*
X464600Y280500D01*
X461600Y278000D02*
X464600Y277500D01*
X461600Y278000D02*
X464600Y277000D01*
X461600Y278000D02*
X464600Y276500D01*
X461600Y278000D02*
X464600Y276000D01*
X461600Y278000D02*
X464600Y275500D01*
X461600D02*
Y280500D01*
X460600Y278000D02*
X465600D01*
X557600Y272500D02*
Y283500D01*
Y272500D02*
X578400D01*
Y283500D01*
X557600D02*
X578400D01*
X554600Y275500D02*
Y280500D01*
X551600Y278000D02*
X554600Y278500D01*
X551600Y278000D02*
X554600Y279000D01*
X551600Y278000D02*
X554600Y279500D01*
X551600Y278000D02*
X554600Y280000D01*
X551600Y278000D02*
X554600Y280500D01*
X551600Y278000D02*
X554600Y277500D01*
X551600Y278000D02*
X554600Y277000D01*
X551600Y278000D02*
X554600Y276500D01*
X551600Y278000D02*
X554600Y276000D01*
X551600Y278000D02*
X554600Y275500D01*
X551600D02*
Y280500D01*
X550600Y278000D02*
X555600D01*
X375500Y451882D02*
Y531882D01*
X414500D01*
Y451882D02*
Y531882D01*
X375500Y451882D02*
X414500D01*
X332500D02*
Y531882D01*
X371500D01*
Y451882D02*
Y531882D01*
X332500Y451882D02*
X371500D01*
X232618Y234500D02*
X312618D01*
X232618D02*
Y273500D01*
X312618D01*
Y234500D02*
Y273500D01*
X232618Y277500D02*
X312618D01*
X232618D02*
Y316500D01*
X312618D01*
Y277500D02*
Y316500D01*
X365500Y236118D02*
Y316118D01*
X326500Y236118D02*
X365500D01*
X326500D02*
Y316118D01*
X365500D01*
X412000Y236118D02*
Y316118D01*
X373000Y236118D02*
X412000D01*
X373000D02*
Y316118D01*
X412000D01*
X232618Y365000D02*
X312618D01*
X232618D02*
Y404000D01*
X312618D01*
Y365000D02*
Y404000D01*
X232618Y408500D02*
X312618D01*
X232618D02*
Y447500D01*
X312618D01*
Y408500D02*
Y447500D01*
X232618Y191000D02*
X312618D01*
X232618D02*
Y230000D01*
X312618D01*
Y191000D02*
Y230000D01*
X232618Y148000D02*
X312618D01*
X232618D02*
Y187000D01*
X312618D01*
Y148000D02*
Y187000D01*
X240500Y374100D02*
X251500D01*
Y394900D01*
X240500D02*
X251500D01*
X240500Y374100D02*
Y394900D01*
X243500Y371100D02*
X248500D01*
X245500D02*
X246000Y368100D01*
X245000Y371100D02*
X246000Y368100D01*
X244500Y371100D02*
X246000Y368100D01*
X244000Y371100D02*
X246000Y368100D01*
X243500Y371100D02*
X246000Y368100D01*
X246500Y371100D01*
X246000Y368100D02*
X247000Y371100D01*
X246000Y368100D02*
X247500Y371100D01*
X246000Y368100D02*
X248000Y371100D01*
X246000Y368100D02*
X248500Y371100D01*
X243500Y368100D02*
X248500D01*
X246000Y367100D02*
Y372100D01*
X240500Y504100D02*
X251500D01*
Y524900D01*
X240500D02*
X251500D01*
X240500Y504100D02*
Y524900D01*
X243500Y501100D02*
X248500D01*
X245500D02*
X246000Y498100D01*
X245000Y501100D02*
X246000Y498100D01*
X244500Y501100D02*
X246000Y498100D01*
X244000Y501100D02*
X246000Y498100D01*
X243500Y501100D02*
X246000Y498100D01*
X246500Y501100D01*
X246000Y498100D02*
X247000Y501100D01*
X246000Y498100D02*
X247500Y501100D01*
X246000Y498100D02*
X248000Y501100D01*
X246000Y498100D02*
X248500Y501100D01*
X243500Y498100D02*
X248500D01*
X246000Y497100D02*
Y502100D01*
X240500Y460100D02*
X251500D01*
Y480900D01*
X240500D02*
X251500D01*
X240500Y460100D02*
Y480900D01*
X243500Y457100D02*
X248500D01*
X245500D02*
X246000Y454100D01*
X245000Y457100D02*
X246000Y454100D01*
X244500Y457100D02*
X246000Y454100D01*
X244000Y457100D02*
X246000Y454100D01*
X243500Y457100D02*
X246000Y454100D01*
X246500Y457100D01*
X246000Y454100D02*
X247000Y457100D01*
X246000Y454100D02*
X247500Y457100D01*
X246000Y454100D02*
X248000Y457100D01*
X246000Y454100D02*
X248500Y457100D01*
X243500Y454100D02*
X248500D01*
X246000Y453100D02*
Y458100D01*
X334700Y437800D02*
X348300D01*
X334700Y412200D02*
Y437800D01*
Y412200D02*
X348300D01*
Y437800D01*
X334700Y412200D02*
Y416000D01*
Y412200D02*
X348300D01*
Y416000D01*
X334700D02*
X348300D01*
Y434000D02*
Y437800D01*
X334700D02*
X348300D01*
X334700Y434000D02*
Y437800D01*
Y434000D02*
X348300D01*
X240500Y417100D02*
X251500D01*
Y437900D01*
X240500D02*
X251500D01*
X240500Y417100D02*
Y437900D01*
X243500Y414100D02*
X248500D01*
X245500D02*
X246000Y411100D01*
X245000Y414100D02*
X246000Y411100D01*
X244500Y414100D02*
X246000Y411100D01*
X244000Y414100D02*
X246000Y411100D01*
X243500Y414100D02*
X246000Y411100D01*
X246500Y414100D01*
X246000Y411100D02*
X247000Y414100D01*
X246000Y411100D02*
X247500Y414100D01*
X246000Y411100D02*
X248000Y414100D01*
X246000Y411100D02*
X248500Y414100D01*
X243500Y411100D02*
X248500D01*
X246000Y410100D02*
Y415100D01*
X381700Y219300D02*
X395300D01*
X381700Y193700D02*
Y219300D01*
Y193700D02*
X395300D01*
Y219300D01*
X381700Y193700D02*
Y197500D01*
Y193700D02*
X395300D01*
Y197500D01*
X381700D02*
X395300D01*
Y215500D02*
Y219300D01*
X381700D02*
X395300D01*
X381700Y215500D02*
Y219300D01*
Y215500D02*
X395300D01*
X405200Y218800D02*
X418800D01*
X405200Y193200D02*
Y218800D01*
Y193200D02*
X418800D01*
Y218800D01*
X405200Y193200D02*
Y197000D01*
Y193200D02*
X418800D01*
Y197000D01*
X405200D02*
X418800D01*
Y215000D02*
Y218800D01*
X405200D02*
X418800D01*
X405200Y215000D02*
Y218800D01*
Y215000D02*
X418800D01*
X334700Y219800D02*
X348300D01*
X334700Y194200D02*
Y219800D01*
Y194200D02*
X348300D01*
Y219800D01*
X334700Y194200D02*
Y198000D01*
Y194200D02*
X348300D01*
Y198000D01*
X334700D02*
X348300D01*
Y216000D02*
Y219800D01*
X334700D02*
X348300D01*
X334700Y216000D02*
Y219800D01*
Y216000D02*
X348300D01*
X358200Y219800D02*
X371800D01*
X358200Y194200D02*
Y219800D01*
Y194200D02*
X371800D01*
Y219800D01*
X358200Y194200D02*
Y198000D01*
Y194200D02*
X371800D01*
Y198000D01*
X358200D02*
X371800D01*
Y216000D02*
Y219800D01*
X358200D02*
X371800D01*
X358200Y216000D02*
Y219800D01*
Y216000D02*
X371800D01*
X356400Y245000D02*
Y256000D01*
X335600D02*
X356400D01*
X335600Y245000D02*
Y256000D01*
Y245000D02*
X356400D01*
X359400Y248000D02*
Y253000D01*
Y250000D02*
X362400Y250500D01*
X359400Y249500D02*
X362400Y250500D01*
X359400Y249000D02*
X362400Y250500D01*
X359400Y248500D02*
X362400Y250500D01*
X359400Y248000D02*
X362400Y250500D01*
X359400Y251000D02*
X362400Y250500D01*
X359400Y251500D02*
X362400Y250500D01*
X359400Y252000D02*
X362400Y250500D01*
X359400Y252500D02*
X362400Y250500D01*
X359400Y253000D02*
X362400Y250500D01*
Y248000D02*
Y253000D01*
X358400Y250500D02*
X363400D01*
X402900Y244500D02*
Y255500D01*
X382100D02*
X402900D01*
X382100Y244500D02*
Y255500D01*
Y244500D02*
X402900D01*
X405900Y247500D02*
Y252500D01*
Y249500D02*
X408900Y250000D01*
X405900Y249000D02*
X408900Y250000D01*
X405900Y248500D02*
X408900Y250000D01*
X405900Y248000D02*
X408900Y250000D01*
X405900Y247500D02*
X408900Y250000D01*
X405900Y250500D02*
X408900Y250000D01*
X405900Y251000D02*
X408900Y250000D01*
X405900Y251500D02*
X408900Y250000D01*
X405900Y252000D02*
X408900Y250000D01*
X405900Y252500D02*
X408900Y250000D01*
Y247500D02*
Y252500D01*
X404900Y250000D02*
X409900D01*
X358200Y436700D02*
X371800D01*
X358200Y411100D02*
Y436700D01*
Y411100D02*
X371800D01*
Y436700D01*
X358200Y411100D02*
Y414900D01*
Y411100D02*
X371800D01*
Y414900D01*
X358200D02*
X371800D01*
Y432900D02*
Y436700D01*
X358200D02*
X371800D01*
X358200Y432900D02*
Y436700D01*
Y432900D02*
X371800D01*
X380867Y393300D02*
X394467D01*
X380867Y367700D02*
Y393300D01*
Y367700D02*
X394467D01*
Y393300D01*
X380867Y367700D02*
Y371500D01*
Y367700D02*
X394467D01*
Y371500D01*
X380867D02*
X394467D01*
Y389500D02*
Y393300D01*
X380867D02*
X394467D01*
X380867Y389500D02*
Y393300D01*
Y389500D02*
X394467D01*
X333200D02*
X346800D01*
X333200D02*
Y393300D01*
X346800D01*
Y389500D02*
Y393300D01*
X333200Y371500D02*
X346800D01*
Y367700D02*
Y371500D01*
X333200Y367700D02*
X346800D01*
X333200D02*
Y371500D01*
X346800Y367700D02*
Y393300D01*
X333200Y367700D02*
X346800D01*
X333200D02*
Y393300D01*
X346800D01*
X385100Y514000D02*
Y525000D01*
Y514000D02*
X405900D01*
Y525000D01*
X385100D02*
X405900D01*
X382100Y517000D02*
Y522000D01*
X379100Y519500D02*
X382100Y520000D01*
X379100Y519500D02*
X382100Y520500D01*
X379100Y519500D02*
X382100Y521000D01*
X379100Y519500D02*
X382100Y521500D01*
X379100Y519500D02*
X382100Y522000D01*
X379100Y519500D02*
X382100Y519000D01*
X379100Y519500D02*
X382100Y518500D01*
X379100Y519500D02*
X382100Y518000D01*
X379100Y519500D02*
X382100Y517500D01*
X379100Y519500D02*
X382100Y517000D01*
X379100D02*
Y522000D01*
X378100Y519500D02*
X383100D01*
X404700Y393300D02*
X418300D01*
X404700Y367700D02*
Y393300D01*
Y367700D02*
X418300D01*
Y393300D01*
X404700Y367700D02*
Y371500D01*
Y367700D02*
X418300D01*
Y371500D01*
X404700D02*
X418300D01*
Y389500D02*
Y393300D01*
X404700D02*
X418300D01*
X404700Y389500D02*
Y393300D01*
Y389500D02*
X418300D01*
X341600Y513500D02*
Y524500D01*
Y513500D02*
X362400D01*
Y524500D01*
X341600D02*
X362400D01*
X338600Y516500D02*
Y521500D01*
X335600Y519000D02*
X338600Y519500D01*
X335600Y519000D02*
X338600Y520000D01*
X335600Y519000D02*
X338600Y520500D01*
X335600Y519000D02*
X338600Y521000D01*
X335600Y519000D02*
X338600Y521500D01*
X335600Y519000D02*
X338600Y518500D01*
X335600Y519000D02*
X338600Y518000D01*
X335600Y519000D02*
X338600Y517500D01*
X335600Y519000D02*
X338600Y517000D01*
X335600Y519000D02*
X338600Y516500D01*
X335600D02*
Y521500D01*
X334600Y519000D02*
X339600D01*
X242600Y212000D02*
Y223000D01*
Y212000D02*
X263400D01*
Y223000D01*
X242600D02*
X263400D01*
X239600Y215000D02*
Y220000D01*
X236600Y217500D02*
X239600Y218000D01*
X236600Y217500D02*
X239600Y218500D01*
X236600Y217500D02*
X239600Y219000D01*
X236600Y217500D02*
X239600Y219500D01*
X236600Y217500D02*
X239600Y220000D01*
X236600Y217500D02*
X239600Y217000D01*
X236600Y217500D02*
X239600Y216500D01*
X236600Y217500D02*
X239600Y216000D01*
X236600Y217500D02*
X239600Y215500D01*
X236600Y217500D02*
X239600Y215000D01*
X236600D02*
Y220000D01*
X235600Y217500D02*
X240600D01*
X242100Y297500D02*
Y308500D01*
Y297500D02*
X262900D01*
Y308500D01*
X242100D02*
X262900D01*
X239100Y300500D02*
Y305500D01*
X236100Y303000D02*
X239100Y303500D01*
X236100Y303000D02*
X239100Y304000D01*
X236100Y303000D02*
X239100Y304500D01*
X236100Y303000D02*
X239100Y305000D01*
X236100Y303000D02*
X239100Y305500D01*
X236100Y303000D02*
X239100Y302500D01*
X236100Y303000D02*
X239100Y302000D01*
X236100Y303000D02*
X239100Y301500D01*
X236100Y303000D02*
X239100Y301000D01*
X236100Y303000D02*
X239100Y300500D01*
X236100D02*
Y305500D01*
X235100Y303000D02*
X240100D01*
X242100Y241000D02*
Y252000D01*
Y241000D02*
X262900D01*
Y252000D01*
X242100D02*
X262900D01*
X239100Y244000D02*
Y249000D01*
X236100Y246500D02*
X239100Y247000D01*
X236100Y246500D02*
X239100Y247500D01*
X236100Y246500D02*
X239100Y248000D01*
X236100Y246500D02*
X239100Y248500D01*
X236100Y246500D02*
X239100Y249000D01*
X236100Y246500D02*
X239100Y246000D01*
X236100Y246500D02*
X239100Y245500D01*
X236100Y246500D02*
X239100Y245000D01*
X236100Y246500D02*
X239100Y244500D01*
X236100Y246500D02*
X239100Y244000D01*
X236100D02*
Y249000D01*
X235100Y246500D02*
X240100D01*
X242100Y197500D02*
Y208500D01*
Y197500D02*
X262900D01*
Y208500D01*
X242100D02*
X262900D01*
X239100Y200500D02*
Y205500D01*
X236100Y203000D02*
X239100Y203500D01*
X236100Y203000D02*
X239100Y204000D01*
X236100Y203000D02*
X239100Y204500D01*
X236100Y203000D02*
X239100Y205000D01*
X236100Y203000D02*
X239100Y205500D01*
X236100Y203000D02*
X239100Y202500D01*
X236100Y203000D02*
X239100Y202000D01*
X236100Y203000D02*
X239100Y201500D01*
X236100Y203000D02*
X239100Y201000D01*
X236100Y203000D02*
X239100Y200500D01*
X236100D02*
Y205500D01*
X235100Y203000D02*
X240100D01*
X242100Y284500D02*
Y295500D01*
Y284500D02*
X262900D01*
Y295500D01*
X242100D02*
X262900D01*
X239100Y287500D02*
Y292500D01*
X236100Y290000D02*
X239100Y290500D01*
X236100Y290000D02*
X239100Y291000D01*
X236100Y290000D02*
X239100Y291500D01*
X236100Y290000D02*
X239100Y292000D01*
X236100Y290000D02*
X239100Y292500D01*
X236100Y290000D02*
X239100Y289500D01*
X236100Y290000D02*
X239100Y289000D01*
X236100Y290000D02*
X239100Y288500D01*
X236100Y290000D02*
X239100Y288000D01*
X236100Y290000D02*
X239100Y287500D01*
X236100D02*
Y292500D01*
X235100Y290000D02*
X240100D01*
X242100Y254000D02*
Y265000D01*
Y254000D02*
X262900D01*
Y265000D01*
X242100D02*
X262900D01*
X239100Y257000D02*
Y262000D01*
X236100Y259500D02*
X239100Y260000D01*
X236100Y259500D02*
X239100Y260500D01*
X236100Y259500D02*
X239100Y261000D01*
X236100Y259500D02*
X239100Y261500D01*
X236100Y259500D02*
X239100Y262000D01*
X236100Y259500D02*
X239100Y259000D01*
X236100Y259500D02*
X239100Y258500D01*
X236100Y259500D02*
X239100Y258000D01*
X236100Y259500D02*
X239100Y257500D01*
X236100Y259500D02*
X239100Y257000D01*
X236100D02*
Y262000D01*
X235100Y259500D02*
X240100D01*
X241600Y168000D02*
Y179000D01*
Y168000D02*
X262400D01*
Y179000D01*
X241600D02*
X262400D01*
X238600Y171000D02*
Y176000D01*
X235600Y173500D02*
X238600Y174000D01*
X235600Y173500D02*
X238600Y174500D01*
X235600Y173500D02*
X238600Y175000D01*
X235600Y173500D02*
X238600Y175500D01*
X235600Y173500D02*
X238600Y176000D01*
X235600Y173500D02*
X238600Y173000D01*
X235600Y173500D02*
X238600Y172500D01*
X235600Y173500D02*
X238600Y172000D01*
X235600Y173500D02*
X238600Y171500D01*
X235600Y173500D02*
X238600Y171000D01*
X235600D02*
Y176000D01*
X234600Y173500D02*
X239600D01*
X242100Y155500D02*
Y166500D01*
Y155500D02*
X262900D01*
Y166500D01*
X242100D02*
X262900D01*
X239100Y158500D02*
Y163500D01*
X236100Y161000D02*
X239100Y161500D01*
X236100Y161000D02*
X239100Y162000D01*
X236100Y161000D02*
X239100Y162500D01*
X236100Y161000D02*
X239100Y163000D01*
X236100Y161000D02*
X239100Y163500D01*
X236100Y161000D02*
X239100Y160500D01*
X236100Y161000D02*
X239100Y160000D01*
X236100Y161000D02*
X239100Y159500D01*
X236100Y161000D02*
X239100Y159000D01*
X236100Y161000D02*
X239100Y158500D01*
X236100D02*
Y163500D01*
X235100Y161000D02*
X240100D01*
X289118Y595500D02*
X369118D01*
X289118D02*
Y634500D01*
X369118D01*
Y595500D02*
Y634500D01*
X518800Y484500D02*
Y495500D01*
Y484500D02*
X539600D01*
Y495500D01*
X518800D02*
X539600D01*
X515800Y487500D02*
Y492500D01*
X512800Y490000D02*
X515800Y490500D01*
X512800Y490000D02*
X515800Y491000D01*
X512800Y490000D02*
X515800Y491500D01*
X512800Y490000D02*
X515800Y492000D01*
X512800Y490000D02*
X515800Y492500D01*
X512800Y490000D02*
X515800Y489500D01*
X512800Y490000D02*
X515800Y489000D01*
X512800Y490000D02*
X515800Y488500D01*
X512800Y490000D02*
X515800Y488000D01*
X512800Y490000D02*
X515800Y487500D01*
X512800D02*
Y492500D01*
X511800Y490000D02*
X516800D01*
X474600Y484500D02*
Y495500D01*
Y484500D02*
X495400D01*
Y495500D01*
X474600D02*
X495400D01*
X471600Y487500D02*
Y492500D01*
X468600Y490000D02*
X471600Y490500D01*
X468600Y490000D02*
X471600Y491000D01*
X468600Y490000D02*
X471600Y491500D01*
X468600Y490000D02*
X471600Y492000D01*
X468600Y490000D02*
X471600Y492500D01*
X468600Y490000D02*
X471600Y489500D01*
X468600Y490000D02*
X471600Y489000D01*
X468600Y490000D02*
X471600Y488500D01*
X468600Y490000D02*
X471600Y488000D01*
X468600Y490000D02*
X471600Y487500D01*
X468600D02*
Y492500D01*
X467600Y490000D02*
X472600D01*
X713200Y352200D02*
X726800D01*
Y377800D01*
X713200D02*
X726800D01*
X713200Y352200D02*
Y377800D01*
X726800Y374000D02*
Y377800D01*
X713200D02*
X726800D01*
X713200Y374000D02*
Y377800D01*
Y374000D02*
X726800D01*
X713200Y352200D02*
Y356000D01*
Y352200D02*
X726800D01*
Y356000D01*
X713200D02*
X726800D01*
X665700Y352200D02*
X679300D01*
Y377800D01*
X665700D02*
X679300D01*
X665700Y352200D02*
Y377800D01*
X679300Y374000D02*
Y377800D01*
X665700D02*
X679300D01*
X665700Y374000D02*
Y377800D01*
Y374000D02*
X679300D01*
X665700Y352200D02*
Y356000D01*
Y352200D02*
X679300D01*
Y356000D01*
X665700D02*
X679300D01*
X689700Y352200D02*
X703300D01*
Y377800D01*
X689700D02*
X703300D01*
X689700Y352200D02*
Y377800D01*
X703300Y374000D02*
Y377800D01*
X689700D02*
X703300D01*
X689700Y374000D02*
Y377800D01*
Y374000D02*
X703300D01*
X689700Y352200D02*
Y356000D01*
Y352200D02*
X703300D01*
Y356000D01*
X689700D02*
X703300D01*
X644000Y498882D02*
X683000D01*
Y578882D01*
X644000D02*
X683000D01*
X644000Y498882D02*
Y578882D01*
X657000Y571900D02*
Y576900D01*
X654500Y575900D02*
X659500D01*
X654500Y572900D02*
X657000Y575900D01*
X655000Y572900D02*
X657000Y575900D01*
X655500Y572900D02*
X657000Y575900D01*
X656000Y572900D02*
X657000Y575900D01*
X656500Y572900D02*
X657000Y575900D01*
X659500Y572900D01*
X657000Y575900D02*
X659000Y572900D01*
X657000Y575900D02*
X658500Y572900D01*
X657000Y575900D02*
X658000Y572900D01*
X657000Y575900D02*
X657500Y572900D01*
X654500D02*
X659500D01*
X662500Y549100D02*
Y569900D01*
X651500Y549100D02*
X662500D01*
X651500D02*
Y569900D01*
X662500D01*
X670500Y571900D02*
Y576900D01*
X668000Y575900D02*
X673000D01*
X668000Y572900D02*
X670500Y575900D01*
X668500Y572900D02*
X670500Y575900D01*
X669000Y572900D02*
X670500Y575900D01*
X669500Y572900D02*
X670500Y575900D01*
X670000Y572900D02*
X670500Y575900D01*
X673000Y572900D01*
X670500Y575900D02*
X672500Y572900D01*
X670500Y575900D02*
X672000Y572900D01*
X670500Y575900D02*
X671500Y572900D01*
X670500Y575900D02*
X671000Y572900D01*
X668000D02*
X673000D01*
X676000Y549100D02*
Y569900D01*
X665000Y549100D02*
X676000D01*
X665000D02*
Y569900D01*
X676000D01*
X465000Y423882D02*
X504000D01*
Y503882D01*
X465000D02*
X504000D01*
X465000Y423882D02*
Y503882D01*
X509000Y423882D02*
X548000D01*
Y503882D01*
X509000D02*
X548000D01*
X509000Y423882D02*
Y503882D01*
X525200Y388500D02*
X538800D01*
Y384700D02*
Y388500D01*
X525200Y384700D02*
X538800D01*
X525200D02*
Y388500D01*
Y406500D02*
X538800D01*
X525200D02*
Y410300D01*
X538800D01*
Y406500D02*
Y410300D01*
X525200Y384700D02*
Y410300D01*
X538800D01*
Y384700D02*
Y410300D01*
X525200Y384700D02*
X538800D01*
X501200Y388500D02*
X514800D01*
Y384700D02*
Y388500D01*
X501200Y384700D02*
X514800D01*
X501200D02*
Y388500D01*
Y406500D02*
X514800D01*
X501200D02*
Y410300D01*
X514800D01*
Y406500D02*
Y410300D01*
X501200Y384700D02*
Y410300D01*
X514800D01*
Y384700D02*
Y410300D01*
X501200Y384700D02*
X514800D01*
X454200Y389500D02*
X467800D01*
Y385700D02*
Y389500D01*
X454200Y385700D02*
X467800D01*
X454200D02*
Y389500D01*
Y407500D02*
X467800D01*
X454200D02*
Y411300D01*
X467800D01*
Y407500D02*
Y411300D01*
X454200Y385700D02*
Y411300D01*
X467800D01*
Y385700D02*
Y411300D01*
X454200Y385700D02*
X467800D01*
X477700Y389000D02*
X491300D01*
Y385200D02*
Y389000D01*
X477700Y385200D02*
X491300D01*
X477700D02*
Y389000D01*
Y407000D02*
X491300D01*
X477700D02*
Y410800D01*
X491300D01*
Y407000D02*
Y410800D01*
X477700Y385200D02*
Y410800D01*
X491300D01*
Y385200D02*
Y410800D01*
X477700Y385200D02*
X491300D01*
X612200Y356000D02*
X625800D01*
Y352200D02*
Y356000D01*
X612200Y352200D02*
X625800D01*
X612200D02*
Y356000D01*
Y374000D02*
X625800D01*
X612200D02*
Y377800D01*
X625800D01*
Y374000D02*
Y377800D01*
X612200Y352200D02*
Y377800D01*
X625800D01*
Y352200D02*
Y377800D01*
X612200Y352200D02*
X625800D01*
X643100Y457500D02*
X648100D01*
X644100Y455000D02*
Y460000D01*
Y457500D02*
X647100Y455000D01*
X644100Y457500D02*
X647100Y455500D01*
X644100Y457500D02*
X647100Y456000D01*
X644100Y457500D02*
X647100Y456500D01*
X644100Y457500D02*
X647100Y457000D01*
X644100Y457500D02*
X647100Y460000D01*
X644100Y457500D02*
X647100Y459500D01*
X644100Y457500D02*
X647100Y459000D01*
X644100Y457500D02*
X647100Y458500D01*
X644100Y457500D02*
X647100Y458000D01*
Y455000D02*
Y460000D01*
X650100Y463000D02*
X670900D01*
Y452000D02*
Y463000D01*
X650100Y452000D02*
X670900D01*
X650100D02*
Y463000D01*
X641000Y390882D02*
X680000D01*
Y470882D01*
X641000D02*
X680000D01*
X641000Y390882D02*
Y470882D01*
X630100Y288500D02*
X635100D01*
X631100Y286000D02*
Y291000D01*
Y288500D02*
X634100Y286000D01*
X631100Y288500D02*
X634100Y286500D01*
X631100Y288500D02*
X634100Y287000D01*
X631100Y288500D02*
X634100Y287500D01*
X631100Y288500D02*
X634100Y288000D01*
X631100Y288500D02*
X634100Y291000D01*
X631100Y288500D02*
X634100Y290500D01*
X631100Y288500D02*
X634100Y290000D01*
X631100Y288500D02*
X634100Y289500D01*
X631100Y288500D02*
X634100Y289000D01*
Y286000D02*
Y291000D01*
X637100Y294000D02*
X657900D01*
Y283000D02*
Y294000D01*
X637100Y283000D02*
X657900D01*
X637100D02*
Y294000D01*
X672100Y288500D02*
X677100D01*
X673100Y286000D02*
Y291000D01*
Y288500D02*
X676100Y286000D01*
X673100Y288500D02*
X676100Y286500D01*
X673100Y288500D02*
X676100Y287000D01*
X673100Y288500D02*
X676100Y287500D01*
X673100Y288500D02*
X676100Y288000D01*
X673100Y288500D02*
X676100Y291000D01*
X673100Y288500D02*
X676100Y290500D01*
X673100Y288500D02*
X676100Y290000D01*
X673100Y288500D02*
X676100Y289500D01*
X673100Y288500D02*
X676100Y289000D01*
Y286000D02*
Y291000D01*
X679100Y294000D02*
X699900D01*
Y283000D02*
Y294000D01*
X679100Y283000D02*
X699900D01*
X679100D02*
Y294000D01*
X627500Y221882D02*
X666500D01*
Y301882D01*
X627500D02*
X666500D01*
X627500Y221882D02*
Y301882D01*
X670000Y221882D02*
X709000D01*
Y301882D01*
X670000D02*
X709000D01*
X670000Y221882D02*
Y301882D01*
X377000Y764118D02*
X416000D01*
X377000Y684118D02*
Y764118D01*
Y684118D02*
X416000D01*
Y764118D01*
X376500Y677618D02*
X415500D01*
X376500Y597618D02*
Y677618D01*
Y597618D02*
X415500D01*
Y677618D01*
X119700Y739000D02*
X133300D01*
X119700D02*
Y742800D01*
X133300D01*
Y739000D02*
Y742800D01*
X119700Y721000D02*
X133300D01*
Y717200D02*
Y721000D01*
X119700Y717200D02*
X133300D01*
X119700D02*
Y721000D01*
X133300Y717200D02*
Y742800D01*
X119700Y717200D02*
X133300D01*
X119700D02*
Y742800D01*
X133300D01*
X143200Y739000D02*
X156800D01*
X143200D02*
Y742800D01*
X156800D01*
Y739000D02*
Y742800D01*
X143200Y721000D02*
X156800D01*
Y717200D02*
Y721000D01*
X143200Y717200D02*
X156800D01*
X143200D02*
Y721000D01*
X156800Y717200D02*
Y742800D01*
X143200Y717200D02*
X156800D01*
X143200D02*
Y742800D01*
X156800D01*
X166700Y738500D02*
X180300D01*
X166700D02*
Y742300D01*
X180300D01*
Y738500D02*
Y742300D01*
X166700Y720500D02*
X180300D01*
Y716700D02*
Y720500D01*
X166700Y716700D02*
X180300D01*
X166700D02*
Y720500D01*
X180300Y716700D02*
Y742300D01*
X166700Y716700D02*
X180300D01*
X166700D02*
Y742300D01*
X180300D01*
X408400Y612500D02*
X413400D01*
X412400Y610000D02*
Y615000D01*
X409400D02*
X412400Y612500D01*
X409400Y614500D02*
X412400Y612500D01*
X409400Y614000D02*
X412400Y612500D01*
X409400Y613500D02*
X412400Y612500D01*
X409400Y613000D02*
X412400Y612500D01*
X409400Y610000D02*
X412400Y612500D01*
X409400Y610500D02*
X412400Y612500D01*
X409400Y611000D02*
X412400Y612500D01*
X409400Y611500D02*
X412400Y612500D01*
X409400Y612000D02*
X412400Y612500D01*
X409400Y610000D02*
Y615000D01*
X385600Y607000D02*
X406400D01*
X385600D02*
Y618000D01*
X406400D01*
Y607000D02*
Y618000D01*
X408900Y697500D02*
X413900D01*
X412900Y695000D02*
Y700000D01*
X409900D02*
X412900Y697500D01*
X409900Y699500D02*
X412900Y697500D01*
X409900Y699000D02*
X412900Y697500D01*
X409900Y698500D02*
X412900Y697500D01*
X409900Y698000D02*
X412900Y697500D01*
X409900Y695000D02*
X412900Y697500D01*
X409900Y695500D02*
X412900Y697500D01*
X409900Y696000D02*
X412900Y697500D01*
X409900Y696500D02*
X412900Y697500D01*
X409900Y697000D02*
X412900Y697500D01*
X409900Y695000D02*
Y700000D01*
X386100Y692000D02*
X406900D01*
X386100D02*
Y703000D01*
X406900D01*
Y692000D02*
Y703000D01*
X369118Y639500D02*
Y678500D01*
X289118D02*
X369118D01*
X289118Y639500D02*
Y678500D01*
Y639500D02*
X369118D01*
Y727500D02*
Y766500D01*
X289118D02*
X369118D01*
X289118Y727500D02*
Y766500D01*
Y727500D02*
X369118D01*
X119700Y682500D02*
X133300D01*
X119700D02*
Y686300D01*
X133300D01*
Y682500D02*
Y686300D01*
X119700Y664500D02*
X133300D01*
Y660700D02*
Y664500D01*
X119700Y660700D02*
X133300D01*
X119700D02*
Y664500D01*
X133300Y660700D02*
Y686300D01*
X119700Y660700D02*
X133300D01*
X119700D02*
Y686300D01*
X133300D01*
X143200Y682500D02*
X156800D01*
X143200D02*
Y686300D01*
X156800D01*
Y682500D02*
Y686300D01*
X143200Y664500D02*
X156800D01*
Y660700D02*
Y664500D01*
X143200Y660700D02*
X156800D01*
X143200D02*
Y664500D01*
X156800Y660700D02*
Y686300D01*
X143200Y660700D02*
X156800D01*
X143200D02*
Y686300D01*
X156800D01*
X166700Y682000D02*
X180300D01*
X166700D02*
Y685800D01*
X180300D01*
Y682000D02*
Y685800D01*
X166700Y664000D02*
X180300D01*
Y660200D02*
Y664000D01*
X166700Y660200D02*
X180300D01*
X166700D02*
Y664000D01*
X180300Y660200D02*
Y685800D01*
X166700Y660200D02*
X180300D01*
X166700D02*
Y685800D01*
X180300D01*
X190200Y681500D02*
X203800D01*
X190200D02*
Y685300D01*
X203800D01*
Y681500D02*
Y685300D01*
X190200Y663500D02*
X203800D01*
Y659700D02*
Y663500D01*
X190200Y659700D02*
X203800D01*
X190200D02*
Y663500D01*
X203800Y659700D02*
Y685300D01*
X190200Y659700D02*
X203800D01*
X190200D02*
Y685300D01*
X203800D01*
X190700Y627000D02*
X204300D01*
X190700D02*
Y630800D01*
X204300D01*
Y627000D02*
Y630800D01*
X190700Y609000D02*
X204300D01*
Y605200D02*
Y609000D01*
X190700Y605200D02*
X204300D01*
X190700D02*
Y609000D01*
X204300Y605200D02*
Y630800D01*
X190700Y605200D02*
X204300D01*
X190700D02*
Y630800D01*
X204300D01*
X593700Y554500D02*
X607300D01*
Y550700D02*
Y554500D01*
X593700Y550700D02*
X607300D01*
X593700D02*
Y554500D01*
Y572500D02*
X607300D01*
X593700D02*
Y576300D01*
X607300D01*
Y572500D02*
Y576300D01*
X593700Y550700D02*
Y576300D01*
X607300D01*
Y550700D02*
Y576300D01*
X593700Y550700D02*
X607300D01*
X570033Y554500D02*
X583633D01*
Y550700D02*
Y554500D01*
X570033Y550700D02*
X583633D01*
X570033D02*
Y554500D01*
Y572500D02*
X583633D01*
X570033D02*
Y576300D01*
X583633D01*
Y572500D02*
Y576300D01*
X570033Y550700D02*
Y576300D01*
X583633D01*
Y550700D02*
Y576300D01*
X570033Y550700D02*
X583633D01*
X546367Y554500D02*
X559967D01*
Y550700D02*
Y554500D01*
X546367Y550700D02*
X559967D01*
X546367D02*
Y554500D01*
Y572500D02*
X559967D01*
X546367D02*
Y576300D01*
X559967D01*
Y572500D02*
Y576300D01*
X546367Y550700D02*
Y576300D01*
X559967D01*
Y550700D02*
Y576300D01*
X546367Y550700D02*
X559967D01*
X522700Y554500D02*
X536300D01*
Y550700D02*
Y554500D01*
X522700Y550700D02*
X536300D01*
X522700D02*
Y554500D01*
Y572500D02*
X536300D01*
X522700D02*
Y576300D01*
X536300D01*
Y572500D02*
Y576300D01*
X522700Y550700D02*
Y576300D01*
X536300D01*
Y550700D02*
Y576300D01*
X522700Y550700D02*
X536300D01*
X599100Y458000D02*
X604100D01*
X600100Y455500D02*
Y460500D01*
Y458000D02*
X603100Y455500D01*
X600100Y458000D02*
X603100Y456000D01*
X600100Y458000D02*
X603100Y456500D01*
X600100Y458000D02*
X603100Y457000D01*
X600100Y458000D02*
X603100Y457500D01*
X600100Y458000D02*
X603100Y460500D01*
X600100Y458000D02*
X603100Y460000D01*
X600100Y458000D02*
X603100Y459500D01*
X600100Y458000D02*
X603100Y459000D01*
X600100Y458000D02*
X603100Y458500D01*
Y455500D02*
Y460500D01*
X606100Y463500D02*
X626900D01*
Y452500D02*
Y463500D01*
X606100Y452500D02*
X626900D01*
X606100D02*
Y463500D01*
X597000Y390882D02*
X636000D01*
Y470882D01*
X597000D02*
X636000D01*
X597000Y390882D02*
Y470882D01*
X527118Y594500D02*
Y633500D01*
X447118D02*
X527118D01*
X447118Y594500D02*
Y633500D01*
Y594500D02*
X527118D01*
X714618Y595000D02*
Y634000D01*
X634618D02*
X714618D01*
X634618Y595000D02*
Y634000D01*
Y595000D02*
X714618D01*
X621618Y594500D02*
Y633500D01*
X541618D02*
X621618D01*
X541618Y594500D02*
Y633500D01*
Y594500D02*
X621618D01*
X527118Y639167D02*
Y678167D01*
X447118D02*
X527118D01*
X447118Y639167D02*
Y678167D01*
Y639167D02*
X527118D01*
X714618Y639333D02*
Y678333D01*
X634618D02*
X714618D01*
X634618Y639333D02*
Y678333D01*
Y639333D02*
X714618D01*
X621618Y639000D02*
Y678000D01*
X541618D02*
X621618D01*
X541618Y639000D02*
Y678000D01*
Y639000D02*
X621618D01*
X714618Y683667D02*
Y722667D01*
X634618D02*
X714618D01*
X634618Y683667D02*
Y722667D01*
Y683667D02*
X714618D01*
X621618Y683500D02*
Y722500D01*
X541618D02*
X621618D01*
X541618Y683500D02*
Y722500D01*
Y683500D02*
X621618D01*
X527118Y728500D02*
Y767500D01*
X447118D02*
X527118D01*
X447118Y728500D02*
Y767500D01*
Y728500D02*
X527118D01*
X714618Y728000D02*
Y767000D01*
X634618D02*
X714618D01*
X634618Y728000D02*
Y767000D01*
Y728000D02*
X714618D01*
X450600Y620500D02*
X455600D01*
X451600Y618000D02*
Y623000D01*
Y620500D02*
X454600Y618000D01*
X451600Y620500D02*
X454600Y618500D01*
X451600Y620500D02*
X454600Y619000D01*
X451600Y620500D02*
X454600Y619500D01*
X451600Y620500D02*
X454600Y620000D01*
X451600Y620500D02*
X454600Y623000D01*
X451600Y620500D02*
X454600Y622500D01*
X451600Y620500D02*
X454600Y622000D01*
X451600Y620500D02*
X454600Y621500D01*
X451600Y620500D02*
X454600Y621000D01*
Y618000D02*
Y623000D01*
X457600Y626000D02*
X478400D01*
Y615000D02*
Y626000D01*
X457600Y615000D02*
X478400D01*
X457600D02*
Y626000D01*
X450600Y607500D02*
X455600D01*
X451600Y605000D02*
Y610000D01*
Y607500D02*
X454600Y605000D01*
X451600Y607500D02*
X454600Y605500D01*
X451600Y607500D02*
X454600Y606000D01*
X451600Y607500D02*
X454600Y606500D01*
X451600Y607500D02*
X454600Y607000D01*
X451600Y607500D02*
X454600Y610000D01*
X451600Y607500D02*
X454600Y609500D01*
X451600Y607500D02*
X454600Y609000D01*
X451600Y607500D02*
X454600Y608500D01*
X451600Y607500D02*
X454600Y608000D01*
Y605000D02*
Y610000D01*
X457600Y613000D02*
X478400D01*
Y602000D02*
Y613000D01*
X457600Y602000D02*
X478400D01*
X457600D02*
Y613000D01*
X648000Y597600D02*
Y602600D01*
X645500Y598600D02*
X650500D01*
X648000D02*
X650500Y601600D01*
X648000Y598600D02*
X650000Y601600D01*
X648000Y598600D02*
X649500Y601600D01*
X648000Y598600D02*
X649000Y601600D01*
X648000Y598600D02*
X648500Y601600D01*
X645500D02*
X648000Y598600D01*
X646000Y601600D02*
X648000Y598600D01*
X646500Y601600D02*
X648000Y598600D01*
X647000Y601600D02*
X648000Y598600D01*
X647500Y601600D02*
X648000Y598600D01*
X645500Y601600D02*
X650500D01*
X642500Y604600D02*
Y625400D01*
X653500D01*
Y604600D02*
Y625400D01*
X642500Y604600D02*
X653500D01*
X544600Y620000D02*
X549600D01*
X545600Y617500D02*
Y622500D01*
Y620000D02*
X548600Y617500D01*
X545600Y620000D02*
X548600Y618000D01*
X545600Y620000D02*
X548600Y618500D01*
X545600Y620000D02*
X548600Y619000D01*
X545600Y620000D02*
X548600Y619500D01*
X545600Y620000D02*
X548600Y622500D01*
X545600Y620000D02*
X548600Y622000D01*
X545600Y620000D02*
X548600Y621500D01*
X545600Y620000D02*
X548600Y621000D01*
X545600Y620000D02*
X548600Y620500D01*
Y617500D02*
Y622500D01*
X551600Y625500D02*
X572400D01*
Y614500D02*
Y625500D01*
X551600Y614500D02*
X572400D01*
X551600D02*
Y625500D01*
X544600Y607500D02*
X549600D01*
X545600Y605000D02*
Y610000D01*
Y607500D02*
X548600Y605000D01*
X545600Y607500D02*
X548600Y605500D01*
X545600Y607500D02*
X548600Y606000D01*
X545600Y607500D02*
X548600Y606500D01*
X545600Y607500D02*
X548600Y607000D01*
X545600Y607500D02*
X548600Y610000D01*
X545600Y607500D02*
X548600Y609500D01*
X545600Y607500D02*
X548600Y609000D01*
X545600Y607500D02*
X548600Y608500D01*
X545600Y607500D02*
X548600Y608000D01*
Y605000D02*
Y610000D01*
X551600Y613000D02*
X572400D01*
Y602000D02*
Y613000D01*
X551600Y602000D02*
X572400D01*
X551600D02*
Y613000D01*
X450600Y665500D02*
X455600D01*
X451600Y663000D02*
Y668000D01*
Y665500D02*
X454600Y663000D01*
X451600Y665500D02*
X454600Y663500D01*
X451600Y665500D02*
X454600Y664000D01*
X451600Y665500D02*
X454600Y664500D01*
X451600Y665500D02*
X454600Y665000D01*
X451600Y665500D02*
X454600Y668000D01*
X451600Y665500D02*
X454600Y667500D01*
X451600Y665500D02*
X454600Y667000D01*
X451600Y665500D02*
X454600Y666500D01*
X451600Y665500D02*
X454600Y666000D01*
Y663000D02*
Y668000D01*
X457600Y671000D02*
X478400D01*
Y660000D02*
Y671000D01*
X457600Y660000D02*
X478400D01*
X457600D02*
Y671000D01*
X450600Y652000D02*
X455600D01*
X451600Y649500D02*
Y654500D01*
Y652000D02*
X454600Y649500D01*
X451600Y652000D02*
X454600Y650000D01*
X451600Y652000D02*
X454600Y650500D01*
X451600Y652000D02*
X454600Y651000D01*
X451600Y652000D02*
X454600Y651500D01*
X451600Y652000D02*
X454600Y654500D01*
X451600Y652000D02*
X454600Y654000D01*
X451600Y652000D02*
X454600Y653500D01*
X451600Y652000D02*
X454600Y653000D01*
X451600Y652000D02*
X454600Y652500D01*
Y649500D02*
Y654500D01*
X457600Y657500D02*
X478400D01*
Y646500D02*
Y657500D01*
X457600Y646500D02*
X478400D01*
X457600D02*
Y657500D01*
X649500Y641600D02*
Y646600D01*
X647000Y642600D02*
X652000D01*
X649500D02*
X652000Y645600D01*
X649500Y642600D02*
X651500Y645600D01*
X649500Y642600D02*
X651000Y645600D01*
X649500Y642600D02*
X650500Y645600D01*
X649500Y642600D02*
X650000Y645600D01*
X647000D02*
X649500Y642600D01*
X647500Y645600D02*
X649500Y642600D01*
X648000Y645600D02*
X649500Y642600D01*
X648500Y645600D02*
X649500Y642600D01*
X649000Y645600D02*
X649500Y642600D01*
X647000Y645600D02*
X652000D01*
X644000Y648600D02*
Y669400D01*
X655000D01*
Y648600D02*
Y669400D01*
X644000Y648600D02*
X655000D01*
X544600Y665500D02*
X549600D01*
X545600Y663000D02*
Y668000D01*
Y665500D02*
X548600Y663000D01*
X545600Y665500D02*
X548600Y663500D01*
X545600Y665500D02*
X548600Y664000D01*
X545600Y665500D02*
X548600Y664500D01*
X545600Y665500D02*
X548600Y665000D01*
X545600Y665500D02*
X548600Y668000D01*
X545600Y665500D02*
X548600Y667500D01*
X545600Y665500D02*
X548600Y667000D01*
X545600Y665500D02*
X548600Y666500D01*
X545600Y665500D02*
X548600Y666000D01*
Y663000D02*
Y668000D01*
X551600Y671000D02*
X572400D01*
Y660000D02*
Y671000D01*
X551600Y660000D02*
X572400D01*
X551600D02*
Y671000D01*
X544600Y651000D02*
X549600D01*
X545600Y648500D02*
Y653500D01*
Y651000D02*
X548600Y648500D01*
X545600Y651000D02*
X548600Y649000D01*
X545600Y651000D02*
X548600Y649500D01*
X545600Y651000D02*
X548600Y650000D01*
X545600Y651000D02*
X548600Y650500D01*
X545600Y651000D02*
X548600Y653500D01*
X545600Y651000D02*
X548600Y653000D01*
X545600Y651000D02*
X548600Y652500D01*
X545600Y651000D02*
X548600Y652000D01*
X545600Y651000D02*
X548600Y651500D01*
Y648500D02*
Y653500D01*
X551600Y656500D02*
X572400D01*
Y645500D02*
Y656500D01*
X551600Y645500D02*
X572400D01*
X551600D02*
Y656500D01*
X449600Y710000D02*
X454600D01*
X450600Y707500D02*
Y712500D01*
Y710000D02*
X453600Y707500D01*
X450600Y710000D02*
X453600Y708000D01*
X450600Y710000D02*
X453600Y708500D01*
X450600Y710000D02*
X453600Y709000D01*
X450600Y710000D02*
X453600Y709500D01*
X450600Y710000D02*
X453600Y712500D01*
X450600Y710000D02*
X453600Y712000D01*
X450600Y710000D02*
X453600Y711500D01*
X450600Y710000D02*
X453600Y711000D01*
X450600Y710000D02*
X453600Y710500D01*
Y707500D02*
Y712500D01*
X456600Y715500D02*
X477400D01*
Y704500D02*
Y715500D01*
X456600Y704500D02*
X477400D01*
X456600D02*
Y715500D01*
X449600Y696500D02*
X454600D01*
X450600Y694000D02*
Y699000D01*
Y696500D02*
X453600Y694000D01*
X450600Y696500D02*
X453600Y694500D01*
X450600Y696500D02*
X453600Y695000D01*
X450600Y696500D02*
X453600Y695500D01*
X450600Y696500D02*
X453600Y696000D01*
X450600Y696500D02*
X453600Y699000D01*
X450600Y696500D02*
X453600Y698500D01*
X450600Y696500D02*
X453600Y698000D01*
X450600Y696500D02*
X453600Y697500D01*
X450600Y696500D02*
X453600Y697000D01*
Y694000D02*
Y699000D01*
X456600Y702000D02*
X477400D01*
Y691000D02*
Y702000D01*
X456600Y691000D02*
X477400D01*
X456600D02*
Y702000D01*
X648000Y686600D02*
Y691600D01*
X645500Y687600D02*
X650500D01*
X648000D02*
X650500Y690600D01*
X648000Y687600D02*
X650000Y690600D01*
X648000Y687600D02*
X649500Y690600D01*
X648000Y687600D02*
X649000Y690600D01*
X648000Y687600D02*
X648500Y690600D01*
X645500D02*
X648000Y687600D01*
X646000Y690600D02*
X648000Y687600D01*
X646500Y690600D02*
X648000Y687600D01*
X647000Y690600D02*
X648000Y687600D01*
X647500Y690600D02*
X648000Y687600D01*
X645500Y690600D02*
X650500D01*
X642500Y693600D02*
Y714400D01*
X653500D01*
Y693600D02*
Y714400D01*
X642500Y693600D02*
X653500D01*
X450100Y755000D02*
X455100D01*
X451100Y752500D02*
Y757500D01*
Y755000D02*
X454100Y752500D01*
X451100Y755000D02*
X454100Y753000D01*
X451100Y755000D02*
X454100Y753500D01*
X451100Y755000D02*
X454100Y754000D01*
X451100Y755000D02*
X454100Y754500D01*
X451100Y755000D02*
X454100Y757500D01*
X451100Y755000D02*
X454100Y757000D01*
X451100Y755000D02*
X454100Y756500D01*
X451100Y755000D02*
X454100Y756000D01*
X451100Y755000D02*
X454100Y755500D01*
Y752500D02*
Y757500D01*
X457100Y760500D02*
X477900D01*
Y749500D02*
Y760500D01*
X457100Y749500D02*
X477900D01*
X457100D02*
Y760500D01*
X450100Y741500D02*
X455100D01*
X451100Y739000D02*
Y744000D01*
Y741500D02*
X454100Y739000D01*
X451100Y741500D02*
X454100Y739500D01*
X451100Y741500D02*
X454100Y740000D01*
X451100Y741500D02*
X454100Y740500D01*
X451100Y741500D02*
X454100Y741000D01*
X451100Y741500D02*
X454100Y744000D01*
X451100Y741500D02*
X454100Y743500D01*
X451100Y741500D02*
X454100Y743000D01*
X451100Y741500D02*
X454100Y742500D01*
X451100Y741500D02*
X454100Y742000D01*
Y739000D02*
Y744000D01*
X457100Y747000D02*
X477900D01*
Y736000D02*
Y747000D01*
X457100Y736000D02*
X477900D01*
X457100D02*
Y747000D01*
X648000Y730600D02*
Y735600D01*
X645500Y731600D02*
X650500D01*
X648000D02*
X650500Y734600D01*
X648000Y731600D02*
X650000Y734600D01*
X648000Y731600D02*
X649500Y734600D01*
X648000Y731600D02*
X649000Y734600D01*
X648000Y731600D02*
X648500Y734600D01*
X645500D02*
X648000Y731600D01*
X646000Y734600D02*
X648000Y731600D01*
X646500Y734600D02*
X648000Y731600D01*
X647000Y734600D02*
X648000Y731600D01*
X647500Y734600D02*
X648000Y731600D01*
X645500Y734600D02*
X650500D01*
X642500Y737600D02*
Y758400D01*
X653500D01*
Y737600D02*
Y758400D01*
X642500Y737600D02*
X653500D01*
X544600Y755000D02*
X549600D01*
X545600Y752500D02*
Y757500D01*
Y755000D02*
X548600Y752500D01*
X545600Y755000D02*
X548600Y753000D01*
X545600Y755000D02*
X548600Y753500D01*
X545600Y755000D02*
X548600Y754000D01*
X545600Y755000D02*
X548600Y754500D01*
X545600Y755000D02*
X548600Y757500D01*
X545600Y755000D02*
X548600Y757000D01*
X545600Y755000D02*
X548600Y756500D01*
X545600Y755000D02*
X548600Y756000D01*
X545600Y755000D02*
X548600Y755500D01*
Y752500D02*
Y757500D01*
X551600Y760500D02*
X572400D01*
Y749500D02*
Y760500D01*
X551600Y749500D02*
X572400D01*
X551600D02*
Y760500D01*
X544600Y741500D02*
X549600D01*
X545600Y739000D02*
Y744000D01*
Y741500D02*
X548600Y739000D01*
X545600Y741500D02*
X548600Y739500D01*
X545600Y741500D02*
X548600Y740000D01*
X545600Y741500D02*
X548600Y740500D01*
X545600Y741500D02*
X548600Y741000D01*
X545600Y741500D02*
X548600Y744000D01*
X545600Y741500D02*
X548600Y743500D01*
X545600Y741500D02*
X548600Y743000D01*
X545600Y741500D02*
X548600Y742500D01*
X545600Y741500D02*
X548600Y742000D01*
Y739000D02*
Y744000D01*
X551600Y747000D02*
X572400D01*
Y736000D02*
Y747000D01*
X551600Y736000D02*
X572400D01*
X551600D02*
Y747000D01*
X302500Y641600D02*
Y646600D01*
X300000Y642600D02*
X305000D01*
X302500D02*
X305000Y645600D01*
X302500Y642600D02*
X304500Y645600D01*
X302500Y642600D02*
X304000Y645600D01*
X302500Y642600D02*
X303500Y645600D01*
X302500Y642600D02*
X303000Y645600D01*
X300000D02*
X302500Y642600D01*
X300500Y645600D02*
X302500Y642600D01*
X301000Y645600D02*
X302500Y642600D01*
X301500Y645600D02*
X302500Y642600D01*
X302000Y645600D02*
X302500Y642600D01*
X300000Y645600D02*
X305000D01*
X297000Y648600D02*
Y669400D01*
X308000D01*
Y648600D02*
Y669400D01*
X297000Y648600D02*
X308000D01*
X302500Y730100D02*
Y735100D01*
X300000Y731100D02*
X305000D01*
X302500D02*
X305000Y734100D01*
X302500Y731100D02*
X304500Y734100D01*
X302500Y731100D02*
X304000Y734100D01*
X302500Y731100D02*
X303500Y734100D01*
X302500Y731100D02*
X303000Y734100D01*
X300000D02*
X302500Y731100D01*
X300500Y734100D02*
X302500Y731100D01*
X301000Y734100D02*
X302500Y731100D01*
X301500Y734100D02*
X302500Y731100D01*
X302000Y734100D02*
X302500Y731100D01*
X300000Y734100D02*
X305000D01*
X297000Y737100D02*
Y757900D01*
X308000D01*
Y737100D02*
Y757900D01*
X297000Y737100D02*
X308000D01*
X302500Y686100D02*
Y691100D01*
X300000Y687100D02*
X305000D01*
X302500D02*
X305000Y690100D01*
X302500Y687100D02*
X304500Y690100D01*
X302500Y687100D02*
X304000Y690100D01*
X302500Y687100D02*
X303500Y690100D01*
X302500Y687100D02*
X303000Y690100D01*
X300000D02*
X302500Y687100D01*
X300500Y690100D02*
X302500Y687100D01*
X301000Y690100D02*
X302500Y687100D01*
X301500Y690100D02*
X302500Y687100D01*
X302000Y690100D02*
X302500Y687100D01*
X300000Y690100D02*
X305000D01*
X297000Y693100D02*
Y713900D01*
X308000D01*
Y693100D02*
Y713900D01*
X297000Y693100D02*
X308000D01*
X302500Y598400D02*
Y603400D01*
X300000Y599400D02*
X305000D01*
X302500D02*
X305000Y602400D01*
X302500Y599400D02*
X304500Y602400D01*
X302500Y599400D02*
X304000Y602400D01*
X302500Y599400D02*
X303500Y602400D01*
X302500Y599400D02*
X303000Y602400D01*
X300000D02*
X302500Y599400D01*
X300500Y602400D02*
X302500Y599400D01*
X301000Y602400D02*
X302500Y599400D01*
X301500Y602400D02*
X302500Y599400D01*
X302000Y602400D02*
X302500Y599400D01*
X300000Y602400D02*
X305000D01*
X297000Y605400D02*
Y626200D01*
X308000D01*
Y605400D02*
Y626200D01*
X297000Y605400D02*
X308000D01*
M02*
