M48
;Layer_Color=9474304
;FILE_FORMAT=2:5
INCH,LZ
;TYPE=PLATED
T01F00S00C0.01500
T02F00S00C0.02800
T03F00S00C0.03937
T04F00S00C0.04000
T05F00S00C0.04331
T06F00S00C0.12600
%
T01
X015Y011
X0145Y012
X012Y015
X011
X017
X0175Y014
X02Y015
X021
X025
X03
X016Y011
X032Y015
X033
X034
X035
X037
X038
X04
X041
X042
X045
X0455Y014
X045Y013
X048
X049
X05
X051
X052
X053
X054
X055
X056
X057
X058
X059
X06
X061
X062
X0615Y014
X0605
X0595
X0585
X0575
X0565
X0555
X0545
X0535
X0525
X0515
X0505
X0495
X0485
X049Y015
X05
X051
X052
X053
X054
X055
X056
X057
X058
X059
X06
X061
X062
X0615Y012
X0605
X0595
X0585
X0575
X0565
X0555
X0545
X0535
X0525
X0515
X0505
X0495
X0485
X049Y011
X05
X051
X052
X053
X054
X055
X056
X057
X058
X059
X06
X061
X062
X048
Y015
X063
X064
X065
X066
X067
X068
X069
X07
X071
X072
X073
X074
X075
X076
X077
X078
X0765Y014
X0755
X0745
X0735
X0725
X0715
X0705
X0695
X0685
X0675
X0665
X0655
X0645
X0635
X0625
X063Y013
X064
X065
X066
X067
X068
X069
X07
X071
X072
X073
X074
X075
X076
X0765Y012
X0755
X0745
X0735
X0725
X0715
X0705
X0695
X0685
X0675
X0665
X0655
X0645
X0635
X0625
X063Y011
X064
X065
X066
X067
X068
X069
X07
X071
X072
X073
X074
X075
X076
X079Y015
X08
X0795Y016
X0785
X079Y017
X08
X0795Y018
X0785
X079Y019
X08
X0795Y02
X0785
X079Y021
X08
X0795Y022
X0785
X079Y023
X08
X0795Y024
X0785
X079Y025
X08
X0795Y026
X0785
X079Y027
X08
X0795Y028
X0785
X079Y029
X08
X0795Y03
X0785
X079Y031
X08
X078
X077
X076
X075
X074
X073
X0735Y03
X0745
X0755
X0765
X0775
X078Y029
X077
X076
X075
X074
X073
X072
X0725Y03
Y028
X0735
X0745
X0755
X0765
X0775
X078Y027
X077
X076
X075
X074
X073
X072
X0725Y026
X0735
X0745
X0755
X0765
X0775
X078Y025
X077
X076
X075
X074
X073
X072
X0725Y024
X0735
X0745
X0755
X0765
X0775
X078Y023
X077
X076
X075
X074
X073
X072
X0725Y022
X0735
X0745
X0755
X0765
X0775
X078Y021
X077
X076
X075
X074
X073
X072
X071
X0715Y022
X0705
Y024
X0715
Y026
X0705
X0695
X0685
X0675
X0665
X0655
X0645
X0635
X064Y025
X065
Y027
X0655Y028
X0675
X0695
X069Y027
Y025
Y023
X0685Y022
Y02
X0695
X0705
X0715
X0725
X0735
X0745
X0755
X0765
X0775
X078Y019
X077
X076
X075
X074
X073
X072
X071
X07
X069
X068
X067
X066
X065
X064
X063
X0635Y02
X0645
X0655
X0665
X0675
Y018
X0685
X0695
X0705
X0715
X0725
X0735
X0745
X0755
X0765
X0775
X078Y017
X077
X076
X075
X074
X073
X072
X071
X07
X069
X068
X067
X066
X065
X064
X063
X0635Y018
X0645
X0655
X0665
Y016
X0675
X0685
X0695
X0705
X0715
X0725
X0735
X0745
X0755
X0765
X0775
X0655
X0645
X0635
X0625
Y018
Y02
Y022
X0635
X0645
X0655
X0665
X0635Y028
X0625
X063Y029
X0625Y03
X065Y031
X066
X068
X0685Y03
X07Y031
X071
X0715Y028
X062Y029
Y031
X0585Y03
X0565
X0555
X0545
X0535
X0525
X0515
X0505
X0495
X0485
X0475
X047Y031
X0505Y028
X0545
Y026
X0565
X0575
Y024
X0595
Y022
X06Y021
X059
X058
X0585Y02
X0595
X0605
X061Y019
X062
X0615Y018
X0605
X0595
X0585
X059Y019
X06
Y017
X061
X062
X0615Y016
X0605
X0595
X0585
X0575
X0565
X0555
X0545
X0535
X0525
X0515
X0505
X0495
X0485
X048Y017
Y019
X0485Y02
Y022
Y026
X052Y023
X056
X0535Y02
X058Y019
X059Y017
X056
Y029
X057
X0465Y03
X0455
X0445
X0435
X0425
X043Y031
X044
X045
X046
X045Y029
X044
X043
X0435Y028
X0445
X0455
X046Y027
X045
X044
X043
X0435Y026
X0445
X0455
X0425
X043Y025
X042
Y023
Y021
X045
X0455Y022
X046Y023
X045
X0455Y02
X045Y019
X0455Y018
X045Y017
X0455Y016
X042Y017
X04
X0405Y018
X0385
X0375
X038Y017
X037
X035
X034
X033
X032
X0325Y018
X0335
X0345
X0355
X033Y019
X032
X0315Y02
Y018
X034Y021
X037
X0395Y024
Y026
X0405
Y028
X0395
Y03
X0405
X0425Y028
X035Y027
X033Y025
X032Y031
X03
X0305Y03
X0295
X0285
X0275
X028Y031
X027Y029
X028Y027
X03
X0295Y028
X03Y025
X029
X028
X0275Y024
X0295
Y02
X03Y019
X0295Y018
X03Y017
X031
X029
X028
X027
X0275Y018
X028Y019
X025
Y021
X026
X024
X023
X0225Y022
X025Y023
Y027
X0245Y028
X023Y029
X0235Y03
X0225
X025Y031
X0235Y026
X0225
X023Y025
Y019
Y017
X0235Y016
X0225
X0215
X0205
X0195
X02Y017
X021
X02Y019
X0175Y018
X017Y017
X016
X0165Y016
X0175
X0275
X0175Y026
Y028
X017Y029
X016
X0165Y03
X0175
X0155
X0145
X015Y029
X0145Y026
X011Y023
Y021
X0115Y02
X011Y019
X0115Y018
X011Y017
X0115Y016
X0155
X015Y017
X0145Y018
Y032
X0155Y034
X012Y039
X011
X0115Y04
X0125
X013Y041
X012
X011
X0115Y042
X0125
X013Y043
X012
X011
X0115Y044
X0125
X013Y045
X012
X011
X0115Y046
X0125
X023Y045
X0225Y044
Y042
X0235
X0255
X0265
X026Y041
X025
X0255Y04
X0245
X0225
X023Y039
X0235Y036
X0245
X0255
X0265
X026Y037
X028
X03
X0305Y034
X0295
X0285
X0275
X0265
X0255
X0245
X0235
X0225
X023Y033
X024
X025
X026
X027
X028
X029
X03
X031
X0265Y032
X0255
X0245
X0235
X0225
Y036
X0175
X0165
X017Y037
X0175Y032
X027Y039
X0275Y04
X028Y041
X03
X0295Y04
Y044
X0275
X0255
X026Y045
X025
X0255Y046
X032Y043
X0325Y034
X0335
X0345
X033Y033
X032
X0315Y034
X0335Y032
X0365
X0375
X0395
X0405
X0425
X0435
X0445
X0455
X0465
X046Y037
X045
X044
X043
X0435Y038
X0445
X0455
X045Y039
X044
X043
X0435Y04
X0445
X045Y041
X044
X043
X0435Y042
X0445
X0455
X046Y043
X045
X044
X043
X0435Y044
X0445
X0455
X0465
X044Y045
X043
X042
X041
X0425Y046
X0435
X0445
X0425Y044
Y042
X0415
Y04
X0425
Y038
X0415
X0405Y036
X0385
Y038
X0395Y04
X0495Y038
X052Y037
Y035
X0545Y034
X055Y033
X056
X057
X0565Y034
X057Y035
X056
Y037
X057
X0575Y038
X0565
X057Y039
X058
X0585Y04
X0595
X059Y041
X058
X057
X056
X0565Y042
X0575
X0585
X0595
X059Y043
X058
X057
X056
X055
X0555Y044
X0565
X0575
X0585
X0595
X06Y045
X061
X062
X0615Y044
X062Y043
X0615Y04
X062Y039
X0615Y036
Y034
X061Y033
X06
X059
X0595Y034
X0585
X059Y035
X0595Y036
X06Y037
X059
X0595Y038
X0575Y04
X0565
X056Y039
X0545Y038
Y044
Y046
X0565
X0575
X0585
X0595
X059Y045
X058
X057
X056
X053
X0525Y046
X0515
Y044
X0525
X053Y043
X0525Y042
X049Y043
X0495Y044
X0485
X049Y045
X0495Y032
X0485
X0515
X0635
X063Y033
X0635Y034
X0625
X063Y035
X0625Y036
X063Y037
X0625Y04
X0655
X065Y039
X07
X0695Y04
X0725
X0735
X0745
X0755
X0765
X0775
X078Y041
X077
Y043
X075
X074
X0745Y042
X0755
X0735
X074Y039
X075
X076
X077
X078
X0775Y038
X0765
X0755
X0745
X0735
X074Y037
X075
X076
X077
X078
X0775Y036
X0765
X0755
X0745
X0735
X0725
X073Y037
Y039
X074Y035
X075
X076
X077
X078
X0775Y034
X0765
X0755
X0745
X0735
X0725
X073Y033
X074
X075
X076
X077
X078
X0775Y032
X0765
X0755
X0745
X0735
X0725
X0705
X071Y033
X07
X0705Y034
X0685
X0675
X068Y033
X0685Y032
X0675
X0655
X066Y033
X065
X0655Y034
X066Y035
X0675Y036
X066Y043
Y045
X067
X064
X0635Y046
X0735
X0745
X0755
X0795
X08Y045
X0795Y044
X08Y043
X0795Y042
X08Y041
X079
X0795Y04
X0785
X079Y039
X08
X0795Y038
X0785
X079Y037
X08
X0795Y036
X0785
X079Y035
X08
X0795Y034
X0785
X079Y033
X08
X0795Y032
X0785
X08Y047
X0795Y048
X08Y049
X0795Y05
X08Y051
X0795Y052
X0785
X079Y053
X08
X0795Y054
X0785
X079Y055
X08
X0795Y056
X0785
X079Y057
X08
X0795Y058
X0785
X079Y059
X08
X0795Y06
X0785
X079Y061
X08
X0795Y062
X0785
X0775
X0765
X0755
X0745
X0735
X0725
X0715
X0705
X0695
X07Y061
X071
X072
X073
X074
X075
X076
X077
X078
X0775Y06
X0765
X0755
X0745
X0735
X0725
X073Y059
X074
X075
X076
X077
X078
X0775Y058
X0765
X0755
X0745
X0735
X0725
X0715
X0705
X0695
X0685
X069Y059
X07
X071
X072
Y057
X073
X074
X075
X076
X077
X078
X0775Y056
X0765
X0755
X0745
X0735
X0725
X0715
X071Y057
X0695Y056
X0685
X069Y055
X07
X0705Y054
X0715
X072Y053
X071
X07
X069
X0695Y054
X0685
Y052
X0695
X0705
X0715
X0725
X0735
X074Y051
X073
X072
X071
X07
X069
X067
X066
X0665Y052
X0655
X066Y053
X067
X0665Y054
X0635
X0625
X063Y055
X064
X0645Y056
X0635
X0625
X063Y057
X064
X0635Y058
X0625
X0655
X0665
X067Y059
X066
X0655Y06
X066Y061
X067
X068
X064
X0635Y052
X064Y051
X0665Y048
X0685
X0705
X0715
X072Y049
X071
Y047
X074
X075
X076
X0765Y048
X0755
X0745
X0735
X074Y049
X075
X076
X0755Y05
X0745
X0735
X0755Y052
X0765
X0775
X078Y053
X077
X076
X075
X0755Y054
X0765
X0775
X078Y055
X077
X076
X075
X074
X073
X0735Y054
X0745
X077Y051
X061
X0605Y052
X061Y053
X0605Y054
Y056
X059Y055
X0585Y054
X059Y053
X058
X0585Y052
X059Y051
X058
X0585Y05
X0555
X055Y051
X054
X053
X052
X0525Y052
X0535
X0545
X0555
X055Y053
X054
X053
X052
X051
X05
X049
X048
X0485Y054
X0495
X0505
X0515
X0525
X0535
X0555
X055Y049
X0535Y05
X0525
X0515Y052
X0505
X0495
X0485
X0475
Y054
X048Y055
X049
X05
X051
X0505Y056
X0495
X0485
X0475
X048Y057
X049
X05
X051
X047
X049Y061
X0505Y062
X0515
X0525
X0535
X0545
X0555Y06
X056Y047
X057
X058
X059
X053
X052
X049
X048
X0485Y05
X05Y049
X0465Y048
X0445
X0435
X0425
X043Y047
X044
X042
X0395Y048
X04Y051
X041
X042
X043
X044
X045
X046
X0455Y052
X0445
X0435
X0425
X0415
X042Y053
X043
X044
X045
X046
X0455Y054
X0445
X0435
X0425
X0415
X0405
X0395
X0385
X039Y055
X04
X041
X042
X043
X044
X045
X046
X0455Y056
X0445
X0435
X0425
X0415
X0405
X0395
X0385
X0375
X0365
X0355
X0345
X0335
X0325
X0315
X032Y057
X033
X034
X035
X036
X037
X038
X039
X04
X041
X042
X043
X044
X045
Y061
X0445Y062
X043Y061
X042
X0425Y06
X0435
X0465
X0395
X037Y061
X036
X035
X034
X033
X032
X0315Y06
X0335
X0355
Y054
X0365
X036Y053
X035
X0345Y054
X0335Y052
X0315
X032Y051
X0325Y05
X0315
X032Y047
X034
X036
X037Y051
X038
X039
Y053
X04
X0375Y052
X0315Y054
X0305
X0295
X0285
X0275
X0265
X0255
X0245
X025Y053
X026
X0255Y052
X0275
X028Y051
X027
X0275Y05
X0295
X03Y051
X0295Y052
Y056
X0305
X031Y057
X03
X029
X028
X0285Y056
X0275
X0265
X0255Y05
X026Y049
X025
X0255Y048
X0225
X023Y049
X0225Y052
X017Y059
X016
X0165Y06
X0175
X029Y061
X031
X0305Y06
X0155
X0145
X0135
X0125
X0115
X012Y059
X013
X014
X015
X0155Y058
X0145
X0135
X0125
X0115
X012Y057
X013
X014
X015
X0135Y056
X0125
X0115
X012Y055
X013
X0125Y054
X0115
X012Y053
X013
X0125Y052
X0115
X012Y051
X013
X0125Y05
X0115
X012Y049
X013
X0125Y048
X0115
X012Y047
X013
X011
Y049
Y051
Y053
Y055
Y057
Y059
X0155Y062
Y064
X0145
X0135
X0115
X012Y065
X011
X0115Y066
X011Y069
X0115Y07
X012Y071
X011
X0135Y07
X0145
X014Y069
X013Y073
X012Y075
X011
X0115Y076
X0125
X0135
X0145
X015Y077
X014
X0145Y078
X0155
X011Y063
X0165Y064
X0185Y066
X016Y069
X018Y073
X02
X019Y077
X018
X017
X016
X0165Y078
X0175
X0185
X0195
X0205
X0215
X0225
X0275
X0285
X0295
X0305
X031Y077
X03
X029
X028
X029Y075
X0295Y074
X031Y075
X0305Y072
X031Y071
X029
X031Y067
Y063
X029Y065
X032Y071
X033
X034
X035
X036
X0355Y072
X0375
X0395
Y074
X0405
X041Y075
X042
X043
X044
X045
X0445Y074
X0435
X0425
X043Y077
X044
X045
X0455Y078
X0465
X0445
X0435
X0425
X0415
X0405
X0395
X0385
X0375
X0365
X0355
X0345
X0335
X0325
X0315
X032Y077
X033
X034
X035
X036
X037
X038
X04Y075
X041Y071
X042
X043
X044
X045
X044Y069
X043
X042
X0425Y068
X0435
X0445
X0455
X045Y065
X043
X042
X0425Y066
X0435
X043Y067
X042
X0415Y068
Y066
X04Y067
X039
Y069
X04
Y065
X039
X0315Y072
Y074
X032Y075
X0315Y076
X0495
X0515
X052Y077
X053
X054
X0545Y078
X0555
X0565
X0575
X0585
X0595
X0605
X0615
X0605Y076
Y074
X0615
X061Y073
X059
X0595Y074
X0585
X058Y071
X059Y069
X056
X0545Y068
X0535
X0525
X0515
X0505
X051Y067
X053
X054
X0535Y064
X054Y063
X053
X051
X0515Y064
X049Y063
X0485Y066
Y07
X0495
X051Y071
X052
X053
X054
X0535Y072
X054Y073
X053
X051
X0515Y072
X049Y073
X0495Y078
X0505
X0515
X0525
X0535
Y076
X051Y077
X0485Y078
X0475
X056Y073
X0555Y064
X058Y065
X06
X062
X066
X068
X0675Y064
X068Y063
X07
X0695Y064
X07Y065
X0705Y066
X0715
X0725
X0735
X0745
X0755
X0765
X0775
X078Y067
X077
X076
X075
X074
X073
X072
X0725Y068
X0735
X0745
X0755
X0765
X0775
X078Y069
X077
X076
X075
X074
X073
X072
X0725Y07
X0735
X0745
X0755
X0765
X0775
X078Y071
X077
X076
X075
X074
X073
X072
X071
X07
X0705Y07
X0715
Y068
X0705
X0695
X0685
X0675
X068Y069
X0675Y07
X0665
X0655
X066Y069
Y067
X068
X07
Y069
X0695Y07
X07Y073
X0705Y074
X0715
X0725
X0735
X0745
X0755
X0765
X0775
X078Y075
X077
X076
X075
X074
X073
X072
X071
X07
X0695Y074
X0675
X0665
X0655
X066Y073
X065
X068
Y075
Y077
X069
X07
X071
X072
X073
X074
X075
X076
X077
X0775Y076
X0765
X0755
X0745
X0735
X0725
Y078
X0735
X0745
X0755
X0765
X0715
X0705
X0695
X0685
X0675
X0665
X0655
X0645
X0635
X0625
X064Y077
X065
X066
X067
X0655Y076
X0635Y07
X065Y063
X066
X072
X073
X074
X075
X076
X077
X078
X0775Y064
X0765
X0755
X0745
X0735
X0725
X0715
X072Y065
X073
X074
X075
X076
X077
X078
X0775Y072
X0765
X0755
X0745
X0735
X0725
X073Y073
X074
X075
X076
X077
X078
X072
X079
X08
X0795Y074
X0785
X079Y075
X08
X0795Y076
X0785
Y072
X0795
X08Y071
X079
X0795Y07
X0785
X079Y069
X08
X0795Y068
X0785
X079Y067
X08
X0795Y066
X0785
X079Y065
X08
X0795Y064
X0785
X079Y063
X08
X076Y079
X075
X074
X073
X072
X071
X07
X069
X068
X067
X066
X065
X064
X063
X0635Y08
X0645
X0655
X0665
X0675
X0685
X0695
X0705
X0715
X0725
X0735
X0745
X0755
X0765
X0625
X0615
X0605
X0595
X0585
X0575
X0565
X0555
X0545
X0535
X0525
X0515
X0505
X0495
X0485
X0475
X048Y079
X049
X05
X051
X052
X053
X054
X055
X056
X057
X058
X059
X06
X061
X062
X047
X046
X045
X044
X043
X042
X041
X04
X039
X038
X037
X036
X035
X034
X033
X032
X0325Y08
X0335
X0345
X0355
X0365
X0375
X0385
X0395
X0405
X0415
X0425
X0435
X0445
X0455
X0465
X0315
X0305
X0295
X0285
X0275
X0265
X0255
X0245
X0235
X0225
X0215
X0205
X0195
X0185
X0175
X0165
X017Y079
X018
X019
X02
X021
X022
X023
X024
X026
X027
X028
X029
X03
X031
X016
X015
X0155Y08
X0145
T02
X01705Y011
X01725Y012
X01715Y01325
X0182Y01355
X01885Y0142
X022Y0152
X02585Y01535
X03615Y011
X0392
X0432Y01355
X0426Y0144
X04415Y012725
X0463Y012
X0472Y01105
X06795Y02135
X0699Y02055
X06125Y0205
X0606Y0214
X0558Y0206
X05475Y0181
X0571Y01805
X05235
X04995
X0478Y0308
X05935Y03075
X06005Y0312
X06Y02675
X0594Y02615
X05755Y0266
X0441Y02485
X0432Y02415
X04255Y0236
X04Y0227
X03695Y02325
X03545Y0259
X0339Y02845
X03395Y03105
X0315Y0298
X03145Y021
X0352Y01905
X03745Y019
X03995Y01905
X04205Y019
X04145Y01565
X0463Y02055
X042Y02715
X03885Y0271
X0268Y0259
X0259Y02675
X02585Y02815
X0257Y03115
X0259Y02385
X02595Y02255
X02735Y02185
X0268Y021
X0259Y01955
X02585Y0182
X022Y02025
X0212Y0195
Y0212
X0205Y02225
Y0239
X01975Y02325
X0189Y02425
X01815Y0252
X0182Y02275
X01885Y0183
X01975Y0281
X01375Y027
X01305Y0312
X0104Y02525
X0111Y02425
X01175Y02325
X01235Y02225
X01305Y02125
X01375Y0203
X01175Y0353
X0152705Y04415
X0145227Y0457
X0160182Y0423
X0182Y04275
X02125Y0413
X02365Y04275
X02675
X02875
X03075Y0428
Y03845
X02875Y0384
X02585Y03845
X0235
X022Y03695
X019Y03845
X01635Y0339
X0205Y0456
X03155Y04415
X0313Y04205
X0342Y0421
X03445Y04015
X0377Y04079
X0386Y04015
X0397Y0406
X04165Y0407
X0423Y0365
X04195Y035
X03985Y03635
X0375Y03645
X03685Y03585
X0351Y03645
X0363Y03765
X0354Y0338
X03455Y033
X0319Y0359
X0389Y03435
X04655Y03495
X04605Y0402
X04585Y0457
X0451Y045
X0392Y04625
X0379Y04475
X0345Y0448
X0352Y04575
X0484Y0402
X0508Y04015
X05325
X0606833Y0406
X0623Y0416
X062Y03685
X06125Y03235
X06055Y0318
X05355Y03235
X05255Y03185
X0502Y03125
X0512Y0338
X04895Y03435
X05435Y03315
X0649Y03685
X0673Y03695
X0697
X07235Y03685
X07615Y04055
X07235Y04955
X06955Y04905
X06715Y04855
X06515Y0476
X0657Y05435
X06705Y0544
X0647Y0591
X06275
X06385Y06205
X0669Y0621
X0689
X06195Y05845
X0605Y05685
X0577
X05535
X05295Y05675
X05675Y05995
X0473Y06
X04695Y05145
X05075Y0505
X0549Y04815
X056Y04795
X0567Y0486
X0574Y0491
X0598Y0496
X04585Y0497
X0451Y04915
X04045Y047
X0352Y0492
X0345Y04855
X03595Y05075
X03265Y0508
Y05345
X0337Y05455
X03795
X0411Y0591
X0452Y05775
X0321Y0618
X0293Y061565
X02815Y06
X02545Y06155
X0197Y06135
X0174
X01865Y0585
X01995Y0578
X02025Y0591
X01975Y0499
X0167659Y05145
X0175136Y0471
X0237Y04705
X02625Y0471
X02875Y04705
X03075
Y0515
X0287429Y0514929
X02635Y0515
X0236Y05145
X01375Y05455
X013775Y04755
X01265Y06145
X015
Y0648
Y06685
X0126Y06695
X01265Y0653
X01275Y0701
X0151Y06995
X015Y07255
X0126Y0725
X01265Y0749
X015Y0755
X01735Y07625
X01975Y07695
X02195Y07625
X02265Y0769
X02335Y0775
X024Y07805
X0254
X0261Y0776
X0268Y0771
X0275Y07655
X02815Y07605
X0261Y0732
X0233Y07205
X0233407Y0708
X0240278Y07025
X02475Y0697
X0254Y0691
X0268Y0688
X0267759Y0648
X0260889Y0653
X0274629Y0642
X02815Y06365
X02815Y06585
X02935
Y070335
X022Y06825
X01965Y0691
X01975Y0668
X01735Y06685
Y06415
X0197Y0636
X0247148Y0631
X01735Y0697
Y07245
X01965
X0206Y0749
X02125Y0755
X0331Y07465
Y0718
X0316Y07035
X0336Y0674
Y06625
X03305Y06675
X03215Y0658
X0373Y06975
X0372Y07105
X0404
X0461Y07245
Y06805
X0443Y06735
Y06375
X046Y06355
X04585Y07705
X0389Y07665
X0474Y07625
X04745Y0733
X04735Y0718
X0474Y06875
X0475Y0673
X04745Y06445
X04735Y06285
X05675Y0628
X0567Y06425
X05665Y0674
X05675Y06885
X05665Y07175
X05685Y0733
X0568Y07635
X0628Y0766
X0637822Y07545
X06695
X06895Y0755
X0689Y07095
X06675Y071
X0639Y07095
X06375Y0663
X06685
X069
X02475Y07855
T03
X0488Y018
Y019
X0511667
Y018
X0535333
Y019
X0559
Y018
X04005Y0201
Y0211
X0376833
Y0201
X0353167
Y0211
X03295
Y0201
X01555Y0326167
X01655
X03285Y03755
Y03855
X0352167
Y03755
X0375833
Y03855
X03995
Y03755
X04005Y04195
Y04295
X03765
Y04195
X03535
Y04295
X03295
Y04195
X04725Y04035
Y03935
X0496167
Y04035
X0519833
Y03935
X0544
Y04035
X0606833Y037
Y036
X0637
Y037
X0660667
Y036
X06845
Y037
X07085
Y036
X05885Y0559
Y0569
X0564833
Y0559
X0541167
Y0569
X05175
Y0559
X0186Y0613
Y0623
X0162333
Y0613
X0138667
Y0623
X0115
Y0613
X01145Y06675
Y06775
X0138167
Y06675
Y0724
Y0734
X01145
Y0724
X0161833
Y0734
X01855
Y0724
Y06775
Y06675
X0161833
Y06775
T04
X02375Y01525
X02675
X02875
X03075
X0632Y0227
Y0247
Y0267
Y0297
X0662
X06745
X07045
Y0267
Y0247
Y0227
X06745
X0662
Y0247
X06745
Y0267
X0662
X0583Y0256
Y0236
Y0216
X0553
X05395
Y0236
X0553
Y0256
X05395
Y0286
X0553
X0583
X05095
X0493
Y0256
X05095
Y0236
X0493
Y0216
X05095
X0463
Y0236
Y0256
Y0286
X04075Y0291
Y0311
X03775
X0361
Y0291
X03775
Y0271
X0361
Y0241
X03775
X04075
Y0271
X0331
Y0291
Y0311
Y0241
X03075Y0239
Y02255
X02875
Y0239
X02675
Y02255
X02375
Y0239
Y0269
Y0282
Y0312
X02675
X02875
X03075
Y0282
Y0269
X02875
Y0282
X02675
Y0269
Y01955
Y01825
X02875
Y01955
X03075
Y01825
X02375
Y01955
Y03695
Y03995
Y0413
Y0443
Y0456
X02675
Y0443
X02875
Y0456
X03075
Y0443
Y0413
Y03995
X02875
Y0413
X02675
Y03995
Y03695
X02875
X03075
X0337Y0457
X0367
X038
X041
X04695Y0449
Y0429
X04995
X05135
Y0449
X04995
X05435
Y0429
X06015Y0436
Y0416
Y0396
Y0466
X06315
X06455
X06755
X06895
X07195
Y0436
Y0416
Y0396
X06895
X06755
Y0416
X06895
Y0436
X06755
X06455
X06315
Y0416
X06455
Y0396
X06315
X06485Y0504
Y0524
Y0544
Y0574
X06785
Y0544
Y0524
Y0504
X06695Y05995
X06895
X07095
X06395
X06165Y0599
X05965
X05765
X05465
X0522
X0502
X0482
X04695Y0499
X04995
X05135
X05435
Y0469
X05135
X04995
X04695
X041Y0477
Y0497
Y0527
X038
X0367
X0337
Y0497
Y0477
X0367
X038
Y0497
X0367
X0364Y06
X0381Y06025
X0411
X0452Y0599
X0344Y06
X0324
X0294
X02875Y0529
X03075
Y0499
Y0486
X02875
Y0499
X02675
Y0486
X02375
Y0499
Y0529
X02675
X0294Y063
Y0644
Y0674
Y0688
Y0718
Y0732
Y0762
X0324
X0344
X0364
X03815Y0759
Y0739
Y0719
X0364Y0718
Y0732
X0344
Y0718
X0324
Y0732
Y0688
Y0674
X0344
Y0688
X0364
Y0674
X0381Y06725
X03815Y0689
X04115
X0411Y06725
Y06525
Y06325
X0381
X0364Y063
Y0644
X0344
Y063
X0324
Y0644
X0381Y06525
X0452Y0643667
Y0629
Y0673667
Y0688333
Y0718333
Y0733
Y0763
X04115Y0759
Y0739
Y0719
X0482Y0718333
Y0733
X0502
Y0718333
X0522
Y0733
X05465Y07325
Y0718
Y0688
Y06735
X0522Y0673667
Y0688333
X0502
Y0673667
X0482
Y0688333
Y0643667
Y0629
X0502
Y0643667
X0522
Y0629
X05465
Y06435
X05765
Y0629
X05965
Y06435
X06165
Y0629
Y06735
Y0688
X05965
Y06735
X05765
Y0688
Y0718
Y07325
X05965
Y0718
X06165
Y07325
Y07625
X05965
X05765
X05465
X0522Y0763
X0502
X0482
X06395Y07625
Y07325
Y0718167
Y0688167
Y0673833
Y0643833
Y06295
X06695
Y0643833
X06895
Y06295
X07095
Y0643833
Y0673833
Y0688167
X06895
Y0673833
X06695
Y0688167
Y0718167
Y07325
X06895
Y0718167
X07095
Y07325
Y07625
X06895
X06695
T05
X01645Y01825
Y01925
Y02025
Y02125
Y02225
Y02325
Y02425
Y02525
Y02625
Y02725
X01545
Y02625
Y02525
Y02425
Y02325
Y02225
Y02125
Y02025
Y01925
Y01825
X0778Y04175
Y04275
Y04375
Y04475
Y04575
Y04675
X0788
Y04575
Y04475
Y04375
Y04275
Y04175
Y04775
Y04875
Y04975
Y05075
X0778
Y04975
Y04875
Y04775
T06
X012Y012
X07885
Y07885
X012
M30
