G04*
G04 #@! TF.GenerationSoftware,Altium Limited,Altium Designer,25.5.2 (35)*
G04*
G04 Layer_Color=128*
%FSLAX25Y25*%
%MOIN*%
G70*
G04*
G04 #@! TF.SameCoordinates,EC32A686-E373-4CB4-AF31-63D9CFDA87CC*
G04*
G04*
G04 #@! TF.FilePolarity,Positive*
G04*
G01*
G75*
%ADD52C,0.00500*%
D52*
X152335Y222500D02*
X156665D01*
X154500Y220335D02*
Y224665D01*
X162335Y232500D02*
X166665D01*
X164500Y230335D02*
Y234665D01*
X152335Y252500D02*
X156665D01*
X154500Y250335D02*
Y254665D01*
X162335Y242500D02*
X166665D01*
X164500Y240335D02*
Y244665D01*
X162335Y202500D02*
X166665D01*
X164500Y200335D02*
Y204665D01*
X162335Y212500D02*
X166665D01*
X164500Y210335D02*
Y214665D01*
X162335Y222500D02*
X166665D01*
X164500Y220335D02*
Y224665D01*
X152335Y202500D02*
X156665D01*
X154500Y200335D02*
Y204665D01*
X162335Y252500D02*
X166665D01*
X164500Y250335D02*
Y254665D01*
X152335Y212500D02*
X156665D01*
X154500Y210335D02*
Y214665D01*
X152335Y232500D02*
X156665D01*
X154500Y230335D02*
Y234665D01*
X152335Y242500D02*
X156665D01*
X154500Y240335D02*
Y244665D01*
X152335Y272500D02*
X156665D01*
X154500Y270335D02*
Y274665D01*
X162335Y272500D02*
X166665D01*
X164500Y270335D02*
Y274665D01*
X152335Y262500D02*
X156665D01*
X154500Y260335D02*
Y264665D01*
X162335Y262500D02*
X166665D01*
X164500Y260335D02*
Y264665D01*
X152335Y182500D02*
X156665D01*
X154500Y180335D02*
Y184665D01*
X162335Y182500D02*
X166665D01*
X164500Y180335D02*
Y184665D01*
X162335Y192500D02*
X166665D01*
X164500Y190335D02*
Y194665D01*
X152335Y192500D02*
X156665D01*
X154500Y190335D02*
Y194665D01*
X374532Y429500D02*
X378468D01*
X376500Y427531D02*
Y431468D01*
X374532Y419500D02*
X378468D01*
X376500Y417531D02*
Y421468D01*
X351532Y429500D02*
X355469D01*
X353500Y427531D02*
Y431468D01*
X351532Y419500D02*
X355469D01*
X353500Y417531D02*
Y421468D01*
X327532Y429500D02*
X331469D01*
X329500Y427531D02*
Y431468D01*
X327532Y419500D02*
X331469D01*
X329500Y417531D02*
Y421468D01*
X398532Y429500D02*
X402468D01*
X400500Y427531D02*
Y431468D01*
X398532Y419500D02*
X402468D01*
X400500Y417531D02*
Y421468D01*
X637500Y762500D02*
X641500D01*
X639500Y760500D02*
Y764500D01*
X637500Y673833D02*
X641500D01*
X639500Y671833D02*
Y675833D01*
X637500Y718167D02*
X641500D01*
X639500Y716167D02*
Y720167D01*
X614500Y673500D02*
X618500D01*
X616500Y671500D02*
Y675500D01*
X614500Y762500D02*
X618500D01*
X616500Y760500D02*
Y764500D01*
X594500Y732500D02*
X598500D01*
X596500Y730500D02*
Y734500D01*
X614500Y718000D02*
X618500D01*
X616500Y716000D02*
Y720000D01*
X594500Y688000D02*
X598500D01*
X596500Y686000D02*
Y690000D01*
X637500Y629500D02*
X641500D01*
X639500Y627500D02*
Y631500D01*
X614500Y629000D02*
X618500D01*
X616500Y627000D02*
Y631000D01*
X594500Y599000D02*
X598500D01*
X596500Y597000D02*
Y601000D01*
X594500Y643500D02*
X598500D01*
X596500Y641500D02*
Y645500D01*
X520000Y718333D02*
X524000D01*
X522000Y716333D02*
Y720333D01*
X520000Y763000D02*
X524000D01*
X522000Y761000D02*
Y765000D01*
X500000Y733000D02*
X504000D01*
X502000Y731000D02*
Y735000D01*
X520000Y673667D02*
X524000D01*
X522000Y671667D02*
Y675667D01*
X500000Y688333D02*
X504000D01*
X502000Y686333D02*
Y690333D01*
X520000Y629000D02*
X524000D01*
X522000Y627000D02*
Y631000D01*
X500000Y643667D02*
X504000D01*
X502000Y641667D02*
Y645667D01*
X500000Y599000D02*
X504000D01*
X502000Y597000D02*
Y601000D01*
X785835Y507500D02*
X790165D01*
X788000Y505335D02*
Y509665D01*
X775835Y507500D02*
X780165D01*
X778000Y505335D02*
Y509665D01*
X785835Y497500D02*
X790165D01*
X788000Y495335D02*
Y499665D01*
X775835Y497500D02*
X780165D01*
X778000Y495335D02*
Y499665D01*
X676500Y504000D02*
X680500D01*
X678500Y502000D02*
Y506000D01*
X717500Y466000D02*
X721500D01*
X719500Y464000D02*
Y468000D01*
X673500Y466000D02*
X677500D01*
X675500Y464000D02*
Y468000D01*
X646500Y524000D02*
X650500D01*
X648500Y522000D02*
Y526000D01*
X629500Y466000D02*
X633500D01*
X631500Y464000D02*
Y468000D01*
X702500Y297000D02*
X706500D01*
X704500Y295000D02*
Y299000D01*
X660000Y297000D02*
X664000D01*
X662000Y295000D02*
Y299000D01*
X541500Y499000D02*
X545500D01*
X543500Y497000D02*
Y501000D01*
X537500Y286000D02*
X541500D01*
X539500Y284000D02*
Y288000D01*
X497500Y499000D02*
X501500D01*
X499500Y497000D02*
Y501000D01*
X581000Y286000D02*
X585000D01*
X583000Y284000D02*
Y288000D01*
X581000Y236000D02*
X585000D01*
X583000Y234000D02*
Y238000D01*
X491000Y286000D02*
X495000D01*
X493000Y284000D02*
Y288000D01*
X362000Y718000D02*
X366000D01*
X364000Y716000D02*
Y720000D01*
X362000Y762000D02*
X366000D01*
X364000Y760000D02*
Y764000D01*
X379500Y689000D02*
X383500D01*
X381500Y687000D02*
Y691000D01*
X362000Y674000D02*
X366000D01*
X364000Y672000D02*
Y676000D01*
X362000Y630000D02*
X366000D01*
X364000Y628000D02*
Y632000D01*
X292000Y762000D02*
X296000D01*
X294000Y760000D02*
Y764000D01*
X292000Y718000D02*
X296000D01*
X294000Y716000D02*
Y720000D01*
X292000Y674000D02*
X296000D01*
X294000Y672000D02*
Y676000D01*
X292000Y630000D02*
X296000D01*
X294000Y628000D02*
Y632000D01*
X408000Y527000D02*
X412000D01*
X410000Y525000D02*
Y529000D01*
X379000Y602500D02*
X383000D01*
X381000Y600500D02*
Y604500D01*
X365000Y527000D02*
X369000D01*
X367000Y525000D02*
Y529000D01*
X285500D02*
X289500D01*
X287500Y527000D02*
Y531000D01*
X285500Y486000D02*
X289500D01*
X287500Y484000D02*
Y488000D01*
X285500Y443000D02*
X289500D01*
X287500Y441000D02*
Y445000D01*
X235500Y529000D02*
X239500D01*
X237500Y527000D02*
Y531000D01*
X235500Y443000D02*
X239500D01*
X237500Y441000D02*
Y445000D01*
X235500Y486000D02*
X239500D01*
X237500Y484000D02*
Y488000D01*
X375500Y241000D02*
X379500D01*
X377500Y239000D02*
Y243000D01*
X285500Y399500D02*
X289500D01*
X287500Y397500D02*
Y401500D01*
X305500Y312000D02*
X309500D01*
X307500Y310000D02*
Y314000D01*
X305500Y269000D02*
X309500D01*
X307500Y267000D02*
Y271000D01*
X285500Y282000D02*
X289500D01*
X287500Y280000D02*
Y284000D01*
X235500Y399500D02*
X239500D01*
X237500Y397500D02*
Y401500D01*
X329000Y241000D02*
X333000D01*
X331000Y239000D02*
Y243000D01*
X305500Y225500D02*
X309500D01*
X307500Y223500D02*
Y227500D01*
X285500Y239000D02*
X289500D01*
X287500Y237000D02*
Y241000D01*
X285500Y195500D02*
X289500D01*
X287500Y193500D02*
Y197500D01*
X305500Y182500D02*
X309500D01*
X307500Y180500D02*
Y184500D01*
X285500Y152500D02*
X289500D01*
X287500Y150500D02*
Y154500D01*
X183531Y734000D02*
X187469D01*
X185500Y732031D02*
Y735968D01*
X635032Y360000D02*
X638969D01*
X637000Y358032D02*
Y361968D01*
X480000Y718333D02*
X484000D01*
X482000Y716333D02*
Y720333D01*
X480000Y688333D02*
X484000D01*
X482000Y686333D02*
Y690333D01*
X450000Y718333D02*
X454000D01*
X452000Y716333D02*
Y720333D01*
X500000Y718333D02*
X504000D01*
X502000Y716333D02*
Y720333D01*
X450000Y688333D02*
X454000D01*
X452000Y686333D02*
Y690333D01*
X520000Y688333D02*
X524000D01*
X522000Y686333D02*
Y690333D01*
X544500Y599000D02*
X548500D01*
X546500Y597000D02*
Y601000D01*
X480000Y599000D02*
X484000D01*
X482000Y597000D02*
Y601000D01*
X450000Y629000D02*
X454000D01*
X452000Y627000D02*
Y631000D01*
X409000Y632500D02*
X413000D01*
X411000Y630500D02*
Y634500D01*
X637500Y599500D02*
X641500D01*
X639500Y597500D02*
Y601500D01*
X480000Y629000D02*
X484000D01*
X482000Y627000D02*
Y631000D01*
X305500Y369500D02*
X309500D01*
X307500Y367500D02*
Y371500D01*
X305500Y413000D02*
X309500D01*
X307500Y411000D02*
Y415000D01*
X305500Y456000D02*
X309500D01*
X307500Y454000D02*
Y458000D01*
X305500Y499000D02*
X309500D01*
X307500Y497000D02*
Y501000D01*
X646500Y504000D02*
X650500D01*
X648500Y502000D02*
Y506000D01*
X775835Y427500D02*
X780165D01*
X778000Y425335D02*
Y429665D01*
X785835Y427500D02*
X790165D01*
X788000Y425335D02*
Y429665D01*
X775835Y417500D02*
X780165D01*
X778000Y415335D02*
Y419665D01*
X785835Y417500D02*
X790165D01*
X788000Y415335D02*
Y419665D01*
X163531Y326167D02*
X167469D01*
X165500Y324198D02*
Y328135D01*
X342000Y630000D02*
X346000D01*
X344000Y628000D02*
Y632000D01*
X342000Y718000D02*
X346000D01*
X344000Y716000D02*
Y720000D01*
X342000Y762000D02*
X346000D01*
X344000Y760000D02*
Y764000D01*
X342000Y674000D02*
X346000D01*
X344000Y672000D02*
Y676000D01*
X614500Y732500D02*
X618500D01*
X616500Y730500D02*
Y734500D01*
X707500Y732500D02*
X711500D01*
X709500Y730500D02*
Y734500D01*
X520000Y733000D02*
X524000D01*
X522000Y731000D02*
Y735000D01*
X614500Y688000D02*
X618500D01*
X616500Y686000D02*
Y690000D01*
X707500Y688167D02*
X711500D01*
X709500Y686167D02*
Y690167D01*
X614500Y643500D02*
X618500D01*
X616500Y641500D02*
Y645500D01*
X707500Y643833D02*
X711500D01*
X709500Y641833D02*
Y645833D01*
X520000Y643667D02*
X524000D01*
X522000Y641667D02*
Y645667D01*
X614500Y599000D02*
X618500D01*
X616500Y597000D02*
Y601000D01*
X707500Y599500D02*
X711500D01*
X709500Y597500D02*
Y601500D01*
X520000Y599000D02*
X524000D01*
X522000Y597000D02*
Y601000D01*
X305500Y152500D02*
X309500D01*
X307500Y150500D02*
Y154500D01*
X285500Y182500D02*
X289500D01*
X287500Y180500D02*
Y184500D01*
X285500Y269000D02*
X289500D01*
X287500Y267000D02*
Y271000D01*
X305500Y239000D02*
X309500D01*
X307500Y237000D02*
Y241000D01*
X305500Y195500D02*
X309500D01*
X307500Y193500D02*
Y197500D01*
X285500Y225500D02*
X289500D01*
X287500Y223500D02*
Y227500D01*
X285500Y312000D02*
X289500D01*
X287500Y310000D02*
Y314000D01*
X305500Y282000D02*
X309500D01*
X307500Y280000D02*
Y284000D01*
X717500Y436000D02*
X721500D01*
X719500Y434000D02*
Y438000D01*
X717500Y416000D02*
X721500D01*
X719500Y414000D02*
Y418000D01*
X717500Y396000D02*
X721500D01*
X719500Y394000D02*
Y398000D01*
X687500Y396000D02*
X691500D01*
X689500Y394000D02*
Y398000D01*
X687500Y416000D02*
X691500D01*
X689500Y414000D02*
Y418000D01*
X687500Y436000D02*
X691500D01*
X689500Y434000D02*
Y438000D01*
X687500Y466000D02*
X691500D01*
X689500Y464000D02*
Y468000D01*
X643500Y466000D02*
X647500D01*
X645500Y464000D02*
Y468000D01*
X136198Y724000D02*
X140135D01*
X138167Y722031D02*
Y725969D01*
X599500Y466000D02*
X603500D01*
X601500Y464000D02*
Y468000D01*
X562865Y569000D02*
X566802D01*
X564833Y567031D02*
Y570968D01*
X574500Y688000D02*
X578500D01*
X576500Y686000D02*
Y690000D01*
X775835Y437500D02*
X780165D01*
X778000Y435335D02*
Y439665D01*
X706531Y370000D02*
X710468D01*
X708500Y368032D02*
Y371969D01*
X775835Y447500D02*
X780165D01*
X778000Y445335D02*
Y449665D01*
X682531Y370000D02*
X686469D01*
X684500Y368032D02*
Y371969D01*
X672500Y267000D02*
X676500D01*
X674500Y265000D02*
Y269000D01*
X702500Y267000D02*
X706500D01*
X704500Y265000D02*
Y269000D01*
X586531Y569000D02*
X590469D01*
X588500Y567031D02*
Y570968D01*
X574500Y732500D02*
X578500D01*
X576500Y730500D02*
Y734500D01*
X574500Y762500D02*
X578500D01*
X576500Y760500D02*
Y764500D01*
X544500Y732500D02*
X548500D01*
X546500Y730500D02*
Y734500D01*
X594500Y762500D02*
X598500D01*
X596500Y760500D02*
Y764500D01*
X544500Y762500D02*
X548500D01*
X546500Y760500D02*
Y764500D01*
X480000Y733000D02*
X484000D01*
X482000Y731000D02*
Y735000D01*
X672500Y297000D02*
X676500D01*
X674500Y295000D02*
Y299000D01*
X646500Y574000D02*
X650500D01*
X648500Y572000D02*
Y576000D01*
X630000Y297000D02*
X634000D01*
X632000Y295000D02*
Y299000D01*
X409500Y689000D02*
X413500D01*
X411500Y687000D02*
Y691000D01*
X159865Y724000D02*
X163802D01*
X161833Y722031D02*
Y725969D01*
X409000Y602500D02*
X413000D01*
X411000Y600500D02*
Y604500D01*
X687500Y732500D02*
X691500D01*
X689500Y730500D02*
Y734500D01*
X581000Y256000D02*
X585000D01*
X583000Y254000D02*
Y258000D01*
X581000Y216000D02*
X585000D01*
X583000Y214000D02*
Y218000D01*
X551000Y216000D02*
X555000D01*
X553000Y214000D02*
Y218000D01*
X551000Y236000D02*
X555000D01*
X553000Y234000D02*
Y238000D01*
X551000Y256000D02*
X555000D01*
X553000Y254000D02*
Y258000D01*
X551000Y286000D02*
X555000D01*
X553000Y284000D02*
Y288000D01*
X500000Y763000D02*
X504000D01*
X502000Y761000D02*
Y765000D01*
X450000Y733000D02*
X454000D01*
X452000Y731000D02*
Y735000D01*
X305500Y529000D02*
X309500D01*
X307500Y527000D02*
Y531000D01*
X461000Y216000D02*
X465000D01*
X463000Y214000D02*
Y218000D01*
X285500Y499000D02*
X289500D01*
X287500Y497000D02*
Y501000D01*
X112531Y667500D02*
X116469D01*
X114500Y665531D02*
Y669468D01*
X235500Y312000D02*
X239500D01*
X237500Y310000D02*
Y314000D01*
X500000Y673667D02*
X504000D01*
X502000Y671667D02*
Y675667D01*
X450000Y643667D02*
X454000D01*
X452000Y641667D02*
Y645667D01*
X305500Y443000D02*
X309500D01*
X307500Y441000D02*
Y445000D01*
X507500Y236000D02*
X511500D01*
X509500Y234000D02*
Y238000D01*
X285500Y413000D02*
X289500D01*
X287500Y411000D02*
Y415000D01*
X159865Y667500D02*
X163802D01*
X161833Y665531D02*
Y669468D01*
X235500Y225500D02*
X239500D01*
X237500Y223500D02*
Y227500D01*
X153532Y326167D02*
X157468D01*
X155500Y324198D02*
Y328135D01*
X365000Y457000D02*
X369000D01*
X367000Y455000D02*
Y459000D01*
X265500Y499000D02*
X269500D01*
X267500Y497000D02*
Y501000D01*
X350198Y385500D02*
X354135D01*
X352167Y383531D02*
Y387469D01*
X265500Y529000D02*
X269500D01*
X267500Y527000D02*
Y531000D01*
X235500Y499000D02*
X239500D01*
X237500Y497000D02*
Y501000D01*
X265500Y486000D02*
X269500D01*
X267500Y484000D02*
Y488000D01*
X265500Y456000D02*
X269500D01*
X267500Y454000D02*
Y458000D01*
X305500Y486000D02*
X309500D01*
X307500Y484000D02*
Y488000D01*
X235500Y456000D02*
X239500D01*
X237500Y454000D02*
Y458000D01*
X285500Y456000D02*
X289500D01*
X287500Y454000D02*
Y458000D01*
X285500Y369500D02*
X289500D01*
X287500Y367500D02*
Y371500D01*
X537500Y236000D02*
X541500D01*
X539500Y234000D02*
Y238000D01*
X136198Y667500D02*
X140135D01*
X138167Y665531D02*
Y669468D01*
X235500Y269000D02*
X239500D01*
X237500Y267000D02*
Y271000D01*
X335000Y457000D02*
X339000D01*
X337000Y455000D02*
Y459000D01*
X326532Y375500D02*
X330469D01*
X328500Y373532D02*
Y377468D01*
X335000Y477000D02*
X339000D01*
X337000Y475000D02*
Y479000D01*
X409500Y739000D02*
X413500D01*
X411500Y737000D02*
Y741000D01*
X292000Y688000D02*
X296000D01*
X294000Y686000D02*
Y690000D01*
X136698Y613000D02*
X140635D01*
X138667Y611031D02*
Y614968D01*
X235500Y239000D02*
X239500D01*
X237500Y237000D02*
Y241000D01*
X305500Y399500D02*
X309500D01*
X307500Y397500D02*
Y401500D01*
X322000Y718000D02*
X326000D01*
X324000Y716000D02*
Y720000D01*
X362000Y688000D02*
X366000D01*
X364000Y686000D02*
Y690000D01*
X342000Y688000D02*
X346000D01*
X344000Y686000D02*
Y690000D01*
X322000Y688000D02*
X326000D01*
X324000Y686000D02*
Y690000D01*
X184031Y623000D02*
X187969D01*
X186000Y621032D02*
Y624968D01*
X184031Y613000D02*
X187969D01*
X186000Y611031D02*
Y614968D01*
X136698Y623000D02*
X140635D01*
X138667Y621032D02*
Y624968D01*
X160365Y623000D02*
X164302D01*
X162333Y621032D02*
Y624968D01*
X160365Y613000D02*
X164302D01*
X162333Y611031D02*
Y614968D01*
X379000Y652500D02*
X383000D01*
X381000Y650500D02*
Y654500D01*
X292000Y644000D02*
X296000D01*
X294000Y642000D02*
Y646000D01*
X235500Y413000D02*
X239500D01*
X237500Y411000D02*
Y415000D01*
X235500Y195500D02*
X239500D01*
X237500Y193500D02*
Y197500D01*
X409000Y652500D02*
X413000D01*
X411000Y650500D02*
Y654500D01*
X292000Y600000D02*
X296000D01*
X294000Y598000D02*
Y602000D01*
X235500Y369500D02*
X239500D01*
X237500Y367500D02*
Y371500D01*
X235500Y152500D02*
X239500D01*
X237500Y150500D02*
Y154500D01*
X113031Y623000D02*
X116969D01*
X115000Y621032D02*
Y624968D01*
X537500Y256000D02*
X541500D01*
X539500Y254000D02*
Y258000D01*
X537500Y216000D02*
X541500D01*
X539500Y214000D02*
Y218000D01*
X507500Y216000D02*
X511500D01*
X509500Y214000D02*
Y218000D01*
X507500Y256000D02*
X511500D01*
X509500Y254000D02*
Y258000D01*
X507500Y286000D02*
X511500D01*
X509500Y284000D02*
Y288000D01*
X509698Y180000D02*
X513635D01*
X511667Y178032D02*
Y181968D01*
X509698Y190000D02*
X513635D01*
X511667Y188031D02*
Y191969D01*
X533365Y180000D02*
X537302D01*
X535333Y178032D02*
Y181968D01*
X533365Y190000D02*
X537302D01*
X535333Y188031D02*
Y191969D01*
X557031Y180000D02*
X560968D01*
X559000Y178032D02*
Y181968D01*
X557031Y190000D02*
X560968D01*
X559000Y188031D02*
Y191969D01*
X491000Y256000D02*
X495000D01*
X493000Y254000D02*
Y258000D01*
X491000Y236000D02*
X495000D01*
X493000Y234000D02*
Y238000D01*
X491000Y216000D02*
X495000D01*
X493000Y214000D02*
Y218000D01*
X461000Y236000D02*
X465000D01*
X463000Y234000D02*
Y238000D01*
X461000Y256000D02*
X465000D01*
X463000Y254000D02*
Y258000D01*
X461000Y286000D02*
X465000D01*
X463000Y284000D02*
Y288000D01*
X486031Y180000D02*
X489968D01*
X488000Y178032D02*
Y181968D01*
X486031Y190000D02*
X489968D01*
X488000Y188031D02*
Y191969D01*
X672500Y227000D02*
X676500D01*
X674500Y225000D02*
Y229000D01*
X599500Y396000D02*
X603500D01*
X601500Y394000D02*
Y398000D01*
X183531Y667500D02*
X187469D01*
X185500Y665531D02*
Y669468D01*
X500000Y629000D02*
X504000D01*
X502000Y627000D02*
Y631000D01*
X450000Y599000D02*
X454000D01*
X452000Y597000D02*
Y601000D01*
X235500Y182500D02*
X239500D01*
X237500Y180500D02*
Y184500D01*
X660000Y227000D02*
X664000D01*
X662000Y225000D02*
Y229000D01*
X335000Y527000D02*
X339000D01*
X337000Y525000D02*
Y529000D01*
X405500Y241000D02*
X409500D01*
X407500Y239000D02*
Y243000D01*
X112531Y724000D02*
X116469D01*
X114500Y722031D02*
Y725969D01*
X378000Y527000D02*
X382000D01*
X380000Y525000D02*
Y529000D01*
X359000Y241000D02*
X363000D01*
X361000Y239000D02*
Y243000D01*
X630000Y227000D02*
X634000D01*
X632000Y225000D02*
Y229000D01*
X702500Y227000D02*
X706500D01*
X704500Y225000D02*
Y229000D01*
X408000Y497000D02*
X412000D01*
X410000Y495000D02*
Y499000D01*
X408000Y477000D02*
X412000D01*
X410000Y475000D02*
Y479000D01*
X408000Y457000D02*
X412000D01*
X410000Y455000D02*
Y459000D01*
X378000Y457000D02*
X382000D01*
X380000Y455000D02*
Y459000D01*
X378000Y477000D02*
X382000D01*
X380000Y475000D02*
Y479000D01*
X378000Y497000D02*
X382000D01*
X380000Y495000D02*
Y499000D01*
X365000Y497000D02*
X369000D01*
X367000Y495000D02*
Y499000D01*
X365000Y477000D02*
X369000D01*
X367000Y475000D02*
Y479000D01*
X335000Y497000D02*
X339000D01*
X337000Y495000D02*
Y499000D01*
X265500Y269000D02*
X269500D01*
X267500Y267000D02*
Y271000D01*
X265500Y239000D02*
X269500D01*
X267500Y237000D02*
Y241000D01*
X265500Y312000D02*
X269500D01*
X267500Y310000D02*
Y314000D01*
X265500Y282000D02*
X269500D01*
X267500Y280000D02*
Y284000D01*
X235500Y282000D02*
X239500D01*
X237500Y280000D02*
Y284000D01*
X329000Y271000D02*
X333000D01*
X331000Y269000D02*
Y273000D01*
X329000Y291000D02*
X333000D01*
X331000Y289000D02*
Y293000D01*
X329000Y311000D02*
X333000D01*
X331000Y309000D02*
Y313000D01*
X359000Y311000D02*
X363000D01*
X361000Y309000D02*
Y313000D01*
X359000Y291000D02*
X363000D01*
X361000Y289000D02*
Y293000D01*
X359000Y271000D02*
X363000D01*
X361000Y269000D02*
Y273000D01*
X374865Y211000D02*
X378802D01*
X376833Y209032D02*
Y212968D01*
X374865Y201000D02*
X378802D01*
X376833Y199031D02*
Y202969D01*
X327532Y211000D02*
X331469D01*
X329500Y209032D02*
Y212968D01*
X327532Y201000D02*
X331469D01*
X329500Y199031D02*
Y202969D01*
X375500Y271000D02*
X379500D01*
X377500Y269000D02*
Y273000D01*
X375500Y291000D02*
X379500D01*
X377500Y289000D02*
Y293000D01*
X375500Y311000D02*
X379500D01*
X377500Y309000D02*
Y313000D01*
X405500Y311000D02*
X409500D01*
X407500Y309000D02*
Y313000D01*
X405500Y291000D02*
X409500D01*
X407500Y289000D02*
Y293000D01*
X405500Y271000D02*
X409500D01*
X407500Y269000D02*
Y273000D01*
X351198Y211000D02*
X355135D01*
X353167Y209032D02*
Y212968D01*
X351198Y201000D02*
X355135D01*
X353167Y199031D02*
Y202969D01*
X398532Y211000D02*
X402468D01*
X400500Y209032D02*
Y212968D01*
X398532Y201000D02*
X402468D01*
X400500Y199031D02*
Y202969D01*
X265500Y399500D02*
X269500D01*
X267500Y397500D02*
Y401500D01*
X265500Y369500D02*
X269500D01*
X267500Y367500D02*
Y371500D01*
X326532Y385500D02*
X330469D01*
X328500Y383531D02*
Y387469D01*
X265500Y413000D02*
X269500D01*
X267500Y411000D02*
Y415000D01*
X265500Y443000D02*
X269500D01*
X267500Y441000D02*
Y445000D01*
X373865Y385500D02*
X377802D01*
X375833Y383531D02*
Y387469D01*
X373865Y375500D02*
X377802D01*
X375833Y373532D02*
Y377468D01*
X397532Y385500D02*
X401469D01*
X399500Y383531D02*
Y387469D01*
X397532Y375500D02*
X401469D01*
X399500Y373532D02*
Y377468D01*
X350198Y375500D02*
X354135D01*
X352167Y373532D02*
Y377468D01*
X265500Y225500D02*
X269500D01*
X267500Y223500D02*
Y227500D01*
X265500Y195500D02*
X269500D01*
X267500Y193500D02*
Y197500D01*
X265500Y182500D02*
X269500D01*
X267500Y180500D02*
Y184500D01*
X265500Y152500D02*
X269500D01*
X267500Y150500D02*
Y154500D01*
X322000Y630000D02*
X326000D01*
X324000Y628000D02*
Y632000D01*
X362000Y600000D02*
X366000D01*
X364000Y598000D02*
Y602000D01*
X342000Y600000D02*
X346000D01*
X344000Y598000D02*
Y602000D01*
X322000Y600000D02*
X326000D01*
X324000Y598000D02*
Y602000D01*
X658698Y360000D02*
X662635D01*
X660667Y358032D02*
Y361968D01*
X658698Y370000D02*
X662635D01*
X660667Y368032D02*
Y371969D01*
X682531Y360000D02*
X686469D01*
X684500Y358032D02*
Y361968D01*
X635032Y370000D02*
X638969D01*
X637000Y368032D02*
Y371969D01*
X706531Y360000D02*
X710468D01*
X708500Y358032D02*
Y361968D01*
X646500Y544000D02*
X650500D01*
X648500Y542000D02*
Y546000D01*
X676500Y524000D02*
X680500D01*
X678500Y522000D02*
Y526000D01*
X676500Y544000D02*
X680500D01*
X678500Y542000D02*
Y546000D01*
X676500Y574000D02*
X680500D01*
X678500Y572000D02*
Y576000D01*
X467500Y499000D02*
X471500D01*
X469500Y497000D02*
Y501000D01*
X467500Y469000D02*
X471500D01*
X469500Y467000D02*
Y471000D01*
X467500Y449000D02*
X471500D01*
X469500Y447000D02*
Y451000D01*
X467500Y429000D02*
X471500D01*
X469500Y427000D02*
Y431000D01*
X497500Y429000D02*
X501500D01*
X499500Y427000D02*
Y431000D01*
X497500Y449000D02*
X501500D01*
X499500Y447000D02*
Y451000D01*
X497500Y469000D02*
X501500D01*
X499500Y467000D02*
Y471000D01*
X511500Y499000D02*
X515500D01*
X513500Y497000D02*
Y501000D01*
X511500Y469000D02*
X515500D01*
X513500Y467000D02*
Y471000D01*
X511500Y449000D02*
X515500D01*
X513500Y447000D02*
Y451000D01*
X511500Y429000D02*
X515500D01*
X513500Y427000D02*
Y431000D01*
X541500Y429000D02*
X545500D01*
X543500Y427000D02*
Y431000D01*
X541500Y449000D02*
X545500D01*
X543500Y447000D02*
Y451000D01*
X541500Y469000D02*
X545500D01*
X543500Y467000D02*
Y471000D01*
X643500Y436000D02*
X647500D01*
X645500Y434000D02*
Y438000D01*
X643500Y416000D02*
X647500D01*
X645500Y414000D02*
Y418000D01*
X643500Y396000D02*
X647500D01*
X645500Y394000D02*
Y398000D01*
X673500Y396000D02*
X677500D01*
X675500Y394000D02*
Y398000D01*
X673500Y416000D02*
X677500D01*
X675500Y414000D02*
Y418000D01*
X673500Y436000D02*
X677500D01*
X675500Y434000D02*
Y438000D01*
X630000Y267000D02*
X634000D01*
X632000Y265000D02*
Y269000D01*
X630000Y247000D02*
X634000D01*
X632000Y245000D02*
Y249000D01*
X660000Y247000D02*
X664000D01*
X662000Y245000D02*
Y249000D01*
X660000Y267000D02*
X664000D01*
X662000Y265000D02*
Y269000D01*
X672500Y247000D02*
X676500D01*
X674500Y245000D02*
Y249000D01*
X702500Y247000D02*
X706500D01*
X704500Y245000D02*
Y249000D01*
X409500Y719000D02*
X413500D01*
X411500Y717000D02*
Y721000D01*
X409500Y759000D02*
X413500D01*
X411500Y757000D02*
Y761000D01*
X379500Y759000D02*
X383500D01*
X381500Y757000D02*
Y761000D01*
X379500Y739000D02*
X383500D01*
X381500Y737000D02*
Y741000D01*
X379500Y719000D02*
X383500D01*
X381500Y717000D02*
Y721000D01*
X409000Y672500D02*
X413000D01*
X411000Y670500D02*
Y674500D01*
X379000Y672500D02*
X383000D01*
X381000Y670500D02*
Y674500D01*
X379000Y632500D02*
X383000D01*
X381000Y630500D02*
Y634500D01*
X322000Y644000D02*
X326000D01*
X324000Y642000D02*
Y646000D01*
X342000Y644000D02*
X346000D01*
X344000Y642000D02*
Y646000D01*
X362000Y644000D02*
X366000D01*
X364000Y642000D02*
Y646000D01*
X322000Y674000D02*
X326000D01*
X324000Y672000D02*
Y676000D01*
X292000Y732000D02*
X296000D01*
X294000Y730000D02*
Y734000D01*
X322000Y732000D02*
X326000D01*
X324000Y730000D02*
Y734000D01*
X342000Y732000D02*
X346000D01*
X344000Y730000D02*
Y734000D01*
X362000Y732000D02*
X366000D01*
X364000Y730000D02*
Y734000D01*
X322000Y762000D02*
X326000D01*
X324000Y760000D02*
Y764000D01*
X775835Y467500D02*
X780165D01*
X778000Y465335D02*
Y469665D01*
X574500Y599000D02*
X578500D01*
X576500Y597000D02*
Y601000D01*
X515531Y569000D02*
X519468D01*
X517500Y567031D02*
Y570968D01*
X574500Y643500D02*
X578500D01*
X576500Y641500D02*
Y645500D01*
X539198Y569000D02*
X543135D01*
X541167Y567031D02*
Y570968D01*
X775835Y457500D02*
X780165D01*
X778000Y455335D02*
Y459665D01*
X113031Y613000D02*
X116969D01*
X115000Y611031D02*
Y614968D01*
X450000Y673667D02*
X454000D01*
X452000Y671667D02*
Y675667D01*
X450000Y763000D02*
X454000D01*
X452000Y761000D02*
Y765000D01*
X494198Y403500D02*
X498135D01*
X496167Y401532D02*
Y405469D01*
X470532Y403500D02*
X474469D01*
X472500Y401532D02*
Y405469D01*
X599500Y436000D02*
X603500D01*
X601500Y434000D02*
Y438000D01*
X599500Y416000D02*
X603500D01*
X601500Y414000D02*
Y418000D01*
X629500Y396000D02*
X633500D01*
X631500Y394000D02*
Y398000D01*
X629500Y416000D02*
X633500D01*
X631500Y414000D02*
Y418000D01*
X629500Y436000D02*
X633500D01*
X631500Y434000D02*
Y438000D01*
X586531Y559000D02*
X590469D01*
X588500Y557031D02*
Y560968D01*
X539198Y559000D02*
X543135D01*
X541167Y557031D02*
Y560968D01*
X515531Y559000D02*
X519468D01*
X517500Y557031D02*
Y560968D01*
X562865Y559000D02*
X566802D01*
X564833Y557031D02*
Y560968D01*
X494198Y393500D02*
X498135D01*
X496167Y391531D02*
Y395468D01*
X517865Y393500D02*
X521802D01*
X519833Y391531D02*
Y395468D01*
X517865Y403500D02*
X521802D01*
X519833Y401532D02*
Y405469D01*
X470532Y393500D02*
X474469D01*
X472500Y391531D02*
Y395468D01*
X604865Y360000D02*
X608802D01*
X606833Y358032D02*
Y361968D01*
X604865Y370000D02*
X608802D01*
X606833Y368032D02*
Y371969D01*
X159865Y734000D02*
X163802D01*
X161833Y732031D02*
Y735968D01*
X136198Y734000D02*
X140135D01*
X138167Y732031D02*
Y735968D01*
X183531Y724000D02*
X187469D01*
X185500Y722031D02*
Y725969D01*
X112531Y734000D02*
X116469D01*
X114500Y732031D02*
Y735968D01*
X667500Y599500D02*
X671500D01*
X669500Y597500D02*
Y601500D01*
X687500Y599500D02*
X691500D01*
X689500Y597500D02*
Y601500D01*
X707500Y629500D02*
X711500D01*
X709500Y627500D02*
Y631500D01*
X687500Y629500D02*
X691500D01*
X689500Y627500D02*
Y631500D01*
X667500Y629500D02*
X671500D01*
X669500Y627500D02*
Y631500D01*
X594500Y629000D02*
X598500D01*
X596500Y627000D02*
Y631000D01*
X574500Y629000D02*
X578500D01*
X576500Y627000D02*
Y631000D01*
X544500Y629000D02*
X548500D01*
X546500Y627000D02*
Y631000D01*
X480000Y643667D02*
X484000D01*
X482000Y641667D02*
Y645667D01*
X480000Y673667D02*
X484000D01*
X482000Y671667D02*
Y675667D01*
X637500Y643833D02*
X641500D01*
X639500Y641833D02*
Y645833D01*
X667500Y643833D02*
X671500D01*
X669500Y641833D02*
Y645833D01*
X687500Y643833D02*
X691500D01*
X689500Y641833D02*
Y645833D01*
X707500Y673833D02*
X711500D01*
X709500Y671833D02*
Y675833D01*
X687500Y673833D02*
X691500D01*
X689500Y671833D02*
Y675833D01*
X667500Y673833D02*
X671500D01*
X669500Y671833D02*
Y675833D01*
X544500Y643500D02*
X548500D01*
X546500Y641500D02*
Y645500D01*
X594500Y673500D02*
X598500D01*
X596500Y671500D02*
Y675500D01*
X574500Y673500D02*
X578500D01*
X576500Y671500D02*
Y675500D01*
X544500Y673500D02*
X548500D01*
X546500Y671500D02*
Y675500D01*
X637500Y688167D02*
X641500D01*
X639500Y686167D02*
Y690167D01*
X667500Y688167D02*
X671500D01*
X669500Y686167D02*
Y690167D01*
X687500Y688167D02*
X691500D01*
X689500Y686167D02*
Y690167D01*
X707500Y718167D02*
X711500D01*
X709500Y716167D02*
Y720167D01*
X687500Y718167D02*
X691500D01*
X689500Y716167D02*
Y720167D01*
X667500Y718167D02*
X671500D01*
X669500Y716167D02*
Y720167D01*
X544500Y688000D02*
X548500D01*
X546500Y686000D02*
Y690000D01*
X594500Y718000D02*
X598500D01*
X596500Y716000D02*
Y720000D01*
X574500Y718000D02*
X578500D01*
X576500Y716000D02*
Y720000D01*
X544500Y718000D02*
X548500D01*
X546500Y716000D02*
Y720000D01*
X480000Y763000D02*
X484000D01*
X482000Y761000D02*
Y765000D01*
X637500Y732500D02*
X641500D01*
X639500Y730500D02*
Y734500D01*
X667500Y732500D02*
X671500D01*
X669500Y730500D02*
Y734500D01*
X707500Y762500D02*
X711500D01*
X709500Y760500D02*
Y764500D01*
X687500Y762500D02*
X691500D01*
X689500Y760500D02*
Y764500D01*
X667500Y762500D02*
X671500D01*
X669500Y760500D02*
Y764500D01*
X542031Y393500D02*
X545968D01*
X544000Y391531D02*
Y395468D01*
X542031Y403500D02*
X545968D01*
X544000Y401532D02*
Y405469D01*
X112531Y677500D02*
X116469D01*
X114500Y675531D02*
Y679468D01*
X136198Y677500D02*
X140135D01*
X138167Y675531D02*
Y679468D01*
X159865Y677500D02*
X163802D01*
X161833Y675531D02*
Y679468D01*
X183531Y677500D02*
X187469D01*
X185500Y675531D02*
Y679468D01*
X775835Y487500D02*
X780165D01*
X778000Y485335D02*
Y489665D01*
X785835Y487500D02*
X790165D01*
X788000Y485335D02*
Y489665D01*
X785835Y437500D02*
X790165D01*
X788000Y435335D02*
Y439665D01*
X785835Y447500D02*
X790165D01*
X788000Y445335D02*
Y449665D01*
X785835Y457500D02*
X790165D01*
X788000Y455335D02*
Y459665D01*
X785835Y467500D02*
X790165D01*
X788000Y465335D02*
Y469665D01*
X785835Y477500D02*
X790165D01*
X788000Y475335D02*
Y479665D01*
X775835Y477500D02*
X780165D01*
X778000Y475335D02*
Y479665D01*
X272100Y218500D02*
X274900D01*
X273500Y217100D02*
Y219900D01*
X799250Y750000D02*
X800750D01*
X800000Y749250D02*
Y750750D01*
X799250Y730000D02*
X800750D01*
X800000Y729250D02*
Y730750D01*
X799250Y710000D02*
X800750D01*
X800000Y709250D02*
Y710750D01*
X799250Y690000D02*
X800750D01*
X800000Y689250D02*
Y690750D01*
X799250Y670000D02*
X800750D01*
X800000Y669250D02*
Y670750D01*
X799250Y650000D02*
X800750D01*
X800000Y649250D02*
Y650750D01*
X799250Y630000D02*
X800750D01*
X800000Y629250D02*
Y630750D01*
X799250Y610000D02*
X800750D01*
X800000Y609250D02*
Y610750D01*
X799250Y590000D02*
X800750D01*
X800000Y589250D02*
Y590750D01*
X799250Y570000D02*
X800750D01*
X800000Y569250D02*
Y570750D01*
X799250Y550000D02*
X800750D01*
X800000Y549250D02*
Y550750D01*
X799250Y530000D02*
X800750D01*
X800000Y529250D02*
Y530750D01*
X799250Y510000D02*
X800750D01*
X800000Y509250D02*
Y510750D01*
X799250Y490000D02*
X800750D01*
X800000Y489250D02*
Y490750D01*
X799250Y470000D02*
X800750D01*
X800000Y469250D02*
Y470750D01*
X799250Y450000D02*
X800750D01*
X800000Y449250D02*
Y450750D01*
X799250Y430000D02*
X800750D01*
X800000Y429250D02*
Y430750D01*
X799250Y410000D02*
X800750D01*
X800000Y409250D02*
Y410750D01*
X799250Y390000D02*
X800750D01*
X800000Y389250D02*
Y390750D01*
X799250Y370000D02*
X800750D01*
X800000Y369250D02*
Y370750D01*
X799250Y350000D02*
X800750D01*
X800000Y349250D02*
Y350750D01*
X799250Y330000D02*
X800750D01*
X800000Y329250D02*
Y330750D01*
X799250Y310000D02*
X800750D01*
X800000Y309250D02*
Y310750D01*
X799250Y290000D02*
X800750D01*
X800000Y289250D02*
Y290750D01*
X799250Y270000D02*
X800750D01*
X800000Y269250D02*
Y270750D01*
X799250Y250000D02*
X800750D01*
X800000Y249250D02*
Y250750D01*
X799250Y230000D02*
X800750D01*
X800000Y229250D02*
Y230750D01*
X799250Y210000D02*
X800750D01*
X800000Y209250D02*
Y210750D01*
X799250Y190000D02*
X800750D01*
X800000Y189250D02*
Y190750D01*
X799250Y170000D02*
X800750D01*
X800000Y169250D02*
Y170750D01*
X799250Y150000D02*
X800750D01*
X800000Y149250D02*
Y150750D01*
X794250Y760000D02*
X795750D01*
X795000Y759250D02*
Y760750D01*
X789250Y750000D02*
X790750D01*
X790000Y749250D02*
Y750750D01*
X794250Y740000D02*
X795750D01*
X795000Y739250D02*
Y740750D01*
X789250Y730000D02*
X790750D01*
X790000Y729250D02*
Y730750D01*
X794250Y720000D02*
X795750D01*
X795000Y719250D02*
Y720750D01*
X789250Y710000D02*
X790750D01*
X790000Y709250D02*
Y710750D01*
X794250Y700000D02*
X795750D01*
X795000Y699250D02*
Y700750D01*
X789250Y690000D02*
X790750D01*
X790000Y689250D02*
Y690750D01*
X794250Y680000D02*
X795750D01*
X795000Y679250D02*
Y680750D01*
X789250Y670000D02*
X790750D01*
X790000Y669250D02*
Y670750D01*
X794250Y660000D02*
X795750D01*
X795000Y659250D02*
Y660750D01*
X789250Y650000D02*
X790750D01*
X790000Y649250D02*
Y650750D01*
X794250Y640000D02*
X795750D01*
X795000Y639250D02*
Y640750D01*
X789250Y630000D02*
X790750D01*
X790000Y629250D02*
Y630750D01*
X794250Y620000D02*
X795750D01*
X795000Y619250D02*
Y620750D01*
X789250Y610000D02*
X790750D01*
X790000Y609250D02*
Y610750D01*
X794250Y600000D02*
X795750D01*
X795000Y599250D02*
Y600750D01*
X789250Y590000D02*
X790750D01*
X790000Y589250D02*
Y590750D01*
X794250Y580000D02*
X795750D01*
X795000Y579250D02*
Y580750D01*
X789250Y570000D02*
X790750D01*
X790000Y569250D02*
Y570750D01*
X794250Y560000D02*
X795750D01*
X795000Y559250D02*
Y560750D01*
X789250Y550000D02*
X790750D01*
X790000Y549250D02*
Y550750D01*
X794250Y540000D02*
X795750D01*
X795000Y539250D02*
Y540750D01*
X789250Y530000D02*
X790750D01*
X790000Y529250D02*
Y530750D01*
X794250Y520000D02*
X795750D01*
X795000Y519250D02*
Y520750D01*
X794250Y500000D02*
X795750D01*
X795000Y499250D02*
Y500750D01*
X794250Y480000D02*
X795750D01*
X795000Y479250D02*
Y480750D01*
X794250Y460000D02*
X795750D01*
X795000Y459250D02*
Y460750D01*
X794250Y440000D02*
X795750D01*
X795000Y439250D02*
Y440750D01*
X794250Y420000D02*
X795750D01*
X795000Y419250D02*
Y420750D01*
X789250Y410000D02*
X790750D01*
X790000Y409250D02*
Y410750D01*
X794250Y400000D02*
X795750D01*
X795000Y399250D02*
Y400750D01*
X789250Y390000D02*
X790750D01*
X790000Y389250D02*
Y390750D01*
X794250Y380000D02*
X795750D01*
X795000Y379250D02*
Y380750D01*
X789250Y370000D02*
X790750D01*
X790000Y369250D02*
Y370750D01*
X794250Y360000D02*
X795750D01*
X795000Y359250D02*
Y360750D01*
X789250Y350000D02*
X790750D01*
X790000Y349250D02*
Y350750D01*
X794250Y340000D02*
X795750D01*
X795000Y339250D02*
Y340750D01*
X789250Y330000D02*
X790750D01*
X790000Y329250D02*
Y330750D01*
X794250Y320000D02*
X795750D01*
X795000Y319250D02*
Y320750D01*
X789250Y310000D02*
X790750D01*
X790000Y309250D02*
Y310750D01*
X794250Y300000D02*
X795750D01*
X795000Y299250D02*
Y300750D01*
X789250Y290000D02*
X790750D01*
X790000Y289250D02*
Y290750D01*
X794250Y280000D02*
X795750D01*
X795000Y279250D02*
Y280750D01*
X789250Y270000D02*
X790750D01*
X790000Y269250D02*
Y270750D01*
X794250Y260000D02*
X795750D01*
X795000Y259250D02*
Y260750D01*
X789250Y250000D02*
X790750D01*
X790000Y249250D02*
Y250750D01*
X794250Y240000D02*
X795750D01*
X795000Y239250D02*
Y240750D01*
X789250Y230000D02*
X790750D01*
X790000Y229250D02*
Y230750D01*
X794250Y220000D02*
X795750D01*
X795000Y219250D02*
Y220750D01*
X789250Y210000D02*
X790750D01*
X790000Y209250D02*
Y210750D01*
X794250Y200000D02*
X795750D01*
X795000Y199250D02*
Y200750D01*
X789250Y190000D02*
X790750D01*
X790000Y189250D02*
Y190750D01*
X794250Y180000D02*
X795750D01*
X795000Y179250D02*
Y180750D01*
X789250Y170000D02*
X790750D01*
X790000Y169250D02*
Y170750D01*
X794250Y160000D02*
X795750D01*
X795000Y159250D02*
Y160750D01*
X789250Y150000D02*
X790750D01*
X790000Y149250D02*
Y150750D01*
X784250Y760000D02*
X785750D01*
X785000Y759250D02*
Y760750D01*
X779250Y750000D02*
X780750D01*
X780000Y749250D02*
Y750750D01*
X784250Y740000D02*
X785750D01*
X785000Y739250D02*
Y740750D01*
X779250Y730000D02*
X780750D01*
X780000Y729250D02*
Y730750D01*
X784250Y720000D02*
X785750D01*
X785000Y719250D02*
Y720750D01*
X779250Y710000D02*
X780750D01*
X780000Y709250D02*
Y710750D01*
X784250Y700000D02*
X785750D01*
X785000Y699250D02*
Y700750D01*
X779250Y690000D02*
X780750D01*
X780000Y689250D02*
Y690750D01*
X784250Y680000D02*
X785750D01*
X785000Y679250D02*
Y680750D01*
X779250Y670000D02*
X780750D01*
X780000Y669250D02*
Y670750D01*
X784250Y660000D02*
X785750D01*
X785000Y659250D02*
Y660750D01*
X779250Y650000D02*
X780750D01*
X780000Y649250D02*
Y650750D01*
X784250Y640000D02*
X785750D01*
X785000Y639250D02*
Y640750D01*
X779250Y630000D02*
X780750D01*
X780000Y629250D02*
Y630750D01*
X784250Y620000D02*
X785750D01*
X785000Y619250D02*
Y620750D01*
X779250Y610000D02*
X780750D01*
X780000Y609250D02*
Y610750D01*
X784250Y600000D02*
X785750D01*
X785000Y599250D02*
Y600750D01*
X779250Y590000D02*
X780750D01*
X780000Y589250D02*
Y590750D01*
X784250Y580000D02*
X785750D01*
X785000Y579250D02*
Y580750D01*
X779250Y570000D02*
X780750D01*
X780000Y569250D02*
Y570750D01*
X784250Y560000D02*
X785750D01*
X785000Y559250D02*
Y560750D01*
X779250Y550000D02*
X780750D01*
X780000Y549250D02*
Y550750D01*
X784250Y540000D02*
X785750D01*
X785000Y539250D02*
Y540750D01*
X779250Y530000D02*
X780750D01*
X780000Y529250D02*
Y530750D01*
X784250Y520000D02*
X785750D01*
X785000Y519250D02*
Y520750D01*
X779250Y410000D02*
X780750D01*
X780000Y409250D02*
Y410750D01*
X784250Y400000D02*
X785750D01*
X785000Y399250D02*
Y400750D01*
X779250Y390000D02*
X780750D01*
X780000Y389250D02*
Y390750D01*
X784250Y380000D02*
X785750D01*
X785000Y379250D02*
Y380750D01*
X779250Y370000D02*
X780750D01*
X780000Y369250D02*
Y370750D01*
X784250Y360000D02*
X785750D01*
X785000Y359250D02*
Y360750D01*
X779250Y350000D02*
X780750D01*
X780000Y349250D02*
Y350750D01*
X784250Y340000D02*
X785750D01*
X785000Y339250D02*
Y340750D01*
X779250Y330000D02*
X780750D01*
X780000Y329250D02*
Y330750D01*
X784250Y320000D02*
X785750D01*
X785000Y319250D02*
Y320750D01*
X779250Y310000D02*
X780750D01*
X780000Y309250D02*
Y310750D01*
X784250Y300000D02*
X785750D01*
X785000Y299250D02*
Y300750D01*
X779250Y290000D02*
X780750D01*
X780000Y289250D02*
Y290750D01*
X784250Y280000D02*
X785750D01*
X785000Y279250D02*
Y280750D01*
X779250Y270000D02*
X780750D01*
X780000Y269250D02*
Y270750D01*
X784250Y260000D02*
X785750D01*
X785000Y259250D02*
Y260750D01*
X779250Y250000D02*
X780750D01*
X780000Y249250D02*
Y250750D01*
X784250Y240000D02*
X785750D01*
X785000Y239250D02*
Y240750D01*
X779250Y230000D02*
X780750D01*
X780000Y229250D02*
Y230750D01*
X784250Y220000D02*
X785750D01*
X785000Y219250D02*
Y220750D01*
X779250Y210000D02*
X780750D01*
X780000Y209250D02*
Y210750D01*
X784250Y200000D02*
X785750D01*
X785000Y199250D02*
Y200750D01*
X779250Y190000D02*
X780750D01*
X780000Y189250D02*
Y190750D01*
X784250Y180000D02*
X785750D01*
X785000Y179250D02*
Y180750D01*
X779250Y170000D02*
X780750D01*
X780000Y169250D02*
Y170750D01*
X784250Y160000D02*
X785750D01*
X785000Y159250D02*
Y160750D01*
X779250Y150000D02*
X780750D01*
X780000Y149250D02*
Y150750D01*
X769250Y770000D02*
X770750D01*
X770000Y769250D02*
Y770750D01*
X774250Y760000D02*
X775750D01*
X775000Y759250D02*
Y760750D01*
X769250Y750000D02*
X770750D01*
X770000Y749250D02*
Y750750D01*
X774250Y740000D02*
X775750D01*
X775000Y739250D02*
Y740750D01*
X769250Y730000D02*
X770750D01*
X770000Y729250D02*
Y730750D01*
X774250Y720000D02*
X775750D01*
X775000Y719250D02*
Y720750D01*
X769250Y710000D02*
X770750D01*
X770000Y709250D02*
Y710750D01*
X774250Y700000D02*
X775750D01*
X775000Y699250D02*
Y700750D01*
X769250Y690000D02*
X770750D01*
X770000Y689250D02*
Y690750D01*
X774250Y680000D02*
X775750D01*
X775000Y679250D02*
Y680750D01*
X769250Y670000D02*
X770750D01*
X770000Y669250D02*
Y670750D01*
X774250Y660000D02*
X775750D01*
X775000Y659250D02*
Y660750D01*
X769250Y650000D02*
X770750D01*
X770000Y649250D02*
Y650750D01*
X774250Y640000D02*
X775750D01*
X775000Y639250D02*
Y640750D01*
X769250Y630000D02*
X770750D01*
X770000Y629250D02*
Y630750D01*
X774250Y620000D02*
X775750D01*
X775000Y619250D02*
Y620750D01*
X769250Y610000D02*
X770750D01*
X770000Y609250D02*
Y610750D01*
X774250Y600000D02*
X775750D01*
X775000Y599250D02*
Y600750D01*
X769250Y590000D02*
X770750D01*
X770000Y589250D02*
Y590750D01*
X774250Y580000D02*
X775750D01*
X775000Y579250D02*
Y580750D01*
X769250Y570000D02*
X770750D01*
X770000Y569250D02*
Y570750D01*
X774250Y560000D02*
X775750D01*
X775000Y559250D02*
Y560750D01*
X769250Y550000D02*
X770750D01*
X770000Y549250D02*
Y550750D01*
X774250Y540000D02*
X775750D01*
X775000Y539250D02*
Y540750D01*
X769250Y530000D02*
X770750D01*
X770000Y529250D02*
Y530750D01*
X774250Y520000D02*
X775750D01*
X775000Y519250D02*
Y520750D01*
X769250Y510000D02*
X770750D01*
X770000Y509250D02*
Y510750D01*
X769250Y430000D02*
X770750D01*
X770000Y429250D02*
Y430750D01*
X769250Y410000D02*
X770750D01*
X770000Y409250D02*
Y410750D01*
X774250Y400000D02*
X775750D01*
X775000Y399250D02*
Y400750D01*
X769250Y390000D02*
X770750D01*
X770000Y389250D02*
Y390750D01*
X774250Y380000D02*
X775750D01*
X775000Y379250D02*
Y380750D01*
X769250Y370000D02*
X770750D01*
X770000Y369250D02*
Y370750D01*
X774250Y360000D02*
X775750D01*
X775000Y359250D02*
Y360750D01*
X769250Y350000D02*
X770750D01*
X770000Y349250D02*
Y350750D01*
X774250Y340000D02*
X775750D01*
X775000Y339250D02*
Y340750D01*
X769250Y330000D02*
X770750D01*
X770000Y329250D02*
Y330750D01*
X774250Y320000D02*
X775750D01*
X775000Y319250D02*
Y320750D01*
X769250Y310000D02*
X770750D01*
X770000Y309250D02*
Y310750D01*
X774250Y300000D02*
X775750D01*
X775000Y299250D02*
Y300750D01*
X769250Y290000D02*
X770750D01*
X770000Y289250D02*
Y290750D01*
X774250Y280000D02*
X775750D01*
X775000Y279250D02*
Y280750D01*
X769250Y270000D02*
X770750D01*
X770000Y269250D02*
Y270750D01*
X774250Y260000D02*
X775750D01*
X775000Y259250D02*
Y260750D01*
X769250Y250000D02*
X770750D01*
X770000Y249250D02*
Y250750D01*
X774250Y240000D02*
X775750D01*
X775000Y239250D02*
Y240750D01*
X769250Y230000D02*
X770750D01*
X770000Y229250D02*
Y230750D01*
X774250Y220000D02*
X775750D01*
X775000Y219250D02*
Y220750D01*
X769250Y210000D02*
X770750D01*
X770000Y209250D02*
Y210750D01*
X774250Y200000D02*
X775750D01*
X775000Y199250D02*
Y200750D01*
X769250Y190000D02*
X770750D01*
X770000Y189250D02*
Y190750D01*
X774250Y180000D02*
X775750D01*
X775000Y179250D02*
Y180750D01*
X769250Y170000D02*
X770750D01*
X770000Y169250D02*
Y170750D01*
X774250Y160000D02*
X775750D01*
X775000Y159250D02*
Y160750D01*
X769250Y150000D02*
X770750D01*
X770000Y149250D02*
Y150750D01*
X764250Y800000D02*
X765750D01*
X765000Y799250D02*
Y800750D01*
X759250Y790000D02*
X760750D01*
X760000Y789250D02*
Y790750D01*
X764250Y780000D02*
X765750D01*
X765000Y779250D02*
Y780750D01*
X759250Y770000D02*
X760750D01*
X760000Y769250D02*
Y770750D01*
X764250Y760000D02*
X765750D01*
X765000Y759250D02*
Y760750D01*
X759250Y750000D02*
X760750D01*
X760000Y749250D02*
Y750750D01*
X764250Y740000D02*
X765750D01*
X765000Y739250D02*
Y740750D01*
X759250Y730000D02*
X760750D01*
X760000Y729250D02*
Y730750D01*
X764250Y720000D02*
X765750D01*
X765000Y719250D02*
Y720750D01*
X759250Y710000D02*
X760750D01*
X760000Y709250D02*
Y710750D01*
X764250Y700000D02*
X765750D01*
X765000Y699250D02*
Y700750D01*
X759250Y690000D02*
X760750D01*
X760000Y689250D02*
Y690750D01*
X764250Y680000D02*
X765750D01*
X765000Y679250D02*
Y680750D01*
X759250Y670000D02*
X760750D01*
X760000Y669250D02*
Y670750D01*
X764250Y660000D02*
X765750D01*
X765000Y659250D02*
Y660750D01*
X759250Y650000D02*
X760750D01*
X760000Y649250D02*
Y650750D01*
X764250Y640000D02*
X765750D01*
X765000Y639250D02*
Y640750D01*
X759250Y630000D02*
X760750D01*
X760000Y629250D02*
Y630750D01*
X764250Y620000D02*
X765750D01*
X765000Y619250D02*
Y620750D01*
X759250Y610000D02*
X760750D01*
X760000Y609250D02*
Y610750D01*
X764250Y600000D02*
X765750D01*
X765000Y599250D02*
Y600750D01*
X759250Y590000D02*
X760750D01*
X760000Y589250D02*
Y590750D01*
X764250Y580000D02*
X765750D01*
X765000Y579250D02*
Y580750D01*
X759250Y570000D02*
X760750D01*
X760000Y569250D02*
Y570750D01*
X764250Y560000D02*
X765750D01*
X765000Y559250D02*
Y560750D01*
X759250Y550000D02*
X760750D01*
X760000Y549250D02*
Y550750D01*
X764250Y540000D02*
X765750D01*
X765000Y539250D02*
Y540750D01*
X759250Y530000D02*
X760750D01*
X760000Y529250D02*
Y530750D01*
X764250Y520000D02*
X765750D01*
X765000Y519250D02*
Y520750D01*
X759250Y490000D02*
X760750D01*
X760000Y489250D02*
Y490750D01*
X764250Y480000D02*
X765750D01*
X765000Y479250D02*
Y480750D01*
X759250Y470000D02*
X760750D01*
X760000Y469250D02*
Y470750D01*
X764250Y400000D02*
X765750D01*
X765000Y399250D02*
Y400750D01*
X759250Y390000D02*
X760750D01*
X760000Y389250D02*
Y390750D01*
X764250Y380000D02*
X765750D01*
X765000Y379250D02*
Y380750D01*
X759250Y370000D02*
X760750D01*
X760000Y369250D02*
Y370750D01*
X764250Y360000D02*
X765750D01*
X765000Y359250D02*
Y360750D01*
X759250Y350000D02*
X760750D01*
X760000Y349250D02*
Y350750D01*
X764250Y340000D02*
X765750D01*
X765000Y339250D02*
Y340750D01*
X759250Y330000D02*
X760750D01*
X760000Y329250D02*
Y330750D01*
X764250Y320000D02*
X765750D01*
X765000Y319250D02*
Y320750D01*
X759250Y310000D02*
X760750D01*
X760000Y309250D02*
Y310750D01*
X764250Y300000D02*
X765750D01*
X765000Y299250D02*
Y300750D01*
X759250Y290000D02*
X760750D01*
X760000Y289250D02*
Y290750D01*
X764250Y280000D02*
X765750D01*
X765000Y279250D02*
Y280750D01*
X759250Y270000D02*
X760750D01*
X760000Y269250D02*
Y270750D01*
X764250Y260000D02*
X765750D01*
X765000Y259250D02*
Y260750D01*
X759250Y250000D02*
X760750D01*
X760000Y249250D02*
Y250750D01*
X764250Y240000D02*
X765750D01*
X765000Y239250D02*
Y240750D01*
X759250Y230000D02*
X760750D01*
X760000Y229250D02*
Y230750D01*
X764250Y220000D02*
X765750D01*
X765000Y219250D02*
Y220750D01*
X759250Y210000D02*
X760750D01*
X760000Y209250D02*
Y210750D01*
X764250Y200000D02*
X765750D01*
X765000Y199250D02*
Y200750D01*
X759250Y190000D02*
X760750D01*
X760000Y189250D02*
Y190750D01*
X764250Y180000D02*
X765750D01*
X765000Y179250D02*
Y180750D01*
X759250Y170000D02*
X760750D01*
X760000Y169250D02*
Y170750D01*
X764250Y160000D02*
X765750D01*
X765000Y159250D02*
Y160750D01*
X759250Y150000D02*
X760750D01*
X760000Y149250D02*
Y150750D01*
X764250Y140000D02*
X765750D01*
X765000Y139250D02*
Y140750D01*
X759250Y130000D02*
X760750D01*
X760000Y129250D02*
Y130750D01*
X764250Y120000D02*
X765750D01*
X765000Y119250D02*
Y120750D01*
X759250Y110000D02*
X760750D01*
X760000Y109250D02*
Y110750D01*
X754250Y800000D02*
X755750D01*
X755000Y799250D02*
Y800750D01*
X749250Y790000D02*
X750750D01*
X750000Y789250D02*
Y790750D01*
X754250Y780000D02*
X755750D01*
X755000Y779250D02*
Y780750D01*
X749250Y770000D02*
X750750D01*
X750000Y769250D02*
Y770750D01*
X754250Y760000D02*
X755750D01*
X755000Y759250D02*
Y760750D01*
X749250Y750000D02*
X750750D01*
X750000Y749250D02*
Y750750D01*
X754250Y740000D02*
X755750D01*
X755000Y739250D02*
Y740750D01*
X749250Y730000D02*
X750750D01*
X750000Y729250D02*
Y730750D01*
X754250Y720000D02*
X755750D01*
X755000Y719250D02*
Y720750D01*
X749250Y710000D02*
X750750D01*
X750000Y709250D02*
Y710750D01*
X754250Y700000D02*
X755750D01*
X755000Y699250D02*
Y700750D01*
X749250Y690000D02*
X750750D01*
X750000Y689250D02*
Y690750D01*
X754250Y680000D02*
X755750D01*
X755000Y679250D02*
Y680750D01*
X749250Y670000D02*
X750750D01*
X750000Y669250D02*
Y670750D01*
X754250Y660000D02*
X755750D01*
X755000Y659250D02*
Y660750D01*
X749250Y650000D02*
X750750D01*
X750000Y649250D02*
Y650750D01*
X754250Y640000D02*
X755750D01*
X755000Y639250D02*
Y640750D01*
X749250Y630000D02*
X750750D01*
X750000Y629250D02*
Y630750D01*
X754250Y620000D02*
X755750D01*
X755000Y619250D02*
Y620750D01*
X749250Y610000D02*
X750750D01*
X750000Y609250D02*
Y610750D01*
X754250Y600000D02*
X755750D01*
X755000Y599250D02*
Y600750D01*
X749250Y590000D02*
X750750D01*
X750000Y589250D02*
Y590750D01*
X754250Y580000D02*
X755750D01*
X755000Y579250D02*
Y580750D01*
X749250Y570000D02*
X750750D01*
X750000Y569250D02*
Y570750D01*
X754250Y560000D02*
X755750D01*
X755000Y559250D02*
Y560750D01*
X749250Y550000D02*
X750750D01*
X750000Y549250D02*
Y550750D01*
X754250Y540000D02*
X755750D01*
X755000Y539250D02*
Y540750D01*
X749250Y530000D02*
X750750D01*
X750000Y529250D02*
Y530750D01*
X754250Y520000D02*
X755750D01*
X755000Y519250D02*
Y520750D01*
X754250Y500000D02*
X755750D01*
X755000Y499250D02*
Y500750D01*
X749250Y490000D02*
X750750D01*
X750000Y489250D02*
Y490750D01*
X754250Y480000D02*
X755750D01*
X755000Y479250D02*
Y480750D01*
X749250Y470000D02*
X750750D01*
X750000Y469250D02*
Y470750D01*
X754250Y460000D02*
X755750D01*
X755000Y459250D02*
Y460750D01*
X749250Y430000D02*
X750750D01*
X750000Y429250D02*
Y430750D01*
X754250Y420000D02*
X755750D01*
X755000Y419250D02*
Y420750D01*
X754250Y400000D02*
X755750D01*
X755000Y399250D02*
Y400750D01*
X749250Y390000D02*
X750750D01*
X750000Y389250D02*
Y390750D01*
X754250Y380000D02*
X755750D01*
X755000Y379250D02*
Y380750D01*
X749250Y370000D02*
X750750D01*
X750000Y369250D02*
Y370750D01*
X754250Y360000D02*
X755750D01*
X755000Y359250D02*
Y360750D01*
X749250Y350000D02*
X750750D01*
X750000Y349250D02*
Y350750D01*
X754250Y340000D02*
X755750D01*
X755000Y339250D02*
Y340750D01*
X749250Y330000D02*
X750750D01*
X750000Y329250D02*
Y330750D01*
X754250Y320000D02*
X755750D01*
X755000Y319250D02*
Y320750D01*
X749250Y310000D02*
X750750D01*
X750000Y309250D02*
Y310750D01*
X754250Y300000D02*
X755750D01*
X755000Y299250D02*
Y300750D01*
X749250Y290000D02*
X750750D01*
X750000Y289250D02*
Y290750D01*
X754250Y280000D02*
X755750D01*
X755000Y279250D02*
Y280750D01*
X749250Y270000D02*
X750750D01*
X750000Y269250D02*
Y270750D01*
X754250Y260000D02*
X755750D01*
X755000Y259250D02*
Y260750D01*
X749250Y250000D02*
X750750D01*
X750000Y249250D02*
Y250750D01*
X754250Y240000D02*
X755750D01*
X755000Y239250D02*
Y240750D01*
X749250Y230000D02*
X750750D01*
X750000Y229250D02*
Y230750D01*
X754250Y220000D02*
X755750D01*
X755000Y219250D02*
Y220750D01*
X749250Y210000D02*
X750750D01*
X750000Y209250D02*
Y210750D01*
X754250Y200000D02*
X755750D01*
X755000Y199250D02*
Y200750D01*
X749250Y190000D02*
X750750D01*
X750000Y189250D02*
Y190750D01*
X754250Y180000D02*
X755750D01*
X755000Y179250D02*
Y180750D01*
X749250Y170000D02*
X750750D01*
X750000Y169250D02*
Y170750D01*
X754250Y160000D02*
X755750D01*
X755000Y159250D02*
Y160750D01*
X749250Y150000D02*
X750750D01*
X750000Y149250D02*
Y150750D01*
X754250Y140000D02*
X755750D01*
X755000Y139250D02*
Y140750D01*
X749250Y130000D02*
X750750D01*
X750000Y129250D02*
Y130750D01*
X754250Y120000D02*
X755750D01*
X755000Y119250D02*
Y120750D01*
X749250Y110000D02*
X750750D01*
X750000Y109250D02*
Y110750D01*
X744250Y800000D02*
X745750D01*
X745000Y799250D02*
Y800750D01*
X739250Y790000D02*
X740750D01*
X740000Y789250D02*
Y790750D01*
X744250Y780000D02*
X745750D01*
X745000Y779250D02*
Y780750D01*
X739250Y770000D02*
X740750D01*
X740000Y769250D02*
Y770750D01*
X744250Y760000D02*
X745750D01*
X745000Y759250D02*
Y760750D01*
X739250Y750000D02*
X740750D01*
X740000Y749250D02*
Y750750D01*
X744250Y740000D02*
X745750D01*
X745000Y739250D02*
Y740750D01*
X739250Y730000D02*
X740750D01*
X740000Y729250D02*
Y730750D01*
X744250Y720000D02*
X745750D01*
X745000Y719250D02*
Y720750D01*
X739250Y710000D02*
X740750D01*
X740000Y709250D02*
Y710750D01*
X744250Y700000D02*
X745750D01*
X745000Y699250D02*
Y700750D01*
X739250Y690000D02*
X740750D01*
X740000Y689250D02*
Y690750D01*
X744250Y680000D02*
X745750D01*
X745000Y679250D02*
Y680750D01*
X739250Y670000D02*
X740750D01*
X740000Y669250D02*
Y670750D01*
X744250Y660000D02*
X745750D01*
X745000Y659250D02*
Y660750D01*
X739250Y650000D02*
X740750D01*
X740000Y649250D02*
Y650750D01*
X744250Y640000D02*
X745750D01*
X745000Y639250D02*
Y640750D01*
X739250Y630000D02*
X740750D01*
X740000Y629250D02*
Y630750D01*
X744250Y620000D02*
X745750D01*
X745000Y619250D02*
Y620750D01*
X739250Y610000D02*
X740750D01*
X740000Y609250D02*
Y610750D01*
X744250Y600000D02*
X745750D01*
X745000Y599250D02*
Y600750D01*
X739250Y590000D02*
X740750D01*
X740000Y589250D02*
Y590750D01*
X744250Y580000D02*
X745750D01*
X745000Y579250D02*
Y580750D01*
X739250Y570000D02*
X740750D01*
X740000Y569250D02*
Y570750D01*
X744250Y560000D02*
X745750D01*
X745000Y559250D02*
Y560750D01*
X739250Y550000D02*
X740750D01*
X740000Y549250D02*
Y550750D01*
X744250Y540000D02*
X745750D01*
X745000Y539250D02*
Y540750D01*
X739250Y510000D02*
X740750D01*
X740000Y509250D02*
Y510750D01*
X744250Y500000D02*
X745750D01*
X745000Y499250D02*
Y500750D01*
X739250Y490000D02*
X740750D01*
X740000Y489250D02*
Y490750D01*
X744250Y480000D02*
X745750D01*
X745000Y479250D02*
Y480750D01*
X739250Y470000D02*
X740750D01*
X740000Y469250D02*
Y470750D01*
X744250Y460000D02*
X745750D01*
X745000Y459250D02*
Y460750D01*
X739250Y430000D02*
X740750D01*
X740000Y429250D02*
Y430750D01*
X744250Y420000D02*
X745750D01*
X745000Y419250D02*
Y420750D01*
X744250Y400000D02*
X745750D01*
X745000Y399250D02*
Y400750D01*
X739250Y390000D02*
X740750D01*
X740000Y389250D02*
Y390750D01*
X744250Y380000D02*
X745750D01*
X745000Y379250D02*
Y380750D01*
X739250Y370000D02*
X740750D01*
X740000Y369250D02*
Y370750D01*
X744250Y360000D02*
X745750D01*
X745000Y359250D02*
Y360750D01*
X739250Y350000D02*
X740750D01*
X740000Y349250D02*
Y350750D01*
X744250Y340000D02*
X745750D01*
X745000Y339250D02*
Y340750D01*
X739250Y330000D02*
X740750D01*
X740000Y329250D02*
Y330750D01*
X744250Y320000D02*
X745750D01*
X745000Y319250D02*
Y320750D01*
X739250Y310000D02*
X740750D01*
X740000Y309250D02*
Y310750D01*
X744250Y300000D02*
X745750D01*
X745000Y299250D02*
Y300750D01*
X739250Y290000D02*
X740750D01*
X740000Y289250D02*
Y290750D01*
X744250Y280000D02*
X745750D01*
X745000Y279250D02*
Y280750D01*
X739250Y270000D02*
X740750D01*
X740000Y269250D02*
Y270750D01*
X744250Y260000D02*
X745750D01*
X745000Y259250D02*
Y260750D01*
X739250Y250000D02*
X740750D01*
X740000Y249250D02*
Y250750D01*
X744250Y240000D02*
X745750D01*
X745000Y239250D02*
Y240750D01*
X739250Y230000D02*
X740750D01*
X740000Y229250D02*
Y230750D01*
X744250Y220000D02*
X745750D01*
X745000Y219250D02*
Y220750D01*
X739250Y210000D02*
X740750D01*
X740000Y209250D02*
Y210750D01*
X744250Y200000D02*
X745750D01*
X745000Y199250D02*
Y200750D01*
X739250Y190000D02*
X740750D01*
X740000Y189250D02*
Y190750D01*
X744250Y180000D02*
X745750D01*
X745000Y179250D02*
Y180750D01*
X739250Y170000D02*
X740750D01*
X740000Y169250D02*
Y170750D01*
X744250Y160000D02*
X745750D01*
X745000Y159250D02*
Y160750D01*
X739250Y150000D02*
X740750D01*
X740000Y149250D02*
Y150750D01*
X744250Y140000D02*
X745750D01*
X745000Y139250D02*
Y140750D01*
X739250Y130000D02*
X740750D01*
X740000Y129250D02*
Y130750D01*
X744250Y120000D02*
X745750D01*
X745000Y119250D02*
Y120750D01*
X739250Y110000D02*
X740750D01*
X740000Y109250D02*
Y110750D01*
X734250Y800000D02*
X735750D01*
X735000Y799250D02*
Y800750D01*
X729250Y790000D02*
X730750D01*
X730000Y789250D02*
Y790750D01*
X734250Y780000D02*
X735750D01*
X735000Y779250D02*
Y780750D01*
X729250Y770000D02*
X730750D01*
X730000Y769250D02*
Y770750D01*
X734250Y760000D02*
X735750D01*
X735000Y759250D02*
Y760750D01*
X729250Y750000D02*
X730750D01*
X730000Y749250D02*
Y750750D01*
X734250Y740000D02*
X735750D01*
X735000Y739250D02*
Y740750D01*
X729250Y730000D02*
X730750D01*
X730000Y729250D02*
Y730750D01*
X734250Y720000D02*
X735750D01*
X735000Y719250D02*
Y720750D01*
X729250Y710000D02*
X730750D01*
X730000Y709250D02*
Y710750D01*
X734250Y700000D02*
X735750D01*
X735000Y699250D02*
Y700750D01*
X729250Y690000D02*
X730750D01*
X730000Y689250D02*
Y690750D01*
X734250Y680000D02*
X735750D01*
X735000Y679250D02*
Y680750D01*
X729250Y670000D02*
X730750D01*
X730000Y669250D02*
Y670750D01*
X734250Y660000D02*
X735750D01*
X735000Y659250D02*
Y660750D01*
X729250Y650000D02*
X730750D01*
X730000Y649250D02*
Y650750D01*
X734250Y640000D02*
X735750D01*
X735000Y639250D02*
Y640750D01*
X729250Y630000D02*
X730750D01*
X730000Y629250D02*
Y630750D01*
X734250Y620000D02*
X735750D01*
X735000Y619250D02*
Y620750D01*
X729250Y610000D02*
X730750D01*
X730000Y609250D02*
Y610750D01*
X734250Y600000D02*
X735750D01*
X735000Y599250D02*
Y600750D01*
X729250Y590000D02*
X730750D01*
X730000Y589250D02*
Y590750D01*
X734250Y580000D02*
X735750D01*
X735000Y579250D02*
Y580750D01*
X729250Y570000D02*
X730750D01*
X730000Y569250D02*
Y570750D01*
X734250Y560000D02*
X735750D01*
X735000Y559250D02*
Y560750D01*
X729250Y550000D02*
X730750D01*
X730000Y549250D02*
Y550750D01*
X734250Y540000D02*
X735750D01*
X735000Y539250D02*
Y540750D01*
X734250Y520000D02*
X735750D01*
X735000Y519250D02*
Y520750D01*
X729250Y510000D02*
X730750D01*
X730000Y509250D02*
Y510750D01*
X734250Y500000D02*
X735750D01*
X735000Y499250D02*
Y500750D01*
X734250Y480000D02*
X735750D01*
X735000Y479250D02*
Y480750D01*
X734250Y460000D02*
X735750D01*
X735000Y459250D02*
Y460750D01*
X734250Y420000D02*
X735750D01*
X735000Y419250D02*
Y420750D01*
X734250Y400000D02*
X735750D01*
X735000Y399250D02*
Y400750D01*
X729250Y390000D02*
X730750D01*
X730000Y389250D02*
Y390750D01*
X734250Y380000D02*
X735750D01*
X735000Y379250D02*
Y380750D01*
X729250Y370000D02*
X730750D01*
X730000Y369250D02*
Y370750D01*
X734250Y360000D02*
X735750D01*
X735000Y359250D02*
Y360750D01*
X734250Y340000D02*
X735750D01*
X735000Y339250D02*
Y340750D01*
X729250Y330000D02*
X730750D01*
X730000Y329250D02*
Y330750D01*
X734250Y320000D02*
X735750D01*
X735000Y319250D02*
Y320750D01*
X729250Y310000D02*
X730750D01*
X730000Y309250D02*
Y310750D01*
X734250Y300000D02*
X735750D01*
X735000Y299250D02*
Y300750D01*
X729250Y290000D02*
X730750D01*
X730000Y289250D02*
Y290750D01*
X734250Y280000D02*
X735750D01*
X735000Y279250D02*
Y280750D01*
X729250Y270000D02*
X730750D01*
X730000Y269250D02*
Y270750D01*
X734250Y260000D02*
X735750D01*
X735000Y259250D02*
Y260750D01*
X729250Y250000D02*
X730750D01*
X730000Y249250D02*
Y250750D01*
X734250Y240000D02*
X735750D01*
X735000Y239250D02*
Y240750D01*
X729250Y230000D02*
X730750D01*
X730000Y229250D02*
Y230750D01*
X734250Y220000D02*
X735750D01*
X735000Y219250D02*
Y220750D01*
X729250Y210000D02*
X730750D01*
X730000Y209250D02*
Y210750D01*
X734250Y200000D02*
X735750D01*
X735000Y199250D02*
Y200750D01*
X729250Y190000D02*
X730750D01*
X730000Y189250D02*
Y190750D01*
X734250Y180000D02*
X735750D01*
X735000Y179250D02*
Y180750D01*
X729250Y170000D02*
X730750D01*
X730000Y169250D02*
Y170750D01*
X734250Y160000D02*
X735750D01*
X735000Y159250D02*
Y160750D01*
X729250Y150000D02*
X730750D01*
X730000Y149250D02*
Y150750D01*
X734250Y140000D02*
X735750D01*
X735000Y139250D02*
Y140750D01*
X729250Y130000D02*
X730750D01*
X730000Y129250D02*
Y130750D01*
X734250Y120000D02*
X735750D01*
X735000Y119250D02*
Y120750D01*
X729250Y110000D02*
X730750D01*
X730000Y109250D02*
Y110750D01*
X724250Y800000D02*
X725750D01*
X725000Y799250D02*
Y800750D01*
X719250Y790000D02*
X720750D01*
X720000Y789250D02*
Y790750D01*
X724250Y780000D02*
X725750D01*
X725000Y779250D02*
Y780750D01*
X719250Y770000D02*
X720750D01*
X720000Y769250D02*
Y770750D01*
X724250Y760000D02*
X725750D01*
X725000Y759250D02*
Y760750D01*
X719250Y750000D02*
X720750D01*
X720000Y749250D02*
Y750750D01*
X724250Y740000D02*
X725750D01*
X725000Y739250D02*
Y740750D01*
X719250Y730000D02*
X720750D01*
X720000Y729250D02*
Y730750D01*
X724250Y720000D02*
X725750D01*
X725000Y719250D02*
Y720750D01*
X719250Y710000D02*
X720750D01*
X720000Y709250D02*
Y710750D01*
X724250Y700000D02*
X725750D01*
X725000Y699250D02*
Y700750D01*
X719250Y690000D02*
X720750D01*
X720000Y689250D02*
Y690750D01*
X724250Y680000D02*
X725750D01*
X725000Y679250D02*
Y680750D01*
X719250Y670000D02*
X720750D01*
X720000Y669250D02*
Y670750D01*
X724250Y660000D02*
X725750D01*
X725000Y659250D02*
Y660750D01*
X719250Y650000D02*
X720750D01*
X720000Y649250D02*
Y650750D01*
X724250Y640000D02*
X725750D01*
X725000Y639250D02*
Y640750D01*
X719250Y630000D02*
X720750D01*
X720000Y629250D02*
Y630750D01*
X724250Y620000D02*
X725750D01*
X725000Y619250D02*
Y620750D01*
X719250Y610000D02*
X720750D01*
X720000Y609250D02*
Y610750D01*
X724250Y600000D02*
X725750D01*
X725000Y599250D02*
Y600750D01*
X719250Y590000D02*
X720750D01*
X720000Y589250D02*
Y590750D01*
X724250Y580000D02*
X725750D01*
X725000Y579250D02*
Y580750D01*
X719250Y570000D02*
X720750D01*
X720000Y569250D02*
Y570750D01*
X724250Y560000D02*
X725750D01*
X725000Y559250D02*
Y560750D01*
X719250Y530000D02*
X720750D01*
X720000Y529250D02*
Y530750D01*
X724250Y520000D02*
X725750D01*
X725000Y519250D02*
Y520750D01*
X719250Y510000D02*
X720750D01*
X720000Y509250D02*
Y510750D01*
X719250Y490000D02*
X720750D01*
X720000Y489250D02*
Y490750D01*
X724250Y400000D02*
X725750D01*
X725000Y399250D02*
Y400750D01*
X724250Y360000D02*
X725750D01*
X725000Y359250D02*
Y360750D01*
X724250Y340000D02*
X725750D01*
X725000Y339250D02*
Y340750D01*
X724250Y320000D02*
X725750D01*
X725000Y319250D02*
Y320750D01*
X724250Y300000D02*
X725750D01*
X725000Y299250D02*
Y300750D01*
X719250Y290000D02*
X720750D01*
X720000Y289250D02*
Y290750D01*
X724250Y280000D02*
X725750D01*
X725000Y279250D02*
Y280750D01*
X719250Y270000D02*
X720750D01*
X720000Y269250D02*
Y270750D01*
X724250Y260000D02*
X725750D01*
X725000Y259250D02*
Y260750D01*
X719250Y250000D02*
X720750D01*
X720000Y249250D02*
Y250750D01*
X724250Y240000D02*
X725750D01*
X725000Y239250D02*
Y240750D01*
X719250Y230000D02*
X720750D01*
X720000Y229250D02*
Y230750D01*
X724250Y220000D02*
X725750D01*
X725000Y219250D02*
Y220750D01*
X719250Y210000D02*
X720750D01*
X720000Y209250D02*
Y210750D01*
X724250Y200000D02*
X725750D01*
X725000Y199250D02*
Y200750D01*
X719250Y190000D02*
X720750D01*
X720000Y189250D02*
Y190750D01*
X724250Y180000D02*
X725750D01*
X725000Y179250D02*
Y180750D01*
X719250Y170000D02*
X720750D01*
X720000Y169250D02*
Y170750D01*
X724250Y160000D02*
X725750D01*
X725000Y159250D02*
Y160750D01*
X719250Y150000D02*
X720750D01*
X720000Y149250D02*
Y150750D01*
X724250Y140000D02*
X725750D01*
X725000Y139250D02*
Y140750D01*
X719250Y130000D02*
X720750D01*
X720000Y129250D02*
Y130750D01*
X724250Y120000D02*
X725750D01*
X725000Y119250D02*
Y120750D01*
X719250Y110000D02*
X720750D01*
X720000Y109250D02*
Y110750D01*
X714250Y800000D02*
X715750D01*
X715000Y799250D02*
Y800750D01*
X709250Y790000D02*
X710750D01*
X710000Y789250D02*
Y790750D01*
X714250Y780000D02*
X715750D01*
X715000Y779250D02*
Y780750D01*
X709250Y770000D02*
X710750D01*
X710000Y769250D02*
Y770750D01*
X709250Y750000D02*
X710750D01*
X710000Y749250D02*
Y750750D01*
X714250Y740000D02*
X715750D01*
X715000Y739250D02*
Y740750D01*
X709250Y710000D02*
X710750D01*
X710000Y709250D02*
Y710750D01*
X714250Y700000D02*
X715750D01*
X715000Y699250D02*
Y700750D01*
X714250Y680000D02*
X715750D01*
X715000Y679250D02*
Y680750D01*
X714250Y660000D02*
X715750D01*
X715000Y659250D02*
Y660750D01*
X714250Y640000D02*
X715750D01*
X715000Y639250D02*
Y640750D01*
X714250Y620000D02*
X715750D01*
X715000Y619250D02*
Y620750D01*
X709250Y610000D02*
X710750D01*
X710000Y609250D02*
Y610750D01*
X709250Y590000D02*
X710750D01*
X710000Y589250D02*
Y590750D01*
X714250Y580000D02*
X715750D01*
X715000Y579250D02*
Y580750D01*
X709250Y570000D02*
X710750D01*
X710000Y569250D02*
Y570750D01*
X714250Y560000D02*
X715750D01*
X715000Y559250D02*
Y560750D01*
X714250Y540000D02*
X715750D01*
X715000Y539250D02*
Y540750D01*
X709250Y530000D02*
X710750D01*
X710000Y529250D02*
Y530750D01*
X714250Y520000D02*
X715750D01*
X715000Y519250D02*
Y520750D01*
X709250Y510000D02*
X710750D01*
X710000Y509250D02*
Y510750D01*
X709250Y490000D02*
X710750D01*
X710000Y489250D02*
Y490750D01*
X714250Y480000D02*
X715750D01*
X715000Y479250D02*
Y480750D01*
X709250Y470000D02*
X710750D01*
X710000Y469250D02*
Y470750D01*
X709250Y330000D02*
X710750D01*
X710000Y329250D02*
Y330750D01*
X709250Y310000D02*
X710750D01*
X710000Y309250D02*
Y310750D01*
X714250Y280000D02*
X715750D01*
X715000Y279250D02*
Y280750D01*
X714250Y260000D02*
X715750D01*
X715000Y259250D02*
Y260750D01*
X714250Y240000D02*
X715750D01*
X715000Y239250D02*
Y240750D01*
X714250Y220000D02*
X715750D01*
X715000Y219250D02*
Y220750D01*
X709250Y210000D02*
X710750D01*
X710000Y209250D02*
Y210750D01*
X714250Y200000D02*
X715750D01*
X715000Y199250D02*
Y200750D01*
X709250Y190000D02*
X710750D01*
X710000Y189250D02*
Y190750D01*
X714250Y180000D02*
X715750D01*
X715000Y179250D02*
Y180750D01*
X709250Y170000D02*
X710750D01*
X710000Y169250D02*
Y170750D01*
X714250Y160000D02*
X715750D01*
X715000Y159250D02*
Y160750D01*
X709250Y150000D02*
X710750D01*
X710000Y149250D02*
Y150750D01*
X714250Y140000D02*
X715750D01*
X715000Y139250D02*
Y140750D01*
X709250Y130000D02*
X710750D01*
X710000Y129250D02*
Y130750D01*
X714250Y120000D02*
X715750D01*
X715000Y119250D02*
Y120750D01*
X709250Y110000D02*
X710750D01*
X710000Y109250D02*
Y110750D01*
X704250Y800000D02*
X705750D01*
X705000Y799250D02*
Y800750D01*
X699250Y790000D02*
X700750D01*
X700000Y789250D02*
Y790750D01*
X704250Y780000D02*
X705750D01*
X705000Y779250D02*
Y780750D01*
X699250Y770000D02*
X700750D01*
X700000Y769250D02*
Y770750D01*
X699250Y750000D02*
X700750D01*
X700000Y749250D02*
Y750750D01*
X704250Y740000D02*
X705750D01*
X705000Y739250D02*
Y740750D01*
X699250Y730000D02*
X700750D01*
X700000Y729250D02*
Y730750D01*
X699250Y710000D02*
X700750D01*
X700000Y709250D02*
Y710750D01*
X704250Y700000D02*
X705750D01*
X705000Y699250D02*
Y700750D01*
X699250Y690000D02*
X700750D01*
X700000Y689250D02*
Y690750D01*
X704250Y680000D02*
X705750D01*
X705000Y679250D02*
Y680750D01*
X699250Y670000D02*
X700750D01*
X700000Y669250D02*
Y670750D01*
X704250Y660000D02*
X705750D01*
X705000Y659250D02*
Y660750D01*
X699250Y650000D02*
X700750D01*
X700000Y649250D02*
Y650750D01*
X699250Y630000D02*
X700750D01*
X700000Y629250D02*
Y630750D01*
X704250Y620000D02*
X705750D01*
X705000Y619250D02*
Y620750D01*
X699250Y610000D02*
X700750D01*
X700000Y609250D02*
Y610750D01*
X699250Y590000D02*
X700750D01*
X700000Y589250D02*
Y590750D01*
X704250Y580000D02*
X705750D01*
X705000Y579250D02*
Y580750D01*
X699250Y550000D02*
X700750D01*
X700000Y549250D02*
Y550750D01*
X704250Y540000D02*
X705750D01*
X705000Y539250D02*
Y540750D01*
X699250Y530000D02*
X700750D01*
X700000Y529250D02*
Y530750D01*
X704250Y520000D02*
X705750D01*
X705000Y519250D02*
Y520750D01*
X699250Y510000D02*
X700750D01*
X700000Y509250D02*
Y510750D01*
X704250Y480000D02*
X705750D01*
X705000Y479250D02*
Y480750D01*
X699250Y390000D02*
X700750D01*
X700000Y389250D02*
Y390750D01*
X704250Y340000D02*
X705750D01*
X705000Y339250D02*
Y340750D01*
X699250Y330000D02*
X700750D01*
X700000Y329250D02*
Y330750D01*
X704250Y320000D02*
X705750D01*
X705000Y319250D02*
Y320750D01*
X699250Y310000D02*
X700750D01*
X700000Y309250D02*
Y310750D01*
X704250Y260000D02*
X705750D01*
X705000Y259250D02*
Y260750D01*
X704250Y240000D02*
X705750D01*
X705000Y239250D02*
Y240750D01*
X704250Y220000D02*
X705750D01*
X705000Y219250D02*
Y220750D01*
X704250Y200000D02*
X705750D01*
X705000Y199250D02*
Y200750D01*
X699250Y190000D02*
X700750D01*
X700000Y189250D02*
Y190750D01*
X704250Y180000D02*
X705750D01*
X705000Y179250D02*
Y180750D01*
X699250Y170000D02*
X700750D01*
X700000Y169250D02*
Y170750D01*
X704250Y160000D02*
X705750D01*
X705000Y159250D02*
Y160750D01*
X699250Y150000D02*
X700750D01*
X700000Y149250D02*
Y150750D01*
X704250Y140000D02*
X705750D01*
X705000Y139250D02*
Y140750D01*
X699250Y130000D02*
X700750D01*
X700000Y129250D02*
Y130750D01*
X704250Y120000D02*
X705750D01*
X705000Y119250D02*
Y120750D01*
X699250Y110000D02*
X700750D01*
X700000Y109250D02*
Y110750D01*
X694250Y800000D02*
X695750D01*
X695000Y799250D02*
Y800750D01*
X689250Y790000D02*
X690750D01*
X690000Y789250D02*
Y790750D01*
X694250Y780000D02*
X695750D01*
X695000Y779250D02*
Y780750D01*
X689250Y770000D02*
X690750D01*
X690000Y769250D02*
Y770750D01*
X694250Y740000D02*
X695750D01*
X695000Y739250D02*
Y740750D01*
X694250Y700000D02*
X695750D01*
X695000Y699250D02*
Y700750D01*
X694250Y680000D02*
X695750D01*
X695000Y679250D02*
Y680750D01*
X694250Y640000D02*
X695750D01*
X695000Y639250D02*
Y640750D01*
X694250Y620000D02*
X695750D01*
X695000Y619250D02*
Y620750D01*
X689250Y590000D02*
X690750D01*
X690000Y589250D02*
Y590750D01*
X694250Y580000D02*
X695750D01*
X695000Y579250D02*
Y580750D01*
X694250Y560000D02*
X695750D01*
X695000Y559250D02*
Y560750D01*
X689250Y550000D02*
X690750D01*
X690000Y549250D02*
Y550750D01*
X694250Y540000D02*
X695750D01*
X695000Y539250D02*
Y540750D01*
X689250Y530000D02*
X690750D01*
X690000Y529250D02*
Y530750D01*
X694250Y520000D02*
X695750D01*
X695000Y519250D02*
Y520750D01*
X689250Y510000D02*
X690750D01*
X690000Y509250D02*
Y510750D01*
X694250Y400000D02*
X695750D01*
X695000Y399250D02*
Y400750D01*
X694250Y280000D02*
X695750D01*
X695000Y279250D02*
Y280750D01*
X689250Y270000D02*
X690750D01*
X690000Y269250D02*
Y270750D01*
X694250Y260000D02*
X695750D01*
X695000Y259250D02*
Y260750D01*
X689250Y250000D02*
X690750D01*
X690000Y249250D02*
Y250750D01*
X689250Y230000D02*
X690750D01*
X690000Y229250D02*
Y230750D01*
X694250Y200000D02*
X695750D01*
X695000Y199250D02*
Y200750D01*
X689250Y190000D02*
X690750D01*
X690000Y189250D02*
Y190750D01*
X694250Y180000D02*
X695750D01*
X695000Y179250D02*
Y180750D01*
X689250Y170000D02*
X690750D01*
X690000Y169250D02*
Y170750D01*
X694250Y160000D02*
X695750D01*
X695000Y159250D02*
Y160750D01*
X689250Y150000D02*
X690750D01*
X690000Y149250D02*
Y150750D01*
X694250Y140000D02*
X695750D01*
X695000Y139250D02*
Y140750D01*
X689250Y130000D02*
X690750D01*
X690000Y129250D02*
Y130750D01*
X694250Y120000D02*
X695750D01*
X695000Y119250D02*
Y120750D01*
X689250Y110000D02*
X690750D01*
X690000Y109250D02*
Y110750D01*
X684250Y800000D02*
X685750D01*
X685000Y799250D02*
Y800750D01*
X679250Y790000D02*
X680750D01*
X680000Y789250D02*
Y790750D01*
X684250Y780000D02*
X685750D01*
X685000Y779250D02*
Y780750D01*
X679250Y770000D02*
X680750D01*
X680000Y769250D02*
Y770750D01*
X679250Y750000D02*
X680750D01*
X680000Y749250D02*
Y750750D01*
X679250Y730000D02*
X680750D01*
X680000Y729250D02*
Y730750D01*
X679250Y690000D02*
X680750D01*
X680000Y689250D02*
Y690750D01*
X684250Y680000D02*
X685750D01*
X685000Y679250D02*
Y680750D01*
X679250Y670000D02*
X680750D01*
X680000Y669250D02*
Y670750D01*
X679250Y650000D02*
X680750D01*
X680000Y649250D02*
Y650750D01*
X679250Y630000D02*
X680750D01*
X680000Y629250D02*
Y630750D01*
X679250Y610000D02*
X680750D01*
X680000Y609250D02*
Y610750D01*
X684250Y580000D02*
X685750D01*
X685000Y579250D02*
Y580750D01*
X684250Y560000D02*
X685750D01*
X685000Y559250D02*
Y560750D01*
X684250Y540000D02*
X685750D01*
X685000Y539250D02*
Y540750D01*
X684250Y520000D02*
X685750D01*
X685000Y519250D02*
Y520750D01*
X684250Y480000D02*
X685750D01*
X685000Y479250D02*
Y480750D01*
X684250Y340000D02*
X685750D01*
X685000Y339250D02*
Y340750D01*
X679250Y330000D02*
X680750D01*
X680000Y329250D02*
Y330750D01*
X684250Y320000D02*
X685750D01*
X685000Y319250D02*
Y320750D01*
X679250Y310000D02*
X680750D01*
X680000Y309250D02*
Y310750D01*
X684250Y300000D02*
X685750D01*
X685000Y299250D02*
Y300750D01*
X684250Y260000D02*
X685750D01*
X685000Y259250D02*
Y260750D01*
X684250Y220000D02*
X685750D01*
X685000Y219250D02*
Y220750D01*
X684250Y200000D02*
X685750D01*
X685000Y199250D02*
Y200750D01*
X679250Y190000D02*
X680750D01*
X680000Y189250D02*
Y190750D01*
X684250Y180000D02*
X685750D01*
X685000Y179250D02*
Y180750D01*
X679250Y170000D02*
X680750D01*
X680000Y169250D02*
Y170750D01*
X684250Y160000D02*
X685750D01*
X685000Y159250D02*
Y160750D01*
X679250Y150000D02*
X680750D01*
X680000Y149250D02*
Y150750D01*
X684250Y140000D02*
X685750D01*
X685000Y139250D02*
Y140750D01*
X679250Y130000D02*
X680750D01*
X680000Y129250D02*
Y130750D01*
X684250Y120000D02*
X685750D01*
X685000Y119250D02*
Y120750D01*
X679250Y110000D02*
X680750D01*
X680000Y109250D02*
Y110750D01*
X674250Y800000D02*
X675750D01*
X675000Y799250D02*
Y800750D01*
X669250Y790000D02*
X670750D01*
X670000Y789250D02*
Y790750D01*
X674250Y780000D02*
X675750D01*
X675000Y779250D02*
Y780750D01*
X669250Y770000D02*
X670750D01*
X670000Y769250D02*
Y770750D01*
X674250Y740000D02*
X675750D01*
X675000Y739250D02*
Y740750D01*
X674250Y700000D02*
X675750D01*
X675000Y699250D02*
Y700750D01*
X674250Y680000D02*
X675750D01*
X675000Y679250D02*
Y680750D01*
X674250Y640000D02*
X675750D01*
X675000Y639250D02*
Y640750D01*
X669250Y610000D02*
X670750D01*
X670000Y609250D02*
Y610750D01*
X669250Y590000D02*
X670750D01*
X670000Y589250D02*
Y590750D01*
X669250Y530000D02*
X670750D01*
X670000Y529250D02*
Y530750D01*
X669250Y510000D02*
X670750D01*
X670000Y509250D02*
Y510750D01*
X669250Y450000D02*
X670750D01*
X670000Y449250D02*
Y450750D01*
X674250Y360000D02*
X675750D01*
X675000Y359250D02*
Y360750D01*
X674250Y340000D02*
X675750D01*
X675000Y339250D02*
Y340750D01*
X674250Y320000D02*
X675750D01*
X675000Y319250D02*
Y320750D01*
X674250Y280000D02*
X675750D01*
X675000Y279250D02*
Y280750D01*
X674250Y260000D02*
X675750D01*
X675000Y259250D02*
Y260750D01*
X674250Y200000D02*
X675750D01*
X675000Y199250D02*
Y200750D01*
X669250Y190000D02*
X670750D01*
X670000Y189250D02*
Y190750D01*
X674250Y180000D02*
X675750D01*
X675000Y179250D02*
Y180750D01*
X669250Y170000D02*
X670750D01*
X670000Y169250D02*
Y170750D01*
X674250Y160000D02*
X675750D01*
X675000Y159250D02*
Y160750D01*
X669250Y150000D02*
X670750D01*
X670000Y149250D02*
Y150750D01*
X674250Y140000D02*
X675750D01*
X675000Y139250D02*
Y140750D01*
X669250Y130000D02*
X670750D01*
X670000Y129250D02*
Y130750D01*
X674250Y120000D02*
X675750D01*
X675000Y119250D02*
Y120750D01*
X669250Y110000D02*
X670750D01*
X670000Y109250D02*
Y110750D01*
X664250Y800000D02*
X665750D01*
X665000Y799250D02*
Y800750D01*
X659250Y790000D02*
X660750D01*
X660000Y789250D02*
Y790750D01*
X664250Y780000D02*
X665750D01*
X665000Y779250D02*
Y780750D01*
X659250Y770000D02*
X660750D01*
X660000Y769250D02*
Y770750D01*
X664250Y740000D02*
X665750D01*
X665000Y739250D02*
Y740750D01*
X659250Y730000D02*
X660750D01*
X660000Y729250D02*
Y730750D01*
X664250Y700000D02*
X665750D01*
X665000Y699250D02*
Y700750D01*
X659250Y690000D02*
X660750D01*
X660000Y689250D02*
Y690750D01*
X659250Y670000D02*
X660750D01*
X660000Y669250D02*
Y670750D01*
X659250Y650000D02*
X660750D01*
X660000Y649250D02*
Y650750D01*
X659250Y630000D02*
X660750D01*
X660000Y629250D02*
Y630750D01*
X659250Y610000D02*
X660750D01*
X660000Y609250D02*
Y610750D01*
X659250Y590000D02*
X660750D01*
X660000Y589250D02*
Y590750D01*
X664250Y580000D02*
X665750D01*
X665000Y579250D02*
Y580750D01*
X664250Y540000D02*
X665750D01*
X665000Y539250D02*
Y540750D01*
X659250Y530000D02*
X660750D01*
X660000Y529250D02*
Y530750D01*
X664250Y520000D02*
X665750D01*
X665000Y519250D02*
Y520750D01*
X659250Y510000D02*
X660750D01*
X660000Y509250D02*
Y510750D01*
X664250Y480000D02*
X665750D01*
X665000Y479250D02*
Y480750D01*
X659250Y450000D02*
X660750D01*
X660000Y449250D02*
Y450750D01*
X659250Y430000D02*
X660750D01*
X660000Y429250D02*
Y430750D01*
X659250Y350000D02*
X660750D01*
X660000Y349250D02*
Y350750D01*
X659250Y330000D02*
X660750D01*
X660000Y329250D02*
Y330750D01*
X659250Y310000D02*
X660750D01*
X660000Y309250D02*
Y310750D01*
X664250Y260000D02*
X665750D01*
X665000Y259250D02*
Y260750D01*
X664250Y220000D02*
X665750D01*
X665000Y219250D02*
Y220750D01*
X664250Y200000D02*
X665750D01*
X665000Y199250D02*
Y200750D01*
X659250Y190000D02*
X660750D01*
X660000Y189250D02*
Y190750D01*
X664250Y180000D02*
X665750D01*
X665000Y179250D02*
Y180750D01*
X659250Y170000D02*
X660750D01*
X660000Y169250D02*
Y170750D01*
X664250Y160000D02*
X665750D01*
X665000Y159250D02*
Y160750D01*
X659250Y150000D02*
X660750D01*
X660000Y149250D02*
Y150750D01*
X664250Y140000D02*
X665750D01*
X665000Y139250D02*
Y140750D01*
X659250Y130000D02*
X660750D01*
X660000Y129250D02*
Y130750D01*
X664250Y120000D02*
X665750D01*
X665000Y119250D02*
Y120750D01*
X659250Y110000D02*
X660750D01*
X660000Y109250D02*
Y110750D01*
X654250Y800000D02*
X655750D01*
X655000Y799250D02*
Y800750D01*
X649250Y790000D02*
X650750D01*
X650000Y789250D02*
Y790750D01*
X654250Y780000D02*
X655750D01*
X655000Y779250D02*
Y780750D01*
X649250Y770000D02*
X650750D01*
X650000Y769250D02*
Y770750D01*
X654250Y760000D02*
X655750D01*
X655000Y759250D02*
Y760750D01*
X654250Y740000D02*
X655750D01*
X655000Y739250D02*
Y740750D01*
X649250Y730000D02*
X650750D01*
X650000Y729250D02*
Y730750D01*
X654250Y700000D02*
X655750D01*
X655000Y699250D02*
Y700750D01*
X649250Y630000D02*
X650750D01*
X650000Y629250D02*
Y630750D01*
X654250Y600000D02*
X655750D01*
X655000Y599250D02*
Y600750D01*
X654250Y580000D02*
X655750D01*
X655000Y579250D02*
Y580750D01*
X654250Y520000D02*
X655750D01*
X655000Y519250D02*
Y520750D01*
X654250Y400000D02*
X655750D01*
X655000Y399250D02*
Y400750D01*
X649250Y390000D02*
X650750D01*
X650000Y389250D02*
Y390750D01*
X654250Y340000D02*
X655750D01*
X655000Y339250D02*
Y340750D01*
X649250Y330000D02*
X650750D01*
X650000Y329250D02*
Y330750D01*
X654250Y320000D02*
X655750D01*
X655000Y319250D02*
Y320750D01*
X649250Y310000D02*
X650750D01*
X650000Y309250D02*
Y310750D01*
X654250Y280000D02*
X655750D01*
X655000Y279250D02*
Y280750D01*
X649250Y270000D02*
X650750D01*
X650000Y269250D02*
Y270750D01*
X654250Y260000D02*
X655750D01*
X655000Y259250D02*
Y260750D01*
X649250Y250000D02*
X650750D01*
X650000Y249250D02*
Y250750D01*
X654250Y220000D02*
X655750D01*
X655000Y219250D02*
Y220750D01*
X654250Y200000D02*
X655750D01*
X655000Y199250D02*
Y200750D01*
X649250Y190000D02*
X650750D01*
X650000Y189250D02*
Y190750D01*
X654250Y180000D02*
X655750D01*
X655000Y179250D02*
Y180750D01*
X649250Y170000D02*
X650750D01*
X650000Y169250D02*
Y170750D01*
X654250Y160000D02*
X655750D01*
X655000Y159250D02*
Y160750D01*
X649250Y150000D02*
X650750D01*
X650000Y149250D02*
Y150750D01*
X654250Y140000D02*
X655750D01*
X655000Y139250D02*
Y140750D01*
X649250Y130000D02*
X650750D01*
X650000Y129250D02*
Y130750D01*
X654250Y120000D02*
X655750D01*
X655000Y119250D02*
Y120750D01*
X649250Y110000D02*
X650750D01*
X650000Y109250D02*
Y110750D01*
X644250Y800000D02*
X645750D01*
X645000Y799250D02*
Y800750D01*
X639250Y790000D02*
X640750D01*
X640000Y789250D02*
Y790750D01*
X644250Y780000D02*
X645750D01*
X645000Y779250D02*
Y780750D01*
X639250Y770000D02*
X640750D01*
X640000Y769250D02*
Y770750D01*
X639250Y610000D02*
X640750D01*
X640000Y609250D02*
Y610750D01*
X639250Y570000D02*
X640750D01*
X640000Y569250D02*
Y570750D01*
X644250Y560000D02*
X645750D01*
X645000Y559250D02*
Y560750D01*
X639250Y550000D02*
X640750D01*
X640000Y549250D02*
Y550750D01*
X639250Y510000D02*
X640750D01*
X640000Y509250D02*
Y510750D01*
X639250Y450000D02*
X640750D01*
X640000Y449250D02*
Y450750D01*
X644250Y260000D02*
X645750D01*
X645000Y259250D02*
Y260750D01*
X639250Y250000D02*
X640750D01*
X640000Y249250D02*
Y250750D01*
X644250Y220000D02*
X645750D01*
X645000Y219250D02*
Y220750D01*
X644250Y200000D02*
X645750D01*
X645000Y199250D02*
Y200750D01*
X639250Y190000D02*
X640750D01*
X640000Y189250D02*
Y190750D01*
X644250Y180000D02*
X645750D01*
X645000Y179250D02*
Y180750D01*
X639250Y170000D02*
X640750D01*
X640000Y169250D02*
Y170750D01*
X644250Y160000D02*
X645750D01*
X645000Y159250D02*
Y160750D01*
X639250Y150000D02*
X640750D01*
X640000Y149250D02*
Y150750D01*
X644250Y140000D02*
X645750D01*
X645000Y139250D02*
Y140750D01*
X639250Y130000D02*
X640750D01*
X640000Y129250D02*
Y130750D01*
X644250Y120000D02*
X645750D01*
X645000Y119250D02*
Y120750D01*
X639250Y110000D02*
X640750D01*
X640000Y109250D02*
Y110750D01*
X634250Y800000D02*
X635750D01*
X635000Y799250D02*
Y800750D01*
X629250Y790000D02*
X630750D01*
X630000Y789250D02*
Y790750D01*
X634250Y780000D02*
X635750D01*
X635000Y779250D02*
Y780750D01*
X634250Y700000D02*
X635750D01*
X635000Y699250D02*
Y700750D01*
X634250Y580000D02*
X635750D01*
X635000Y579250D02*
Y580750D01*
X629250Y570000D02*
X630750D01*
X630000Y569250D02*
Y570750D01*
X634250Y560000D02*
X635750D01*
X635000Y559250D02*
Y560750D01*
X629250Y550000D02*
X630750D01*
X630000Y549250D02*
Y550750D01*
X634250Y540000D02*
X635750D01*
X635000Y539250D02*
Y540750D01*
X634250Y520000D02*
X635750D01*
X635000Y519250D02*
Y520750D01*
X634250Y460000D02*
X635750D01*
X635000Y459250D02*
Y460750D01*
X629250Y370000D02*
X630750D01*
X630000Y369250D02*
Y370750D01*
X629250Y350000D02*
X630750D01*
X630000Y349250D02*
Y350750D01*
X634250Y340000D02*
X635750D01*
X635000Y339250D02*
Y340750D01*
X629250Y330000D02*
X630750D01*
X630000Y329250D02*
Y330750D01*
X634250Y320000D02*
X635750D01*
X635000Y319250D02*
Y320750D01*
X629250Y290000D02*
X630750D01*
X630000Y289250D02*
Y290750D01*
X634250Y280000D02*
X635750D01*
X635000Y279250D02*
Y280750D01*
X634250Y260000D02*
X635750D01*
X635000Y259250D02*
Y260750D01*
X634250Y220000D02*
X635750D01*
X635000Y219250D02*
Y220750D01*
X634250Y200000D02*
X635750D01*
X635000Y199250D02*
Y200750D01*
X629250Y190000D02*
X630750D01*
X630000Y189250D02*
Y190750D01*
X634250Y180000D02*
X635750D01*
X635000Y179250D02*
Y180750D01*
X629250Y170000D02*
X630750D01*
X630000Y169250D02*
Y170750D01*
X634250Y160000D02*
X635750D01*
X635000Y159250D02*
Y160750D01*
X629250Y150000D02*
X630750D01*
X630000Y149250D02*
Y150750D01*
X634250Y140000D02*
X635750D01*
X635000Y139250D02*
Y140750D01*
X629250Y130000D02*
X630750D01*
X630000Y129250D02*
Y130750D01*
X634250Y120000D02*
X635750D01*
X635000Y119250D02*
Y120750D01*
X629250Y110000D02*
X630750D01*
X630000Y109250D02*
Y110750D01*
X624250Y800000D02*
X625750D01*
X625000Y799250D02*
Y800750D01*
X619250Y790000D02*
X620750D01*
X620000Y789250D02*
Y790750D01*
X624250Y780000D02*
X625750D01*
X625000Y779250D02*
Y780750D01*
X619250Y650000D02*
X620750D01*
X620000Y649250D02*
Y650750D01*
X624250Y580000D02*
X625750D01*
X625000Y579250D02*
Y580750D01*
X624250Y560000D02*
X625750D01*
X625000Y559250D02*
Y560750D01*
X624250Y540000D02*
X625750D01*
X625000Y539250D02*
Y540750D01*
X619250Y450000D02*
X620750D01*
X620000Y449250D02*
Y450750D01*
X619250Y430000D02*
X620750D01*
X620000Y429250D02*
Y430750D01*
X624250Y400000D02*
X625750D01*
X625000Y399250D02*
Y400750D01*
X619250Y390000D02*
X620750D01*
X620000Y389250D02*
Y390750D01*
X624250Y360000D02*
X625750D01*
X625000Y359250D02*
Y360750D01*
X624250Y340000D02*
X625750D01*
X625000Y339250D02*
Y340750D01*
X619250Y310000D02*
X620750D01*
X620000Y309250D02*
Y310750D01*
X624250Y300000D02*
X625750D01*
X625000Y299250D02*
Y300750D01*
X619250Y290000D02*
X620750D01*
X620000Y289250D02*
Y290750D01*
X624250Y280000D02*
X625750D01*
X625000Y279250D02*
Y280750D01*
X624250Y220000D02*
X625750D01*
X625000Y219250D02*
Y220750D01*
X624250Y200000D02*
X625750D01*
X625000Y199250D02*
Y200750D01*
X619250Y190000D02*
X620750D01*
X620000Y189250D02*
Y190750D01*
X624250Y180000D02*
X625750D01*
X625000Y179250D02*
Y180750D01*
X619250Y170000D02*
X620750D01*
X620000Y169250D02*
Y170750D01*
X624250Y160000D02*
X625750D01*
X625000Y159250D02*
Y160750D01*
X619250Y150000D02*
X620750D01*
X620000Y149250D02*
Y150750D01*
X624250Y140000D02*
X625750D01*
X625000Y139250D02*
Y140750D01*
X619250Y130000D02*
X620750D01*
X620000Y129250D02*
Y130750D01*
X624250Y120000D02*
X625750D01*
X625000Y119250D02*
Y120750D01*
X619250Y110000D02*
X620750D01*
X620000Y109250D02*
Y110750D01*
X614250Y800000D02*
X615750D01*
X615000Y799250D02*
Y800750D01*
X609250Y790000D02*
X610750D01*
X610000Y789250D02*
Y790750D01*
X614250Y780000D02*
X615750D01*
X615000Y779250D02*
Y780750D01*
X614250Y740000D02*
X615750D01*
X615000Y739250D02*
Y740750D01*
X609250Y730000D02*
X610750D01*
X610000Y729250D02*
Y730750D01*
X609250Y530000D02*
X610750D01*
X610000Y529250D02*
Y530750D01*
X609250Y510000D02*
X610750D01*
X610000Y509250D02*
Y510750D01*
X609250Y450000D02*
X610750D01*
X610000Y449250D02*
Y450750D01*
X614250Y440000D02*
X615750D01*
X615000Y439250D02*
Y440750D01*
X614250Y400000D02*
X615750D01*
X615000Y399250D02*
Y400750D01*
X614250Y360000D02*
X615750D01*
X615000Y359250D02*
Y360750D01*
X614250Y340000D02*
X615750D01*
X615000Y339250D02*
Y340750D01*
X609250Y330000D02*
X610750D01*
X610000Y329250D02*
Y330750D01*
X609250Y190000D02*
X610750D01*
X610000Y189250D02*
Y190750D01*
X614250Y180000D02*
X615750D01*
X615000Y179250D02*
Y180750D01*
X609250Y170000D02*
X610750D01*
X610000Y169250D02*
Y170750D01*
X614250Y160000D02*
X615750D01*
X615000Y159250D02*
Y160750D01*
X609250Y150000D02*
X610750D01*
X610000Y149250D02*
Y150750D01*
X614250Y140000D02*
X615750D01*
X615000Y139250D02*
Y140750D01*
X609250Y130000D02*
X610750D01*
X610000Y129250D02*
Y130750D01*
X614250Y120000D02*
X615750D01*
X615000Y119250D02*
Y120750D01*
X609250Y110000D02*
X610750D01*
X610000Y109250D02*
Y110750D01*
X604250Y800000D02*
X605750D01*
X605000Y799250D02*
Y800750D01*
X599250Y790000D02*
X600750D01*
X600000Y789250D02*
Y790750D01*
X604250Y780000D02*
X605750D01*
X605000Y779250D02*
Y780750D01*
X604250Y760000D02*
X605750D01*
X605000Y759250D02*
Y760750D01*
X604250Y740000D02*
X605750D01*
X605000Y739250D02*
Y740750D01*
X599250Y650000D02*
X600750D01*
X600000Y649250D02*
Y650750D01*
X604250Y560000D02*
X605750D01*
X605000Y559250D02*
Y560750D01*
X604250Y540000D02*
X605750D01*
X605000Y539250D02*
Y540750D01*
X604250Y520000D02*
X605750D01*
X605000Y519250D02*
Y520750D01*
X599250Y450000D02*
X600750D01*
X600000Y449250D02*
Y450750D01*
X599250Y370000D02*
X600750D01*
X600000Y369250D02*
Y370750D01*
X599250Y330000D02*
X600750D01*
X600000Y329250D02*
Y330750D01*
X599250Y210000D02*
X600750D01*
X600000Y209250D02*
Y210750D01*
X604250Y200000D02*
X605750D01*
X605000Y199250D02*
Y200750D01*
X599250Y190000D02*
X600750D01*
X600000Y189250D02*
Y190750D01*
X604250Y180000D02*
X605750D01*
X605000Y179250D02*
Y180750D01*
X599250Y170000D02*
X600750D01*
X600000Y169250D02*
Y170750D01*
X604250Y160000D02*
X605750D01*
X605000Y159250D02*
Y160750D01*
X599250Y150000D02*
X600750D01*
X600000Y149250D02*
Y150750D01*
X604250Y140000D02*
X605750D01*
X605000Y139250D02*
Y140750D01*
X599250Y130000D02*
X600750D01*
X600000Y129250D02*
Y130750D01*
X604250Y120000D02*
X605750D01*
X605000Y119250D02*
Y120750D01*
X599250Y110000D02*
X600750D01*
X600000Y109250D02*
Y110750D01*
X594250Y800000D02*
X595750D01*
X595000Y799250D02*
Y800750D01*
X589250Y790000D02*
X590750D01*
X590000Y789250D02*
Y790750D01*
X594250Y780000D02*
X595750D01*
X595000Y779250D02*
Y780750D01*
X594250Y740000D02*
X595750D01*
X595000Y739250D02*
Y740750D01*
X589250Y730000D02*
X590750D01*
X590000Y729250D02*
Y730750D01*
X589250Y690000D02*
X590750D01*
X590000Y689250D02*
Y690750D01*
X589250Y550000D02*
X590750D01*
X590000Y549250D02*
Y550750D01*
X589250Y530000D02*
X590750D01*
X590000Y529250D02*
Y530750D01*
X589250Y510000D02*
X590750D01*
X590000Y509250D02*
Y510750D01*
X589250Y470000D02*
X590750D01*
X590000Y469250D02*
Y470750D01*
X594250Y460000D02*
X595750D01*
X595000Y459250D02*
Y460750D01*
X589250Y450000D02*
X590750D01*
X590000Y449250D02*
Y450750D01*
X594250Y440000D02*
X595750D01*
X595000Y439250D02*
Y440750D01*
X589250Y430000D02*
X590750D01*
X590000Y429250D02*
Y430750D01*
X594250Y420000D02*
X595750D01*
X595000Y419250D02*
Y420750D01*
X589250Y410000D02*
X590750D01*
X590000Y409250D02*
Y410750D01*
X594250Y400000D02*
X595750D01*
X595000Y399250D02*
Y400750D01*
X594250Y380000D02*
X595750D01*
X595000Y379250D02*
Y380750D01*
X589250Y370000D02*
X590750D01*
X590000Y369250D02*
Y370750D01*
X594250Y360000D02*
X595750D01*
X595000Y359250D02*
Y360750D01*
X589250Y350000D02*
X590750D01*
X590000Y349250D02*
Y350750D01*
X594250Y340000D02*
X595750D01*
X595000Y339250D02*
Y340750D01*
X589250Y330000D02*
X590750D01*
X590000Y329250D02*
Y330750D01*
X594250Y240000D02*
X595750D01*
X595000Y239250D02*
Y240750D01*
X594250Y220000D02*
X595750D01*
X595000Y219250D02*
Y220750D01*
X589250Y210000D02*
X590750D01*
X590000Y209250D02*
Y210750D01*
X594250Y200000D02*
X595750D01*
X595000Y199250D02*
Y200750D01*
X589250Y190000D02*
X590750D01*
X590000Y189250D02*
Y190750D01*
X594250Y180000D02*
X595750D01*
X595000Y179250D02*
Y180750D01*
X589250Y170000D02*
X590750D01*
X590000Y169250D02*
Y170750D01*
X594250Y160000D02*
X595750D01*
X595000Y159250D02*
Y160750D01*
X589250Y150000D02*
X590750D01*
X590000Y149250D02*
Y150750D01*
X594250Y140000D02*
X595750D01*
X595000Y139250D02*
Y140750D01*
X589250Y130000D02*
X590750D01*
X590000Y129250D02*
Y130750D01*
X594250Y120000D02*
X595750D01*
X595000Y119250D02*
Y120750D01*
X589250Y110000D02*
X590750D01*
X590000Y109250D02*
Y110750D01*
X584250Y800000D02*
X585750D01*
X585000Y799250D02*
Y800750D01*
X579250Y790000D02*
X580750D01*
X580000Y789250D02*
Y790750D01*
X584250Y780000D02*
X585750D01*
X585000Y779250D02*
Y780750D01*
X584250Y740000D02*
X585750D01*
X585000Y739250D02*
Y740750D01*
X579250Y710000D02*
X580750D01*
X580000Y709250D02*
Y710750D01*
X579250Y650000D02*
X580750D01*
X580000Y649250D02*
Y650750D01*
X584250Y540000D02*
X585750D01*
X585000Y539250D02*
Y540750D01*
X579250Y530000D02*
X580750D01*
X580000Y529250D02*
Y530750D01*
X584250Y520000D02*
X585750D01*
X585000Y519250D02*
Y520750D01*
X579250Y510000D02*
X580750D01*
X580000Y509250D02*
Y510750D01*
X584250Y500000D02*
X585750D01*
X585000Y499250D02*
Y500750D01*
X579250Y470000D02*
X580750D01*
X580000Y469250D02*
Y470750D01*
X584250Y460000D02*
X585750D01*
X585000Y459250D02*
Y460750D01*
X579250Y450000D02*
X580750D01*
X580000Y449250D02*
Y450750D01*
X584250Y440000D02*
X585750D01*
X585000Y439250D02*
Y440750D01*
X579250Y430000D02*
X580750D01*
X580000Y429250D02*
Y430750D01*
X584250Y420000D02*
X585750D01*
X585000Y419250D02*
Y420750D01*
X579250Y410000D02*
X580750D01*
X580000Y409250D02*
Y410750D01*
X584250Y400000D02*
X585750D01*
X585000Y399250D02*
Y400750D01*
X579250Y390000D02*
X580750D01*
X580000Y389250D02*
Y390750D01*
X584250Y340000D02*
X585750D01*
X585000Y339250D02*
Y340750D01*
X584250Y300000D02*
X585750D01*
X585000Y299250D02*
Y300750D01*
X579250Y210000D02*
X580750D01*
X580000Y209250D02*
Y210750D01*
X584250Y200000D02*
X585750D01*
X585000Y199250D02*
Y200750D01*
X579250Y190000D02*
X580750D01*
X580000Y189250D02*
Y190750D01*
X584250Y180000D02*
X585750D01*
X585000Y179250D02*
Y180750D01*
X584250Y160000D02*
X585750D01*
X585000Y159250D02*
Y160750D01*
X579250Y150000D02*
X580750D01*
X580000Y149250D02*
Y150750D01*
X584250Y140000D02*
X585750D01*
X585000Y139250D02*
Y140750D01*
X579250Y130000D02*
X580750D01*
X580000Y129250D02*
Y130750D01*
X584250Y120000D02*
X585750D01*
X585000Y119250D02*
Y120750D01*
X579250Y110000D02*
X580750D01*
X580000Y109250D02*
Y110750D01*
X574250Y800000D02*
X575750D01*
X575000Y799250D02*
Y800750D01*
X569250Y790000D02*
X570750D01*
X570000Y789250D02*
Y790750D01*
X574250Y780000D02*
X575750D01*
X575000Y779250D02*
Y780750D01*
X569250Y470000D02*
X570750D01*
X570000Y469250D02*
Y470750D01*
X574250Y460000D02*
X575750D01*
X575000Y459250D02*
Y460750D01*
X569250Y450000D02*
X570750D01*
X570000Y449250D02*
Y450750D01*
X574250Y440000D02*
X575750D01*
X575000Y439250D02*
Y440750D01*
X569250Y430000D02*
X570750D01*
X570000Y429250D02*
Y430750D01*
X574250Y420000D02*
X575750D01*
X575000Y419250D02*
Y420750D01*
X569250Y410000D02*
X570750D01*
X570000Y409250D02*
Y410750D01*
X574250Y400000D02*
X575750D01*
X575000Y399250D02*
Y400750D01*
X569250Y390000D02*
X570750D01*
X570000Y389250D02*
Y390750D01*
X574250Y380000D02*
X575750D01*
X575000Y379250D02*
Y380750D01*
X569250Y370000D02*
X570750D01*
X570000Y369250D02*
Y370750D01*
X569250Y350000D02*
X570750D01*
X570000Y349250D02*
Y350750D01*
X569250Y330000D02*
X570750D01*
X570000Y329250D02*
Y330750D01*
X569250Y290000D02*
X570750D01*
X570000Y289250D02*
Y290750D01*
X574250Y260000D02*
X575750D01*
X575000Y259250D02*
Y260750D01*
X574250Y240000D02*
X575750D01*
X575000Y239250D02*
Y240750D01*
X574250Y160000D02*
X575750D01*
X575000Y159250D02*
Y160750D01*
X569250Y150000D02*
X570750D01*
X570000Y149250D02*
Y150750D01*
X574250Y140000D02*
X575750D01*
X575000Y139250D02*
Y140750D01*
X569250Y130000D02*
X570750D01*
X570000Y129250D02*
Y130750D01*
X574250Y120000D02*
X575750D01*
X575000Y119250D02*
Y120750D01*
X569250Y110000D02*
X570750D01*
X570000Y109250D02*
Y110750D01*
X564250Y800000D02*
X565750D01*
X565000Y799250D02*
Y800750D01*
X559250Y790000D02*
X560750D01*
X560000Y789250D02*
Y790750D01*
X564250Y780000D02*
X565750D01*
X565000Y779250D02*
Y780750D01*
X559250Y730000D02*
X560750D01*
X560000Y729250D02*
Y730750D01*
X559250Y690000D02*
X560750D01*
X560000Y689250D02*
Y690750D01*
X559250Y470000D02*
X560750D01*
X560000Y469250D02*
Y470750D01*
X564250Y460000D02*
X565750D01*
X565000Y459250D02*
Y460750D01*
X559250Y450000D02*
X560750D01*
X560000Y449250D02*
Y450750D01*
X564250Y440000D02*
X565750D01*
X565000Y439250D02*
Y440750D01*
X559250Y430000D02*
X560750D01*
X560000Y429250D02*
Y430750D01*
X564250Y420000D02*
X565750D01*
X565000Y419250D02*
Y420750D01*
X559250Y410000D02*
X560750D01*
X560000Y409250D02*
Y410750D01*
X564250Y400000D02*
X565750D01*
X565000Y399250D02*
Y400750D01*
X559250Y390000D02*
X560750D01*
X560000Y389250D02*
Y390750D01*
X564250Y380000D02*
X565750D01*
X565000Y379250D02*
Y380750D01*
X559250Y370000D02*
X560750D01*
X560000Y369250D02*
Y370750D01*
X559250Y350000D02*
X560750D01*
X560000Y349250D02*
Y350750D01*
X564250Y340000D02*
X565750D01*
X565000Y339250D02*
Y340750D01*
X559250Y330000D02*
X560750D01*
X560000Y329250D02*
Y330750D01*
X564250Y300000D02*
X565750D01*
X565000Y299250D02*
Y300750D01*
X559250Y290000D02*
X560750D01*
X560000Y289250D02*
Y290750D01*
X564250Y260000D02*
X565750D01*
X565000Y259250D02*
Y260750D01*
X559250Y230000D02*
X560750D01*
X560000Y229250D02*
Y230750D01*
X559250Y170000D02*
X560750D01*
X560000Y169250D02*
Y170750D01*
X564250Y160000D02*
X565750D01*
X565000Y159250D02*
Y160750D01*
X559250Y150000D02*
X560750D01*
X560000Y149250D02*
Y150750D01*
X564250Y140000D02*
X565750D01*
X565000Y139250D02*
Y140750D01*
X559250Y130000D02*
X560750D01*
X560000Y129250D02*
Y130750D01*
X564250Y120000D02*
X565750D01*
X565000Y119250D02*
Y120750D01*
X559250Y110000D02*
X560750D01*
X560000Y109250D02*
Y110750D01*
X554250Y800000D02*
X555750D01*
X555000Y799250D02*
Y800750D01*
X549250Y790000D02*
X550750D01*
X550000Y789250D02*
Y790750D01*
X554250Y780000D02*
X555750D01*
X555000Y779250D02*
Y780750D01*
X554250Y640000D02*
X555750D01*
X555000Y639250D02*
Y640750D01*
X554250Y600000D02*
X555750D01*
X555000Y599250D02*
Y600750D01*
X554250Y540000D02*
X555750D01*
X555000Y539250D02*
Y540750D01*
X549250Y530000D02*
X550750D01*
X550000Y529250D02*
Y530750D01*
X554250Y520000D02*
X555750D01*
X555000Y519250D02*
Y520750D01*
X549250Y510000D02*
X550750D01*
X550000Y509250D02*
Y510750D01*
X554250Y500000D02*
X555750D01*
X555000Y499250D02*
Y500750D01*
X549250Y490000D02*
X550750D01*
X550000Y489250D02*
Y490750D01*
X554250Y440000D02*
X555750D01*
X555000Y439250D02*
Y440750D01*
X549250Y430000D02*
X550750D01*
X550000Y429250D02*
Y430750D01*
X549250Y330000D02*
X550750D01*
X550000Y329250D02*
Y330750D01*
X554250Y300000D02*
X555750D01*
X555000Y299250D02*
Y300750D01*
X554250Y160000D02*
X555750D01*
X555000Y159250D02*
Y160750D01*
X549250Y150000D02*
X550750D01*
X550000Y149250D02*
Y150750D01*
X554250Y140000D02*
X555750D01*
X555000Y139250D02*
Y140750D01*
X549250Y130000D02*
X550750D01*
X550000Y129250D02*
Y130750D01*
X554250Y120000D02*
X555750D01*
X555000Y119250D02*
Y120750D01*
X549250Y110000D02*
X550750D01*
X550000Y109250D02*
Y110750D01*
X544250Y800000D02*
X545750D01*
X545000Y799250D02*
Y800750D01*
X539250Y790000D02*
X540750D01*
X540000Y789250D02*
Y790750D01*
X544250Y780000D02*
X545750D01*
X545000Y779250D02*
Y780750D01*
X539250Y770000D02*
X540750D01*
X540000Y769250D02*
Y770750D01*
X539250Y730000D02*
X540750D01*
X540000Y729250D02*
Y730750D01*
X539250Y710000D02*
X540750D01*
X540000Y709250D02*
Y710750D01*
X544250Y680000D02*
X545750D01*
X545000Y679250D02*
Y680750D01*
X539250Y670000D02*
X540750D01*
X540000Y669250D02*
Y670750D01*
X539250Y630000D02*
X540750D01*
X540000Y629250D02*
Y630750D01*
X544250Y620000D02*
X545750D01*
X545000Y619250D02*
Y620750D01*
X539250Y530000D02*
X540750D01*
X540000Y529250D02*
Y530750D01*
X544250Y520000D02*
X545750D01*
X545000Y519250D02*
Y520750D01*
X539250Y510000D02*
X540750D01*
X540000Y509250D02*
Y510750D01*
X544250Y460000D02*
X545750D01*
X545000Y459250D02*
Y460750D01*
X544250Y440000D02*
X545750D01*
X545000Y439250D02*
Y440750D01*
X544250Y380000D02*
X545750D01*
X545000Y379250D02*
Y380750D01*
X544250Y340000D02*
X545750D01*
X545000Y339250D02*
Y340750D01*
X544250Y300000D02*
X545750D01*
X545000Y299250D02*
Y300750D01*
X544250Y280000D02*
X545750D01*
X545000Y279250D02*
Y280750D01*
X544250Y260000D02*
X545750D01*
X545000Y259250D02*
Y260750D01*
X544250Y160000D02*
X545750D01*
X545000Y159250D02*
Y160750D01*
X539250Y150000D02*
X540750D01*
X540000Y149250D02*
Y150750D01*
X544250Y140000D02*
X545750D01*
X545000Y139250D02*
Y140750D01*
X539250Y130000D02*
X540750D01*
X540000Y129250D02*
Y130750D01*
X544250Y120000D02*
X545750D01*
X545000Y119250D02*
Y120750D01*
X539250Y110000D02*
X540750D01*
X540000Y109250D02*
Y110750D01*
X534250Y800000D02*
X535750D01*
X535000Y799250D02*
Y800750D01*
X529250Y790000D02*
X530750D01*
X530000Y789250D02*
Y790750D01*
X534250Y780000D02*
X535750D01*
X535000Y779250D02*
Y780750D01*
X529250Y770000D02*
X530750D01*
X530000Y769250D02*
Y770750D01*
X534250Y760000D02*
X535750D01*
X535000Y759250D02*
Y760750D01*
X529250Y730000D02*
X530750D01*
X530000Y729250D02*
Y730750D01*
X534250Y720000D02*
X535750D01*
X535000Y719250D02*
Y720750D01*
X529250Y710000D02*
X530750D01*
X530000Y709250D02*
Y710750D01*
X534250Y680000D02*
X535750D01*
X535000Y679250D02*
Y680750D01*
X529250Y670000D02*
X530750D01*
X530000Y669250D02*
Y670750D01*
X534250Y640000D02*
X535750D01*
X535000Y639250D02*
Y640750D01*
X529250Y630000D02*
X530750D01*
X530000Y629250D02*
Y630750D01*
X534250Y620000D02*
X535750D01*
X535000Y619250D02*
Y620750D01*
X534250Y540000D02*
X535750D01*
X535000Y539250D02*
Y540750D01*
X529250Y530000D02*
X530750D01*
X530000Y529250D02*
Y530750D01*
X534250Y520000D02*
X535750D01*
X535000Y519250D02*
Y520750D01*
X529250Y510000D02*
X530750D01*
X530000Y509250D02*
Y510750D01*
X534250Y500000D02*
X535750D01*
X535000Y499250D02*
Y500750D01*
X529250Y470000D02*
X530750D01*
X530000Y469250D02*
Y470750D01*
X529250Y450000D02*
X530750D01*
X530000Y449250D02*
Y450750D01*
X529250Y430000D02*
X530750D01*
X530000Y429250D02*
Y430750D01*
X534250Y300000D02*
X535750D01*
X535000Y299250D02*
Y300750D01*
X534250Y200000D02*
X535750D01*
X535000Y199250D02*
Y200750D01*
X534250Y160000D02*
X535750D01*
X535000Y159250D02*
Y160750D01*
X529250Y150000D02*
X530750D01*
X530000Y149250D02*
Y150750D01*
X534250Y140000D02*
X535750D01*
X535000Y139250D02*
Y140750D01*
X529250Y130000D02*
X530750D01*
X530000Y129250D02*
Y130750D01*
X534250Y120000D02*
X535750D01*
X535000Y119250D02*
Y120750D01*
X529250Y110000D02*
X530750D01*
X530000Y109250D02*
Y110750D01*
X524250Y800000D02*
X525750D01*
X525000Y799250D02*
Y800750D01*
X519250Y790000D02*
X520750D01*
X520000Y789250D02*
Y790750D01*
X524250Y780000D02*
X525750D01*
X525000Y779250D02*
Y780750D01*
X519250Y770000D02*
X520750D01*
X520000Y769250D02*
Y770750D01*
X519250Y710000D02*
X520750D01*
X520000Y709250D02*
Y710750D01*
X524250Y680000D02*
X525750D01*
X525000Y679250D02*
Y680750D01*
X524250Y620000D02*
X525750D01*
X525000Y619250D02*
Y620750D01*
X524250Y540000D02*
X525750D01*
X525000Y539250D02*
Y540750D01*
X519250Y530000D02*
X520750D01*
X520000Y529250D02*
Y530750D01*
X524250Y520000D02*
X525750D01*
X525000Y519250D02*
Y520750D01*
X519250Y510000D02*
X520750D01*
X520000Y509250D02*
Y510750D01*
X524250Y500000D02*
X525750D01*
X525000Y499250D02*
Y500750D01*
X519250Y470000D02*
X520750D01*
X520000Y469250D02*
Y470750D01*
X524250Y460000D02*
X525750D01*
X525000Y459250D02*
Y460750D01*
X524250Y440000D02*
X525750D01*
X525000Y439250D02*
Y440750D01*
X524250Y420000D02*
X525750D01*
X525000Y419250D02*
Y420750D01*
X519250Y370000D02*
X520750D01*
X520000Y369250D02*
Y370750D01*
X519250Y350000D02*
X520750D01*
X520000Y349250D02*
Y350750D01*
X524250Y300000D02*
X525750D01*
X525000Y299250D02*
Y300750D01*
X519250Y230000D02*
X520750D01*
X520000Y229250D02*
Y230750D01*
X524250Y160000D02*
X525750D01*
X525000Y159250D02*
Y160750D01*
X519250Y150000D02*
X520750D01*
X520000Y149250D02*
Y150750D01*
X524250Y140000D02*
X525750D01*
X525000Y139250D02*
Y140750D01*
X519250Y130000D02*
X520750D01*
X520000Y129250D02*
Y130750D01*
X524250Y120000D02*
X525750D01*
X525000Y119250D02*
Y120750D01*
X519250Y110000D02*
X520750D01*
X520000Y109250D02*
Y110750D01*
X514250Y800000D02*
X515750D01*
X515000Y799250D02*
Y800750D01*
X509250Y790000D02*
X510750D01*
X510000Y789250D02*
Y790750D01*
X514250Y780000D02*
X515750D01*
X515000Y779250D02*
Y780750D01*
X509250Y770000D02*
X510750D01*
X510000Y769250D02*
Y770750D01*
X514250Y760000D02*
X515750D01*
X515000Y759250D02*
Y760750D01*
X509250Y730000D02*
X510750D01*
X510000Y729250D02*
Y730750D01*
X514250Y720000D02*
X515750D01*
X515000Y719250D02*
Y720750D01*
X509250Y710000D02*
X510750D01*
X510000Y709250D02*
Y710750D01*
X514250Y680000D02*
X515750D01*
X515000Y679250D02*
Y680750D01*
X509250Y670000D02*
X510750D01*
X510000Y669250D02*
Y670750D01*
X514250Y640000D02*
X515750D01*
X515000Y639250D02*
Y640750D01*
X509250Y630000D02*
X510750D01*
X510000Y629250D02*
Y630750D01*
X514250Y620000D02*
X515750D01*
X515000Y619250D02*
Y620750D01*
X509250Y570000D02*
X510750D01*
X510000Y569250D02*
Y570750D01*
X509250Y550000D02*
X510750D01*
X510000Y549250D02*
Y550750D01*
X514250Y540000D02*
X515750D01*
X515000Y539250D02*
Y540750D01*
X509250Y530000D02*
X510750D01*
X510000Y529250D02*
Y530750D01*
X514250Y520000D02*
X515750D01*
X515000Y519250D02*
Y520750D01*
X514250Y460000D02*
X515750D01*
X515000Y459250D02*
Y460750D01*
X514250Y440000D02*
X515750D01*
X515000Y439250D02*
Y440750D01*
X514250Y320000D02*
X515750D01*
X515000Y319250D02*
Y320750D01*
X514250Y300000D02*
X515750D01*
X515000Y299250D02*
Y300750D01*
X514250Y160000D02*
X515750D01*
X515000Y159250D02*
Y160750D01*
X509250Y150000D02*
X510750D01*
X510000Y149250D02*
Y150750D01*
X514250Y140000D02*
X515750D01*
X515000Y139250D02*
Y140750D01*
X509250Y130000D02*
X510750D01*
X510000Y129250D02*
Y130750D01*
X514250Y120000D02*
X515750D01*
X515000Y119250D02*
Y120750D01*
X509250Y110000D02*
X510750D01*
X510000Y109250D02*
Y110750D01*
X504250Y800000D02*
X505750D01*
X505000Y799250D02*
Y800750D01*
X499250Y790000D02*
X500750D01*
X500000Y789250D02*
Y790750D01*
X504250Y780000D02*
X505750D01*
X505000Y779250D02*
Y780750D01*
X504250Y680000D02*
X505750D01*
X505000Y679250D02*
Y680750D01*
X504250Y620000D02*
X505750D01*
X505000Y619250D02*
Y620750D01*
X499250Y570000D02*
X500750D01*
X500000Y569250D02*
Y570750D01*
X504250Y560000D02*
X505750D01*
X505000Y559250D02*
Y560750D01*
X499250Y550000D02*
X500750D01*
X500000Y549250D02*
Y550750D01*
X504250Y540000D02*
X505750D01*
X505000Y539250D02*
Y540750D01*
X499250Y530000D02*
X500750D01*
X500000Y529250D02*
Y530750D01*
X504250Y520000D02*
X505750D01*
X505000Y519250D02*
Y520750D01*
X499250Y490000D02*
X500750D01*
X500000Y489250D02*
Y490750D01*
X504250Y300000D02*
X505750D01*
X505000Y299250D02*
Y300750D01*
X504250Y280000D02*
X505750D01*
X505000Y279250D02*
Y280750D01*
X504250Y160000D02*
X505750D01*
X505000Y159250D02*
Y160750D01*
X499250Y150000D02*
X500750D01*
X500000Y149250D02*
Y150750D01*
X504250Y140000D02*
X505750D01*
X505000Y139250D02*
Y140750D01*
X499250Y130000D02*
X500750D01*
X500000Y129250D02*
Y130750D01*
X504250Y120000D02*
X505750D01*
X505000Y119250D02*
Y120750D01*
X499250Y110000D02*
X500750D01*
X500000Y109250D02*
Y110750D01*
X494250Y800000D02*
X495750D01*
X495000Y799250D02*
Y800750D01*
X489250Y790000D02*
X490750D01*
X490000Y789250D02*
Y790750D01*
X494250Y780000D02*
X495750D01*
X495000Y779250D02*
Y780750D01*
X494250Y760000D02*
X495750D01*
X495000Y759250D02*
Y760750D01*
X489250Y730000D02*
X490750D01*
X490000Y729250D02*
Y730750D01*
X494250Y700000D02*
X495750D01*
X495000Y699250D02*
Y700750D01*
X489250Y630000D02*
X490750D01*
X490000Y629250D02*
Y630750D01*
X489250Y610000D02*
X490750D01*
X490000Y609250D02*
Y610750D01*
X489250Y570000D02*
X490750D01*
X490000Y569250D02*
Y570750D01*
X494250Y560000D02*
X495750D01*
X495000Y559250D02*
Y560750D01*
X489250Y550000D02*
X490750D01*
X490000Y549250D02*
Y550750D01*
X494250Y540000D02*
X495750D01*
X495000Y539250D02*
Y540750D01*
X489250Y530000D02*
X490750D01*
X490000Y529250D02*
Y530750D01*
X494250Y520000D02*
X495750D01*
X495000Y519250D02*
Y520750D01*
X489250Y470000D02*
X490750D01*
X490000Y469250D02*
Y470750D01*
X489250Y450000D02*
X490750D01*
X490000Y449250D02*
Y450750D01*
X494250Y440000D02*
X495750D01*
X495000Y439250D02*
Y440750D01*
X489250Y430000D02*
X490750D01*
X490000Y429250D02*
Y430750D01*
X494250Y380000D02*
X495750D01*
X495000Y379250D02*
Y380750D01*
X494250Y320000D02*
X495750D01*
X495000Y319250D02*
Y320750D01*
X494250Y300000D02*
X495750D01*
X495000Y299250D02*
Y300750D01*
X494250Y160000D02*
X495750D01*
X495000Y159250D02*
Y160750D01*
X489250Y150000D02*
X490750D01*
X490000Y149250D02*
Y150750D01*
X494250Y140000D02*
X495750D01*
X495000Y139250D02*
Y140750D01*
X489250Y130000D02*
X490750D01*
X490000Y129250D02*
Y130750D01*
X494250Y120000D02*
X495750D01*
X495000Y119250D02*
Y120750D01*
X489250Y110000D02*
X490750D01*
X490000Y109250D02*
Y110750D01*
X484250Y800000D02*
X485750D01*
X485000Y799250D02*
Y800750D01*
X479250Y790000D02*
X480750D01*
X480000Y789250D02*
Y790750D01*
X484250Y780000D02*
X485750D01*
X485000Y779250D02*
Y780750D01*
X484250Y700000D02*
X485750D01*
X485000Y699250D02*
Y700750D01*
X484250Y660000D02*
X485750D01*
X485000Y659250D02*
Y660750D01*
X479250Y570000D02*
X480750D01*
X480000Y569250D02*
Y570750D01*
X484250Y560000D02*
X485750D01*
X485000Y559250D02*
Y560750D01*
X479250Y550000D02*
X480750D01*
X480000Y549250D02*
Y550750D01*
X484250Y540000D02*
X485750D01*
X485000Y539250D02*
Y540750D01*
X479250Y530000D02*
X480750D01*
X480000Y529250D02*
Y530750D01*
X484250Y520000D02*
X485750D01*
X485000Y519250D02*
Y520750D01*
X484250Y500000D02*
X485750D01*
X485000Y499250D02*
Y500750D01*
X479250Y470000D02*
X480750D01*
X480000Y469250D02*
Y470750D01*
X484250Y440000D02*
X485750D01*
X485000Y439250D02*
Y440750D01*
X484250Y320000D02*
X485750D01*
X485000Y319250D02*
Y320750D01*
X484250Y300000D02*
X485750D01*
X485000Y299250D02*
Y300750D01*
X484250Y260000D02*
X485750D01*
X485000Y259250D02*
Y260750D01*
X484250Y220000D02*
X485750D01*
X485000Y219250D02*
Y220750D01*
X484250Y200000D02*
X485750D01*
X485000Y199250D02*
Y200750D01*
X479250Y190000D02*
X480750D01*
X480000Y189250D02*
Y190750D01*
X479250Y170000D02*
X480750D01*
X480000Y169250D02*
Y170750D01*
X484250Y160000D02*
X485750D01*
X485000Y159250D02*
Y160750D01*
X479250Y150000D02*
X480750D01*
X480000Y149250D02*
Y150750D01*
X484250Y140000D02*
X485750D01*
X485000Y139250D02*
Y140750D01*
X479250Y130000D02*
X480750D01*
X480000Y129250D02*
Y130750D01*
X484250Y120000D02*
X485750D01*
X485000Y119250D02*
Y120750D01*
X479250Y110000D02*
X480750D01*
X480000Y109250D02*
Y110750D01*
X474250Y800000D02*
X475750D01*
X475000Y799250D02*
Y800750D01*
X469250Y790000D02*
X470750D01*
X470000Y789250D02*
Y790750D01*
X474250Y780000D02*
X475750D01*
X475000Y779250D02*
Y780750D01*
X469250Y570000D02*
X470750D01*
X470000Y569250D02*
Y570750D01*
X474250Y560000D02*
X475750D01*
X475000Y559250D02*
Y560750D01*
X474250Y540000D02*
X475750D01*
X475000Y539250D02*
Y540750D01*
X474250Y520000D02*
X475750D01*
X475000Y519250D02*
Y520750D01*
X469250Y310000D02*
X470750D01*
X470000Y309250D02*
Y310750D01*
X474250Y300000D02*
X475750D01*
X475000Y299250D02*
Y300750D01*
X464250Y800000D02*
X465750D01*
X465000Y799250D02*
Y800750D01*
X459250Y790000D02*
X460750D01*
X460000Y789250D02*
Y790750D01*
X464250Y780000D02*
X465750D01*
X465000Y779250D02*
Y780750D01*
X464250Y600000D02*
X465750D01*
X465000Y599250D02*
Y600750D01*
X459250Y550000D02*
X460750D01*
X460000Y549250D02*
Y550750D01*
X459250Y530000D02*
X460750D01*
X460000Y529250D02*
Y530750D01*
X459250Y510000D02*
X460750D01*
X460000Y509250D02*
Y510750D01*
X464250Y480000D02*
X465750D01*
X465000Y479250D02*
Y480750D01*
X464250Y440000D02*
X465750D01*
X465000Y439250D02*
Y440750D01*
X459250Y430000D02*
X460750D01*
X460000Y429250D02*
Y430750D01*
X459250Y370000D02*
X460750D01*
X460000Y369250D02*
Y370750D01*
X464250Y320000D02*
X465750D01*
X465000Y319250D02*
Y320750D01*
X459250Y310000D02*
X460750D01*
X460000Y309250D02*
Y310750D01*
X464250Y300000D02*
X465750D01*
X465000Y299250D02*
Y300750D01*
X459250Y270000D02*
X460750D01*
X460000Y269250D02*
Y270750D01*
X459250Y230000D02*
X460750D01*
X460000Y229250D02*
Y230750D01*
X454250Y800000D02*
X455750D01*
X455000Y799250D02*
Y800750D01*
X449250Y790000D02*
X450750D01*
X450000Y789250D02*
Y790750D01*
X454250Y780000D02*
X455750D01*
X455000Y779250D02*
Y780750D01*
X449250Y770000D02*
X450750D01*
X450000Y769250D02*
Y770750D01*
X449250Y750000D02*
X450750D01*
X450000Y749250D02*
Y750750D01*
X449250Y710000D02*
X450750D01*
X450000Y709250D02*
Y710750D01*
X454250Y680000D02*
X455750D01*
X455000Y679250D02*
Y680750D01*
X449250Y650000D02*
X450750D01*
X450000Y649250D02*
Y650750D01*
X449250Y610000D02*
X450750D01*
X450000Y609250D02*
Y610750D01*
X449250Y570000D02*
X450750D01*
X450000Y569250D02*
Y570750D01*
X454250Y560000D02*
X455750D01*
X455000Y559250D02*
Y560750D01*
X449250Y550000D02*
X450750D01*
X450000Y549250D02*
Y550750D01*
X454250Y540000D02*
X455750D01*
X455000Y539250D02*
Y540750D01*
X449250Y530000D02*
X450750D01*
X450000Y529250D02*
Y530750D01*
X454250Y520000D02*
X455750D01*
X455000Y519250D02*
Y520750D01*
X449250Y510000D02*
X450750D01*
X450000Y509250D02*
Y510750D01*
X454250Y440000D02*
X455750D01*
X455000Y439250D02*
Y440750D01*
X449250Y430000D02*
X450750D01*
X450000Y429250D02*
Y430750D01*
X454250Y420000D02*
X455750D01*
X455000Y419250D02*
Y420750D01*
X449250Y410000D02*
X450750D01*
X450000Y409250D02*
Y410750D01*
X449250Y390000D02*
X450750D01*
X450000Y389250D02*
Y390750D01*
X454250Y380000D02*
X455750D01*
X455000Y379250D02*
Y380750D01*
X449250Y370000D02*
X450750D01*
X450000Y369250D02*
Y370750D01*
X454250Y320000D02*
X455750D01*
X455000Y319250D02*
Y320750D01*
X449250Y310000D02*
X450750D01*
X450000Y309250D02*
Y310750D01*
X454250Y300000D02*
X455750D01*
X455000Y299250D02*
Y300750D01*
X449250Y290000D02*
X450750D01*
X450000Y289250D02*
Y290750D01*
X454250Y280000D02*
X455750D01*
X455000Y279250D02*
Y280750D01*
X449250Y270000D02*
X450750D01*
X450000Y269250D02*
Y270750D01*
X454250Y260000D02*
X455750D01*
X455000Y259250D02*
Y260750D01*
X449250Y230000D02*
X450750D01*
X450000Y229250D02*
Y230750D01*
X454250Y220000D02*
X455750D01*
X455000Y219250D02*
Y220750D01*
X449250Y210000D02*
X450750D01*
X450000Y209250D02*
Y210750D01*
X454250Y200000D02*
X455750D01*
X455000Y199250D02*
Y200750D01*
X449250Y190000D02*
X450750D01*
X450000Y189250D02*
Y190750D01*
X454250Y180000D02*
X455750D01*
X455000Y179250D02*
Y180750D01*
X449250Y170000D02*
X450750D01*
X450000Y169250D02*
Y170750D01*
X454250Y160000D02*
X455750D01*
X455000Y159250D02*
Y160750D01*
X449250Y150000D02*
X450750D01*
X450000Y149250D02*
Y150750D01*
X454250Y140000D02*
X455750D01*
X455000Y139250D02*
Y140750D01*
X449250Y130000D02*
X450750D01*
X450000Y129250D02*
Y130750D01*
X444250Y800000D02*
X445750D01*
X445000Y799250D02*
Y800750D01*
X439250Y790000D02*
X440750D01*
X440000Y789250D02*
Y790750D01*
X444250Y780000D02*
X445750D01*
X445000Y779250D02*
Y780750D01*
X439250Y770000D02*
X440750D01*
X440000Y769250D02*
Y770750D01*
X439250Y750000D02*
X440750D01*
X440000Y749250D02*
Y750750D01*
X444250Y740000D02*
X445750D01*
X445000Y739250D02*
Y740750D01*
X439250Y710000D02*
X440750D01*
X440000Y709250D02*
Y710750D01*
X439250Y690000D02*
X440750D01*
X440000Y689250D02*
Y690750D01*
X444250Y680000D02*
X445750D01*
X445000Y679250D02*
Y680750D01*
X444250Y620000D02*
X445750D01*
X445000Y619250D02*
Y620750D01*
X439250Y570000D02*
X440750D01*
X440000Y569250D02*
Y570750D01*
X444250Y560000D02*
X445750D01*
X445000Y559250D02*
Y560750D01*
X439250Y550000D02*
X440750D01*
X440000Y549250D02*
Y550750D01*
X444250Y540000D02*
X445750D01*
X445000Y539250D02*
Y540750D01*
X439250Y530000D02*
X440750D01*
X440000Y529250D02*
Y530750D01*
X444250Y520000D02*
X445750D01*
X445000Y519250D02*
Y520750D01*
X439250Y510000D02*
X440750D01*
X440000Y509250D02*
Y510750D01*
X444250Y480000D02*
X445750D01*
X445000Y479250D02*
Y480750D01*
X439250Y470000D02*
X440750D01*
X440000Y469250D02*
Y470750D01*
X444250Y460000D02*
X445750D01*
X445000Y459250D02*
Y460750D01*
X439250Y450000D02*
X440750D01*
X440000Y449250D02*
Y450750D01*
X444250Y440000D02*
X445750D01*
X445000Y439250D02*
Y440750D01*
X439250Y430000D02*
X440750D01*
X440000Y429250D02*
Y430750D01*
X444250Y420000D02*
X445750D01*
X445000Y419250D02*
Y420750D01*
X439250Y410000D02*
X440750D01*
X440000Y409250D02*
Y410750D01*
X444250Y400000D02*
X445750D01*
X445000Y399250D02*
Y400750D01*
X439250Y390000D02*
X440750D01*
X440000Y389250D02*
Y390750D01*
X444250Y380000D02*
X445750D01*
X445000Y379250D02*
Y380750D01*
X439250Y370000D02*
X440750D01*
X440000Y369250D02*
Y370750D01*
X444250Y320000D02*
X445750D01*
X445000Y319250D02*
Y320750D01*
X439250Y310000D02*
X440750D01*
X440000Y309250D02*
Y310750D01*
X444250Y300000D02*
X445750D01*
X445000Y299250D02*
Y300750D01*
X439250Y290000D02*
X440750D01*
X440000Y289250D02*
Y290750D01*
X444250Y280000D02*
X445750D01*
X445000Y279250D02*
Y280750D01*
X439250Y270000D02*
X440750D01*
X440000Y269250D02*
Y270750D01*
X444250Y260000D02*
X445750D01*
X445000Y259250D02*
Y260750D01*
X434250Y800000D02*
X435750D01*
X435000Y799250D02*
Y800750D01*
X429250Y790000D02*
X430750D01*
X430000Y789250D02*
Y790750D01*
X434250Y780000D02*
X435750D01*
X435000Y779250D02*
Y780750D01*
X429250Y770000D02*
X430750D01*
X430000Y769250D02*
Y770750D01*
X429250Y750000D02*
X430750D01*
X430000Y749250D02*
Y750750D01*
X434250Y740000D02*
X435750D01*
X435000Y739250D02*
Y740750D01*
X429250Y710000D02*
X430750D01*
X430000Y709250D02*
Y710750D01*
X429250Y690000D02*
X430750D01*
X430000Y689250D02*
Y690750D01*
X434250Y680000D02*
X435750D01*
X435000Y679250D02*
Y680750D01*
X429250Y670000D02*
X430750D01*
X430000Y669250D02*
Y670750D01*
X434250Y660000D02*
X435750D01*
X435000Y659250D02*
Y660750D01*
X429250Y650000D02*
X430750D01*
X430000Y649250D02*
Y650750D01*
X429250Y610000D02*
X430750D01*
X430000Y609250D02*
Y610750D01*
X434250Y600000D02*
X435750D01*
X435000Y599250D02*
Y600750D01*
X429250Y570000D02*
X430750D01*
X430000Y569250D02*
Y570750D01*
X434250Y560000D02*
X435750D01*
X435000Y559250D02*
Y560750D01*
X429250Y550000D02*
X430750D01*
X430000Y549250D02*
Y550750D01*
X434250Y540000D02*
X435750D01*
X435000Y539250D02*
Y540750D01*
X429250Y530000D02*
X430750D01*
X430000Y529250D02*
Y530750D01*
X434250Y520000D02*
X435750D01*
X435000Y519250D02*
Y520750D01*
X429250Y510000D02*
X430750D01*
X430000Y509250D02*
Y510750D01*
X434250Y480000D02*
X435750D01*
X435000Y479250D02*
Y480750D01*
X429250Y470000D02*
X430750D01*
X430000Y469250D02*
Y470750D01*
X434250Y460000D02*
X435750D01*
X435000Y459250D02*
Y460750D01*
X429250Y450000D02*
X430750D01*
X430000Y449250D02*
Y450750D01*
X434250Y440000D02*
X435750D01*
X435000Y439250D02*
Y440750D01*
X429250Y430000D02*
X430750D01*
X430000Y429250D02*
Y430750D01*
X434250Y420000D02*
X435750D01*
X435000Y419250D02*
Y420750D01*
X429250Y410000D02*
X430750D01*
X430000Y409250D02*
Y410750D01*
X434250Y400000D02*
X435750D01*
X435000Y399250D02*
Y400750D01*
X429250Y390000D02*
X430750D01*
X430000Y389250D02*
Y390750D01*
X434250Y380000D02*
X435750D01*
X435000Y379250D02*
Y380750D01*
X429250Y370000D02*
X430750D01*
X430000Y369250D02*
Y370750D01*
X434250Y320000D02*
X435750D01*
X435000Y319250D02*
Y320750D01*
X429250Y310000D02*
X430750D01*
X430000Y309250D02*
Y310750D01*
X434250Y300000D02*
X435750D01*
X435000Y299250D02*
Y300750D01*
X429250Y290000D02*
X430750D01*
X430000Y289250D02*
Y290750D01*
X434250Y280000D02*
X435750D01*
X435000Y279250D02*
Y280750D01*
X429250Y270000D02*
X430750D01*
X430000Y269250D02*
Y270750D01*
X434250Y260000D02*
X435750D01*
X435000Y259250D02*
Y260750D01*
X429250Y250000D02*
X430750D01*
X430000Y249250D02*
Y250750D01*
X424250Y800000D02*
X425750D01*
X425000Y799250D02*
Y800750D01*
X419250Y790000D02*
X420750D01*
X420000Y789250D02*
Y790750D01*
X424250Y780000D02*
X425750D01*
X425000Y779250D02*
Y780750D01*
X419250Y750000D02*
X420750D01*
X420000Y749250D02*
Y750750D01*
X424250Y740000D02*
X425750D01*
X425000Y739250D02*
Y740750D01*
X419250Y710000D02*
X420750D01*
X420000Y709250D02*
Y710750D01*
X419250Y690000D02*
X420750D01*
X420000Y689250D02*
Y690750D01*
X424250Y680000D02*
X425750D01*
X425000Y679250D02*
Y680750D01*
X419250Y670000D02*
X420750D01*
X420000Y669250D02*
Y670750D01*
X424250Y660000D02*
X425750D01*
X425000Y659250D02*
Y660750D01*
X419250Y650000D02*
X420750D01*
X420000Y649250D02*
Y650750D01*
X419250Y610000D02*
X420750D01*
X420000Y609250D02*
Y610750D01*
X424250Y600000D02*
X425750D01*
X425000Y599250D02*
Y600750D01*
X419250Y570000D02*
X420750D01*
X420000Y569250D02*
Y570750D01*
X424250Y560000D02*
X425750D01*
X425000Y559250D02*
Y560750D01*
X419250Y550000D02*
X420750D01*
X420000Y549250D02*
Y550750D01*
X424250Y540000D02*
X425750D01*
X425000Y539250D02*
Y540750D01*
X419250Y530000D02*
X420750D01*
X420000Y529250D02*
Y530750D01*
X424250Y520000D02*
X425750D01*
X425000Y519250D02*
Y520750D01*
X419250Y510000D02*
X420750D01*
X420000Y509250D02*
Y510750D01*
X424250Y480000D02*
X425750D01*
X425000Y479250D02*
Y480750D01*
X419250Y470000D02*
X420750D01*
X420000Y469250D02*
Y470750D01*
X424250Y460000D02*
X425750D01*
X425000Y459250D02*
Y460750D01*
X419250Y450000D02*
X420750D01*
X420000Y449250D02*
Y450750D01*
X424250Y440000D02*
X425750D01*
X425000Y439250D02*
Y440750D01*
X424250Y420000D02*
X425750D01*
X425000Y419250D02*
Y420750D01*
X424250Y400000D02*
X425750D01*
X425000Y399250D02*
Y400750D01*
X424250Y380000D02*
X425750D01*
X425000Y379250D02*
Y380750D01*
X424250Y320000D02*
X425750D01*
X425000Y319250D02*
Y320750D01*
X424250Y300000D02*
X425750D01*
X425000Y299250D02*
Y300750D01*
X424250Y280000D02*
X425750D01*
X425000Y279250D02*
Y280750D01*
X424250Y260000D02*
X425750D01*
X425000Y259250D02*
Y260750D01*
X419250Y250000D02*
X420750D01*
X420000Y249250D02*
Y250750D01*
X419250Y230000D02*
X420750D01*
X420000Y229250D02*
Y230750D01*
X419250Y210000D02*
X420750D01*
X420000Y209250D02*
Y210750D01*
X419250Y170000D02*
X420750D01*
X420000Y169250D02*
Y170750D01*
X419250Y150000D02*
X420750D01*
X420000Y149250D02*
Y150750D01*
X414250Y800000D02*
X415750D01*
X415000Y799250D02*
Y800750D01*
X409250Y790000D02*
X410750D01*
X410000Y789250D02*
Y790750D01*
X414250Y780000D02*
X415750D01*
X415000Y779250D02*
Y780750D01*
X409250Y750000D02*
X410750D01*
X410000Y749250D02*
Y750750D01*
X409250Y710000D02*
X410750D01*
X410000Y709250D02*
Y710750D01*
X414250Y680000D02*
X415750D01*
X415000Y679250D02*
Y680750D01*
X414250Y660000D02*
X415750D01*
X415000Y659250D02*
Y660750D01*
X409250Y570000D02*
X410750D01*
X410000Y569250D02*
Y570750D01*
X414250Y560000D02*
X415750D01*
X415000Y559250D02*
Y560750D01*
X409250Y550000D02*
X410750D01*
X410000Y549250D02*
Y550750D01*
X414250Y540000D02*
X415750D01*
X415000Y539250D02*
Y540750D01*
X414250Y520000D02*
X415750D01*
X415000Y519250D02*
Y520750D01*
X409250Y510000D02*
X410750D01*
X410000Y509250D02*
Y510750D01*
X409250Y450000D02*
X410750D01*
X410000Y449250D02*
Y450750D01*
X414250Y420000D02*
X415750D01*
X415000Y419250D02*
Y420750D01*
X414250Y400000D02*
X415750D01*
X415000Y399250D02*
Y400750D01*
X414250Y380000D02*
X415750D01*
X415000Y379250D02*
Y380750D01*
X409250Y150000D02*
X410750D01*
X410000Y149250D02*
Y150750D01*
X404250Y800000D02*
X405750D01*
X405000Y799250D02*
Y800750D01*
X399250Y790000D02*
X400750D01*
X400000Y789250D02*
Y790750D01*
X404250Y780000D02*
X405750D01*
X405000Y779250D02*
Y780750D01*
X399250Y750000D02*
X400750D01*
X400000Y749250D02*
Y750750D01*
X404250Y740000D02*
X405750D01*
X405000Y739250D02*
Y740750D01*
X399250Y690000D02*
X400750D01*
X400000Y689250D02*
Y690750D01*
X399250Y670000D02*
X400750D01*
X400000Y669250D02*
Y670750D01*
X399250Y650000D02*
X400750D01*
X400000Y649250D02*
Y650750D01*
X399250Y570000D02*
X400750D01*
X400000Y569250D02*
Y570750D01*
X404250Y560000D02*
X405750D01*
X405000Y559250D02*
Y560750D01*
X399250Y550000D02*
X400750D01*
X400000Y549250D02*
Y550750D01*
X404250Y540000D02*
X405750D01*
X405000Y539250D02*
Y540750D01*
X399250Y530000D02*
X400750D01*
X400000Y529250D02*
Y530750D01*
X399250Y510000D02*
X400750D01*
X400000Y509250D02*
Y510750D01*
X404250Y360000D02*
X405750D01*
X405000Y359250D02*
Y360750D01*
X404250Y320000D02*
X405750D01*
X405000Y319250D02*
Y320750D01*
X404250Y300000D02*
X405750D01*
X405000Y299250D02*
Y300750D01*
X404250Y280000D02*
X405750D01*
X405000Y279250D02*
Y280750D01*
X404250Y260000D02*
X405750D01*
X405000Y259250D02*
Y260750D01*
X404250Y180000D02*
X405750D01*
X405000Y179250D02*
Y180750D01*
X399250Y170000D02*
X400750D01*
X400000Y169250D02*
Y170750D01*
X399250Y150000D02*
X400750D01*
X400000Y149250D02*
Y150750D01*
X394250Y800000D02*
X395750D01*
X395000Y799250D02*
Y800750D01*
X389250Y790000D02*
X390750D01*
X390000Y789250D02*
Y790750D01*
X394250Y780000D02*
X395750D01*
X395000Y779250D02*
Y780750D01*
X394250Y740000D02*
X395750D01*
X395000Y739250D02*
Y740750D01*
X394250Y720000D02*
X395750D01*
X395000Y719250D02*
Y720750D01*
X389250Y690000D02*
X390750D01*
X390000Y689250D02*
Y690750D01*
X389250Y670000D02*
X390750D01*
X390000Y669250D02*
Y670750D01*
X389250Y650000D02*
X390750D01*
X390000Y649250D02*
Y650750D01*
X394250Y600000D02*
X395750D01*
X395000Y599250D02*
Y600750D01*
X389250Y570000D02*
X390750D01*
X390000Y569250D02*
Y570750D01*
X394250Y560000D02*
X395750D01*
X395000Y559250D02*
Y560750D01*
X389250Y550000D02*
X390750D01*
X390000Y549250D02*
Y550750D01*
X394250Y540000D02*
X395750D01*
X395000Y539250D02*
Y540750D01*
X389250Y530000D02*
X390750D01*
X390000Y529250D02*
Y530750D01*
X389250Y510000D02*
X390750D01*
X390000Y509250D02*
Y510750D01*
X394250Y480000D02*
X395750D01*
X395000Y479250D02*
Y480750D01*
X394250Y400000D02*
X395750D01*
X395000Y399250D02*
Y400750D01*
X394250Y320000D02*
X395750D01*
X395000Y319250D02*
Y320750D01*
X394250Y300000D02*
X395750D01*
X395000Y299250D02*
Y300750D01*
X394250Y280000D02*
X395750D01*
X395000Y279250D02*
Y280750D01*
X394250Y260000D02*
X395750D01*
X395000Y259250D02*
Y260750D01*
X394250Y240000D02*
X395750D01*
X395000Y239250D02*
Y240750D01*
X384250Y800000D02*
X385750D01*
X385000Y799250D02*
Y800750D01*
X379250Y790000D02*
X380750D01*
X380000Y789250D02*
Y790750D01*
X384250Y780000D02*
X385750D01*
X385000Y779250D02*
Y780750D01*
X379250Y770000D02*
X380750D01*
X380000Y769250D02*
Y770750D01*
X379250Y570000D02*
X380750D01*
X380000Y569250D02*
Y570750D01*
X384250Y560000D02*
X385750D01*
X385000Y559250D02*
Y560750D01*
X384250Y540000D02*
X385750D01*
X385000Y539250D02*
Y540750D01*
X379250Y510000D02*
X380750D01*
X380000Y509250D02*
Y510750D01*
X384250Y380000D02*
X385750D01*
X385000Y379250D02*
Y380750D01*
X384250Y360000D02*
X385750D01*
X385000Y359250D02*
Y360750D01*
X384250Y180000D02*
X385750D01*
X385000Y179250D02*
Y180750D01*
X379250Y170000D02*
X380750D01*
X380000Y169250D02*
Y170750D01*
X379250Y150000D02*
X380750D01*
X380000Y149250D02*
Y150750D01*
X374250Y800000D02*
X375750D01*
X375000Y799250D02*
Y800750D01*
X369250Y790000D02*
X370750D01*
X370000Y789250D02*
Y790750D01*
X374250Y780000D02*
X375750D01*
X375000Y779250D02*
Y780750D01*
X369250Y770000D02*
X370750D01*
X370000Y769250D02*
Y770750D01*
X374250Y720000D02*
X375750D01*
X375000Y719250D02*
Y720750D01*
X369250Y610000D02*
X370750D01*
X370000Y609250D02*
Y610750D01*
X369250Y570000D02*
X370750D01*
X370000Y569250D02*
Y570750D01*
X374250Y560000D02*
X375750D01*
X375000Y559250D02*
Y560750D01*
X374250Y520000D02*
X375750D01*
X375000Y519250D02*
Y520750D01*
X369250Y510000D02*
X370750D01*
X370000Y509250D02*
Y510750D01*
X374250Y320000D02*
X375750D01*
X375000Y319250D02*
Y320750D01*
X369250Y210000D02*
X370750D01*
X370000Y209250D02*
Y210750D01*
X374250Y180000D02*
X375750D01*
X375000Y179250D02*
Y180750D01*
X369250Y170000D02*
X370750D01*
X370000Y169250D02*
Y170750D01*
X369250Y150000D02*
X370750D01*
X370000Y149250D02*
Y150750D01*
X364250Y800000D02*
X365750D01*
X365000Y799250D02*
Y800750D01*
X359250Y790000D02*
X360750D01*
X360000Y789250D02*
Y790750D01*
X364250Y780000D02*
X365750D01*
X365000Y779250D02*
Y780750D01*
X359250Y770000D02*
X360750D01*
X360000Y769250D02*
Y770750D01*
X359250Y710000D02*
X360750D01*
X360000Y709250D02*
Y710750D01*
X359250Y610000D02*
X360750D01*
X360000Y609250D02*
Y610750D01*
X359250Y570000D02*
X360750D01*
X360000Y569250D02*
Y570750D01*
X364250Y560000D02*
X365750D01*
X365000Y559250D02*
Y560750D01*
X364250Y540000D02*
X365750D01*
X365000Y539250D02*
Y540750D01*
X359250Y530000D02*
X360750D01*
X360000Y529250D02*
Y530750D01*
X359250Y470000D02*
X360750D01*
X360000Y469250D02*
Y470750D01*
X364250Y320000D02*
X365750D01*
X365000Y319250D02*
Y320750D01*
X354250Y800000D02*
X355750D01*
X355000Y799250D02*
Y800750D01*
X349250Y790000D02*
X350750D01*
X350000Y789250D02*
Y790750D01*
X354250Y780000D02*
X355750D01*
X355000Y779250D02*
Y780750D01*
X349250Y770000D02*
X350750D01*
X350000Y769250D02*
Y770750D01*
X354250Y720000D02*
X355750D01*
X355000Y719250D02*
Y720750D01*
X349250Y710000D02*
X350750D01*
X350000Y709250D02*
Y710750D01*
X349250Y610000D02*
X350750D01*
X350000Y609250D02*
Y610750D01*
X354250Y600000D02*
X355750D01*
X355000Y599250D02*
Y600750D01*
X349250Y570000D02*
X350750D01*
X350000Y569250D02*
Y570750D01*
X354250Y560000D02*
X355750D01*
X355000Y559250D02*
Y560750D01*
X354250Y540000D02*
X355750D01*
X355000Y539250D02*
Y540750D01*
X349250Y530000D02*
X350750D01*
X350000Y529250D02*
Y530750D01*
X349250Y270000D02*
X350750D01*
X350000Y269250D02*
Y270750D01*
X354250Y180000D02*
X355750D01*
X355000Y179250D02*
Y180750D01*
X349250Y170000D02*
X350750D01*
X350000Y169250D02*
Y170750D01*
X349250Y150000D02*
X350750D01*
X350000Y149250D02*
Y150750D01*
X344250Y800000D02*
X345750D01*
X345000Y799250D02*
Y800750D01*
X339250Y790000D02*
X340750D01*
X340000Y789250D02*
Y790750D01*
X344250Y780000D02*
X345750D01*
X345000Y779250D02*
Y780750D01*
X339250Y770000D02*
X340750D01*
X340000Y769250D02*
Y770750D01*
X339250Y710000D02*
X340750D01*
X340000Y709250D02*
Y710750D01*
X339250Y610000D02*
X340750D01*
X340000Y609250D02*
Y610750D01*
X339250Y570000D02*
X340750D01*
X340000Y569250D02*
Y570750D01*
X344250Y560000D02*
X345750D01*
X345000Y559250D02*
Y560750D01*
X344250Y540000D02*
X345750D01*
X345000Y539250D02*
Y540750D01*
X339250Y470000D02*
X340750D01*
X340000Y469250D02*
Y470750D01*
X344250Y340000D02*
X345750D01*
X345000Y339250D02*
Y340750D01*
X339250Y210000D02*
X340750D01*
X340000Y209250D02*
Y210750D01*
X344250Y180000D02*
X345750D01*
X345000Y179250D02*
Y180750D01*
X339250Y170000D02*
X340750D01*
X340000Y169250D02*
Y170750D01*
X339250Y150000D02*
X340750D01*
X340000Y149250D02*
Y150750D01*
X334250Y800000D02*
X335750D01*
X335000Y799250D02*
Y800750D01*
X329250Y790000D02*
X330750D01*
X330000Y789250D02*
Y790750D01*
X334250Y780000D02*
X335750D01*
X335000Y779250D02*
Y780750D01*
X329250Y770000D02*
X330750D01*
X330000Y769250D02*
Y770750D01*
X329250Y710000D02*
X330750D01*
X330000Y709250D02*
Y710750D01*
X329250Y610000D02*
X330750D01*
X330000Y609250D02*
Y610750D01*
X334250Y600000D02*
X335750D01*
X335000Y599250D02*
Y600750D01*
X329250Y570000D02*
X330750D01*
X330000Y569250D02*
Y570750D01*
X334250Y560000D02*
X335750D01*
X335000Y559250D02*
Y560750D01*
X334250Y520000D02*
X335750D01*
X335000Y519250D02*
Y520750D01*
X334250Y340000D02*
X335750D01*
X335000Y339250D02*
Y340750D01*
X329250Y330000D02*
X330750D01*
X330000Y329250D02*
Y330750D01*
X334250Y320000D02*
X335750D01*
X335000Y319250D02*
Y320750D01*
X329250Y250000D02*
X330750D01*
X330000Y249250D02*
Y250750D01*
X329250Y190000D02*
X330750D01*
X330000Y189250D02*
Y190750D01*
X334250Y180000D02*
X335750D01*
X335000Y179250D02*
Y180750D01*
X329250Y170000D02*
X330750D01*
X330000Y169250D02*
Y170750D01*
X329250Y150000D02*
X330750D01*
X330000Y149250D02*
Y150750D01*
X324250Y800000D02*
X325750D01*
X325000Y799250D02*
Y800750D01*
X319250Y790000D02*
X320750D01*
X320000Y789250D02*
Y790750D01*
X324250Y780000D02*
X325750D01*
X325000Y779250D02*
Y780750D01*
X319250Y770000D02*
X320750D01*
X320000Y769250D02*
Y770750D01*
X319250Y750000D02*
X320750D01*
X320000Y749250D02*
Y750750D01*
X319250Y710000D02*
X320750D01*
X320000Y709250D02*
Y710750D01*
X319250Y610000D02*
X320750D01*
X320000Y609250D02*
Y610750D01*
X319250Y570000D02*
X320750D01*
X320000Y569250D02*
Y570750D01*
X324250Y560000D02*
X325750D01*
X325000Y559250D02*
Y560750D01*
X319250Y510000D02*
X320750D01*
X320000Y509250D02*
Y510750D01*
X324250Y500000D02*
X325750D01*
X325000Y499250D02*
Y500750D01*
X319250Y470000D02*
X320750D01*
X320000Y469250D02*
Y470750D01*
X319250Y430000D02*
X320750D01*
X320000Y429250D02*
Y430750D01*
X324250Y340000D02*
X325750D01*
X325000Y339250D02*
Y340750D01*
X319250Y330000D02*
X320750D01*
X320000Y329250D02*
Y330750D01*
X319250Y310000D02*
X320750D01*
X320000Y309250D02*
Y310750D01*
X319250Y190000D02*
X320750D01*
X320000Y189250D02*
Y190750D01*
X324250Y180000D02*
X325750D01*
X325000Y179250D02*
Y180750D01*
X319250Y170000D02*
X320750D01*
X320000Y169250D02*
Y170750D01*
X319250Y150000D02*
X320750D01*
X320000Y149250D02*
Y150750D01*
X314250Y800000D02*
X315750D01*
X315000Y799250D02*
Y800750D01*
X309250Y790000D02*
X310750D01*
X310000Y789250D02*
Y790750D01*
X314250Y780000D02*
X315750D01*
X315000Y779250D02*
Y780750D01*
X309250Y770000D02*
X310750D01*
X310000Y769250D02*
Y770750D01*
X314250Y760000D02*
X315750D01*
X315000Y759250D02*
Y760750D01*
X309250Y750000D02*
X310750D01*
X310000Y749250D02*
Y750750D01*
X314250Y740000D02*
X315750D01*
X315000Y739250D02*
Y740750D01*
X314250Y720000D02*
X315750D01*
X315000Y719250D02*
Y720750D01*
X309250Y710000D02*
X310750D01*
X310000Y709250D02*
Y710750D01*
X309250Y670000D02*
X310750D01*
X310000Y669250D02*
Y670750D01*
X309250Y630000D02*
X310750D01*
X310000Y629250D02*
Y630750D01*
X309250Y610000D02*
X310750D01*
X310000Y609250D02*
Y610750D01*
X314250Y600000D02*
X315750D01*
X315000Y599250D02*
Y600750D01*
X309250Y570000D02*
X310750D01*
X310000Y569250D02*
Y570750D01*
X314250Y560000D02*
X315750D01*
X315000Y559250D02*
Y560750D01*
X314250Y540000D02*
X315750D01*
X315000Y539250D02*
Y540750D01*
X314250Y520000D02*
X315750D01*
X315000Y519250D02*
Y520750D01*
X314250Y500000D02*
X315750D01*
X315000Y499250D02*
Y500750D01*
X314250Y340000D02*
X315750D01*
X315000Y339250D02*
Y340750D01*
X309250Y330000D02*
X310750D01*
X310000Y329250D02*
Y330750D01*
X314250Y200000D02*
X315750D01*
X315000Y199250D02*
Y200750D01*
X314250Y180000D02*
X315750D01*
X315000Y179250D02*
Y180750D01*
X309250Y170000D02*
X310750D01*
X310000Y169250D02*
Y170750D01*
X304250Y800000D02*
X305750D01*
X305000Y799250D02*
Y800750D01*
X299250Y790000D02*
X300750D01*
X300000Y789250D02*
Y790750D01*
X304250Y780000D02*
X305750D01*
X305000Y779250D02*
Y780750D01*
X299250Y770000D02*
X300750D01*
X300000Y769250D02*
Y770750D01*
X304250Y720000D02*
X305750D01*
X305000Y719250D02*
Y720750D01*
X304250Y600000D02*
X305750D01*
X305000Y599250D02*
Y600750D01*
X299250Y570000D02*
X300750D01*
X300000Y569250D02*
Y570750D01*
X304250Y560000D02*
X305750D01*
X305000Y559250D02*
Y560750D01*
X304250Y540000D02*
X305750D01*
X305000Y539250D02*
Y540750D01*
X299250Y510000D02*
X300750D01*
X300000Y509250D02*
Y510750D01*
X299250Y410000D02*
X300750D01*
X300000Y409250D02*
Y410750D01*
X299250Y370000D02*
X300750D01*
X300000Y369250D02*
Y370750D01*
X304250Y340000D02*
X305750D01*
X305000Y339250D02*
Y340750D01*
X299250Y330000D02*
X300750D01*
X300000Y329250D02*
Y330750D01*
X299250Y310000D02*
X300750D01*
X300000Y309250D02*
Y310750D01*
X304250Y300000D02*
X305750D01*
X305000Y299250D02*
Y300750D01*
X299250Y270000D02*
X300750D01*
X300000Y269250D02*
Y270750D01*
X299250Y250000D02*
X300750D01*
X300000Y249250D02*
Y250750D01*
X299250Y190000D02*
X300750D01*
X300000Y189250D02*
Y190750D01*
X299250Y170000D02*
X300750D01*
X300000Y169250D02*
Y170750D01*
X299250Y150000D02*
X300750D01*
X300000Y149250D02*
Y150750D01*
X294250Y800000D02*
X295750D01*
X295000Y799250D02*
Y800750D01*
X289250Y790000D02*
X290750D01*
X290000Y789250D02*
Y790750D01*
X294250Y780000D02*
X295750D01*
X295000Y779250D02*
Y780750D01*
X289250Y770000D02*
X290750D01*
X290000Y769250D02*
Y770750D01*
X289250Y750000D02*
X290750D01*
X290000Y749250D02*
Y750750D01*
X294250Y740000D02*
X295750D01*
X295000Y739250D02*
Y740750D01*
X289250Y710000D02*
X290750D01*
X290000Y709250D02*
Y710750D01*
X289250Y650000D02*
X290750D01*
X290000Y649250D02*
Y650750D01*
X289250Y610000D02*
X290750D01*
X290000Y609250D02*
Y610750D01*
X289250Y570000D02*
X290750D01*
X290000Y569250D02*
Y570750D01*
X294250Y560000D02*
X295750D01*
X295000Y559250D02*
Y560750D01*
X294250Y540000D02*
X295750D01*
X295000Y539250D02*
Y540750D01*
X294250Y520000D02*
X295750D01*
X295000Y519250D02*
Y520750D01*
X294250Y500000D02*
X295750D01*
X295000Y499250D02*
Y500750D01*
X294250Y440000D02*
X295750D01*
X295000Y439250D02*
Y440750D01*
X294250Y400000D02*
X295750D01*
X295000Y399250D02*
Y400750D01*
X294250Y340000D02*
X295750D01*
X295000Y339250D02*
Y340750D01*
X289250Y330000D02*
X290750D01*
X290000Y329250D02*
Y330750D01*
X294250Y300000D02*
X295750D01*
X295000Y299250D02*
Y300750D01*
X294250Y280000D02*
X295750D01*
X295000Y279250D02*
Y280750D01*
X289250Y250000D02*
X290750D01*
X290000Y249250D02*
Y250750D01*
X294250Y240000D02*
X295750D01*
X295000Y239250D02*
Y240750D01*
X294250Y200000D02*
X295750D01*
X295000Y199250D02*
Y200750D01*
X294250Y180000D02*
X295750D01*
X295000Y179250D02*
Y180750D01*
X289250Y170000D02*
X290750D01*
X290000Y169250D02*
Y170750D01*
X284250Y800000D02*
X285750D01*
X285000Y799250D02*
Y800750D01*
X279250Y790000D02*
X280750D01*
X280000Y789250D02*
Y790750D01*
X284250Y780000D02*
X285750D01*
X285000Y779250D02*
Y780750D01*
X279250Y770000D02*
X280750D01*
X280000Y769250D02*
Y770750D01*
X279250Y570000D02*
X280750D01*
X280000Y569250D02*
Y570750D01*
X284250Y560000D02*
X285750D01*
X285000Y559250D02*
Y560750D01*
X284250Y540000D02*
X285750D01*
X285000Y539250D02*
Y540750D01*
X279250Y510000D02*
X280750D01*
X280000Y509250D02*
Y510750D01*
X279250Y410000D02*
X280750D01*
X280000Y409250D02*
Y410750D01*
X279250Y370000D02*
X280750D01*
X280000Y369250D02*
Y370750D01*
X284250Y340000D02*
X285750D01*
X285000Y339250D02*
Y340750D01*
X279250Y330000D02*
X280750D01*
X280000Y329250D02*
Y330750D01*
X279250Y310000D02*
X280750D01*
X280000Y309250D02*
Y310750D01*
X284250Y300000D02*
X285750D01*
X285000Y299250D02*
Y300750D01*
X279250Y270000D02*
X280750D01*
X280000Y269250D02*
Y270750D01*
X279250Y250000D02*
X280750D01*
X280000Y249250D02*
Y250750D01*
X279250Y190000D02*
X280750D01*
X280000Y189250D02*
Y190750D01*
X279250Y170000D02*
X280750D01*
X280000Y169250D02*
Y170750D01*
X274250Y800000D02*
X275750D01*
X275000Y799250D02*
Y800750D01*
X269250Y790000D02*
X270750D01*
X270000Y789250D02*
Y790750D01*
X274250Y780000D02*
X275750D01*
X275000Y779250D02*
Y780750D01*
X274250Y560000D02*
X275750D01*
X275000Y559250D02*
Y560750D01*
X274250Y540000D02*
X275750D01*
X275000Y539250D02*
Y540750D01*
X274250Y520000D02*
X275750D01*
X275000Y519250D02*
Y520750D01*
X269250Y510000D02*
X270750D01*
X270000Y509250D02*
Y510750D01*
X274250Y500000D02*
X275750D01*
X275000Y499250D02*
Y500750D01*
X274250Y440000D02*
X275750D01*
X275000Y439250D02*
Y440750D01*
X274250Y400000D02*
X275750D01*
X275000Y399250D02*
Y400750D01*
X269250Y390000D02*
X270750D01*
X270000Y389250D02*
Y390750D01*
X274250Y340000D02*
X275750D01*
X275000Y339250D02*
Y340750D01*
X269250Y330000D02*
X270750D01*
X270000Y329250D02*
Y330750D01*
X274250Y300000D02*
X275750D01*
X275000Y299250D02*
Y300750D01*
X269250Y290000D02*
X270750D01*
X270000Y289250D02*
Y290750D01*
X274250Y240000D02*
X275750D01*
X275000Y239250D02*
Y240750D01*
X274250Y180000D02*
X275750D01*
X275000Y179250D02*
Y180750D01*
X269250Y170000D02*
X270750D01*
X270000Y169250D02*
Y170750D01*
X274250Y160000D02*
X275750D01*
X275000Y159250D02*
Y160750D01*
X264250Y800000D02*
X265750D01*
X265000Y799250D02*
Y800750D01*
X259250Y790000D02*
X260750D01*
X260000Y789250D02*
Y790750D01*
X264250Y560000D02*
X265750D01*
X265000Y559250D02*
Y560750D01*
X264250Y540000D02*
X265750D01*
X265000Y539250D02*
Y540750D01*
X259250Y530000D02*
X260750D01*
X260000Y529250D02*
Y530750D01*
X259250Y490000D02*
X260750D01*
X260000Y489250D02*
Y490750D01*
X259250Y450000D02*
X260750D01*
X260000Y449250D02*
Y450750D01*
X264250Y420000D02*
X265750D01*
X265000Y419250D02*
Y420750D01*
X259250Y410000D02*
X260750D01*
X260000Y409250D02*
Y410750D01*
X259250Y370000D02*
X260750D01*
X260000Y369250D02*
Y370750D01*
X264250Y360000D02*
X265750D01*
X265000Y359250D02*
Y360750D01*
X264250Y340000D02*
X265750D01*
X265000Y339250D02*
Y340750D01*
X259250Y330000D02*
X260750D01*
X260000Y329250D02*
Y330750D01*
X264250Y320000D02*
X265750D01*
X265000Y319250D02*
Y320750D01*
X259250Y210000D02*
X260750D01*
X260000Y209250D02*
Y210750D01*
X254250Y800000D02*
X255750D01*
X255000Y799250D02*
Y800750D01*
X254250Y540000D02*
X255750D01*
X255000Y539250D02*
Y540750D01*
X249250Y530000D02*
X250750D01*
X250000Y529250D02*
Y530750D01*
X254250Y520000D02*
X255750D01*
X255000Y519250D02*
Y520750D01*
X254250Y500000D02*
X255750D01*
X255000Y499250D02*
Y500750D01*
X249250Y490000D02*
X250750D01*
X250000Y489250D02*
Y490750D01*
X254250Y480000D02*
X255750D01*
X255000Y479250D02*
Y480750D01*
X254250Y460000D02*
X255750D01*
X255000Y459250D02*
Y460750D01*
X249250Y450000D02*
X250750D01*
X250000Y449250D02*
Y450750D01*
X254250Y440000D02*
X255750D01*
X255000Y439250D02*
Y440750D01*
X254250Y420000D02*
X255750D01*
X255000Y419250D02*
Y420750D01*
X249250Y410000D02*
X250750D01*
X250000Y409250D02*
Y410750D01*
X254250Y400000D02*
X255750D01*
X255000Y399250D02*
Y400750D01*
X254250Y360000D02*
X255750D01*
X255000Y359250D02*
Y360750D01*
X254250Y340000D02*
X255750D01*
X255000Y339250D02*
Y340750D01*
X249250Y330000D02*
X250750D01*
X250000Y329250D02*
Y330750D01*
X254250Y320000D02*
X255750D01*
X255000Y319250D02*
Y320750D01*
X249250Y310000D02*
X250750D01*
X250000Y309250D02*
Y310750D01*
X249250Y270000D02*
X250750D01*
X250000Y269250D02*
Y270750D01*
X249250Y230000D02*
X250750D01*
X250000Y229250D02*
Y230750D01*
X249250Y210000D02*
X250750D01*
X250000Y209250D02*
Y210750D01*
X249250Y190000D02*
X250750D01*
X250000Y189250D02*
Y190750D01*
X249250Y150000D02*
X250750D01*
X250000Y149250D02*
Y150750D01*
X244250Y800000D02*
X245750D01*
X245000Y799250D02*
Y800750D01*
X239250Y790000D02*
X240750D01*
X240000Y789250D02*
Y790750D01*
X244250Y540000D02*
X245750D01*
X245000Y539250D02*
Y540750D01*
X244250Y400000D02*
X245750D01*
X245000Y399250D02*
Y400750D01*
X244250Y360000D02*
X245750D01*
X245000Y359250D02*
Y360750D01*
X244250Y340000D02*
X245750D01*
X245000Y339250D02*
Y340750D01*
X239250Y330000D02*
X240750D01*
X240000Y329250D02*
Y330750D01*
X244250Y320000D02*
X245750D01*
X245000Y319250D02*
Y320750D01*
X244250Y280000D02*
X245750D01*
X245000Y279250D02*
Y280750D01*
X239250Y210000D02*
X240750D01*
X240000Y209250D02*
Y210750D01*
X234250Y800000D02*
X235750D01*
X235000Y799250D02*
Y800750D01*
X229250Y790000D02*
X230750D01*
X230000Y789250D02*
Y790750D01*
X229250Y490000D02*
X230750D01*
X230000Y489250D02*
Y490750D01*
X229250Y450000D02*
X230750D01*
X230000Y449250D02*
Y450750D01*
X234250Y420000D02*
X235750D01*
X235000Y419250D02*
Y420750D01*
X229250Y390000D02*
X230750D01*
X230000Y389250D02*
Y390750D01*
X234250Y360000D02*
X235750D01*
X235000Y359250D02*
Y360750D01*
X234250Y340000D02*
X235750D01*
X235000Y339250D02*
Y340750D01*
X229250Y330000D02*
X230750D01*
X230000Y329250D02*
Y330750D01*
X234250Y320000D02*
X235750D01*
X235000Y319250D02*
Y320750D01*
X234250Y300000D02*
X235750D01*
X235000Y299250D02*
Y300750D01*
X229250Y290000D02*
X230750D01*
X230000Y289250D02*
Y290750D01*
X234250Y260000D02*
X235750D01*
X235000Y259250D02*
Y260750D01*
X229250Y250000D02*
X230750D01*
X230000Y249250D02*
Y250750D01*
X229250Y210000D02*
X230750D01*
X230000Y209250D02*
Y210750D01*
X229250Y190000D02*
X230750D01*
X230000Y189250D02*
Y190750D01*
X229250Y170000D02*
X230750D01*
X230000Y169250D02*
Y170750D01*
X234250Y160000D02*
X235750D01*
X235000Y159250D02*
Y160750D01*
X224250Y800000D02*
X225750D01*
X225000Y799250D02*
Y800750D01*
X219250Y790000D02*
X220750D01*
X220000Y789250D02*
Y790750D01*
X224250Y780000D02*
X225750D01*
X225000Y779250D02*
Y780750D01*
X224250Y520000D02*
X225750D01*
X225000Y519250D02*
Y520750D01*
X224250Y480000D02*
X225750D01*
X225000Y479250D02*
Y480750D01*
X224250Y440000D02*
X225750D01*
X225000Y439250D02*
Y440750D01*
X224250Y420000D02*
X225750D01*
X225000Y419250D02*
Y420750D01*
X224250Y400000D02*
X225750D01*
X225000Y399250D02*
Y400750D01*
X224250Y360000D02*
X225750D01*
X225000Y359250D02*
Y360750D01*
X224250Y340000D02*
X225750D01*
X225000Y339250D02*
Y340750D01*
X224250Y320000D02*
X225750D01*
X225000Y319250D02*
Y320750D01*
X224250Y300000D02*
X225750D01*
X225000Y299250D02*
Y300750D01*
X224250Y260000D02*
X225750D01*
X225000Y259250D02*
Y260750D01*
X224250Y220000D02*
X225750D01*
X225000Y219250D02*
Y220750D01*
X224250Y160000D02*
X225750D01*
X225000Y159250D02*
Y160750D01*
X214250Y800000D02*
X215750D01*
X215000Y799250D02*
Y800750D01*
X209250Y790000D02*
X210750D01*
X210000Y789250D02*
Y790750D01*
X214250Y780000D02*
X215750D01*
X215000Y779250D02*
Y780750D01*
X209250Y170000D02*
X210750D01*
X210000Y169250D02*
Y170750D01*
X214250Y160000D02*
X215750D01*
X215000Y159250D02*
Y160750D01*
X209250Y150000D02*
X210750D01*
X210000Y149250D02*
Y150750D01*
X204250Y800000D02*
X205750D01*
X205000Y799250D02*
Y800750D01*
X199250Y790000D02*
X200750D01*
X200000Y789250D02*
Y790750D01*
X204250Y780000D02*
X205750D01*
X205000Y779250D02*
Y780750D01*
X199250Y730000D02*
X200750D01*
X200000Y729250D02*
Y730750D01*
X199250Y190000D02*
X200750D01*
X200000Y189250D02*
Y190750D01*
X199250Y170000D02*
X200750D01*
X200000Y169250D02*
Y170750D01*
X204250Y160000D02*
X205750D01*
X205000Y159250D02*
Y160750D01*
X199250Y150000D02*
X200750D01*
X200000Y149250D02*
Y150750D01*
X194250Y800000D02*
X195750D01*
X195000Y799250D02*
Y800750D01*
X189250Y790000D02*
X190750D01*
X190000Y789250D02*
Y790750D01*
X194250Y780000D02*
X195750D01*
X195000Y779250D02*
Y780750D01*
X189250Y770000D02*
X190750D01*
X190000Y769250D02*
Y770750D01*
X194250Y160000D02*
X195750D01*
X195000Y159250D02*
Y160750D01*
X184250Y800000D02*
X185750D01*
X185000Y799250D02*
Y800750D01*
X179250Y790000D02*
X180750D01*
X180000Y789250D02*
Y790750D01*
X184250Y780000D02*
X185750D01*
X185000Y779250D02*
Y780750D01*
X179250Y770000D02*
X180750D01*
X180000Y769250D02*
Y770750D01*
X179250Y730000D02*
X180750D01*
X180000Y729250D02*
Y730750D01*
X184250Y660000D02*
X185750D01*
X185000Y659250D02*
Y660750D01*
X174250Y800000D02*
X175750D01*
X175000Y799250D02*
Y800750D01*
X169250Y790000D02*
X170750D01*
X170000Y789250D02*
Y790750D01*
X174250Y780000D02*
X175750D01*
X175000Y779250D02*
Y780750D01*
X169250Y770000D02*
X170750D01*
X170000Y769250D02*
Y770750D01*
X174250Y600000D02*
X175750D01*
X175000Y599250D02*
Y600750D01*
X169250Y590000D02*
X170750D01*
X170000Y589250D02*
Y590750D01*
X169250Y370000D02*
X170750D01*
X170000Y369250D02*
Y370750D01*
X174250Y360000D02*
X175750D01*
X175000Y359250D02*
Y360750D01*
X174250Y320000D02*
X175750D01*
X175000Y319250D02*
Y320750D01*
X174250Y300000D02*
X175750D01*
X175000Y299250D02*
Y300750D01*
X169250Y290000D02*
X170750D01*
X170000Y289250D02*
Y290750D01*
X174250Y280000D02*
X175750D01*
X175000Y279250D02*
Y280750D01*
X174250Y260000D02*
X175750D01*
X175000Y259250D02*
Y260750D01*
X174250Y180000D02*
X175750D01*
X175000Y179250D02*
Y180750D01*
X169250Y170000D02*
X170750D01*
X170000Y169250D02*
Y170750D01*
X174250Y160000D02*
X175750D01*
X175000Y159250D02*
Y160750D01*
X169250Y150000D02*
X170750D01*
X170000Y149250D02*
Y150750D01*
X174250Y140000D02*
X175750D01*
X175000Y139250D02*
Y140750D01*
X164250Y800000D02*
X165750D01*
X165000Y799250D02*
Y800750D01*
X159250Y790000D02*
X160750D01*
X160000Y789250D02*
Y790750D01*
X164250Y780000D02*
X165750D01*
X165000Y779250D02*
Y780750D01*
X159250Y770000D02*
X160750D01*
X160000Y769250D02*
Y770750D01*
X159250Y690000D02*
X160750D01*
X160000Y689250D02*
Y690750D01*
X164250Y640000D02*
X165750D01*
X165000Y639250D02*
Y640750D01*
X164250Y600000D02*
X165750D01*
X165000Y599250D02*
Y600750D01*
X159250Y590000D02*
X160750D01*
X160000Y589250D02*
Y590750D01*
X164250Y360000D02*
X165750D01*
X165000Y359250D02*
Y360750D01*
X164250Y300000D02*
X165750D01*
X165000Y299250D02*
Y300750D01*
X159250Y290000D02*
X160750D01*
X160000Y289250D02*
Y290750D01*
X159250Y170000D02*
X160750D01*
X160000Y169250D02*
Y170750D01*
X164250Y160000D02*
X165750D01*
X165000Y159250D02*
Y160750D01*
X159250Y110000D02*
X160750D01*
X160000Y109250D02*
Y110750D01*
X154250Y800000D02*
X155750D01*
X155000Y799250D02*
Y800750D01*
X149250Y790000D02*
X150750D01*
X150000Y789250D02*
Y790750D01*
X154250Y780000D02*
X155750D01*
X155000Y779250D02*
Y780750D01*
X149250Y770000D02*
X150750D01*
X150000Y769250D02*
Y770750D01*
X154250Y640000D02*
X155750D01*
X155000Y639250D02*
Y640750D01*
X154250Y620000D02*
X155750D01*
X155000Y619250D02*
Y620750D01*
X154250Y600000D02*
X155750D01*
X155000Y599250D02*
Y600750D01*
X149250Y590000D02*
X150750D01*
X150000Y589250D02*
Y590750D01*
X154250Y580000D02*
X155750D01*
X155000Y579250D02*
Y580750D01*
X149250Y570000D02*
X150750D01*
X150000Y569250D02*
Y570750D01*
X154250Y340000D02*
X155750D01*
X155000Y339250D02*
Y340750D01*
X154250Y300000D02*
X155750D01*
X155000Y299250D02*
Y300750D01*
X149250Y290000D02*
X150750D01*
X150000Y289250D02*
Y290750D01*
X149250Y170000D02*
X150750D01*
X150000Y169250D02*
Y170750D01*
X154250Y160000D02*
X155750D01*
X155000Y159250D02*
Y160750D01*
X149250Y110000D02*
X150750D01*
X150000Y109250D02*
Y110750D01*
X144250Y800000D02*
X145750D01*
X145000Y799250D02*
Y800750D01*
X144250Y780000D02*
X145750D01*
X145000Y779250D02*
Y780750D01*
X139250Y770000D02*
X140750D01*
X140000Y769250D02*
Y770750D01*
X144250Y760000D02*
X145750D01*
X145000Y759250D02*
Y760750D01*
X144250Y700000D02*
X145750D01*
X145000Y699250D02*
Y700750D01*
X139250Y690000D02*
X140750D01*
X140000Y689250D02*
Y690750D01*
X144250Y640000D02*
X145750D01*
X145000Y639250D02*
Y640750D01*
X144250Y600000D02*
X145750D01*
X145000Y599250D02*
Y600750D01*
X139250Y590000D02*
X140750D01*
X140000Y589250D02*
Y590750D01*
X144250Y580000D02*
X145750D01*
X145000Y579250D02*
Y580750D01*
X139250Y570000D02*
X140750D01*
X140000Y569250D02*
Y570750D01*
X144250Y320000D02*
X145750D01*
X145000Y319250D02*
Y320750D01*
X144250Y300000D02*
X145750D01*
X145000Y299250D02*
Y300750D01*
X144250Y260000D02*
X145750D01*
X145000Y259250D02*
Y260750D01*
X144250Y180000D02*
X145750D01*
X145000Y179250D02*
Y180750D01*
X144250Y120000D02*
X145750D01*
X145000Y119250D02*
Y120750D01*
X134250Y760000D02*
X135750D01*
X135000Y759250D02*
Y760750D01*
X129250Y730000D02*
X130750D01*
X130000Y729250D02*
Y730750D01*
X134250Y700000D02*
X135750D01*
X135000Y699250D02*
Y700750D01*
X134250Y640000D02*
X135750D01*
X135000Y639250D02*
Y640750D01*
X134250Y600000D02*
X135750D01*
X135000Y599250D02*
Y600750D01*
X129250Y590000D02*
X130750D01*
X130000Y589250D02*
Y590750D01*
X134250Y580000D02*
X135750D01*
X135000Y579250D02*
Y580750D01*
X129250Y570000D02*
X130750D01*
X130000Y569250D02*
Y570750D01*
X134250Y560000D02*
X135750D01*
X135000Y559250D02*
Y560750D01*
X129250Y550000D02*
X130750D01*
X130000Y549250D02*
Y550750D01*
X129250Y530000D02*
X130750D01*
X130000Y529250D02*
Y530750D01*
X129250Y510000D02*
X130750D01*
X130000Y509250D02*
Y510750D01*
X129250Y490000D02*
X130750D01*
X130000Y489250D02*
Y490750D01*
X129250Y470000D02*
X130750D01*
X130000Y469250D02*
Y470750D01*
X129250Y450000D02*
X130750D01*
X130000Y449250D02*
Y450750D01*
X129250Y430000D02*
X130750D01*
X130000Y429250D02*
Y430750D01*
X129250Y410000D02*
X130750D01*
X130000Y409250D02*
Y410750D01*
X124250Y760000D02*
X125750D01*
X125000Y759250D02*
Y760750D01*
X119250Y750000D02*
X120750D01*
X120000Y749250D02*
Y750750D01*
X119250Y710000D02*
X120750D01*
X120000Y709250D02*
Y710750D01*
X119250Y650000D02*
X120750D01*
X120000Y649250D02*
Y650750D01*
X124250Y600000D02*
X125750D01*
X125000Y599250D02*
Y600750D01*
X119250Y590000D02*
X120750D01*
X120000Y589250D02*
Y590750D01*
X124250Y580000D02*
X125750D01*
X125000Y579250D02*
Y580750D01*
X119250Y570000D02*
X120750D01*
X120000Y569250D02*
Y570750D01*
X124250Y560000D02*
X125750D01*
X125000Y559250D02*
Y560750D01*
X119250Y550000D02*
X120750D01*
X120000Y549250D02*
Y550750D01*
X124250Y540000D02*
X125750D01*
X125000Y539250D02*
Y540750D01*
X119250Y530000D02*
X120750D01*
X120000Y529250D02*
Y530750D01*
X124250Y520000D02*
X125750D01*
X125000Y519250D02*
Y520750D01*
X119250Y510000D02*
X120750D01*
X120000Y509250D02*
Y510750D01*
X124250Y500000D02*
X125750D01*
X125000Y499250D02*
Y500750D01*
X119250Y490000D02*
X120750D01*
X120000Y489250D02*
Y490750D01*
X124250Y480000D02*
X125750D01*
X125000Y479250D02*
Y480750D01*
X119250Y470000D02*
X120750D01*
X120000Y469250D02*
Y470750D01*
X124250Y460000D02*
X125750D01*
X125000Y459250D02*
Y460750D01*
X119250Y450000D02*
X120750D01*
X120000Y449250D02*
Y450750D01*
X124250Y440000D02*
X125750D01*
X125000Y439250D02*
Y440750D01*
X119250Y430000D02*
X120750D01*
X120000Y429250D02*
Y430750D01*
X124250Y420000D02*
X125750D01*
X125000Y419250D02*
Y420750D01*
X119250Y410000D02*
X120750D01*
X120000Y409250D02*
Y410750D01*
X124250Y400000D02*
X125750D01*
X125000Y399250D02*
Y400750D01*
X119250Y390000D02*
X120750D01*
X120000Y389250D02*
Y390750D01*
X119250Y150000D02*
X120750D01*
X120000Y149250D02*
Y150750D01*
X114250Y760000D02*
X115750D01*
X115000Y759250D02*
Y760750D01*
X109250Y750000D02*
X110750D01*
X110000Y749250D02*
Y750750D01*
X109250Y710000D02*
X110750D01*
X110000Y709250D02*
Y710750D01*
X114250Y700000D02*
X115750D01*
X115000Y699250D02*
Y700750D01*
X109250Y690000D02*
X110750D01*
X110000Y689250D02*
Y690750D01*
X114250Y660000D02*
X115750D01*
X115000Y659250D02*
Y660750D01*
X109250Y650000D02*
X110750D01*
X110000Y649250D02*
Y650750D01*
X114250Y640000D02*
X115750D01*
X115000Y639250D02*
Y640750D01*
X109250Y630000D02*
X110750D01*
X110000Y629250D02*
Y630750D01*
X114250Y600000D02*
X115750D01*
X115000Y599250D02*
Y600750D01*
X109250Y590000D02*
X110750D01*
X110000Y589250D02*
Y590750D01*
X114250Y580000D02*
X115750D01*
X115000Y579250D02*
Y580750D01*
X109250Y570000D02*
X110750D01*
X110000Y569250D02*
Y570750D01*
X114250Y560000D02*
X115750D01*
X115000Y559250D02*
Y560750D01*
X109250Y550000D02*
X110750D01*
X110000Y549250D02*
Y550750D01*
X114250Y540000D02*
X115750D01*
X115000Y539250D02*
Y540750D01*
X109250Y530000D02*
X110750D01*
X110000Y529250D02*
Y530750D01*
X114250Y520000D02*
X115750D01*
X115000Y519250D02*
Y520750D01*
X109250Y510000D02*
X110750D01*
X110000Y509250D02*
Y510750D01*
X114250Y500000D02*
X115750D01*
X115000Y499250D02*
Y500750D01*
X109250Y490000D02*
X110750D01*
X110000Y489250D02*
Y490750D01*
X114250Y480000D02*
X115750D01*
X115000Y479250D02*
Y480750D01*
X109250Y470000D02*
X110750D01*
X110000Y469250D02*
Y470750D01*
X114250Y460000D02*
X115750D01*
X115000Y459250D02*
Y460750D01*
X109250Y450000D02*
X110750D01*
X110000Y449250D02*
Y450750D01*
X114250Y440000D02*
X115750D01*
X115000Y439250D02*
Y440750D01*
X109250Y430000D02*
X110750D01*
X110000Y429250D02*
Y430750D01*
X114250Y420000D02*
X115750D01*
X115000Y419250D02*
Y420750D01*
X109250Y410000D02*
X110750D01*
X110000Y409250D02*
Y410750D01*
X114250Y400000D02*
X115750D01*
X115000Y399250D02*
Y400750D01*
X109250Y390000D02*
X110750D01*
X110000Y389250D02*
Y390750D01*
X109250Y230000D02*
X110750D01*
X110000Y229250D02*
Y230750D01*
X109250Y210000D02*
X110750D01*
X110000Y209250D02*
Y210750D01*
X114250Y200000D02*
X115750D01*
X115000Y199250D02*
Y200750D01*
X109250Y190000D02*
X110750D01*
X110000Y189250D02*
Y190750D01*
X114250Y180000D02*
X115750D01*
X115000Y179250D02*
Y180750D01*
X109250Y170000D02*
X110750D01*
X110000Y169250D02*
Y170750D01*
X114250Y160000D02*
X115750D01*
X115000Y159250D02*
Y160750D01*
X109250Y150000D02*
X110750D01*
X110000Y149250D02*
Y150750D01*
X231600Y720500D02*
X234400D01*
X233000Y719100D02*
Y721900D01*
X329600Y718000D02*
X332400D01*
X331000Y716600D02*
Y719400D01*
X450600Y577500D02*
X453400D01*
X452000Y576100D02*
Y578900D01*
X136350Y475500D02*
X139150D01*
X137750Y474100D02*
Y476900D01*
X143827Y457000D02*
X146627D01*
X145227Y455600D02*
Y458400D01*
X151304Y441500D02*
X154104D01*
X152705Y440100D02*
Y442900D01*
X158782Y423000D02*
X161582D01*
X160182Y421600D02*
Y424400D01*
X528100Y567500D02*
X530900D01*
X529500Y566100D02*
Y568900D01*
X162100Y339000D02*
X164900D01*
X163500Y337600D02*
Y340400D01*
X125100Y614500D02*
X127900D01*
X126500Y613100D02*
Y615900D01*
X148600Y614500D02*
X151400D01*
X150000Y613100D02*
Y615900D01*
X172600Y613500D02*
X175400D01*
X174000Y612100D02*
Y614900D01*
X195600Y613500D02*
X198400D01*
X197000Y612100D02*
Y614900D01*
X172100Y668500D02*
X174900D01*
X173500Y667100D02*
Y669900D01*
X196100Y668000D02*
X198900D01*
X197500Y666600D02*
Y669400D01*
X148600Y668500D02*
X151400D01*
X150000Y667100D02*
Y669900D01*
X124600Y669500D02*
X127400D01*
X126000Y668100D02*
Y670900D01*
X195100Y724500D02*
X197900D01*
X196500Y723100D02*
Y725900D01*
X124600Y725000D02*
X127400D01*
X126000Y723600D02*
Y726400D01*
X148600Y725500D02*
X151400D01*
X150000Y724100D02*
Y726900D01*
X172100Y724500D02*
X174900D01*
X173500Y723100D02*
Y725900D01*
X618600Y368500D02*
X621400D01*
X620000Y367100D02*
Y369900D01*
X647600Y368500D02*
X650400D01*
X649000Y367100D02*
Y369900D01*
X671600Y369500D02*
X674400D01*
X673000Y368100D02*
Y370900D01*
X695600Y369500D02*
X698400D01*
X697000Y368100D02*
Y370900D01*
X722100Y368500D02*
X724900D01*
X723500Y367100D02*
Y369900D01*
X569600Y180500D02*
X572400D01*
X571000Y179100D02*
Y181900D01*
X546100Y181000D02*
X548900D01*
X547500Y179600D02*
Y182400D01*
X522100Y180500D02*
X524900D01*
X523500Y179100D02*
Y181900D01*
X498100Y180500D02*
X500900D01*
X499500Y179100D02*
Y181900D01*
X257600Y267500D02*
X260400D01*
X259000Y266100D02*
Y268900D01*
X257600Y238500D02*
X260400D01*
X259000Y237100D02*
Y239900D01*
X255600Y311500D02*
X258400D01*
X257000Y310100D02*
Y312900D01*
X257100Y281500D02*
X259900D01*
X258500Y280100D02*
Y282900D01*
X257100Y153500D02*
X259900D01*
X258500Y152100D02*
Y154900D01*
X257600Y195500D02*
X260400D01*
X259000Y194100D02*
Y196900D01*
X258100Y225500D02*
X260900D01*
X259500Y224100D02*
Y226900D01*
X566600Y763500D02*
X569400D01*
X568000Y762100D02*
Y764900D01*
X567100Y733000D02*
X569900D01*
X568500Y731600D02*
Y734400D01*
X566100Y688500D02*
X568900D01*
X567500Y687100D02*
Y689900D01*
X566100Y628000D02*
X568900D01*
X567500Y626600D02*
Y629400D01*
X566100Y599500D02*
X568900D01*
X567500Y598100D02*
Y600900D01*
X565100Y717500D02*
X567900D01*
X566500Y716100D02*
Y718900D01*
X565100Y674000D02*
X567900D01*
X566500Y672600D02*
Y675400D01*
X472600Y762500D02*
X475400D01*
X474000Y761100D02*
Y763900D01*
X473100Y733000D02*
X475900D01*
X474500Y731600D02*
Y734400D01*
X472100Y718000D02*
X474900D01*
X473500Y716600D02*
Y719400D01*
X473600Y673000D02*
X476400D01*
X475000Y671600D02*
Y674400D01*
X472600Y687500D02*
X475400D01*
X474000Y686100D02*
Y688900D01*
X565600Y642500D02*
X568400D01*
X567000Y641100D02*
Y643900D01*
X473100Y644500D02*
X475900D01*
X474500Y643100D02*
Y645900D01*
X472100Y628500D02*
X474900D01*
X473500Y627100D02*
Y629900D01*
X471600Y600000D02*
X474400D01*
X473000Y598600D02*
Y601400D01*
X669100Y544000D02*
X671900D01*
X670500Y542600D02*
Y545400D01*
X655600Y543500D02*
X658400D01*
X657000Y542100D02*
Y544900D01*
X575600Y568500D02*
X578400D01*
X577000Y567100D02*
Y569900D01*
X552100Y568500D02*
X554900D01*
X553500Y567100D02*
Y569900D01*
X603600Y568500D02*
X606400D01*
X605000Y567100D02*
Y569900D01*
X531100Y401500D02*
X533900D01*
X532500Y400100D02*
Y402900D01*
X506600Y401500D02*
X509400D01*
X508000Y400100D02*
Y402900D01*
X482600Y402000D02*
X485400D01*
X484000Y400600D02*
Y403400D01*
X340600Y421000D02*
X343400D01*
X342000Y419600D02*
Y422400D01*
X459100Y402000D02*
X461900D01*
X460500Y400600D02*
Y403400D01*
X415100Y407000D02*
X417900D01*
X416500Y405600D02*
Y408400D01*
X395600Y406000D02*
X398400D01*
X397000Y404600D02*
Y407400D01*
X421600Y365000D02*
X424400D01*
X423000Y363600D02*
Y366400D01*
X397100Y363500D02*
X399900D01*
X398500Y362100D02*
Y364900D01*
X375600Y407900D02*
X378400D01*
X377000Y406500D02*
Y409300D01*
X373600Y364500D02*
X376400D01*
X375000Y363100D02*
Y365900D01*
X349600Y364500D02*
X352400D01*
X351000Y363100D02*
Y365900D01*
X419100Y190000D02*
X421900D01*
X420500Y188600D02*
Y191400D01*
X398100Y190500D02*
X400900D01*
X399500Y189100D02*
Y191900D01*
X373100Y190000D02*
X375900D01*
X374500Y188600D02*
Y191400D01*
X350600Y190500D02*
X353400D01*
X352000Y189100D02*
Y191900D01*
X257100Y182000D02*
X259900D01*
X258500Y180600D02*
Y183400D01*
X313100Y210000D02*
X315900D01*
X314500Y208600D02*
Y211400D01*
X266600Y210000D02*
X269400D01*
X268000Y208600D02*
Y211400D01*
X280100Y760500D02*
X282900D01*
X281500Y759100D02*
Y761900D01*
X273600Y765500D02*
X276400D01*
X275000Y764100D02*
Y766900D01*
X266600Y771000D02*
X269400D01*
X268000Y769600D02*
Y772400D01*
X259600Y776000D02*
X262400D01*
X261000Y774600D02*
Y777400D01*
X252600Y780500D02*
X255400D01*
X254000Y779100D02*
Y781900D01*
X246100Y785500D02*
X248900D01*
X247500Y784100D02*
Y786900D01*
X238600Y780500D02*
X241400D01*
X240000Y779100D02*
Y781900D01*
X232100Y775000D02*
X234900D01*
X233500Y773600D02*
Y776400D01*
X488100Y343500D02*
X490900D01*
X489500Y342100D02*
Y344900D01*
X468100Y514500D02*
X470900D01*
X469500Y513100D02*
Y515900D01*
X198100Y578000D02*
X200900D01*
X199500Y576600D02*
Y579400D01*
X760100Y405500D02*
X762900D01*
X761500Y404100D02*
Y406900D01*
X605433Y406000D02*
X608233D01*
X606833Y404600D02*
Y407400D01*
X621600Y416000D02*
X624400D01*
X623000Y414600D02*
Y417400D01*
X722100Y495500D02*
X724900D01*
X723500Y494100D02*
Y496900D01*
X670100Y485500D02*
X672900D01*
X671500Y484100D02*
Y486900D01*
X592100Y307500D02*
X594900D01*
X593500Y306100D02*
Y308900D01*
X604100Y318000D02*
X606900D01*
X605500Y316600D02*
Y319400D01*
X650100Y476000D02*
X652900D01*
X651500Y474600D02*
Y477400D01*
X558600Y479500D02*
X561400D01*
X560000Y478100D02*
Y480900D01*
X565600Y486000D02*
X568400D01*
X567000Y484600D02*
Y487400D01*
X694100Y490500D02*
X696900D01*
X695500Y489100D02*
Y491900D01*
X572600Y491000D02*
X575400D01*
X574000Y489600D02*
Y492400D01*
X596600Y496000D02*
X599400D01*
X598000Y494600D02*
Y497400D01*
X618100Y584500D02*
X620900D01*
X619500Y583100D02*
Y585900D01*
X211100Y755000D02*
X213900D01*
X212500Y753600D02*
Y756400D01*
X185100Y585000D02*
X187900D01*
X186500Y583600D02*
Y586400D01*
X148600Y755000D02*
X151400D01*
X150000Y753600D02*
Y756400D01*
X109600Y242500D02*
X112400D01*
X111000Y241100D02*
Y243900D01*
X626100Y591000D02*
X628900D01*
X627500Y589600D02*
Y592400D01*
X574100Y266000D02*
X576900D01*
X575500Y264600D02*
Y267400D01*
X611100Y323500D02*
X613900D01*
X612500Y322100D02*
Y324900D01*
X116100Y353000D02*
X118900D01*
X117500Y351600D02*
Y354400D01*
X688100Y755000D02*
X690900D01*
X689500Y753600D02*
Y756400D01*
X668100Y754500D02*
X670900D01*
X669500Y753100D02*
Y755900D01*
X636422Y754500D02*
X639222D01*
X637822Y753100D02*
Y755900D01*
X626600Y766000D02*
X629400D01*
X628000Y764600D02*
Y767400D01*
X645600Y591000D02*
X648400D01*
X647000Y589600D02*
Y592400D01*
X218100Y762500D02*
X220900D01*
X219500Y761100D02*
Y763900D01*
X218600Y682500D02*
X221400D01*
X220000Y681100D02*
Y683900D01*
X172100Y762500D02*
X174900D01*
X173500Y761100D02*
Y763900D01*
X409600Y591000D02*
X412400D01*
X411000Y589600D02*
Y592400D01*
X201100Y591000D02*
X203900D01*
X202500Y589600D02*
Y592400D01*
X116100Y232500D02*
X118900D01*
X117500Y231100D02*
Y233900D01*
X458600Y635500D02*
X461400D01*
X460000Y634100D02*
Y636900D01*
X459600Y680500D02*
X462400D01*
X461000Y679100D02*
Y681900D01*
X459600Y724500D02*
X462400D01*
X461000Y723100D02*
Y725900D01*
X687600Y621000D02*
X690400D01*
X689000Y619600D02*
Y622400D01*
X667600Y621000D02*
X670400D01*
X669000Y619600D02*
Y622400D01*
X637100Y620500D02*
X639900D01*
X638500Y619100D02*
Y621900D01*
X688600Y663000D02*
X691400D01*
X690000Y661600D02*
Y664400D01*
X667100Y663000D02*
X669900D01*
X668500Y661600D02*
Y664400D01*
X636100Y663000D02*
X638900D01*
X637500Y661600D02*
Y664400D01*
X687600Y709500D02*
X690400D01*
X689000Y708100D02*
Y710900D01*
X666100Y710000D02*
X668900D01*
X667500Y708600D02*
Y711400D01*
X637600Y709500D02*
X640400D01*
X639000Y708100D02*
Y710900D01*
X457100Y770500D02*
X459900D01*
X458500Y769100D02*
Y771900D01*
X697600Y205500D02*
X700400D01*
X699000Y204100D02*
Y206900D01*
X611100Y205000D02*
X613900D01*
X612500Y203600D02*
Y206400D01*
X534100Y323500D02*
X536900D01*
X535500Y322100D02*
Y324900D01*
X524100Y318500D02*
X526900D01*
X525500Y317100D02*
Y319900D01*
X599100Y312000D02*
X601900D01*
X600500Y310600D02*
Y313400D01*
X500600Y312500D02*
X503400D01*
X502000Y311100D02*
Y313900D01*
X678100Y213500D02*
X680900D01*
X679500Y212100D02*
Y214900D01*
X604600Y214000D02*
X607400D01*
X606000Y212600D02*
Y215400D01*
X598600Y267500D02*
X601400D01*
X600000Y266100D02*
Y268900D01*
X592600Y261500D02*
X595400D01*
X594000Y260100D02*
Y262900D01*
X476600Y308000D02*
X479400D01*
X478000Y306600D02*
Y309400D01*
X387600Y766500D02*
X390400D01*
X389000Y765100D02*
Y767900D01*
X441600Y673500D02*
X444400D01*
X443000Y672100D02*
Y674900D01*
X441600Y637500D02*
X444400D01*
X443000Y636100D02*
Y638900D01*
X378100Y545500D02*
X380900D01*
X379500Y544100D02*
Y546900D01*
X136100Y545500D02*
X138900D01*
X137500Y544100D02*
Y546900D01*
X335600Y545500D02*
X338400D01*
X337000Y544100D02*
Y546900D01*
X325100Y508000D02*
X327900D01*
X326500Y506600D02*
Y509400D01*
X325100Y534500D02*
X327900D01*
X326500Y533100D02*
Y535900D01*
X360100Y110000D02*
X362900D01*
X361500Y108600D02*
Y111400D01*
X390600Y110000D02*
X393400D01*
X392000Y108600D02*
Y111400D01*
X470600Y110500D02*
X473400D01*
X472000Y109100D02*
Y111900D01*
X169100Y110000D02*
X171900D01*
X170500Y108600D02*
Y111400D01*
X461600Y120000D02*
X464400D01*
X463000Y118600D02*
Y121400D01*
X440100Y127250D02*
X442900D01*
X441500Y125850D02*
Y128650D01*
X170100Y132500D02*
X172900D01*
X171500Y131100D02*
Y133900D01*
X171100Y120000D02*
X173900D01*
X172500Y118600D02*
Y121400D01*
X556600Y206000D02*
X559400D01*
X558000Y204600D02*
Y207400D01*
X461600Y205500D02*
X464400D01*
X463000Y204100D02*
Y206900D01*
X306100Y515000D02*
X308900D01*
X307500Y513600D02*
Y516400D01*
X286029Y514929D02*
X288829D01*
X287429Y513529D02*
Y516329D01*
X232007Y708000D02*
X234807D01*
X233407Y706600D02*
Y709400D01*
X262100Y515000D02*
X264900D01*
X263500Y513600D02*
Y516400D01*
X126100Y701000D02*
X128900D01*
X127500Y699600D02*
Y702400D01*
X166259Y514500D02*
X169059D01*
X167659Y513100D02*
Y515900D01*
X234600Y514500D02*
X237400D01*
X236000Y513100D02*
Y515900D01*
X129100Y312000D02*
X131900D01*
X130500Y310600D02*
Y313400D01*
X129100Y212500D02*
X131900D01*
X130500Y211100D02*
Y213900D01*
X430600Y135500D02*
X433400D01*
X432000Y134100D02*
Y136900D01*
X306100Y428000D02*
X308900D01*
X307500Y426600D02*
Y429400D01*
X286100Y427500D02*
X288900D01*
X287500Y426100D02*
Y428900D01*
X266100Y427500D02*
X268900D01*
X267500Y426100D02*
Y428900D01*
X430600Y241500D02*
X433400D01*
X432000Y240100D02*
Y242900D01*
X246100Y697000D02*
X248900D01*
X247500Y695600D02*
Y698400D01*
X245748Y631000D02*
X248548D01*
X247148Y629600D02*
Y632400D01*
X180600Y427500D02*
X183400D01*
X182000Y426100D02*
Y428900D01*
X235100Y427500D02*
X237900D01*
X236500Y426100D02*
Y428900D01*
X172100Y697000D02*
X174900D01*
X173500Y695600D02*
Y698400D01*
X180100Y252000D02*
X182900D01*
X181500Y250600D02*
Y253400D01*
X180600Y227500D02*
X183400D01*
X182000Y226100D02*
Y228900D01*
X180600Y135500D02*
X183400D01*
X182000Y134100D02*
Y136900D01*
X439600Y248500D02*
X442400D01*
X441000Y247100D02*
Y249900D01*
X424100Y236000D02*
X426900D01*
X425500Y234600D02*
Y237400D01*
X424600Y144000D02*
X427400D01*
X426000Y142600D02*
Y145400D01*
X187100Y142000D02*
X189900D01*
X188500Y140600D02*
Y143400D01*
X547600Y481500D02*
X550400D01*
X549000Y480100D02*
Y482900D01*
X506100Y505000D02*
X508900D01*
X507500Y503600D02*
Y506400D01*
X449600Y450000D02*
X452400D01*
X451000Y448600D02*
Y451400D01*
X449600Y491500D02*
X452400D01*
X451000Y490100D02*
Y492900D01*
X457100Y457000D02*
X459900D01*
X458500Y455600D02*
Y458400D01*
X457100Y497000D02*
X459900D01*
X458500Y495600D02*
Y498400D01*
X358100Y507500D02*
X360900D01*
X359500Y506100D02*
Y508900D01*
X350600Y492000D02*
X353400D01*
X352000Y490600D02*
Y493400D01*
X390600Y462500D02*
X393400D01*
X392000Y461100D02*
Y463900D01*
X350600Y457500D02*
X353400D01*
X352000Y456100D02*
Y458900D01*
X403100Y470000D02*
X405900D01*
X404500Y468600D02*
Y471400D01*
X361600Y376500D02*
X364400D01*
X363000Y375100D02*
Y377900D01*
X377600Y447500D02*
X380400D01*
X379000Y446100D02*
Y448900D01*
X384600Y401500D02*
X387400D01*
X386000Y400100D02*
Y402900D01*
X367100Y358500D02*
X369900D01*
X368500Y357100D02*
Y359900D01*
X343100Y401500D02*
X345900D01*
X344500Y400100D02*
Y402900D01*
X317600Y359000D02*
X320400D01*
X319000Y357600D02*
Y360400D01*
X314100Y441500D02*
X316900D01*
X315500Y440100D02*
Y442900D01*
X311600Y420500D02*
X314400D01*
X313000Y419100D02*
Y421900D01*
X343600Y485500D02*
X346400D01*
X345000Y484100D02*
Y486900D01*
X343600Y448000D02*
X346400D01*
X345000Y446600D02*
Y449400D01*
X286100Y470500D02*
X288900D01*
X287500Y469100D02*
Y471900D01*
X261100Y471000D02*
X263900D01*
X262500Y469600D02*
Y472400D01*
X314600Y703500D02*
X317400D01*
X316000Y702100D02*
Y704900D01*
X292100Y703350D02*
X294900D01*
X293500Y701950D02*
Y704750D01*
X306100Y470500D02*
X308900D01*
X307500Y469100D02*
Y471900D01*
X238878Y702500D02*
X241677D01*
X240278Y701100D02*
Y703900D01*
X173736Y471000D02*
X176536D01*
X175136Y469600D02*
Y472400D01*
X235600Y470500D02*
X238400D01*
X237000Y469100D02*
Y471900D01*
X149600Y699500D02*
X152400D01*
X151000Y698100D02*
Y700900D01*
X136100Y270000D02*
X138900D01*
X137500Y268600D02*
Y271400D01*
X136100Y203000D02*
X138900D01*
X137500Y201600D02*
Y204400D01*
X371600Y697500D02*
X374400D01*
X373000Y696100D02*
Y698900D01*
X370600Y710500D02*
X373400D01*
X372000Y709100D02*
Y711900D01*
X402600Y710500D02*
X405400D01*
X404000Y709100D02*
Y711900D01*
X266600Y688000D02*
X269400D01*
X268000Y686600D02*
Y689400D01*
X266359Y648000D02*
X269159D01*
X267759Y646600D02*
Y649400D01*
X148600Y648000D02*
X151400D01*
X150000Y646600D02*
Y649400D01*
X203600Y456000D02*
X206400D01*
X205000Y454600D02*
Y457400D01*
X203600Y222500D02*
X206400D01*
X205000Y221100D02*
Y223900D01*
X203600Y239000D02*
X206400D01*
X205000Y237600D02*
Y240400D01*
X464100Y349500D02*
X466900D01*
X465500Y348100D02*
Y350900D01*
X418100Y350000D02*
X420900D01*
X419500Y348600D02*
Y351400D01*
X418600Y271500D02*
X421400D01*
X420000Y270100D02*
Y272900D01*
X387600Y343500D02*
X390400D01*
X389000Y342100D02*
Y344900D01*
X387100Y271000D02*
X389900D01*
X388500Y269600D02*
Y272400D01*
X510600Y338000D02*
X513400D01*
X512000Y336600D02*
Y339400D01*
X352600Y338000D02*
X355400D01*
X354000Y336600D02*
Y339400D01*
X542100Y331500D02*
X544900D01*
X543500Y330100D02*
Y332900D01*
X344100Y330000D02*
X346900D01*
X345500Y328600D02*
Y331400D01*
X337600Y284500D02*
X340400D01*
X339000Y283100D02*
Y285900D01*
X313600Y298000D02*
X316400D01*
X315000Y296600D02*
Y299400D01*
X413100Y156500D02*
X415900D01*
X414500Y155100D02*
Y157900D01*
X398600Y227000D02*
X401400D01*
X400000Y225600D02*
Y228400D01*
X368100Y232500D02*
X370900D01*
X369500Y231100D02*
Y233900D01*
X353100Y259000D02*
X355900D01*
X354500Y257600D02*
Y260400D01*
X266600Y259000D02*
X269400D01*
X268000Y257600D02*
Y260400D01*
X338100Y310500D02*
X340900D01*
X339500Y309100D02*
Y311900D01*
X320100Y658000D02*
X322900D01*
X321500Y656600D02*
Y659400D01*
X334600Y662500D02*
X337400D01*
X336000Y661100D02*
Y663900D01*
X329100Y667500D02*
X331900D01*
X330500Y666100D02*
Y668900D01*
X292100Y658500D02*
X294900D01*
X293500Y657100D02*
Y659900D01*
X280100Y658500D02*
X282900D01*
X281500Y657100D02*
Y659900D01*
X334600Y674000D02*
X337400D01*
X336000Y672600D02*
Y675400D01*
X329600Y746500D02*
X332400D01*
X331000Y745100D02*
Y747900D01*
X319600Y618000D02*
X322400D01*
X321000Y616600D02*
Y619400D01*
X291600Y615650D02*
X294400D01*
X293000Y614250D02*
Y617050D01*
X253100Y615500D02*
X255900D01*
X254500Y614100D02*
Y616900D01*
X259600Y732000D02*
X262400D01*
X261000Y730600D02*
Y733400D01*
X280100Y600000D02*
X282900D01*
X281500Y598600D02*
Y601400D01*
X211100Y413000D02*
X213900D01*
X212500Y411600D02*
Y414400D01*
X233600Y384500D02*
X236400D01*
X235000Y383100D02*
Y385900D01*
X257100Y384500D02*
X259900D01*
X258500Y383100D02*
Y385900D01*
X306100Y384500D02*
X308900D01*
X307500Y383100D02*
Y385900D01*
X196100Y232500D02*
X198900D01*
X197500Y231100D02*
Y233900D01*
X188600Y384500D02*
X191400D01*
X190000Y383100D02*
Y385900D01*
X286100Y384000D02*
X288900D01*
X287500Y382600D02*
Y385400D01*
X196100Y499000D02*
X198900D01*
X197500Y497600D02*
Y500400D01*
X218600Y369500D02*
X221400D01*
X220000Y368100D02*
Y370900D01*
X125100Y653000D02*
X127900D01*
X126500Y651600D02*
Y654400D01*
X259489Y653000D02*
X262289D01*
X260889Y651600D02*
Y654400D01*
X172100Y641500D02*
X174900D01*
X173500Y640100D02*
Y642900D01*
X273230Y642000D02*
X276029D01*
X274629Y640600D02*
Y643400D01*
X280100Y636500D02*
X282900D01*
X281500Y635100D02*
Y637900D01*
X195600Y636000D02*
X198400D01*
X197000Y634600D02*
Y637400D01*
X225100Y769000D02*
X227900D01*
X226500Y767600D02*
Y770400D01*
X204600Y749000D02*
X207400D01*
X206000Y747600D02*
Y750400D01*
X252600Y691000D02*
X255400D01*
X254000Y689600D02*
Y692400D01*
X195100Y691000D02*
X197900D01*
X196500Y689600D02*
Y692400D01*
X196100Y769500D02*
X198900D01*
X197500Y768100D02*
Y770900D01*
X125100Y749000D02*
X127900D01*
X126500Y747600D02*
Y750400D01*
X210600Y195000D02*
X213400D01*
X212000Y193600D02*
Y196400D01*
X210600Y212000D02*
X213400D01*
X212000Y210600D02*
Y213400D01*
X218600Y202500D02*
X221400D01*
X220000Y201100D02*
Y203900D01*
X218600Y152000D02*
X221400D01*
X220000Y150600D02*
Y153400D01*
X196100Y281000D02*
X198900D01*
X197500Y279600D02*
Y282400D01*
X187100Y183000D02*
X189900D01*
X188500Y181600D02*
Y184400D01*
X102600Y252500D02*
X105400D01*
X104000Y251100D02*
Y253900D01*
X122100Y222500D02*
X124900D01*
X123500Y221100D02*
Y223900D01*
X187600Y242500D02*
X190400D01*
X189000Y241100D02*
Y243900D01*
X113700Y120000D02*
X126300D01*
X120000Y113700D02*
Y126300D01*
X782200Y788500D02*
X794800D01*
X788500Y782200D02*
Y794800D01*
X782200Y120000D02*
X794800D01*
X788500Y113700D02*
Y126300D01*
X113700Y788500D02*
X126300D01*
X120000Y782200D02*
Y794800D01*
M02*
