G04*
G04 #@! TF.GenerationSoftware,Altium Limited,Altium Designer,25.5.2 (35)*
G04*
G04 Layer_Color=12632256*
%FSLAX25Y25*%
%MOIN*%
G70*
G04*
G04 #@! TF.SameCoordinates,EC32A686-E373-4CB4-AF31-63D9CFDA87CC*
G04*
G04*
G04 #@! TF.FilePolarity,Positive*
G04*
G01*
G75*
%ADD23C,0.06000*%
%ADD27C,0.06299*%
G04:AMPARAMS|DCode=28|XSize=62.99mil|YSize=62.99mil|CornerRadius=15.75mil|HoleSize=0mil|Usage=FLASHONLY|Rotation=270.000|XOffset=0mil|YOffset=0mil|HoleType=Round|Shape=RoundedRectangle|*
%AMROUNDEDRECTD28*
21,1,0.06299,0.03150,0,0,270.0*
21,1,0.03150,0.06299,0,0,270.0*
1,1,0.03150,-0.01575,-0.01575*
1,1,0.03150,-0.01575,0.01575*
1,1,0.03150,0.01575,0.01575*
1,1,0.03150,0.01575,-0.01575*
%
%ADD28ROUNDEDRECTD28*%
%ADD29C,0.05906*%
D23*
X639500Y762500D02*
D03*
Y673833D02*
D03*
Y718167D02*
D03*
X616500Y673500D02*
D03*
Y762500D02*
D03*
X596500Y732500D02*
D03*
X616500Y718000D02*
D03*
X596500Y688000D02*
D03*
X639500Y629500D02*
D03*
X616500Y629000D02*
D03*
X596500Y599000D02*
D03*
Y643500D02*
D03*
X522000Y718333D02*
D03*
Y763000D02*
D03*
X502000Y733000D02*
D03*
X522000Y673667D02*
D03*
X502000Y688333D02*
D03*
X522000Y629000D02*
D03*
X502000Y643667D02*
D03*
Y599000D02*
D03*
X678500Y504000D02*
D03*
X719500Y466000D02*
D03*
X675500D02*
D03*
X648500Y524000D02*
D03*
X631500Y466000D02*
D03*
X704500Y297000D02*
D03*
X662000D02*
D03*
X543500Y499000D02*
D03*
X539500Y286000D02*
D03*
X499500Y499000D02*
D03*
X583000Y286000D02*
D03*
Y236000D02*
D03*
X493000Y286000D02*
D03*
X364000Y718000D02*
D03*
Y762000D02*
D03*
X381500Y689000D02*
D03*
X364000Y674000D02*
D03*
Y630000D02*
D03*
X294000Y762000D02*
D03*
Y718000D02*
D03*
Y674000D02*
D03*
Y630000D02*
D03*
X410000Y527000D02*
D03*
X381000Y602500D02*
D03*
X367000Y527000D02*
D03*
X287500Y529000D02*
D03*
Y486000D02*
D03*
Y443000D02*
D03*
X237500Y529000D02*
D03*
Y443000D02*
D03*
Y486000D02*
D03*
X377500Y241000D02*
D03*
X287500Y399500D02*
D03*
X307500Y312000D02*
D03*
Y269000D02*
D03*
X287500Y282000D02*
D03*
X237500Y399500D02*
D03*
X331000Y241000D02*
D03*
X307500Y225500D02*
D03*
X287500Y239000D02*
D03*
Y195500D02*
D03*
X307500Y182500D02*
D03*
X287500Y152500D02*
D03*
X482000Y718333D02*
D03*
Y688333D02*
D03*
X452000Y718333D02*
D03*
X502000D02*
D03*
X452000Y688333D02*
D03*
X522000D02*
D03*
X546500Y599000D02*
D03*
X482000D02*
D03*
X452000Y629000D02*
D03*
X411000Y632500D02*
D03*
X639500Y599500D02*
D03*
X482000Y629000D02*
D03*
X307500Y369500D02*
D03*
Y413000D02*
D03*
Y456000D02*
D03*
Y499000D02*
D03*
X648500Y504000D02*
D03*
X344000Y630000D02*
D03*
Y718000D02*
D03*
Y762000D02*
D03*
Y674000D02*
D03*
X616500Y732500D02*
D03*
X709500Y732500D02*
D03*
X522000Y733000D02*
D03*
X616500Y688000D02*
D03*
X709500Y688167D02*
D03*
X616500Y643500D02*
D03*
X709500Y643833D02*
D03*
X522000Y643667D02*
D03*
X616500Y599000D02*
D03*
X709500Y599500D02*
D03*
X522000Y599000D02*
D03*
X307500Y152500D02*
D03*
X287500Y182500D02*
D03*
Y269000D02*
D03*
X307500Y239000D02*
D03*
Y195500D02*
D03*
X287500Y225500D02*
D03*
Y312000D02*
D03*
X307500Y282000D02*
D03*
X719500Y436000D02*
D03*
Y416000D02*
D03*
Y396000D02*
D03*
X689500D02*
D03*
Y416000D02*
D03*
Y436000D02*
D03*
Y466000D02*
D03*
X645500D02*
D03*
X601500D02*
D03*
X576500Y688000D02*
D03*
X674500Y267000D02*
D03*
X704500D02*
D03*
X576500Y732500D02*
D03*
Y762500D02*
D03*
X546500Y732500D02*
D03*
X596500Y762500D02*
D03*
X546500D02*
D03*
X482000Y733000D02*
D03*
X674500Y297000D02*
D03*
X648500Y574000D02*
D03*
X632000Y297000D02*
D03*
X411500Y689000D02*
D03*
X411000Y602500D02*
D03*
X689500Y732500D02*
D03*
X583000Y256000D02*
D03*
Y216000D02*
D03*
X553000D02*
D03*
Y236000D02*
D03*
Y256000D02*
D03*
Y286000D02*
D03*
X502000Y763000D02*
D03*
X452000Y733000D02*
D03*
X307500Y529000D02*
D03*
X463000Y216000D02*
D03*
X287500Y499000D02*
D03*
X237500Y312000D02*
D03*
X502000Y673667D02*
D03*
X452000Y643667D02*
D03*
X307500Y443000D02*
D03*
X509500Y236000D02*
D03*
X287500Y413000D02*
D03*
X237500Y225500D02*
D03*
X367000Y457000D02*
D03*
X267500Y499000D02*
D03*
Y529000D02*
D03*
X237500Y499000D02*
D03*
X267500Y486000D02*
D03*
Y456000D02*
D03*
X307500Y486000D02*
D03*
X237500Y456000D02*
D03*
X287500D02*
D03*
Y369500D02*
D03*
X539500Y236000D02*
D03*
X237500Y269000D02*
D03*
X337000Y457000D02*
D03*
Y477000D02*
D03*
X411500Y739000D02*
D03*
X294000Y688000D02*
D03*
X237500Y239000D02*
D03*
X307500Y399500D02*
D03*
X324000Y718000D02*
D03*
X364000Y688000D02*
D03*
X344000D02*
D03*
X324000D02*
D03*
X381000Y652500D02*
D03*
X294000Y644000D02*
D03*
X237500Y413000D02*
D03*
Y195500D02*
D03*
X411000Y652500D02*
D03*
X294000Y600000D02*
D03*
X237500Y369500D02*
D03*
Y152500D02*
D03*
X539500Y256000D02*
D03*
Y216000D02*
D03*
X509500D02*
D03*
Y256000D02*
D03*
Y286000D02*
D03*
X493000Y256000D02*
D03*
Y236000D02*
D03*
Y216000D02*
D03*
X463000Y236000D02*
D03*
Y256000D02*
D03*
Y286000D02*
D03*
X674500Y227000D02*
D03*
X601500Y396000D02*
D03*
X502000Y629000D02*
D03*
X452000Y599000D02*
D03*
X237500Y182500D02*
D03*
X662000Y227000D02*
D03*
X337000Y527000D02*
D03*
X407500Y241000D02*
D03*
X380000Y527000D02*
D03*
X361000Y241000D02*
D03*
X632000Y227000D02*
D03*
X704500D02*
D03*
X410000Y497000D02*
D03*
Y477000D02*
D03*
Y457000D02*
D03*
X380000D02*
D03*
Y477000D02*
D03*
Y497000D02*
D03*
X367000D02*
D03*
Y477000D02*
D03*
X337000Y497000D02*
D03*
X267500Y269000D02*
D03*
Y239000D02*
D03*
Y312000D02*
D03*
Y282000D02*
D03*
X237500D02*
D03*
X331000Y271000D02*
D03*
Y291000D02*
D03*
Y311000D02*
D03*
X361000D02*
D03*
Y291000D02*
D03*
Y271000D02*
D03*
X377500D02*
D03*
Y291000D02*
D03*
Y311000D02*
D03*
X407500D02*
D03*
Y291000D02*
D03*
Y271000D02*
D03*
X267500Y399500D02*
D03*
Y369500D02*
D03*
Y413000D02*
D03*
Y443000D02*
D03*
Y225500D02*
D03*
Y195500D02*
D03*
Y182500D02*
D03*
Y152500D02*
D03*
X324000Y630000D02*
D03*
X364000Y600000D02*
D03*
X344000D02*
D03*
X324000D02*
D03*
X648500Y544000D02*
D03*
X678500Y524000D02*
D03*
Y544000D02*
D03*
Y574000D02*
D03*
X469500Y499000D02*
D03*
Y469000D02*
D03*
Y449000D02*
D03*
Y429000D02*
D03*
X499500D02*
D03*
Y449000D02*
D03*
Y469000D02*
D03*
X513500Y499000D02*
D03*
Y469000D02*
D03*
Y449000D02*
D03*
Y429000D02*
D03*
X543500D02*
D03*
Y449000D02*
D03*
Y469000D02*
D03*
X645500Y436000D02*
D03*
Y416000D02*
D03*
Y396000D02*
D03*
X675500D02*
D03*
Y416000D02*
D03*
Y436000D02*
D03*
X632000Y267000D02*
D03*
Y247000D02*
D03*
X662000D02*
D03*
Y267000D02*
D03*
X674500Y247000D02*
D03*
X704500D02*
D03*
X411500Y719000D02*
D03*
Y759000D02*
D03*
X381500D02*
D03*
Y739000D02*
D03*
Y719000D02*
D03*
X411000Y672500D02*
D03*
X381000D02*
D03*
Y632500D02*
D03*
X324000Y644000D02*
D03*
X344000D02*
D03*
X364000D02*
D03*
X324000Y674000D02*
D03*
X294000Y732000D02*
D03*
X324000D02*
D03*
X344000D02*
D03*
X364000D02*
D03*
X324000Y762000D02*
D03*
X576500Y599000D02*
D03*
Y643500D02*
D03*
X452000Y673667D02*
D03*
Y763000D02*
D03*
X601500Y436000D02*
D03*
Y416000D02*
D03*
X631500Y396000D02*
D03*
Y416000D02*
D03*
Y436000D02*
D03*
X669500Y599500D02*
D03*
X689500D02*
D03*
X709500Y629500D02*
D03*
X689500D02*
D03*
X669500D02*
D03*
X596500Y629000D02*
D03*
X576500D02*
D03*
X546500D02*
D03*
X482000Y643667D02*
D03*
Y673667D02*
D03*
X639500Y643833D02*
D03*
X669500D02*
D03*
X689500D02*
D03*
X709500Y673833D02*
D03*
X689500D02*
D03*
X669500D02*
D03*
X546500Y643500D02*
D03*
X596500Y673500D02*
D03*
X576500D02*
D03*
X546500D02*
D03*
X639500Y688167D02*
D03*
X669500D02*
D03*
X689500D02*
D03*
X709500Y718167D02*
D03*
X689500D02*
D03*
X669500D02*
D03*
X546500Y688000D02*
D03*
X596500Y718000D02*
D03*
X576500D02*
D03*
X546500D02*
D03*
X482000Y763000D02*
D03*
X639500Y732500D02*
D03*
X669500D02*
D03*
X709500Y762500D02*
D03*
X689500D02*
D03*
X669500D02*
D03*
D27*
X154500Y222500D02*
D03*
X164500Y232500D02*
D03*
X154500Y252500D02*
D03*
X164500Y242500D02*
D03*
Y202500D02*
D03*
Y212500D02*
D03*
Y222500D02*
D03*
X154500Y202500D02*
D03*
X164500Y252500D02*
D03*
X154500Y212500D02*
D03*
Y232500D02*
D03*
Y242500D02*
D03*
X164500Y272500D02*
D03*
X154500Y262500D02*
D03*
X164500D02*
D03*
X154500Y182500D02*
D03*
X164500D02*
D03*
Y192500D02*
D03*
X154500D02*
D03*
X788000Y507500D02*
D03*
X778000D02*
D03*
X788000Y497500D02*
D03*
X778000D02*
D03*
Y427500D02*
D03*
X788000D02*
D03*
X778000Y417500D02*
D03*
Y437500D02*
D03*
Y447500D02*
D03*
Y467500D02*
D03*
Y457500D02*
D03*
Y487500D02*
D03*
X788000D02*
D03*
Y437500D02*
D03*
Y447500D02*
D03*
Y457500D02*
D03*
Y467500D02*
D03*
Y477500D02*
D03*
X778000D02*
D03*
D28*
X154500Y272500D02*
D03*
X788000Y417500D02*
D03*
D29*
X376500Y429500D02*
D03*
Y419500D02*
D03*
X353500Y429500D02*
D03*
Y419500D02*
D03*
X329500Y429500D02*
D03*
Y419500D02*
D03*
X400500Y429500D02*
D03*
Y419500D02*
D03*
X185500Y734000D02*
D03*
X637000Y360000D02*
D03*
X165500Y326167D02*
D03*
X138167Y724000D02*
D03*
X564833Y569000D02*
D03*
X708500Y370000D02*
D03*
X684500D02*
D03*
X588500Y569000D02*
D03*
X161833Y724000D02*
D03*
X114500Y667500D02*
D03*
X161833D02*
D03*
X155500Y326167D02*
D03*
X352167Y385500D02*
D03*
X138167Y667500D02*
D03*
X328500Y375500D02*
D03*
X138667Y613000D02*
D03*
X186000Y623000D02*
D03*
Y613000D02*
D03*
X138667Y623000D02*
D03*
X162333D02*
D03*
Y613000D02*
D03*
X115000Y623000D02*
D03*
X511667Y180000D02*
D03*
Y190000D02*
D03*
X535333Y180000D02*
D03*
Y190000D02*
D03*
X559000Y180000D02*
D03*
Y190000D02*
D03*
X488000Y180000D02*
D03*
Y190000D02*
D03*
X185500Y667500D02*
D03*
X114500Y724000D02*
D03*
X376833Y211000D02*
D03*
Y201000D02*
D03*
X329500Y211000D02*
D03*
Y201000D02*
D03*
X353167Y211000D02*
D03*
Y201000D02*
D03*
X400500Y211000D02*
D03*
Y201000D02*
D03*
X328500Y385500D02*
D03*
X375833D02*
D03*
Y375500D02*
D03*
X399500Y385500D02*
D03*
Y375500D02*
D03*
X352167D02*
D03*
X660667Y360000D02*
D03*
Y370000D02*
D03*
X684500Y360000D02*
D03*
X637000Y370000D02*
D03*
X708500Y360000D02*
D03*
X517500Y569000D02*
D03*
X541167D02*
D03*
X115000Y613000D02*
D03*
X496167Y403500D02*
D03*
X472500D02*
D03*
X588500Y559000D02*
D03*
X541167D02*
D03*
X517500D02*
D03*
X564833D02*
D03*
X496167Y393500D02*
D03*
X519833D02*
D03*
Y403500D02*
D03*
X472500Y393500D02*
D03*
X606833Y360000D02*
D03*
Y370000D02*
D03*
X161833Y734000D02*
D03*
X138167D02*
D03*
X185500Y724000D02*
D03*
X114500Y734000D02*
D03*
X544000Y393500D02*
D03*
Y403500D02*
D03*
X114500Y677500D02*
D03*
X138167D02*
D03*
X161833D02*
D03*
X185500D02*
D03*
M02*
