G04*
G04 #@! TF.GenerationSoftware,Altium Limited,Altium Designer,25.5.2 (35)*
G04*
G04 Layer_Color=32768*
%FSLAX25Y25*%
%MOIN*%
G70*
G04*
G04 #@! TF.SameCoordinates,EC32A686-E373-4CB4-AF31-63D9CFDA87CC*
G04*
G04*
G04 #@! TF.FilePolarity,Positive*
G04*
G01*
G75*
%ADD16C,0.00394*%
%ADD48R,0.02854X0.17717*%
D16*
X372059Y430764D02*
G03*
X380939Y430766I4441J-6383D01*
G01*
X349059Y430764D02*
G03*
X357939Y430766I4441J-6383D01*
G01*
X325059Y430764D02*
G03*
X333939Y430766I4441J-6383D01*
G01*
X396059Y430764D02*
G03*
X404939Y430766I4441J-6383D01*
G01*
X154235Y321726D02*
G03*
X154234Y330606I6383J4441D01*
G01*
X181559Y624264D02*
G03*
X190439Y624266I4441J-6383D01*
G01*
X134226Y624264D02*
G03*
X143106Y624266I4441J-6383D01*
G01*
X157892Y624264D02*
G03*
X166772Y624266I4441J-6383D01*
G01*
X507226Y191264D02*
G03*
X516106Y191266I4441J-6383D01*
G01*
X530892Y191264D02*
G03*
X539773Y191266I4441J-6383D01*
G01*
X554559Y191264D02*
G03*
X563439Y191266I4441J-6383D01*
G01*
X483559Y191264D02*
G03*
X492439Y191266I4441J-6383D01*
G01*
X372392Y212264D02*
G03*
X381273Y212266I4441J-6383D01*
G01*
X325059Y212264D02*
G03*
X333939Y212266I4441J-6383D01*
G01*
X348726Y212264D02*
G03*
X357606Y212266I4441J-6383D01*
G01*
X396059Y212264D02*
G03*
X404939Y212266I4441J-6383D01*
G01*
X324059Y386764D02*
G03*
X332939Y386766I4441J-6383D01*
G01*
X371392Y386764D02*
G03*
X380273Y386766I4441J-6383D01*
G01*
X395059Y386764D02*
G03*
X403939Y386766I4441J-6383D01*
G01*
X347726Y386764D02*
G03*
X356606Y386766I4441J-6383D01*
G01*
X665108Y358736D02*
G03*
X656227Y358734I-4441J6383D01*
G01*
X688941Y358736D02*
G03*
X680061Y358734I-4441J6383D01*
G01*
X641441Y358736D02*
G03*
X632561Y358734I-4441J6383D01*
G01*
X592941Y557735D02*
G03*
X584061Y557734I-4441J6383D01*
G01*
X545608Y557735D02*
G03*
X536728Y557734I-4441J6383D01*
G01*
X521941Y557735D02*
G03*
X513061Y557734I-4441J6383D01*
G01*
X569274Y557735D02*
G03*
X560394Y557734I-4441J6383D01*
G01*
X500608Y392236D02*
G03*
X491727Y392234I-4441J6383D01*
G01*
X524274Y392236D02*
G03*
X515394Y392234I-4441J6383D01*
G01*
X476941Y392236D02*
G03*
X468061Y392234I-4441J6383D01*
G01*
X611274Y358736D02*
G03*
X602394Y358734I-4441J6383D01*
G01*
X712941Y358736D02*
G03*
X704061Y358734I-4441J6383D01*
G01*
X110559Y624264D02*
G03*
X119439Y624266I4441J-6383D01*
G01*
X157392Y735264D02*
G03*
X166272Y735266I4441J-6383D01*
G01*
X133726Y735264D02*
G03*
X142606Y735266I4441J-6383D01*
G01*
X181059Y735264D02*
G03*
X189939Y735266I4441J-6383D01*
G01*
X110059Y735264D02*
G03*
X118939Y735266I4441J-6383D01*
G01*
X548441Y392236D02*
G03*
X539561Y392234I-4441J6383D01*
G01*
X110059Y678764D02*
G03*
X118939Y678766I4441J-6383D01*
G01*
X133726Y678764D02*
G03*
X142606Y678766I4441J-6383D01*
G01*
X157392Y678764D02*
G03*
X166272Y678766I4441J-6383D01*
G01*
X181059Y678764D02*
G03*
X189939Y678766I4441J-6383D01*
G01*
X142079Y292579D02*
X176921D01*
X142079Y162421D02*
Y292579D01*
Y162421D02*
X176921D01*
Y292579D01*
X372059Y430764D02*
X380941D01*
X349059D02*
X357941D01*
X325059D02*
X333941D01*
X396059D02*
X404941D01*
X154235Y321726D02*
Y330608D01*
X181559Y624264D02*
X190441D01*
X134226D02*
X143108D01*
X157892D02*
X166774D01*
X507226Y191264D02*
X516108D01*
X530892D02*
X539774D01*
X554559D02*
X563441D01*
X483559D02*
X492441D01*
X372392Y212264D02*
X381274D01*
X325059D02*
X333941D01*
X348726D02*
X357608D01*
X396059D02*
X404941D01*
X324059Y386764D02*
X332941D01*
X371392D02*
X380274D01*
X395059D02*
X403941D01*
X347726D02*
X356608D01*
X656226Y358736D02*
X665108D01*
X680059D02*
X688941D01*
X632559D02*
X641441D01*
X584059Y557735D02*
X592941D01*
X536726D02*
X545608D01*
X513059D02*
X521941D01*
X560392D02*
X569274D01*
X491726Y392236D02*
X500608D01*
X515392D02*
X524274D01*
X468059D02*
X476941D01*
X602392Y358736D02*
X611274D01*
X704059D02*
X712941D01*
X110559Y624264D02*
X119441D01*
X157392Y735264D02*
X166274D01*
X133726D02*
X142608D01*
X181059D02*
X189941D01*
X110059D02*
X118941D01*
X539559Y392236D02*
X548441D01*
X110059Y678764D02*
X118941D01*
X133726D02*
X142608D01*
X157392D02*
X166274D01*
X181059D02*
X189941D01*
X765579Y397421D02*
X800421D01*
Y527579D01*
X765579D02*
X800421D01*
X765579Y397421D02*
Y527579D01*
D48*
X143506Y227500D02*
D03*
X798994Y462500D02*
D03*
M02*
