G04*
G04 #@! TF.GenerationSoftware,Altium Limited,Altium Designer,25.5.2 (35)*
G04*
G04 Layer_Color=16711935*
%FSLAX25Y25*%
%MOIN*%
G70*
G04*
G04 #@! TF.SameCoordinates,EC32A686-E373-4CB4-AF31-63D9CFDA87CC*
G04*
G04*
G04 #@! TF.FilePolarity,Positive*
G04*
G01*
G75*
%ADD49C,0.00197*%
D49*
X385555Y424500D02*
G03*
X385555Y424500I-9055J0D01*
G01*
X362555D02*
G03*
X362555Y424500I-9055J0D01*
G01*
X338555D02*
G03*
X338555Y424500I-9055J0D01*
G01*
X409555D02*
G03*
X409555Y424500I-9055J0D01*
G01*
X169555Y326167D02*
G03*
X169555Y326167I-9055J0D01*
G01*
X195055Y618000D02*
G03*
X195055Y618000I-9055J0D01*
G01*
X147722D02*
G03*
X147722Y618000I-9055J0D01*
G01*
X171388D02*
G03*
X171388Y618000I-9055J0D01*
G01*
X520722Y185000D02*
G03*
X520722Y185000I-9055J0D01*
G01*
X544388D02*
G03*
X544388Y185000I-9055J0D01*
G01*
X568055D02*
G03*
X568055Y185000I-9055J0D01*
G01*
X497055D02*
G03*
X497055Y185000I-9055J0D01*
G01*
X385888Y206000D02*
G03*
X385888Y206000I-9055J0D01*
G01*
X338555D02*
G03*
X338555Y206000I-9055J0D01*
G01*
X362222D02*
G03*
X362222Y206000I-9055J0D01*
G01*
X409555D02*
G03*
X409555Y206000I-9055J0D01*
G01*
X337555Y380500D02*
G03*
X337555Y380500I-9055J0D01*
G01*
X384888D02*
G03*
X384888Y380500I-9055J0D01*
G01*
X408555D02*
G03*
X408555Y380500I-9055J0D01*
G01*
X361222D02*
G03*
X361222Y380500I-9055J0D01*
G01*
X669722Y365000D02*
G03*
X669722Y365000I-9055J0D01*
G01*
X693555D02*
G03*
X693555Y365000I-9055J0D01*
G01*
X646055D02*
G03*
X646055Y365000I-9055J0D01*
G01*
X597555Y564000D02*
G03*
X597555Y564000I-9055J0D01*
G01*
X550222D02*
G03*
X550222Y564000I-9055J0D01*
G01*
X526555D02*
G03*
X526555Y564000I-9055J0D01*
G01*
X573888D02*
G03*
X573888Y564000I-9055J0D01*
G01*
X505222Y398500D02*
G03*
X505222Y398500I-9055J0D01*
G01*
X528889D02*
G03*
X528889Y398500I-9055J0D01*
G01*
X481555D02*
G03*
X481555Y398500I-9055J0D01*
G01*
X615888Y365000D02*
G03*
X615888Y365000I-9055J0D01*
G01*
X717555D02*
G03*
X717555Y365000I-9055J0D01*
G01*
X124055Y618000D02*
G03*
X124055Y618000I-9055J0D01*
G01*
X170888Y729000D02*
G03*
X170888Y729000I-9055J0D01*
G01*
X147222D02*
G03*
X147222Y729000I-9055J0D01*
G01*
X194555D02*
G03*
X194555Y729000I-9055J0D01*
G01*
X123555D02*
G03*
X123555Y729000I-9055J0D01*
G01*
X553055Y398500D02*
G03*
X553055Y398500I-9055J0D01*
G01*
X123555Y672500D02*
G03*
X123555Y672500I-9055J0D01*
G01*
X147222D02*
G03*
X147222Y672500I-9055J0D01*
G01*
X170888D02*
G03*
X170888Y672500I-9055J0D01*
G01*
X194555D02*
G03*
X194555Y672500I-9055J0D01*
G01*
X178595Y161240D02*
Y293760D01*
X140996Y161240D02*
X178595D01*
X140996D02*
Y293760D01*
X178595D01*
X376500Y422532D02*
Y426469D01*
X374532Y424500D02*
X378468D01*
X353500Y422532D02*
Y426469D01*
X351532Y424500D02*
X355469D01*
X329500Y422532D02*
Y426469D01*
X327532Y424500D02*
X331469D01*
X400500Y422532D02*
Y426469D01*
X398532Y424500D02*
X402468D01*
X158531Y326167D02*
X162469D01*
X160500Y324198D02*
Y328135D01*
X186000Y616032D02*
Y619969D01*
X184031Y618000D02*
X187969D01*
X138667Y616032D02*
Y619969D01*
X136698Y618000D02*
X140635D01*
X162333Y616032D02*
Y619969D01*
X160365Y618000D02*
X164302D01*
X511667Y183031D02*
Y186969D01*
X509698Y185000D02*
X513635D01*
X535333Y183031D02*
Y186969D01*
X533365Y185000D02*
X537302D01*
X559000Y183031D02*
Y186969D01*
X557031Y185000D02*
X560968D01*
X488000Y183031D02*
Y186969D01*
X486031Y185000D02*
X489968D01*
X376833Y204031D02*
Y207968D01*
X374865Y206000D02*
X378802D01*
X329500Y204031D02*
Y207968D01*
X327532Y206000D02*
X331469D01*
X353167Y204031D02*
Y207968D01*
X351198Y206000D02*
X355135D01*
X400500Y204031D02*
Y207968D01*
X398532Y206000D02*
X402468D01*
X328500Y378532D02*
Y382469D01*
X326532Y380500D02*
X330469D01*
X375833Y378532D02*
Y382469D01*
X373865Y380500D02*
X377802D01*
X399500Y378532D02*
Y382469D01*
X397532Y380500D02*
X401469D01*
X352167Y378532D02*
Y382469D01*
X350198Y380500D02*
X354135D01*
X660667Y363032D02*
Y366968D01*
X658698Y365000D02*
X662635D01*
X684500Y363032D02*
Y366968D01*
X682531Y365000D02*
X686469D01*
X637000Y363032D02*
Y366968D01*
X635032Y365000D02*
X638969D01*
X586531Y564000D02*
X590469D01*
X588500Y562032D02*
Y565969D01*
X539198Y564000D02*
X543135D01*
X541167Y562032D02*
Y565969D01*
X515531Y564000D02*
X519468D01*
X517500Y562032D02*
Y565969D01*
X562865Y564000D02*
X566802D01*
X564833Y562032D02*
Y565969D01*
X494198Y398500D02*
X498135D01*
X496167Y396532D02*
Y400468D01*
X517865Y398500D02*
X521802D01*
X519833Y396532D02*
Y400468D01*
X470532Y398500D02*
X474469D01*
X472500Y396532D02*
Y400468D01*
X604865Y365000D02*
X608802D01*
X606833Y363032D02*
Y366968D01*
X706531Y365000D02*
X710468D01*
X708500Y363032D02*
Y366968D01*
X113031Y618000D02*
X116969D01*
X115000Y616032D02*
Y619969D01*
X159865Y729000D02*
X163802D01*
X161833Y727032D02*
Y730969D01*
X136198Y729000D02*
X140135D01*
X138167Y727032D02*
Y730969D01*
X183531Y729000D02*
X187469D01*
X185500Y727032D02*
Y730969D01*
X112531Y729000D02*
X116469D01*
X114500Y727032D02*
Y730969D01*
X542031Y398500D02*
X545968D01*
X544000Y396532D02*
Y400468D01*
X112531Y672500D02*
X116469D01*
X114500Y670532D02*
Y674469D01*
X136198Y672500D02*
X140135D01*
X138167Y670532D02*
Y674469D01*
X159865Y672500D02*
X163802D01*
X161833Y670532D02*
Y674469D01*
X183531Y672500D02*
X187469D01*
X185500Y670532D02*
Y674469D01*
X763905Y396240D02*
Y528760D01*
X801504D01*
Y396240D02*
Y528760D01*
X763905Y396240D02*
X801504D01*
M02*
