G04*
G04 #@! TF.GenerationSoftware,Altium Limited,Altium Designer,25.5.2 (35)*
G04*
G04 Layer_Color=255*
%FSLAX25Y25*%
%MOIN*%
G70*
G04*
G04 #@! TF.SameCoordinates,EC32A686-E373-4CB4-AF31-63D9CFDA87CC*
G04*
G04*
G04 #@! TF.FilePolarity,Positive*
G04*
G01*
G75*
%ADD23C,0.06000*%
%ADD27C,0.06299*%
G04:AMPARAMS|DCode=28|XSize=62.99mil|YSize=62.99mil|CornerRadius=15.75mil|HoleSize=0mil|Usage=FLASHONLY|Rotation=270.000|XOffset=0mil|YOffset=0mil|HoleType=Round|Shape=RoundedRectangle|*
%AMROUNDEDRECTD28*
21,1,0.06299,0.03150,0,0,270.0*
21,1,0.03150,0.06299,0,0,270.0*
1,1,0.03150,-0.01575,-0.01575*
1,1,0.03150,-0.01575,0.01575*
1,1,0.03150,0.01575,0.01575*
1,1,0.03150,0.01575,-0.01575*
%
%ADD28ROUNDEDRECTD28*%
%ADD29C,0.05906*%
%ADD40R,0.13600X0.05200*%
%ADD41R,0.06500X0.08600*%
%ADD42R,0.08600X0.06500*%
%ADD43R,0.05200X0.13600*%
D23*
X639500Y762500D02*
D03*
Y673833D02*
D03*
Y718167D02*
D03*
X616500Y673500D02*
D03*
Y762500D02*
D03*
X596500Y732500D02*
D03*
X616500Y718000D02*
D03*
X596500Y688000D02*
D03*
X639500Y629500D02*
D03*
X616500Y629000D02*
D03*
X596500Y599000D02*
D03*
Y643500D02*
D03*
X522000Y718333D02*
D03*
Y763000D02*
D03*
X502000Y733000D02*
D03*
X522000Y673667D02*
D03*
X502000Y688333D02*
D03*
X522000Y629000D02*
D03*
X502000Y643667D02*
D03*
Y599000D02*
D03*
X678500Y504000D02*
D03*
X719500Y466000D02*
D03*
X675500D02*
D03*
X648500Y524000D02*
D03*
X631500Y466000D02*
D03*
X704500Y297000D02*
D03*
X662000D02*
D03*
X543500Y499000D02*
D03*
X539500Y286000D02*
D03*
X499500Y499000D02*
D03*
X583000Y286000D02*
D03*
Y236000D02*
D03*
X493000Y286000D02*
D03*
X364000Y718000D02*
D03*
Y762000D02*
D03*
X381500Y689000D02*
D03*
X364000Y674000D02*
D03*
Y630000D02*
D03*
X294000Y762000D02*
D03*
Y718000D02*
D03*
Y674000D02*
D03*
Y630000D02*
D03*
X410000Y527000D02*
D03*
X381000Y602500D02*
D03*
X367000Y527000D02*
D03*
X287500Y529000D02*
D03*
Y486000D02*
D03*
Y443000D02*
D03*
X237500Y529000D02*
D03*
Y443000D02*
D03*
Y486000D02*
D03*
X377500Y241000D02*
D03*
X287500Y399500D02*
D03*
X307500Y312000D02*
D03*
Y269000D02*
D03*
X287500Y282000D02*
D03*
X237500Y399500D02*
D03*
X331000Y241000D02*
D03*
X307500Y225500D02*
D03*
X287500Y239000D02*
D03*
Y195500D02*
D03*
X307500Y182500D02*
D03*
X287500Y152500D02*
D03*
X482000Y718333D02*
D03*
Y688333D02*
D03*
X452000Y718333D02*
D03*
X502000D02*
D03*
X452000Y688333D02*
D03*
X522000D02*
D03*
X546500Y599000D02*
D03*
X482000D02*
D03*
X452000Y629000D02*
D03*
X411000Y632500D02*
D03*
X639500Y599500D02*
D03*
X482000Y629000D02*
D03*
X307500Y369500D02*
D03*
Y413000D02*
D03*
Y456000D02*
D03*
Y499000D02*
D03*
X648500Y504000D02*
D03*
X344000Y630000D02*
D03*
Y718000D02*
D03*
Y762000D02*
D03*
Y674000D02*
D03*
X616500Y732500D02*
D03*
X709500Y732500D02*
D03*
X522000Y733000D02*
D03*
X616500Y688000D02*
D03*
X709500Y688167D02*
D03*
X616500Y643500D02*
D03*
X709500Y643833D02*
D03*
X522000Y643667D02*
D03*
X616500Y599000D02*
D03*
X709500Y599500D02*
D03*
X522000Y599000D02*
D03*
X307500Y152500D02*
D03*
X287500Y182500D02*
D03*
Y269000D02*
D03*
X307500Y239000D02*
D03*
Y195500D02*
D03*
X287500Y225500D02*
D03*
Y312000D02*
D03*
X307500Y282000D02*
D03*
X719500Y436000D02*
D03*
Y416000D02*
D03*
Y396000D02*
D03*
X689500D02*
D03*
Y416000D02*
D03*
Y436000D02*
D03*
Y466000D02*
D03*
X645500D02*
D03*
X601500D02*
D03*
X576500Y688000D02*
D03*
X674500Y267000D02*
D03*
X704500D02*
D03*
X576500Y732500D02*
D03*
Y762500D02*
D03*
X546500Y732500D02*
D03*
X596500Y762500D02*
D03*
X546500D02*
D03*
X482000Y733000D02*
D03*
X674500Y297000D02*
D03*
X648500Y574000D02*
D03*
X632000Y297000D02*
D03*
X411500Y689000D02*
D03*
X411000Y602500D02*
D03*
X689500Y732500D02*
D03*
X583000Y256000D02*
D03*
Y216000D02*
D03*
X553000D02*
D03*
Y236000D02*
D03*
Y256000D02*
D03*
Y286000D02*
D03*
X502000Y763000D02*
D03*
X452000Y733000D02*
D03*
X307500Y529000D02*
D03*
X463000Y216000D02*
D03*
X287500Y499000D02*
D03*
X237500Y312000D02*
D03*
X502000Y673667D02*
D03*
X452000Y643667D02*
D03*
X307500Y443000D02*
D03*
X509500Y236000D02*
D03*
X287500Y413000D02*
D03*
X237500Y225500D02*
D03*
X367000Y457000D02*
D03*
X267500Y499000D02*
D03*
Y529000D02*
D03*
X237500Y499000D02*
D03*
X267500Y486000D02*
D03*
Y456000D02*
D03*
X307500Y486000D02*
D03*
X237500Y456000D02*
D03*
X287500D02*
D03*
Y369500D02*
D03*
X539500Y236000D02*
D03*
X237500Y269000D02*
D03*
X337000Y457000D02*
D03*
Y477000D02*
D03*
X411500Y739000D02*
D03*
X294000Y688000D02*
D03*
X237500Y239000D02*
D03*
X307500Y399500D02*
D03*
X324000Y718000D02*
D03*
X364000Y688000D02*
D03*
X344000D02*
D03*
X324000D02*
D03*
X381000Y652500D02*
D03*
X294000Y644000D02*
D03*
X237500Y413000D02*
D03*
Y195500D02*
D03*
X411000Y652500D02*
D03*
X294000Y600000D02*
D03*
X237500Y369500D02*
D03*
Y152500D02*
D03*
X539500Y256000D02*
D03*
Y216000D02*
D03*
X509500D02*
D03*
Y256000D02*
D03*
Y286000D02*
D03*
X493000Y256000D02*
D03*
Y236000D02*
D03*
Y216000D02*
D03*
X463000Y236000D02*
D03*
Y256000D02*
D03*
Y286000D02*
D03*
X674500Y227000D02*
D03*
X601500Y396000D02*
D03*
X502000Y629000D02*
D03*
X452000Y599000D02*
D03*
X237500Y182500D02*
D03*
X662000Y227000D02*
D03*
X337000Y527000D02*
D03*
X407500Y241000D02*
D03*
X380000Y527000D02*
D03*
X361000Y241000D02*
D03*
X632000Y227000D02*
D03*
X704500D02*
D03*
X410000Y497000D02*
D03*
Y477000D02*
D03*
Y457000D02*
D03*
X380000D02*
D03*
Y477000D02*
D03*
Y497000D02*
D03*
X367000D02*
D03*
Y477000D02*
D03*
X337000Y497000D02*
D03*
X267500Y269000D02*
D03*
Y239000D02*
D03*
Y312000D02*
D03*
Y282000D02*
D03*
X237500D02*
D03*
X331000Y271000D02*
D03*
Y291000D02*
D03*
Y311000D02*
D03*
X361000D02*
D03*
Y291000D02*
D03*
Y271000D02*
D03*
X377500D02*
D03*
Y291000D02*
D03*
Y311000D02*
D03*
X407500D02*
D03*
Y291000D02*
D03*
Y271000D02*
D03*
X267500Y399500D02*
D03*
Y369500D02*
D03*
Y413000D02*
D03*
Y443000D02*
D03*
Y225500D02*
D03*
Y195500D02*
D03*
Y182500D02*
D03*
Y152500D02*
D03*
X324000Y630000D02*
D03*
X364000Y600000D02*
D03*
X344000D02*
D03*
X324000D02*
D03*
X648500Y544000D02*
D03*
X678500Y524000D02*
D03*
Y544000D02*
D03*
Y574000D02*
D03*
X469500Y499000D02*
D03*
Y469000D02*
D03*
Y449000D02*
D03*
Y429000D02*
D03*
X499500D02*
D03*
Y449000D02*
D03*
Y469000D02*
D03*
X513500Y499000D02*
D03*
Y469000D02*
D03*
Y449000D02*
D03*
Y429000D02*
D03*
X543500D02*
D03*
Y449000D02*
D03*
Y469000D02*
D03*
X645500Y436000D02*
D03*
Y416000D02*
D03*
Y396000D02*
D03*
X675500D02*
D03*
Y416000D02*
D03*
Y436000D02*
D03*
X632000Y267000D02*
D03*
Y247000D02*
D03*
X662000D02*
D03*
Y267000D02*
D03*
X674500Y247000D02*
D03*
X704500D02*
D03*
X411500Y719000D02*
D03*
Y759000D02*
D03*
X381500D02*
D03*
Y739000D02*
D03*
Y719000D02*
D03*
X411000Y672500D02*
D03*
X381000D02*
D03*
Y632500D02*
D03*
X324000Y644000D02*
D03*
X344000D02*
D03*
X364000D02*
D03*
X324000Y674000D02*
D03*
X294000Y732000D02*
D03*
X324000D02*
D03*
X344000D02*
D03*
X364000D02*
D03*
X324000Y762000D02*
D03*
X576500Y599000D02*
D03*
Y643500D02*
D03*
X452000Y673667D02*
D03*
Y763000D02*
D03*
X601500Y436000D02*
D03*
Y416000D02*
D03*
X631500Y396000D02*
D03*
Y416000D02*
D03*
Y436000D02*
D03*
X669500Y599500D02*
D03*
X689500D02*
D03*
X709500Y629500D02*
D03*
X689500D02*
D03*
X669500D02*
D03*
X596500Y629000D02*
D03*
X576500D02*
D03*
X546500D02*
D03*
X482000Y643667D02*
D03*
Y673667D02*
D03*
X639500Y643833D02*
D03*
X669500D02*
D03*
X689500D02*
D03*
X709500Y673833D02*
D03*
X689500D02*
D03*
X669500D02*
D03*
X546500Y643500D02*
D03*
X596500Y673500D02*
D03*
X576500D02*
D03*
X546500D02*
D03*
X639500Y688167D02*
D03*
X669500D02*
D03*
X689500D02*
D03*
X709500Y718167D02*
D03*
X689500D02*
D03*
X669500D02*
D03*
X546500Y688000D02*
D03*
X596500Y718000D02*
D03*
X576500D02*
D03*
X546500D02*
D03*
X482000Y763000D02*
D03*
X639500Y732500D02*
D03*
X669500D02*
D03*
X709500Y762500D02*
D03*
X689500D02*
D03*
X669500D02*
D03*
D27*
X154500Y222500D02*
D03*
X164500Y232500D02*
D03*
X154500Y252500D02*
D03*
X164500Y242500D02*
D03*
Y202500D02*
D03*
Y212500D02*
D03*
Y222500D02*
D03*
X154500Y202500D02*
D03*
X164500Y252500D02*
D03*
X154500Y212500D02*
D03*
Y232500D02*
D03*
Y242500D02*
D03*
X164500Y272500D02*
D03*
X154500Y262500D02*
D03*
X164500D02*
D03*
X154500Y182500D02*
D03*
X164500D02*
D03*
Y192500D02*
D03*
X154500D02*
D03*
X788000Y507500D02*
D03*
X778000D02*
D03*
X788000Y497500D02*
D03*
X778000D02*
D03*
Y427500D02*
D03*
X788000D02*
D03*
X778000Y417500D02*
D03*
Y437500D02*
D03*
Y447500D02*
D03*
Y467500D02*
D03*
Y457500D02*
D03*
Y487500D02*
D03*
X788000D02*
D03*
Y437500D02*
D03*
Y447500D02*
D03*
Y457500D02*
D03*
Y467500D02*
D03*
Y477500D02*
D03*
X778000D02*
D03*
D28*
X154500Y272500D02*
D03*
X788000Y417500D02*
D03*
D29*
X376500Y429500D02*
D03*
Y419500D02*
D03*
X353500Y429500D02*
D03*
Y419500D02*
D03*
X329500Y429500D02*
D03*
Y419500D02*
D03*
X400500Y429500D02*
D03*
Y419500D02*
D03*
X185500Y734000D02*
D03*
X637000Y360000D02*
D03*
X165500Y326167D02*
D03*
X138167Y724000D02*
D03*
X564833Y569000D02*
D03*
X708500Y370000D02*
D03*
X684500D02*
D03*
X588500Y569000D02*
D03*
X161833Y724000D02*
D03*
X114500Y667500D02*
D03*
X161833D02*
D03*
X155500Y326167D02*
D03*
X352167Y385500D02*
D03*
X138167Y667500D02*
D03*
X328500Y375500D02*
D03*
X138667Y613000D02*
D03*
X186000Y623000D02*
D03*
Y613000D02*
D03*
X138667Y623000D02*
D03*
X162333D02*
D03*
Y613000D02*
D03*
X115000Y623000D02*
D03*
X511667Y180000D02*
D03*
Y190000D02*
D03*
X535333Y180000D02*
D03*
Y190000D02*
D03*
X559000Y180000D02*
D03*
Y190000D02*
D03*
X488000Y180000D02*
D03*
Y190000D02*
D03*
X185500Y667500D02*
D03*
X114500Y724000D02*
D03*
X376833Y211000D02*
D03*
Y201000D02*
D03*
X329500Y211000D02*
D03*
Y201000D02*
D03*
X353167Y211000D02*
D03*
Y201000D02*
D03*
X400500Y211000D02*
D03*
Y201000D02*
D03*
X328500Y385500D02*
D03*
X375833D02*
D03*
Y375500D02*
D03*
X399500Y385500D02*
D03*
Y375500D02*
D03*
X352167D02*
D03*
X660667Y360000D02*
D03*
Y370000D02*
D03*
X684500Y360000D02*
D03*
X637000Y370000D02*
D03*
X708500Y360000D02*
D03*
X517500Y569000D02*
D03*
X541167D02*
D03*
X115000Y613000D02*
D03*
X496167Y403500D02*
D03*
X472500D02*
D03*
X588500Y559000D02*
D03*
X541167D02*
D03*
X517500D02*
D03*
X564833D02*
D03*
X496167Y393500D02*
D03*
X519833D02*
D03*
Y403500D02*
D03*
X472500Y393500D02*
D03*
X606833Y360000D02*
D03*
Y370000D02*
D03*
X161833Y734000D02*
D03*
X138167D02*
D03*
X185500Y724000D02*
D03*
X114500Y734000D02*
D03*
X544000Y393500D02*
D03*
Y403500D02*
D03*
X114500Y677500D02*
D03*
X138167D02*
D03*
X161833D02*
D03*
X185500D02*
D03*
D40*
X197000Y740600D02*
D03*
Y717400D02*
D03*
X600500Y575100D02*
D03*
X576833D02*
D03*
X553167D02*
D03*
X529500D02*
D03*
X672500Y376600D02*
D03*
X648500D02*
D03*
X619000D02*
D03*
X720000D02*
D03*
X696500D02*
D03*
X484500Y409600D02*
D03*
X532000Y409100D02*
D03*
X508000D02*
D03*
X571000Y173400D02*
D03*
X547000D02*
D03*
X523500D02*
D03*
X500000D02*
D03*
X412500Y412400D02*
D03*
X388000Y412900D02*
D03*
X341500Y413400D02*
D03*
X365000Y412300D02*
D03*
X173500Y717900D02*
D03*
X197000Y660900D02*
D03*
X173500Y661400D02*
D03*
X150000Y718400D02*
D03*
X126500D02*
D03*
Y661900D02*
D03*
X150000D02*
D03*
X197500Y606400D02*
D03*
X150500Y607400D02*
D03*
X127000D02*
D03*
X174000Y606900D02*
D03*
X461000Y410100D02*
D03*
X411500Y368900D02*
D03*
X340000D02*
D03*
X363833D02*
D03*
X387667D02*
D03*
X388500Y194900D02*
D03*
X412000Y194400D02*
D03*
X341500Y195400D02*
D03*
X365000D02*
D03*
X648500Y353400D02*
D03*
X388000Y436100D02*
D03*
X412500Y435600D02*
D03*
X363833Y392100D02*
D03*
X174000Y630100D02*
D03*
X127000Y630600D02*
D03*
X150500D02*
D03*
X197500Y629600D02*
D03*
X523500Y196600D02*
D03*
X547000D02*
D03*
X571000D02*
D03*
X500000D02*
D03*
X341500Y436600D02*
D03*
X388500Y218100D02*
D03*
X412000Y217600D02*
D03*
X341500Y218600D02*
D03*
X365000D02*
D03*
Y435500D02*
D03*
X387667Y392100D02*
D03*
X340000D02*
D03*
X411500D02*
D03*
X720000Y353400D02*
D03*
X672500D02*
D03*
X696500D02*
D03*
X532000Y385900D02*
D03*
X508000D02*
D03*
X461000Y386900D02*
D03*
X484500Y386400D02*
D03*
X619000Y353400D02*
D03*
X126500Y741600D02*
D03*
X150000D02*
D03*
X173500Y741100D02*
D03*
X126500Y685100D02*
D03*
X150000D02*
D03*
X173500Y684600D02*
D03*
X197000Y684100D02*
D03*
X600500Y551900D02*
D03*
X576833D02*
D03*
X553167D02*
D03*
X529500D02*
D03*
D41*
X648000Y754700D02*
D03*
Y710700D02*
D03*
X649500Y665700D02*
D03*
X648000Y621700D02*
D03*
X670500Y552800D02*
D03*
X657000D02*
D03*
X302500Y754200D02*
D03*
Y710200D02*
D03*
Y665700D02*
D03*
Y622500D02*
D03*
X246000Y521200D02*
D03*
Y477200D02*
D03*
Y434200D02*
D03*
Y391200D02*
D03*
X648000Y608300D02*
D03*
X657000Y566200D02*
D03*
X302500Y696800D02*
D03*
X246000Y463800D02*
D03*
X302500Y652300D02*
D03*
X246000Y420800D02*
D03*
X302500Y609100D02*
D03*
X246000Y377800D02*
D03*
Y507800D02*
D03*
X670500Y566200D02*
D03*
X302500Y740800D02*
D03*
X649500Y652300D02*
D03*
X648000Y697300D02*
D03*
Y741300D02*
D03*
D42*
X568700Y755000D02*
D03*
Y741500D02*
D03*
Y709500D02*
D03*
Y697000D02*
D03*
Y651000D02*
D03*
Y665500D02*
D03*
Y620000D02*
D03*
Y607500D02*
D03*
X474200Y755000D02*
D03*
Y741500D02*
D03*
X473700Y696500D02*
D03*
Y710000D02*
D03*
X474700Y665500D02*
D03*
Y652000D02*
D03*
Y620500D02*
D03*
Y607500D02*
D03*
X711200Y458000D02*
D03*
X667200Y457500D02*
D03*
X623200Y458000D02*
D03*
X696200Y288500D02*
D03*
X654200D02*
D03*
X535900Y490000D02*
D03*
X491700D02*
D03*
X574700Y278000D02*
D03*
X531200Y277000D02*
D03*
X484700Y278000D02*
D03*
X389800Y697500D02*
D03*
X389300Y612500D02*
D03*
X402200Y519500D02*
D03*
X358700Y519000D02*
D03*
X385800Y250000D02*
D03*
X339300Y250500D02*
D03*
X259200Y290000D02*
D03*
Y303000D02*
D03*
Y246500D02*
D03*
Y259500D02*
D03*
X259700Y217500D02*
D03*
X259200Y203000D02*
D03*
X258700Y173500D02*
D03*
X259200Y161000D02*
D03*
X555300Y697000D02*
D03*
Y709500D02*
D03*
Y607500D02*
D03*
X461300Y620500D02*
D03*
X697800Y458000D02*
D03*
X653800Y457500D02*
D03*
X609800Y458000D02*
D03*
X555300Y741500D02*
D03*
Y755000D02*
D03*
X682800Y288500D02*
D03*
X640800D02*
D03*
X403200Y697500D02*
D03*
X402700Y612500D02*
D03*
X460800Y741500D02*
D03*
X245800Y303000D02*
D03*
X461300Y652000D02*
D03*
X246300Y217500D02*
D03*
X460300Y696500D02*
D03*
X245800Y259500D02*
D03*
Y246500D02*
D03*
Y203000D02*
D03*
Y161000D02*
D03*
X517800Y277000D02*
D03*
X471300Y278000D02*
D03*
X561300D02*
D03*
X461300Y607500D02*
D03*
X245300Y173500D02*
D03*
X345300Y519000D02*
D03*
X399200Y250000D02*
D03*
X388800Y519500D02*
D03*
X352700Y250500D02*
D03*
X245800Y290000D02*
D03*
X522500Y490000D02*
D03*
X478300D02*
D03*
X460300Y710000D02*
D03*
X461300Y665500D02*
D03*
X460800Y755000D02*
D03*
X555300Y620000D02*
D03*
Y665500D02*
D03*
Y651000D02*
D03*
D43*
X171100Y338000D02*
D03*
X147900D02*
D03*
M02*
